<svg xmlns="http://www.w3.org/2000/svg" width="459" height="303"><rect x="0" y="0" width="100%" height="100%" fill="rgb(63, 144, 77)"  /><g stroke="#000" stroke-opacity="0.02" fill="#ddd" fill-opacity="0.14133333333333334" stroke-width="1" transform="translate(0.0,-38.33333333333333)" ><polyline points="0,0,38.33333333333333,26.066666666666663,38.33333333333333,76.66666666666666,0,50.599999999999994,0,0"  /><polyline points="38.33333333333333,26.066666666666663,76.66666666666666,0,76.66666666666666,50.599999999999994,38.33333333333333,76.66666666666666,38.33333333333333,26.066666666666663"  /></g><g stroke="#000" stroke-opacity="0.02" fill="#ddd" fill-opacity="0.14133333333333334" stroke-width="1" transform="translate(0.0,265.26666666666665)" ><polyline points="0,0,38.33333333333333,26.066666666666663,38.33333333333333,76.66666666666666,0,50.599999999999994,0,0"  /><polyline points="38.33333333333333,26.066666666666663,76.66666666666666,0,76.66666666666666,50.599999999999994,38.33333333333333,76.66666666666666,38.33333333333333,26.066666666666663"  /></g><g stroke="#000" stroke-opacity="0.02" fill="#ddd" fill-opacity="0.08933333333333333" stroke-width="1" transform="translate(76.66666666666666,-38.33333333333333)" ><polyline points="0,0,38.33333333333333,26.066666666666663,38.33333333333333,76.66666666666666,0,50.599999999999994,0,0"  /><polyline points="38.33333333333333,26.066666666666663,76.66666666666666,0,76.66666666666666,50.599999999999994,38.33333333333333,76.66666666666666,38.33333333333333,26.066666666666663"  /></g><g stroke="#000" stroke-opacity="0.02" fill="#ddd" fill-opacity="0.08933333333333333" stroke-width="1" transform="translate(76.66666666666666,265.26666666666665)" ><polyline points="0,0,38.33333333333333,26.066666666666663,38.33333333333333,76.66666666666666,0,50.599999999999994,0,0"  /><polyline points="38.33333333333333,26.066666666666663,76.66666666666666,0,76.66666666666666,50.599999999999994,38.33333333333333,76.66666666666666,38.33333333333333,26.066666666666663"  /></g><g stroke="#000" stroke-opacity="0.02" fill="#222" fill-opacity="0.13266666666666665" stroke-width="1" transform="translate(153.33333333333331,-38.33333333333333)" ><polyline points="0,0,38.33333333333333,26.066666666666663,38.33333333333333,76.66666666666666,0,50.599999999999994,0,0"  /><polyline points="38.33333333333333,26.066666666666663,76.66666666666666,0,76.66666666666666,50.599999999999994,38.33333333333333,76.66666666666666,38.33333333333333,26.066666666666663"  /></g><g stroke="#000" stroke-opacity="0.02" fill="#222" fill-opacity="0.13266666666666665" stroke-width="1" transform="translate(153.33333333333331,265.26666666666665)" ><polyline points="0,0,38.33333333333333,26.066666666666663,38.33333333333333,76.66666666666666,0,50.599999999999994,0,0"  /><polyline points="38.33333333333333,26.066666666666663,76.66666666666666,0,76.66666666666666,50.599999999999994,38.33333333333333,76.66666666666666,38.33333333333333,26.066666666666663"  /></g><g stroke="#000" stroke-opacity="0.02" fill="#222" fill-opacity="0.15" stroke-width="1" transform="translate(229.99999999999997,-38.33333333333333)" ><polyline points="0,0,38.33333333333333,26.066666666666663,38.33333333333333,76.66666666666666,0,50.599999999999994,0,0"  /><polyline points="38.33333333333333,26.066666666666663,76.66666666666666,0,76.66666666666666,50.599999999999994,38.33333333333333,76.66666666666666,38.33333333333333,26.066666666666663"  /></g><g stroke="#000" stroke-opacity="0.02" fill="#222" fill-opacity="0.15" stroke-width="1" transform="translate(229.99999999999997,265.26666666666665)" ><polyline points="0,0,38.33333333333333,26.066666666666663,38.33333333333333,76.66666666666666,0,50.599999999999994,0,0"  /><polyline points="38.33333333333333,26.066666666666663,76.66666666666666,0,76.66666666666666,50.599999999999994,38.33333333333333,76.66666666666666,38.33333333333333,26.066666666666663"  /></g><g stroke="#000" stroke-opacity="0.02" fill="#222" fill-opacity="0.098" stroke-width="1" transform="translate(306.66666666666663,-38.33333333333333)" ><polyline points="0,0,38.33333333333333,26.066666666666663,38.33333333333333,76.66666666666666,0,50.599999999999994,0,0"  /><polyline points="38.33333333333333,26.066666666666663,76.66666666666666,0,76.66666666666666,50.599999999999994,38.33333333333333,76.66666666666666,38.33333333333333,26.066666666666663"  /></g><g stroke="#000" stroke-opacity="0.02" fill="#222" fill-opacity="0.098" stroke-width="1" transform="translate(306.66666666666663,265.26666666666665)" ><polyline points="0,0,38.33333333333333,26.066666666666663,38.33333333333333,76.66666666666666,0,50.599999999999994,0,0"  /><polyline points="38.33333333333333,26.066666666666663,76.66666666666666,0,76.66666666666666,50.599999999999994,38.33333333333333,76.66666666666666,38.33333333333333,26.066666666666663"  /></g><g stroke="#000" stroke-opacity="0.02" fill="#ddd" fill-opacity="0.07200000000000001" stroke-width="1" transform="translate(383.33333333333326,-38.33333333333333)" ><polyline points="0,0,38.33333333333333,26.066666666666663,38.33333333333333,76.66666666666666,0,50.599999999999994,0,0"  /><polyline points="38.33333333333333,26.066666666666663,76.66666666666666,0,76.66666666666666,50.599999999999994,38.33333333333333,76.66666666666666,38.33333333333333,26.066666666666663"  /></g><g stroke="#000" stroke-opacity="0.02" fill="#ddd" fill-opacity="0.07200000000000001" stroke-width="1" transform="translate(383.33333333333326,265.26666666666665)" ><polyline points="0,0,38.33333333333333,26.066666666666663,38.33333333333333,76.66666666666666,0,50.599999999999994,0,0"  /><polyline points="38.33333333333333,26.066666666666663,76.66666666666666,0,76.66666666666666,50.599999999999994,38.33333333333333,76.66666666666666,38.33333333333333,26.066666666666663"  /></g><g stroke="#000" stroke-opacity="0.02" fill="#ddd" fill-opacity="0.07200000000000001" stroke-width="1" transform="translate(0.0,12.266666666666666)" ><polyline points="0,0,38.33333333333333,26.066666666666663,38.33333333333333,76.66666666666666,0,50.599999999999994,0,0"  /><polyline points="38.33333333333333,26.066666666666663,76.66666666666666,0,76.66666666666666,50.599999999999994,38.33333333333333,76.66666666666666,38.33333333333333,26.066666666666663"  /></g><g stroke="#000" stroke-opacity="0.02" fill="#222" fill-opacity="0.08066666666666666" stroke-width="1" transform="translate(76.66666666666666,12.266666666666666)" ><polyline points="0,0,38.33333333333333,26.066666666666663,38.33333333333333,76.66666666666666,0,50.599999999999994,0,0"  /><polyline points="38.33333333333333,26.066666666666663,76.66666666666666,0,76.66666666666666,50.599999999999994,38.33333333333333,76.66666666666666,38.33333333333333,26.066666666666663"  /></g><g stroke="#000" stroke-opacity="0.02" fill="#ddd" fill-opacity="0.07200000000000001" stroke-width="1" transform="translate(153.33333333333331,12.266666666666666)" ><polyline points="0,0,38.33333333333333,26.066666666666663,38.33333333333333,76.66666666666666,0,50.599999999999994,0,0"  /><polyline points="38.33333333333333,26.066666666666663,76.66666666666666,0,76.66666666666666,50.599999999999994,38.33333333333333,76.66666666666666,38.33333333333333,26.066666666666663"  /></g><g stroke="#000" stroke-opacity="0.02" fill="#222" fill-opacity="0.08066666666666666" stroke-width="1" transform="translate(229.99999999999997,12.266666666666666)" ><polyline points="0,0,38.33333333333333,26.066666666666663,38.33333333333333,76.66666666666666,0,50.599999999999994,0,0"  /><polyline points="38.33333333333333,26.066666666666663,76.66666666666666,0,76.66666666666666,50.599999999999994,38.33333333333333,76.66666666666666,38.33333333333333,26.066666666666663"  /></g><g stroke="#000" stroke-opacity="0.02" fill="#222" fill-opacity="0.15" stroke-width="1" transform="translate(306.66666666666663,12.266666666666666)" ><polyline points="0,0,38.33333333333333,26.066666666666663,38.33333333333333,76.66666666666666,0,50.599999999999994,0,0"  /><polyline points="38.33333333333333,26.066666666666663,76.66666666666666,0,76.66666666666666,50.599999999999994,38.33333333333333,76.66666666666666,38.33333333333333,26.066666666666663"  /></g><g stroke="#000" stroke-opacity="0.02" fill="#222" fill-opacity="0.11533333333333334" stroke-width="1" transform="translate(383.33333333333326,12.266666666666666)" ><polyline points="0,0,38.33333333333333,26.066666666666663,38.33333333333333,76.66666666666666,0,50.599999999999994,0,0"  /><polyline points="38.33333333333333,26.066666666666663,76.66666666666666,0,76.66666666666666,50.599999999999994,38.33333333333333,76.66666666666666,38.33333333333333,26.066666666666663"  /></g><g stroke="#000" stroke-opacity="0.02" fill="#222" fill-opacity="0.13266666666666665" stroke-width="1" transform="translate(0.0,62.86666666666666)" ><polyline points="0,0,38.33333333333333,26.066666666666663,38.33333333333333,76.66666666666666,0,50.599999999999994,0,0"  /><polyline points="38.33333333333333,26.066666666666663,76.66666666666666,0,76.66666666666666,50.599999999999994,38.33333333333333,76.66666666666666,38.33333333333333,26.066666666666663"  /></g><g stroke="#000" stroke-opacity="0.02" fill="#222" fill-opacity="0.046" stroke-width="1" transform="translate(76.66666666666666,62.86666666666666)" ><polyline points="0,0,38.33333333333333,26.066666666666663,38.33333333333333,76.66666666666666,0,50.599999999999994,0,0"  /><polyline points="38.33333333333333,26.066666666666663,76.66666666666666,0,76.66666666666666,50.599999999999994,38.33333333333333,76.66666666666666,38.33333333333333,26.066666666666663"  /></g><g stroke="#000" stroke-opacity="0.02" fill="#ddd" fill-opacity="0.10666666666666667" stroke-width="1" transform="translate(153.33333333333331,62.86666666666666)" ><polyline points="0,0,38.33333333333333,26.066666666666663,38.33333333333333,76.66666666666666,0,50.599999999999994,0,0"  /><polyline points="38.33333333333333,26.066666666666663,76.66666666666666,0,76.66666666666666,50.599999999999994,38.33333333333333,76.66666666666666,38.33333333333333,26.066666666666663"  /></g><g stroke="#000" stroke-opacity="0.02" fill="#222" fill-opacity="0.046" stroke-width="1" transform="translate(229.99999999999997,62.86666666666666)" ><polyline points="0,0,38.33333333333333,26.066666666666663,38.33333333333333,76.66666666666666,0,50.599999999999994,0,0"  /><polyline points="38.33333333333333,26.066666666666663,76.66666666666666,0,76.66666666666666,50.599999999999994,38.33333333333333,76.66666666666666,38.33333333333333,26.066666666666663"  /></g><g stroke="#000" stroke-opacity="0.02" fill="#ddd" fill-opacity="0.08933333333333333" stroke-width="1" transform="translate(306.66666666666663,62.86666666666666)" ><polyline points="0,0,38.33333333333333,26.066666666666663,38.33333333333333,76.66666666666666,0,50.599999999999994,0,0"  /><polyline points="38.33333333333333,26.066666666666663,76.66666666666666,0,76.66666666666666,50.599999999999994,38.33333333333333,76.66666666666666,38.33333333333333,26.066666666666663"  /></g><g stroke="#000" stroke-opacity="0.02" fill="#222" fill-opacity="0.046" stroke-width="1" transform="translate(383.33333333333326,62.86666666666666)" ><polyline points="0,0,38.33333333333333,26.066666666666663,38.33333333333333,76.66666666666666,0,50.599999999999994,0,0"  /><polyline points="38.33333333333333,26.066666666666663,76.66666666666666,0,76.66666666666666,50.599999999999994,38.33333333333333,76.66666666666666,38.33333333333333,26.066666666666663"  /></g><g stroke="#000" stroke-opacity="0.02" fill="#ddd" fill-opacity="0.12400000000000001" stroke-width="1" transform="translate(0.0,113.46666666666665)" ><polyline points="0,0,38.33333333333333,26.066666666666663,38.33333333333333,76.66666666666666,0,50.599999999999994,0,0"  /><polyline points="38.33333333333333,26.066666666666663,76.66666666666666,0,76.66666666666666,50.599999999999994,38.33333333333333,76.66666666666666,38.33333333333333,26.066666666666663"  /></g><g stroke="#000" stroke-opacity="0.02" fill="#222" fill-opacity="0.06333333333333334" stroke-width="1" transform="translate(76.66666666666666,113.46666666666665)" ><polyline points="0,0,38.33333333333333,26.066666666666663,38.33333333333333,76.66666666666666,0,50.599999999999994,0,0"  /><polyline points="38.33333333333333,26.066666666666663,76.66666666666666,0,76.66666666666666,50.599999999999994,38.33333333333333,76.66666666666666,38.33333333333333,26.066666666666663"  /></g><g stroke="#000" stroke-opacity="0.02" fill="#222" fill-opacity="0.046" stroke-width="1" transform="translate(153.33333333333331,113.46666666666665)" ><polyline points="0,0,38.33333333333333,26.066666666666663,38.33333333333333,76.66666666666666,0,50.599999999999994,0,0"  /><polyline points="38.33333333333333,26.066666666666663,76.66666666666666,0,76.66666666666666,50.599999999999994,38.33333333333333,76.66666666666666,38.33333333333333,26.066666666666663"  /></g><g stroke="#000" stroke-opacity="0.02" fill="#ddd" fill-opacity="0.03733333333333333" stroke-width="1" transform="translate(229.99999999999997,113.46666666666665)" ><polyline points="0,0,38.33333333333333,26.066666666666663,38.33333333333333,76.66666666666666,0,50.599999999999994,0,0"  /><polyline points="38.33333333333333,26.066666666666663,76.66666666666666,0,76.66666666666666,50.599999999999994,38.33333333333333,76.66666666666666,38.33333333333333,26.066666666666663"  /></g><g stroke="#000" stroke-opacity="0.02" fill="#222" fill-opacity="0.028666666666666667" stroke-width="1" transform="translate(306.66666666666663,113.46666666666665)" ><polyline points="0,0,38.33333333333333,26.066666666666663,38.33333333333333,76.66666666666666,0,50.599999999999994,0,0"  /><polyline points="38.33333333333333,26.066666666666663,76.66666666666666,0,76.66666666666666,50.599999999999994,38.33333333333333,76.66666666666666,38.33333333333333,26.066666666666663"  /></g><g stroke="#000" stroke-opacity="0.02" fill="#ddd" fill-opacity="0.07200000000000001" stroke-width="1" transform="translate(383.33333333333326,113.46666666666665)" ><polyline points="0,0,38.33333333333333,26.066666666666663,38.33333333333333,76.66666666666666,0,50.599999999999994,0,0"  /><polyline points="38.33333333333333,26.066666666666663,76.66666666666666,0,76.66666666666666,50.599999999999994,38.33333333333333,76.66666666666666,38.33333333333333,26.066666666666663"  /></g><g stroke="#000" stroke-opacity="0.02" fill="#222" fill-opacity="0.08066666666666666" stroke-width="1" transform="translate(0.0,164.06666666666666)" ><polyline points="0,0,38.33333333333333,26.066666666666663,38.33333333333333,76.66666666666666,0,50.599999999999994,0,0"  /><polyline points="38.33333333333333,26.066666666666663,76.66666666666666,0,76.66666666666666,50.599999999999994,38.33333333333333,76.66666666666666,38.33333333333333,26.066666666666663"  /></g><g stroke="#000" stroke-opacity="0.02" fill="#222" fill-opacity="0.098" stroke-width="1" transform="translate(76.66666666666666,164.06666666666666)" ><polyline points="0,0,38.33333333333333,26.066666666666663,38.33333333333333,76.66666666666666,0,50.599999999999994,0,0"  /><polyline points="38.33333333333333,26.066666666666663,76.66666666666666,0,76.66666666666666,50.599999999999994,38.33333333333333,76.66666666666666,38.33333333333333,26.066666666666663"  /></g><g stroke="#000" stroke-opacity="0.02" fill="#222" fill-opacity="0.098" stroke-width="1" transform="translate(153.33333333333331,164.06666666666666)" ><polyline points="0,0,38.33333333333333,26.066666666666663,38.33333333333333,76.66666666666666,0,50.599999999999994,0,0"  /><polyline points="38.33333333333333,26.066666666666663,76.66666666666666,0,76.66666666666666,50.599999999999994,38.33333333333333,76.66666666666666,38.33333333333333,26.066666666666663"  /></g><g stroke="#000" stroke-opacity="0.02" fill="#222" fill-opacity="0.11533333333333334" stroke-width="1" transform="translate(229.99999999999997,164.06666666666666)" ><polyline points="0,0,38.33333333333333,26.066666666666663,38.33333333333333,76.66666666666666,0,50.599999999999994,0,0"  /><polyline points="38.33333333333333,26.066666666666663,76.66666666666666,0,76.66666666666666,50.599999999999994,38.33333333333333,76.66666666666666,38.33333333333333,26.066666666666663"  /></g><g stroke="#000" stroke-opacity="0.02" fill="#ddd" fill-opacity="0.14133333333333334" stroke-width="1" transform="translate(306.66666666666663,164.06666666666666)" ><polyline points="0,0,38.33333333333333,26.066666666666663,38.33333333333333,76.66666666666666,0,50.599999999999994,0,0"  /><polyline points="38.33333333333333,26.066666666666663,76.66666666666666,0,76.66666666666666,50.599999999999994,38.33333333333333,76.66666666666666,38.33333333333333,26.066666666666663"  /></g><g stroke="#000" stroke-opacity="0.02" fill="#222" fill-opacity="0.11533333333333334" stroke-width="1" transform="translate(383.33333333333326,164.06666666666666)" ><polyline points="0,0,38.33333333333333,26.066666666666663,38.33333333333333,76.66666666666666,0,50.599999999999994,0,0"  /><polyline points="38.33333333333333,26.066666666666663,76.66666666666666,0,76.66666666666666,50.599999999999994,38.33333333333333,76.66666666666666,38.33333333333333,26.066666666666663"  /></g><g stroke="#000" stroke-opacity="0.02" fill="#ddd" fill-opacity="0.05466666666666667" stroke-width="1" transform="translate(0.0,214.66666666666663)" ><polyline points="0,0,38.33333333333333,26.066666666666663,38.33333333333333,76.66666666666666,0,50.599999999999994,0,0"  /><polyline points="38.33333333333333,26.066666666666663,76.66666666666666,0,76.66666666666666,50.599999999999994,38.33333333333333,76.66666666666666,38.33333333333333,26.066666666666663"  /></g><g stroke="#000" stroke-opacity="0.02" fill="#222" fill-opacity="0.11533333333333334" stroke-width="1" transform="translate(76.66666666666666,214.66666666666663)" ><polyline points="0,0,38.33333333333333,26.066666666666663,38.33333333333333,76.66666666666666,0,50.599999999999994,0,0"  /><polyline points="38.33333333333333,26.066666666666663,76.66666666666666,0,76.66666666666666,50.599999999999994,38.33333333333333,76.66666666666666,38.33333333333333,26.066666666666663"  /></g><g stroke="#000" stroke-opacity="0.02" fill="#ddd" fill-opacity="0.05466666666666667" stroke-width="1" transform="translate(153.33333333333331,214.66666666666663)" ><polyline points="0,0,38.33333333333333,26.066666666666663,38.33333333333333,76.66666666666666,0,50.599999999999994,0,0"  /><polyline points="38.33333333333333,26.066666666666663,76.66666666666666,0,76.66666666666666,50.599999999999994,38.33333333333333,76.66666666666666,38.33333333333333,26.066666666666663"  /></g><g stroke="#000" stroke-opacity="0.02" fill="#222" fill-opacity="0.06333333333333334" stroke-width="1" transform="translate(229.99999999999997,214.66666666666663)" ><polyline points="0,0,38.33333333333333,26.066666666666663,38.33333333333333,76.66666666666666,0,50.599999999999994,0,0"  /><polyline points="38.33333333333333,26.066666666666663,76.66666666666666,0,76.66666666666666,50.599999999999994,38.33333333333333,76.66666666666666,38.33333333333333,26.066666666666663"  /></g><g stroke="#000" stroke-opacity="0.02" fill="#ddd" fill-opacity="0.07200000000000001" stroke-width="1" transform="translate(306.66666666666663,214.66666666666663)" ><polyline points="0,0,38.33333333333333,26.066666666666663,38.33333333333333,76.66666666666666,0,50.599999999999994,0,0"  /><polyline points="38.33333333333333,26.066666666666663,76.66666666666666,0,76.66666666666666,50.599999999999994,38.33333333333333,76.66666666666666,38.33333333333333,26.066666666666663"  /></g><g stroke="#000" stroke-opacity="0.02" fill="#ddd" fill-opacity="0.05466666666666667" stroke-width="1" transform="translate(383.33333333333326,214.66666666666663)" ><polyline points="0,0,38.33333333333333,26.066666666666663,38.33333333333333,76.66666666666666,0,50.599999999999994,0,0"  /><polyline points="38.33333333333333,26.066666666666663,76.66666666666666,0,76.66666666666666,50.599999999999994,38.33333333333333,76.66666666666666,38.33333333333333,26.066666666666663"  /></g></svg>