<svg xmlns="http://www.w3.org/2000/svg" width="100" height="100"><rect x="0" y="0" width="100%" height="100%" fill="rgb(58, 149, 118)"  /><polyline points="10.333333333333332, 0, 20.666666666666664, 25.0, 10.333333333333332, 50.0, 0, 25.0" fill="#ddd" fill-opacity="0.05466666666666667" stroke="#000" stroke-opacity="0.02" transform="translate(-10.333333333333332, -25.0)"  /><polyline points="10.333333333333332, 0, 20.666666666666664, 25.0, 10.333333333333332, 50.0, 0, 25.0" fill="#ddd" fill-opacity="0.05466666666666667" stroke="#000" stroke-opacity="0.02" transform="translate(113.66666666666666, -25.0)"  /><polyline points="10.333333333333332, 0, 20.666666666666664, 25.0, 10.333333333333332, 50.0, 0, 25.0" fill="#ddd" fill-opacity="0.05466666666666667" stroke="#000" stroke-opacity="0.02" transform="translate(-10.333333333333332, 125.0)"  /><polyline points="10.333333333333332, 0, 20.666666666666664, 25.0, 10.333333333333332, 50.0, 0, 25.0" fill="#ddd" fill-opacity="0.05466666666666667" stroke="#000" stroke-opacity="0.02" transform="translate(113.66666666666666, 125.0)"  /><polyline points="10.333333333333332, 0, 20.666666666666664, 25.0, 10.333333333333332, 50.0, 0, 25.0" fill="#222" fill-opacity="0.15" stroke="#000" stroke-opacity="0.02" transform="translate(10.333333333333332, -25.0)"  /><polyline points="10.333333333333332, 0, 20.666666666666664, 25.0, 10.333333333333332, 50.0, 0, 25.0" fill="#222" fill-opacity="0.15" stroke="#000" stroke-opacity="0.02" transform="translate(10.333333333333332, 125.0)"  /><polyline points="10.333333333333332, 0, 20.666666666666664, 25.0, 10.333333333333332, 50.0, 0, 25.0" fill="#ddd" fill-opacity="0.05466666666666667" stroke="#000" stroke-opacity="0.02" transform="translate(30.999999999999996, -25.0)"  /><polyline points="10.333333333333332, 0, 20.666666666666664, 25.0, 10.333333333333332, 50.0, 0, 25.0" fill="#ddd" fill-opacity="0.05466666666666667" stroke="#000" stroke-opacity="0.02" transform="translate(30.999999999999996, 125.0)"  /><polyline points="10.333333333333332, 0, 20.666666666666664, 25.0, 10.333333333333332, 50.0, 0, 25.0" fill="#222" fill-opacity="0.11533333333333334" stroke="#000" stroke-opacity="0.02" transform="translate(51.66666666666666, -25.0)"  /><polyline points="10.333333333333332, 0, 20.666666666666664, 25.0, 10.333333333333332, 50.0, 0, 25.0" fill="#222" fill-opacity="0.11533333333333334" stroke="#000" stroke-opacity="0.02" transform="translate(51.66666666666666, 125.0)"  /><polyline points="10.333333333333332, 0, 20.666666666666664, 25.0, 10.333333333333332, 50.0, 0, 25.0" fill="#222" fill-opacity="0.098" stroke="#000" stroke-opacity="0.02" transform="translate(72.33333333333333, -25.0)"  /><polyline points="10.333333333333332, 0, 20.666666666666664, 25.0, 10.333333333333332, 50.0, 0, 25.0" fill="#222" fill-opacity="0.098" stroke="#000" stroke-opacity="0.02" transform="translate(72.33333333333333, 125.0)"  /><polyline points="10.333333333333332, 0, 20.666666666666664, 25.0, 10.333333333333332, 50.0, 0, 25.0" fill="#ddd" fill-opacity="0.05466666666666667" stroke="#000" stroke-opacity="0.02" transform="translate(92.99999999999999, -25.0)"  /><polyline points="10.333333333333332, 0, 20.666666666666664, 25.0, 10.333333333333332, 50.0, 0, 25.0" fill="#ddd" fill-opacity="0.05466666666666667" stroke="#000" stroke-opacity="0.02" transform="translate(92.99999999999999, 125.0)"  /><polyline points="10.333333333333332, 0, 20.666666666666664, 25.0, 10.333333333333332, 50.0, 0, 25.0" fill="#222" fill-opacity="0.046" stroke="#000" stroke-opacity="0.02" transform="translate(0.0, 0.0)"  /><polyline points="10.333333333333332, 0, 20.666666666666664, 25.0, 10.333333333333332, 50.0, 0, 25.0" fill="#222" fill-opacity="0.046" stroke="#000" stroke-opacity="0.02" transform="translate(123.99999999999999, 0.0)"  /><polyline points="10.333333333333332, 0, 20.666666666666664, 25.0, 10.333333333333332, 50.0, 0, 25.0" fill="#ddd" fill-opacity="0.10666666666666667" stroke="#000" stroke-opacity="0.02" transform="translate(20.666666666666664, 0.0)"  /><polyline points="10.333333333333332, 0, 20.666666666666664, 25.0, 10.333333333333332, 50.0, 0, 25.0" fill="#222" fill-opacity="0.06333333333333334" stroke="#000" stroke-opacity="0.02" transform="translate(41.33333333333333, 0.0)"  /><polyline points="10.333333333333332, 0, 20.666666666666664, 25.0, 10.333333333333332, 50.0, 0, 25.0" fill="#222" fill-opacity="0.13266666666666665" stroke="#000" stroke-opacity="0.02" transform="translate(61.999999999999986, 0.0)"  /><polyline points="10.333333333333332, 0, 20.666666666666664, 25.0, 10.333333333333332, 50.0, 0, 25.0" fill="#222" fill-opacity="0.098" stroke="#000" stroke-opacity="0.02" transform="translate(82.66666666666666, 0.0)"  /><polyline points="10.333333333333332, 0, 20.666666666666664, 25.0, 10.333333333333332, 50.0, 0, 25.0" fill="#222" fill-opacity="0.13266666666666665" stroke="#000" stroke-opacity="0.02" transform="translate(103.33333333333331, 0.0)"  /><polyline points="10.333333333333332, 0, 20.666666666666664, 25.0, 10.333333333333332, 50.0, 0, 25.0" fill="#222" fill-opacity="0.11533333333333334" stroke="#000" stroke-opacity="0.02" transform="translate(-10.333333333333332, 25.0)"  /><polyline points="10.333333333333332, 0, 20.666666666666664, 25.0, 10.333333333333332, 50.0, 0, 25.0" fill="#222" fill-opacity="0.11533333333333334" stroke="#000" stroke-opacity="0.02" transform="translate(113.66666666666666, 25.0)"  /><polyline points="10.333333333333332, 0, 20.666666666666664, 25.0, 10.333333333333332, 50.0, 0, 25.0" fill="#ddd" fill-opacity="0.10666666666666667" stroke="#000" stroke-opacity="0.02" transform="translate(10.333333333333332, 25.0)"  /><polyline points="10.333333333333332, 0, 20.666666666666664, 25.0, 10.333333333333332, 50.0, 0, 25.0" fill="#ddd" fill-opacity="0.08933333333333333" stroke="#000" stroke-opacity="0.02" transform="translate(30.999999999999996, 25.0)"  /><polyline points="10.333333333333332, 0, 20.666666666666664, 25.0, 10.333333333333332, 50.0, 0, 25.0" fill="#ddd" fill-opacity="0.14133333333333334" stroke="#000" stroke-opacity="0.02" transform="translate(51.66666666666666, 25.0)"  /><polyline points="10.333333333333332, 0, 20.666666666666664, 25.0, 10.333333333333332, 50.0, 0, 25.0" fill="#ddd" fill-opacity="0.12400000000000001" stroke="#000" stroke-opacity="0.02" transform="translate(72.33333333333333, 25.0)"  /><polyline points="10.333333333333332, 0, 20.666666666666664, 25.0, 10.333333333333332, 50.0, 0, 25.0" fill="#ddd" fill-opacity="0.03733333333333333" stroke="#000" stroke-opacity="0.02" transform="translate(92.99999999999999, 25.0)"  /><polyline points="10.333333333333332, 0, 20.666666666666664, 25.0, 10.333333333333332, 50.0, 0, 25.0" fill="#222" fill-opacity="0.11533333333333334" stroke="#000" stroke-opacity="0.02" transform="translate(0.0, 50.0)"  /><polyline points="10.333333333333332, 0, 20.666666666666664, 25.0, 10.333333333333332, 50.0, 0, 25.0" fill="#222" fill-opacity="0.11533333333333334" stroke="#000" stroke-opacity="0.02" transform="translate(123.99999999999999, 50.0)"  /><polyline points="10.333333333333332, 0, 20.666666666666664, 25.0, 10.333333333333332, 50.0, 0, 25.0" fill="#222" fill-opacity="0.08066666666666666" stroke="#000" stroke-opacity="0.02" transform="translate(20.666666666666664, 50.0)"  /><polyline points="10.333333333333332, 0, 20.666666666666664, 25.0, 10.333333333333332, 50.0, 0, 25.0" fill="#222" fill-opacity="0.098" stroke="#000" stroke-opacity="0.02" transform="translate(41.33333333333333, 50.0)"  /><polyline points="10.333333333333332, 0, 20.666666666666664, 25.0, 10.333333333333332, 50.0, 0, 25.0" fill="#ddd" fill-opacity="0.12400000000000001" stroke="#000" stroke-opacity="0.02" transform="translate(61.999999999999986, 50.0)"  /><polyline points="10.333333333333332, 0, 20.666666666666664, 25.0, 10.333333333333332, 50.0, 0, 25.0" fill="#222" fill-opacity="0.08066666666666666" stroke="#000" stroke-opacity="0.02" transform="translate(82.66666666666666, 50.0)"  /><polyline points="10.333333333333332, 0, 20.666666666666664, 25.0, 10.333333333333332, 50.0, 0, 25.0" fill="#222" fill-opacity="0.046" stroke="#000" stroke-opacity="0.02" transform="translate(103.33333333333331, 50.0)"  /><polyline points="10.333333333333332, 0, 20.666666666666664, 25.0, 10.333333333333332, 50.0, 0, 25.0" fill="#ddd" fill-opacity="0.12400000000000001" stroke="#000" stroke-opacity="0.02" transform="translate(-10.333333333333332, 75.0)"  /><polyline points="10.333333333333332, 0, 20.666666666666664, 25.0, 10.333333333333332, 50.0, 0, 25.0" fill="#ddd" fill-opacity="0.12400000000000001" stroke="#000" stroke-opacity="0.02" transform="translate(113.66666666666666, 75.0)"  /><polyline points="10.333333333333332, 0, 20.666666666666664, 25.0, 10.333333333333332, 50.0, 0, 25.0" fill="#222" fill-opacity="0.11533333333333334" stroke="#000" stroke-opacity="0.02" transform="translate(10.333333333333332, 75.0)"  /><polyline points="10.333333333333332, 0, 20.666666666666664, 25.0, 10.333333333333332, 50.0, 0, 25.0" fill="#222" fill-opacity="0.08066666666666666" stroke="#000" stroke-opacity="0.02" transform="translate(30.999999999999996, 75.0)"  /><polyline points="10.333333333333332, 0, 20.666666666666664, 25.0, 10.333333333333332, 50.0, 0, 25.0" fill="#ddd" fill-opacity="0.07200000000000001" stroke="#000" stroke-opacity="0.02" transform="translate(51.66666666666666, 75.0)"  /><polyline points="10.333333333333332, 0, 20.666666666666664, 25.0, 10.333333333333332, 50.0, 0, 25.0" fill="#222" fill-opacity="0.15" stroke="#000" stroke-opacity="0.02" transform="translate(72.33333333333333, 75.0)"  /><polyline points="10.333333333333332, 0, 20.666666666666664, 25.0, 10.333333333333332, 50.0, 0, 25.0" fill="#ddd" fill-opacity="0.10666666666666667" stroke="#000" stroke-opacity="0.02" transform="translate(92.99999999999999, 75.0)"  /><polyline points="10.333333333333332, 0, 20.666666666666664, 25.0, 10.333333333333332, 50.0, 0, 25.0" fill="#222" fill-opacity="0.08066666666666666" stroke="#000" stroke-opacity="0.02" transform="translate(0.0, 100.0)"  /><polyline points="10.333333333333332, 0, 20.666666666666664, 25.0, 10.333333333333332, 50.0, 0, 25.0" fill="#222" fill-opacity="0.08066666666666666" stroke="#000" stroke-opacity="0.02" transform="translate(123.99999999999999, 100.0)"  /><polyline points="10.333333333333332, 0, 20.666666666666664, 25.0, 10.333333333333332, 50.0, 0, 25.0" fill="#222" fill-opacity="0.08066666666666666" stroke="#000" stroke-opacity="0.02" transform="translate(20.666666666666664, 100.0)"  /><polyline points="10.333333333333332, 0, 20.666666666666664, 25.0, 10.333333333333332, 50.0, 0, 25.0" fill="#222" fill-opacity="0.028666666666666667" stroke="#000" stroke-opacity="0.02" transform="translate(41.33333333333333, 100.0)"  /><polyline points="10.333333333333332, 0, 20.666666666666664, 25.0, 10.333333333333332, 50.0, 0, 25.0" fill="#222" fill-opacity="0.028666666666666667" stroke="#000" stroke-opacity="0.02" transform="translate(61.999999999999986, 100.0)"  /><polyline points="10.333333333333332, 0, 20.666666666666664, 25.0, 10.333333333333332, 50.0, 0, 25.0" fill="#ddd" fill-opacity="0.03733333333333333" stroke="#000" stroke-opacity="0.02" transform="translate(82.66666666666666, 100.0)"  /><polyline points="10.333333333333332, 0, 20.666666666666664, 25.0, 10.333333333333332, 50.0, 0, 25.0" fill="#222" fill-opacity="0.08066666666666666" stroke="#000" stroke-opacity="0.02" transform="translate(103.33333333333331, 100.0)"  /></svg>