<svg xmlns="http://www.w3.org/2000/svg" width="284" height="94"><rect x="0" y="0" width="100%" height="100%" fill="rgb(0, 255, 0)"  /><polyline points="23.666666666666668, 0, 47.333333333333336, 15.666666666666666, 23.666666666666668, 31.333333333333332, 0, 15.666666666666666" fill="#ddd" fill-opacity="0.14133333333333334" stroke="#000" stroke-opacity="0.02" transform="translate(-23.666666666666668, -15.666666666666666)"  /><polyline points="23.666666666666668, 0, 47.333333333333336, 15.666666666666666, 23.666666666666668, 31.333333333333332, 0, 15.666666666666666" fill="#ddd" fill-opacity="0.14133333333333334" stroke="#000" stroke-opacity="0.02" transform="translate(260.3333333333333, -15.666666666666666)"  /><polyline points="23.666666666666668, 0, 47.333333333333336, 15.666666666666666, 23.666666666666668, 31.333333333333332, 0, 15.666666666666666" fill="#ddd" fill-opacity="0.14133333333333334" stroke="#000" stroke-opacity="0.02" transform="translate(-23.666666666666668, 78.33333333333333)"  /><polyline points="23.666666666666668, 0, 47.333333333333336, 15.666666666666666, 23.666666666666668, 31.333333333333332, 0, 15.666666666666666" fill="#ddd" fill-opacity="0.14133333333333334" stroke="#000" stroke-opacity="0.02" transform="translate(260.3333333333333, 78.33333333333333)"  /><polyline points="23.666666666666668, 0, 47.333333333333336, 15.666666666666666, 23.666666666666668, 31.333333333333332, 0, 15.666666666666666" fill="#ddd" fill-opacity="0.08933333333333333" stroke="#000" stroke-opacity="0.02" transform="translate(23.666666666666668, -15.666666666666666)"  /><polyline points="23.666666666666668, 0, 47.333333333333336, 15.666666666666666, 23.666666666666668, 31.333333333333332, 0, 15.666666666666666" fill="#ddd" fill-opacity="0.08933333333333333" stroke="#000" stroke-opacity="0.02" transform="translate(23.666666666666668, 78.33333333333333)"  /><polyline points="23.666666666666668, 0, 47.333333333333336, 15.666666666666666, 23.666666666666668, 31.333333333333332, 0, 15.666666666666666" fill="#222" fill-opacity="0.13266666666666665" stroke="#000" stroke-opacity="0.02" transform="translate(71.0, -15.666666666666666)"  /><polyline points="23.666666666666668, 0, 47.333333333333336, 15.666666666666666, 23.666666666666668, 31.333333333333332, 0, 15.666666666666666" fill="#222" fill-opacity="0.13266666666666665" stroke="#000" stroke-opacity="0.02" transform="translate(71.0, 78.33333333333333)"  /><polyline points="23.666666666666668, 0, 47.333333333333336, 15.666666666666666, 23.666666666666668, 31.333333333333332, 0, 15.666666666666666" fill="#222" fill-opacity="0.15" stroke="#000" stroke-opacity="0.02" transform="translate(118.33333333333333, -15.666666666666666)"  /><polyline points="23.666666666666668, 0, 47.333333333333336, 15.666666666666666, 23.666666666666668, 31.333333333333332, 0, 15.666666666666666" fill="#222" fill-opacity="0.15" stroke="#000" stroke-opacity="0.02" transform="translate(118.33333333333333, 78.33333333333333)"  /><polyline points="23.666666666666668, 0, 47.333333333333336, 15.666666666666666, 23.666666666666668, 31.333333333333332, 0, 15.666666666666666" fill="#222" fill-opacity="0.098" stroke="#000" stroke-opacity="0.02" transform="translate(165.66666666666669, -15.666666666666666)"  /><polyline points="23.666666666666668, 0, 47.333333333333336, 15.666666666666666, 23.666666666666668, 31.333333333333332, 0, 15.666666666666666" fill="#222" fill-opacity="0.098" stroke="#000" stroke-opacity="0.02" transform="translate(165.66666666666669, 78.33333333333333)"  /><polyline points="23.666666666666668, 0, 47.333333333333336, 15.666666666666666, 23.666666666666668, 31.333333333333332, 0, 15.666666666666666" fill="#ddd" fill-opacity="0.07200000000000001" stroke="#000" stroke-opacity="0.02" transform="translate(213.00000000000003, -15.666666666666666)"  /><polyline points="23.666666666666668, 0, 47.333333333333336, 15.666666666666666, 23.666666666666668, 31.333333333333332, 0, 15.666666666666666" fill="#ddd" fill-opacity="0.07200000000000001" stroke="#000" stroke-opacity="0.02" transform="translate(213.00000000000003, 78.33333333333333)"  /><polyline points="23.666666666666668, 0, 47.333333333333336, 15.666666666666666, 23.666666666666668, 31.333333333333332, 0, 15.666666666666666" fill="#ddd" fill-opacity="0.07200000000000001" stroke="#000" stroke-opacity="0.02" transform="translate(0.0, 0.0)"  /><polyline points="23.666666666666668, 0, 47.333333333333336, 15.666666666666666, 23.666666666666668, 31.333333333333332, 0, 15.666666666666666" fill="#ddd" fill-opacity="0.07200000000000001" stroke="#000" stroke-opacity="0.02" transform="translate(284.0, 0.0)"  /><polyline points="23.666666666666668, 0, 47.333333333333336, 15.666666666666666, 23.666666666666668, 31.333333333333332, 0, 15.666666666666666" fill="#222" fill-opacity="0.08066666666666666" stroke="#000" stroke-opacity="0.02" transform="translate(47.333333333333336, 0.0)"  /><polyline points="23.666666666666668, 0, 47.333333333333336, 15.666666666666666, 23.666666666666668, 31.333333333333332, 0, 15.666666666666666" fill="#ddd" fill-opacity="0.07200000000000001" stroke="#000" stroke-opacity="0.02" transform="translate(94.66666666666667, 0.0)"  /><polyline points="23.666666666666668, 0, 47.333333333333336, 15.666666666666666, 23.666666666666668, 31.333333333333332, 0, 15.666666666666666" fill="#222" fill-opacity="0.08066666666666666" stroke="#000" stroke-opacity="0.02" transform="translate(142.0, 0.0)"  /><polyline points="23.666666666666668, 0, 47.333333333333336, 15.666666666666666, 23.666666666666668, 31.333333333333332, 0, 15.666666666666666" fill="#222" fill-opacity="0.15" stroke="#000" stroke-opacity="0.02" transform="translate(189.33333333333334, 0.0)"  /><polyline points="23.666666666666668, 0, 47.333333333333336, 15.666666666666666, 23.666666666666668, 31.333333333333332, 0, 15.666666666666666" fill="#222" fill-opacity="0.11533333333333334" stroke="#000" stroke-opacity="0.02" transform="translate(236.66666666666669, 0.0)"  /><polyline points="23.666666666666668, 0, 47.333333333333336, 15.666666666666666, 23.666666666666668, 31.333333333333332, 0, 15.666666666666666" fill="#222" fill-opacity="0.13266666666666665" stroke="#000" stroke-opacity="0.02" transform="translate(-23.666666666666668, 15.666666666666666)"  /><polyline points="23.666666666666668, 0, 47.333333333333336, 15.666666666666666, 23.666666666666668, 31.333333333333332, 0, 15.666666666666666" fill="#222" fill-opacity="0.13266666666666665" stroke="#000" stroke-opacity="0.02" transform="translate(260.3333333333333, 15.666666666666666)"  /><polyline points="23.666666666666668, 0, 47.333333333333336, 15.666666666666666, 23.666666666666668, 31.333333333333332, 0, 15.666666666666666" fill="#222" fill-opacity="0.046" stroke="#000" stroke-opacity="0.02" transform="translate(23.666666666666668, 15.666666666666666)"  /><polyline points="23.666666666666668, 0, 47.333333333333336, 15.666666666666666, 23.666666666666668, 31.333333333333332, 0, 15.666666666666666" fill="#ddd" fill-opacity="0.10666666666666667" stroke="#000" stroke-opacity="0.02" transform="translate(71.0, 15.666666666666666)"  /><polyline points="23.666666666666668, 0, 47.333333333333336, 15.666666666666666, 23.666666666666668, 31.333333333333332, 0, 15.666666666666666" fill="#222" fill-opacity="0.046" stroke="#000" stroke-opacity="0.02" transform="translate(118.33333333333333, 15.666666666666666)"  /><polyline points="23.666666666666668, 0, 47.333333333333336, 15.666666666666666, 23.666666666666668, 31.333333333333332, 0, 15.666666666666666" fill="#ddd" fill-opacity="0.08933333333333333" stroke="#000" stroke-opacity="0.02" transform="translate(165.66666666666669, 15.666666666666666)"  /><polyline points="23.666666666666668, 0, 47.333333333333336, 15.666666666666666, 23.666666666666668, 31.333333333333332, 0, 15.666666666666666" fill="#222" fill-opacity="0.046" stroke="#000" stroke-opacity="0.02" transform="translate(213.00000000000003, 15.666666666666666)"  /><polyline points="23.666666666666668, 0, 47.333333333333336, 15.666666666666666, 23.666666666666668, 31.333333333333332, 0, 15.666666666666666" fill="#ddd" fill-opacity="0.12400000000000001" stroke="#000" stroke-opacity="0.02" transform="translate(0.0, 31.333333333333336)"  /><polyline points="23.666666666666668, 0, 47.333333333333336, 15.666666666666666, 23.666666666666668, 31.333333333333332, 0, 15.666666666666666" fill="#ddd" fill-opacity="0.12400000000000001" stroke="#000" stroke-opacity="0.02" transform="translate(284.0, 31.333333333333336)"  /><polyline points="23.666666666666668, 0, 47.333333333333336, 15.666666666666666, 23.666666666666668, 31.333333333333332, 0, 15.666666666666666" fill="#222" fill-opacity="0.06333333333333334" stroke="#000" stroke-opacity="0.02" transform="translate(47.333333333333336, 31.333333333333336)"  /><polyline points="23.666666666666668, 0, 47.333333333333336, 15.666666666666666, 23.666666666666668, 31.333333333333332, 0, 15.666666666666666" fill="#222" fill-opacity="0.046" stroke="#000" stroke-opacity="0.02" transform="translate(94.66666666666667, 31.333333333333336)"  /><polyline points="23.666666666666668, 0, 47.333333333333336, 15.666666666666666, 23.666666666666668, 31.333333333333332, 0, 15.666666666666666" fill="#ddd" fill-opacity="0.03733333333333333" stroke="#000" stroke-opacity="0.02" transform="translate(142.0, 31.333333333333336)"  /><polyline points="23.666666666666668, 0, 47.333333333333336, 15.666666666666666, 23.666666666666668, 31.333333333333332, 0, 15.666666666666666" fill="#222" fill-opacity="0.028666666666666667" stroke="#000" stroke-opacity="0.02" transform="translate(189.33333333333334, 31.333333333333336)"  /><polyline points="23.666666666666668, 0, 47.333333333333336, 15.666666666666666, 23.666666666666668, 31.333333333333332, 0, 15.666666666666666" fill="#ddd" fill-opacity="0.07200000000000001" stroke="#000" stroke-opacity="0.02" transform="translate(236.66666666666669, 31.333333333333336)"  /><polyline points="23.666666666666668, 0, 47.333333333333336, 15.666666666666666, 23.666666666666668, 31.333333333333332, 0, 15.666666666666666" fill="#222" fill-opacity="0.08066666666666666" stroke="#000" stroke-opacity="0.02" transform="translate(-23.666666666666668, 47.0)"  /><polyline points="23.666666666666668, 0, 47.333333333333336, 15.666666666666666, 23.666666666666668, 31.333333333333332, 0, 15.666666666666666" fill="#222" fill-opacity="0.08066666666666666" stroke="#000" stroke-opacity="0.02" transform="translate(260.3333333333333, 47.0)"  /><polyline points="23.666666666666668, 0, 47.333333333333336, 15.666666666666666, 23.666666666666668, 31.333333333333332, 0, 15.666666666666666" fill="#222" fill-opacity="0.098" stroke="#000" stroke-opacity="0.02" transform="translate(23.666666666666668, 47.0)"  /><polyline points="23.666666666666668, 0, 47.333333333333336, 15.666666666666666, 23.666666666666668, 31.333333333333332, 0, 15.666666666666666" fill="#222" fill-opacity="0.098" stroke="#000" stroke-opacity="0.02" transform="translate(71.0, 47.0)"  /><polyline points="23.666666666666668, 0, 47.333333333333336, 15.666666666666666, 23.666666666666668, 31.333333333333332, 0, 15.666666666666666" fill="#222" fill-opacity="0.11533333333333334" stroke="#000" stroke-opacity="0.02" transform="translate(118.33333333333333, 47.0)"  /><polyline points="23.666666666666668, 0, 47.333333333333336, 15.666666666666666, 23.666666666666668, 31.333333333333332, 0, 15.666666666666666" fill="#ddd" fill-opacity="0.14133333333333334" stroke="#000" stroke-opacity="0.02" transform="translate(165.66666666666669, 47.0)"  /><polyline points="23.666666666666668, 0, 47.333333333333336, 15.666666666666666, 23.666666666666668, 31.333333333333332, 0, 15.666666666666666" fill="#222" fill-opacity="0.11533333333333334" stroke="#000" stroke-opacity="0.02" transform="translate(213.00000000000003, 47.0)"  /><polyline points="23.666666666666668, 0, 47.333333333333336, 15.666666666666666, 23.666666666666668, 31.333333333333332, 0, 15.666666666666666" fill="#ddd" fill-opacity="0.05466666666666667" stroke="#000" stroke-opacity="0.02" transform="translate(0.0, 62.666666666666664)"  /><polyline points="23.666666666666668, 0, 47.333333333333336, 15.666666666666666, 23.666666666666668, 31.333333333333332, 0, 15.666666666666666" fill="#ddd" fill-opacity="0.05466666666666667" stroke="#000" stroke-opacity="0.02" transform="translate(284.0, 62.666666666666664)"  /><polyline points="23.666666666666668, 0, 47.333333333333336, 15.666666666666666, 23.666666666666668, 31.333333333333332, 0, 15.666666666666666" fill="#222" fill-opacity="0.11533333333333334" stroke="#000" stroke-opacity="0.02" transform="translate(47.333333333333336, 62.666666666666664)"  /><polyline points="23.666666666666668, 0, 47.333333333333336, 15.666666666666666, 23.666666666666668, 31.333333333333332, 0, 15.666666666666666" fill="#ddd" fill-opacity="0.05466666666666667" stroke="#000" stroke-opacity="0.02" transform="translate(94.66666666666667, 62.666666666666664)"  /><polyline points="23.666666666666668, 0, 47.333333333333336, 15.666666666666666, 23.666666666666668, 31.333333333333332, 0, 15.666666666666666" fill="#222" fill-opacity="0.06333333333333334" stroke="#000" stroke-opacity="0.02" transform="translate(142.0, 62.666666666666664)"  /><polyline points="23.666666666666668, 0, 47.333333333333336, 15.666666666666666, 23.666666666666668, 31.333333333333332, 0, 15.666666666666666" fill="#ddd" fill-opacity="0.07200000000000001" stroke="#000" stroke-opacity="0.02" transform="translate(189.33333333333334, 62.666666666666664)"  /><polyline points="23.666666666666668, 0, 47.333333333333336, 15.666666666666666, 23.666666666666668, 31.333333333333332, 0, 15.666666666666666" fill="#ddd" fill-opacity="0.05466666666666667" stroke="#000" stroke-opacity="0.02" transform="translate(236.66666666666669, 62.666666666666664)"  /></svg>