<svg xmlns="http://www.w3.org/2000/svg" width="100" height="100"><rect x="0" y="0" width="100%" height="100%" fill="rgb(161, 46, 128)"  /><polyline points="14.333333333333334, 0, 28.666666666666668, 18.333333333333336, 14.333333333333334, 36.66666666666667, 0, 18.333333333333336" fill="#222" fill-opacity="0.08066666666666666" stroke="#000" stroke-opacity="0.02" transform="translate(-14.333333333333334, -18.333333333333336)"  /><polyline points="14.333333333333334, 0, 28.666666666666668, 18.333333333333336, 14.333333333333334, 36.66666666666667, 0, 18.333333333333336" fill="#222" fill-opacity="0.08066666666666666" stroke="#000" stroke-opacity="0.02" transform="translate(157.66666666666666, -18.333333333333336)"  /><polyline points="14.333333333333334, 0, 28.666666666666668, 18.333333333333336, 14.333333333333334, 36.66666666666667, 0, 18.333333333333336" fill="#222" fill-opacity="0.08066666666666666" stroke="#000" stroke-opacity="0.02" transform="translate(-14.333333333333334, 91.66666666666669)"  /><polyline points="14.333333333333334, 0, 28.666666666666668, 18.333333333333336, 14.333333333333334, 36.66666666666667, 0, 18.333333333333336" fill="#222" fill-opacity="0.08066666666666666" stroke="#000" stroke-opacity="0.02" transform="translate(157.66666666666666, 91.66666666666669)"  /><polyline points="14.333333333333334, 0, 28.666666666666668, 18.333333333333336, 14.333333333333334, 36.66666666666667, 0, 18.333333333333336" fill="#ddd" fill-opacity="0.10666666666666667" stroke="#000" stroke-opacity="0.02" transform="translate(14.333333333333334, -18.333333333333336)"  /><polyline points="14.333333333333334, 0, 28.666666666666668, 18.333333333333336, 14.333333333333334, 36.66666666666667, 0, 18.333333333333336" fill="#ddd" fill-opacity="0.10666666666666667" stroke="#000" stroke-opacity="0.02" transform="translate(14.333333333333334, 91.66666666666669)"  /><polyline points="14.333333333333334, 0, 28.666666666666668, 18.333333333333336, 14.333333333333334, 36.66666666666667, 0, 18.333333333333336" fill="#222" fill-opacity="0.08066666666666666" stroke="#000" stroke-opacity="0.02" transform="translate(43.0, -18.333333333333336)"  /><polyline points="14.333333333333334, 0, 28.666666666666668, 18.333333333333336, 14.333333333333334, 36.66666666666667, 0, 18.333333333333336" fill="#222" fill-opacity="0.08066666666666666" stroke="#000" stroke-opacity="0.02" transform="translate(43.0, 91.66666666666669)"  /><polyline points="14.333333333333334, 0, 28.666666666666668, 18.333333333333336, 14.333333333333334, 36.66666666666667, 0, 18.333333333333336" fill="#ddd" fill-opacity="0.02" stroke="#000" stroke-opacity="0.02" transform="translate(71.66666666666667, -18.333333333333336)"  /><polyline points="14.333333333333334, 0, 28.666666666666668, 18.333333333333336, 14.333333333333334, 36.66666666666667, 0, 18.333333333333336" fill="#ddd" fill-opacity="0.02" stroke="#000" stroke-opacity="0.02" transform="translate(71.66666666666667, 91.66666666666669)"  /><polyline points="14.333333333333334, 0, 28.666666666666668, 18.333333333333336, 14.333333333333334, 36.66666666666667, 0, 18.333333333333336" fill="#222" fill-opacity="0.028666666666666667" stroke="#000" stroke-opacity="0.02" transform="translate(100.33333333333334, -18.333333333333336)"  /><polyline points="14.333333333333334, 0, 28.666666666666668, 18.333333333333336, 14.333333333333334, 36.66666666666667, 0, 18.333333333333336" fill="#222" fill-opacity="0.028666666666666667" stroke="#000" stroke-opacity="0.02" transform="translate(100.33333333333334, 91.66666666666669)"  /><polyline points="14.333333333333334, 0, 28.666666666666668, 18.333333333333336, 14.333333333333334, 36.66666666666667, 0, 18.333333333333336" fill="#ddd" fill-opacity="0.08933333333333333" stroke="#000" stroke-opacity="0.02" transform="translate(129.0, -18.333333333333336)"  /><polyline points="14.333333333333334, 0, 28.666666666666668, 18.333333333333336, 14.333333333333334, 36.66666666666667, 0, 18.333333333333336" fill="#ddd" fill-opacity="0.08933333333333333" stroke="#000" stroke-opacity="0.02" transform="translate(129.0, 91.66666666666669)"  /><polyline points="14.333333333333334, 0, 28.666666666666668, 18.333333333333336, 14.333333333333334, 36.66666666666667, 0, 18.333333333333336" fill="#ddd" fill-opacity="0.05466666666666667" stroke="#000" stroke-opacity="0.02" transform="translate(0.0, 0.0)"  /><polyline points="14.333333333333334, 0, 28.666666666666668, 18.333333333333336, 14.333333333333334, 36.66666666666667, 0, 18.333333333333336" fill="#ddd" fill-opacity="0.05466666666666667" stroke="#000" stroke-opacity="0.02" transform="translate(172.0, 0.0)"  /><polyline points="14.333333333333334, 0, 28.666666666666668, 18.333333333333336, 14.333333333333334, 36.66666666666667, 0, 18.333333333333336" fill="#222" fill-opacity="0.06333333333333334" stroke="#000" stroke-opacity="0.02" transform="translate(28.666666666666668, 0.0)"  /><polyline points="14.333333333333334, 0, 28.666666666666668, 18.333333333333336, 14.333333333333334, 36.66666666666667, 0, 18.333333333333336" fill="#222" fill-opacity="0.13266666666666665" stroke="#000" stroke-opacity="0.02" transform="translate(57.333333333333336, 0.0)"  /><polyline points="14.333333333333334, 0, 28.666666666666668, 18.333333333333336, 14.333333333333334, 36.66666666666667, 0, 18.333333333333336" fill="#ddd" fill-opacity="0.10666666666666667" stroke="#000" stroke-opacity="0.02" transform="translate(86.0, 0.0)"  /><polyline points="14.333333333333334, 0, 28.666666666666668, 18.333333333333336, 14.333333333333334, 36.66666666666667, 0, 18.333333333333336" fill="#ddd" fill-opacity="0.02" stroke="#000" stroke-opacity="0.02" transform="translate(114.66666666666667, 0.0)"  /><polyline points="14.333333333333334, 0, 28.666666666666668, 18.333333333333336, 14.333333333333334, 36.66666666666667, 0, 18.333333333333336" fill="#ddd" fill-opacity="0.07200000000000001" stroke="#000" stroke-opacity="0.02" transform="translate(143.33333333333334, 0.0)"  /><polyline points="14.333333333333334, 0, 28.666666666666668, 18.333333333333336, 14.333333333333334, 36.66666666666667, 0, 18.333333333333336" fill="#222" fill-opacity="0.06333333333333334" stroke="#000" stroke-opacity="0.02" transform="translate(-14.333333333333334, 18.333333333333336)"  /><polyline points="14.333333333333334, 0, 28.666666666666668, 18.333333333333336, 14.333333333333334, 36.66666666666667, 0, 18.333333333333336" fill="#222" fill-opacity="0.06333333333333334" stroke="#000" stroke-opacity="0.02" transform="translate(157.66666666666666, 18.333333333333336)"  /><polyline points="14.333333333333334, 0, 28.666666666666668, 18.333333333333336, 14.333333333333334, 36.66666666666667, 0, 18.333333333333336" fill="#222" fill-opacity="0.06333333333333334" stroke="#000" stroke-opacity="0.02" transform="translate(14.333333333333334, 18.333333333333336)"  /><polyline points="14.333333333333334, 0, 28.666666666666668, 18.333333333333336, 14.333333333333334, 36.66666666666667, 0, 18.333333333333336" fill="#222" fill-opacity="0.028666666666666667" stroke="#000" stroke-opacity="0.02" transform="translate(43.0, 18.333333333333336)"  /><polyline points="14.333333333333334, 0, 28.666666666666668, 18.333333333333336, 14.333333333333334, 36.66666666666667, 0, 18.333333333333336" fill="#ddd" fill-opacity="0.14133333333333334" stroke="#000" stroke-opacity="0.02" transform="translate(71.66666666666667, 18.333333333333336)"  /><polyline points="14.333333333333334, 0, 28.666666666666668, 18.333333333333336, 14.333333333333334, 36.66666666666667, 0, 18.333333333333336" fill="#ddd" fill-opacity="0.08933333333333333" stroke="#000" stroke-opacity="0.02" transform="translate(100.33333333333334, 18.333333333333336)"  /><polyline points="14.333333333333334, 0, 28.666666666666668, 18.333333333333336, 14.333333333333334, 36.66666666666667, 0, 18.333333333333336" fill="#ddd" fill-opacity="0.14133333333333334" stroke="#000" stroke-opacity="0.02" transform="translate(129.0, 18.333333333333336)"  /><polyline points="14.333333333333334, 0, 28.666666666666668, 18.333333333333336, 14.333333333333334, 36.66666666666667, 0, 18.333333333333336" fill="#222" fill-opacity="0.028666666666666667" stroke="#000" stroke-opacity="0.02" transform="translate(0.0, 36.66666666666667)"  /><polyline points="14.333333333333334, 0, 28.666666666666668, 18.333333333333336, 14.333333333333334, 36.66666666666667, 0, 18.333333333333336" fill="#222" fill-opacity="0.028666666666666667" stroke="#000" stroke-opacity="0.02" transform="translate(172.0, 36.66666666666667)"  /><polyline points="14.333333333333334, 0, 28.666666666666668, 18.333333333333336, 14.333333333333334, 36.66666666666667, 0, 18.333333333333336" fill="#ddd" fill-opacity="0.07200000000000001" stroke="#000" stroke-opacity="0.02" transform="translate(28.666666666666668, 36.66666666666667)"  /><polyline points="14.333333333333334, 0, 28.666666666666668, 18.333333333333336, 14.333333333333334, 36.66666666666667, 0, 18.333333333333336" fill="#ddd" fill-opacity="0.05466666666666667" stroke="#000" stroke-opacity="0.02" transform="translate(57.333333333333336, 36.66666666666667)"  /><polyline points="14.333333333333334, 0, 28.666666666666668, 18.333333333333336, 14.333333333333334, 36.66666666666667, 0, 18.333333333333336" fill="#ddd" fill-opacity="0.07200000000000001" stroke="#000" stroke-opacity="0.02" transform="translate(86.0, 36.66666666666667)"  /><polyline points="14.333333333333334, 0, 28.666666666666668, 18.333333333333336, 14.333333333333334, 36.66666666666667, 0, 18.333333333333336" fill="#ddd" fill-opacity="0.12400000000000001" stroke="#000" stroke-opacity="0.02" transform="translate(114.66666666666667, 36.66666666666667)"  /><polyline points="14.333333333333334, 0, 28.666666666666668, 18.333333333333336, 14.333333333333334, 36.66666666666667, 0, 18.333333333333336" fill="#ddd" fill-opacity="0.07200000000000001" stroke="#000" stroke-opacity="0.02" transform="translate(143.33333333333334, 36.66666666666667)"  /><polyline points="14.333333333333334, 0, 28.666666666666668, 18.333333333333336, 14.333333333333334, 36.66666666666667, 0, 18.333333333333336" fill="#222" fill-opacity="0.15" stroke="#000" stroke-opacity="0.02" transform="translate(-14.333333333333334, 55.00000000000001)"  /><polyline points="14.333333333333334, 0, 28.666666666666668, 18.333333333333336, 14.333333333333334, 36.66666666666667, 0, 18.333333333333336" fill="#222" fill-opacity="0.15" stroke="#000" stroke-opacity="0.02" transform="translate(157.66666666666666, 55.00000000000001)"  /><polyline points="14.333333333333334, 0, 28.666666666666668, 18.333333333333336, 14.333333333333334, 36.66666666666667, 0, 18.333333333333336" fill="#222" fill-opacity="0.028666666666666667" stroke="#000" stroke-opacity="0.02" transform="translate(14.333333333333334, 55.00000000000001)"  /><polyline points="14.333333333333334, 0, 28.666666666666668, 18.333333333333336, 14.333333333333334, 36.66666666666667, 0, 18.333333333333336" fill="#222" fill-opacity="0.098" stroke="#000" stroke-opacity="0.02" transform="translate(43.0, 55.00000000000001)"  /><polyline points="14.333333333333334, 0, 28.666666666666668, 18.333333333333336, 14.333333333333334, 36.66666666666667, 0, 18.333333333333336" fill="#ddd" fill-opacity="0.10666666666666667" stroke="#000" stroke-opacity="0.02" transform="translate(71.66666666666667, 55.00000000000001)"  /><polyline points="14.333333333333334, 0, 28.666666666666668, 18.333333333333336, 14.333333333333334, 36.66666666666667, 0, 18.333333333333336" fill="#222" fill-opacity="0.098" stroke="#000" stroke-opacity="0.02" transform="translate(100.33333333333334, 55.00000000000001)"  /><polyline points="14.333333333333334, 0, 28.666666666666668, 18.333333333333336, 14.333333333333334, 36.66666666666667, 0, 18.333333333333336" fill="#ddd" fill-opacity="0.02" stroke="#000" stroke-opacity="0.02" transform="translate(129.0, 55.00000000000001)"  /><polyline points="14.333333333333334, 0, 28.666666666666668, 18.333333333333336, 14.333333333333334, 36.66666666666667, 0, 18.333333333333336" fill="#ddd" fill-opacity="0.08933333333333333" stroke="#000" stroke-opacity="0.02" transform="translate(0.0, 73.33333333333334)"  /><polyline points="14.333333333333334, 0, 28.666666666666668, 18.333333333333336, 14.333333333333334, 36.66666666666667, 0, 18.333333333333336" fill="#ddd" fill-opacity="0.08933333333333333" stroke="#000" stroke-opacity="0.02" transform="translate(172.0, 73.33333333333334)"  /><polyline points="14.333333333333334, 0, 28.666666666666668, 18.333333333333336, 14.333333333333334, 36.66666666666667, 0, 18.333333333333336" fill="#ddd" fill-opacity="0.10666666666666667" stroke="#000" stroke-opacity="0.02" transform="translate(28.666666666666668, 73.33333333333334)"  /><polyline points="14.333333333333334, 0, 28.666666666666668, 18.333333333333336, 14.333333333333334, 36.66666666666667, 0, 18.333333333333336" fill="#ddd" fill-opacity="0.14133333333333334" stroke="#000" stroke-opacity="0.02" transform="translate(57.333333333333336, 73.33333333333334)"  /><polyline points="14.333333333333334, 0, 28.666666666666668, 18.333333333333336, 14.333333333333334, 36.66666666666667, 0, 18.333333333333336" fill="#ddd" fill-opacity="0.07200000000000001" stroke="#000" stroke-opacity="0.02" transform="translate(86.0, 73.33333333333334)"  /><polyline points="14.333333333333334, 0, 28.666666666666668, 18.333333333333336, 14.333333333333334, 36.66666666666667, 0, 18.333333333333336" fill="#222" fill-opacity="0.11533333333333334" stroke="#000" stroke-opacity="0.02" transform="translate(114.66666666666667, 73.33333333333334)"  /><polyline points="14.333333333333334, 0, 28.666666666666668, 18.333333333333336, 14.333333333333334, 36.66666666666667, 0, 18.333333333333336" fill="#ddd" fill-opacity="0.12400000000000001" stroke="#000" stroke-opacity="0.02" transform="translate(143.33333333333334, 73.33333333333334)"  /></svg>