<svg xmlns="http://www.w3.org/2000/svg" width="508" height="587"><rect x="0" y="0" width="100%" height="100%" fill="rgb(63, 144, 77)"  /><polyline points="0,48.95930282728026,28.266666666666666,0,84.8,0,113.06666666666666,48.95930282728026,84.8,97.91860565456052,28.266666666666666,97.91860565456052,0,48.95930282728026" fill="#ddd" fill-opacity="0.14133333333333334" stroke="#000" stroke-opacity="0.02" transform="translate(-56.53333333333333, -48.95930282728026)"  /><polyline points="0,48.95930282728026,28.266666666666666,0,84.8,0,113.06666666666666,48.95930282728026,84.8,97.91860565456052,28.266666666666666,97.91860565456052,0,48.95930282728026" fill="#ddd" fill-opacity="0.14133333333333334" stroke="#000" stroke-opacity="0.02" transform="translate(452.26666666666665, -48.95930282728026)"  /><polyline points="0,48.95930282728026,28.266666666666666,0,84.8,0,113.06666666666666,48.95930282728026,84.8,97.91860565456052,28.266666666666666,97.91860565456052,0,48.95930282728026" fill="#ddd" fill-opacity="0.14133333333333334" stroke="#000" stroke-opacity="0.02" transform="translate(-56.53333333333333, 538.5523311000829)"  /><polyline points="0,48.95930282728026,28.266666666666666,0,84.8,0,113.06666666666666,48.95930282728026,84.8,97.91860565456052,28.266666666666666,97.91860565456052,0,48.95930282728026" fill="#ddd" fill-opacity="0.14133333333333334" stroke="#000" stroke-opacity="0.02" transform="translate(452.26666666666665, 538.5523311000828)"  /><polyline points="0,48.95930282728026,28.266666666666666,0,84.8,0,113.06666666666666,48.95930282728026,84.8,97.91860565456052,28.266666666666666,97.91860565456052,0,48.95930282728026" fill="#ddd" fill-opacity="0.08933333333333333" stroke="#000" stroke-opacity="0.02" transform="translate(28.266666666666666, 0.0)"  /><polyline points="0,48.95930282728026,28.266666666666666,0,84.8,0,113.06666666666666,48.95930282728026,84.8,97.91860565456052,28.266666666666666,97.91860565456052,0,48.95930282728026" fill="#ddd" fill-opacity="0.08933333333333333" stroke="#000" stroke-opacity="0.02" transform="translate(28.266666666666666, 587.5116339273632)"  /><polyline points="0,48.95930282728026,28.266666666666666,0,84.8,0,113.06666666666666,48.95930282728026,84.8,97.91860565456052,28.266666666666666,97.91860565456052,0,48.95930282728026" fill="#222" fill-opacity="0.13266666666666665" stroke="#000" stroke-opacity="0.02" transform="translate(113.06666666666666, -48.95930282728026)"  /><polyline points="0,48.95930282728026,28.266666666666666,0,84.8,0,113.06666666666666,48.95930282728026,84.8,97.91860565456052,28.266666666666666,97.91860565456052,0,48.95930282728026" fill="#222" fill-opacity="0.13266666666666665" stroke="#000" stroke-opacity="0.02" transform="translate(113.06666666666666, 538.5523311000829)"  /><polyline points="0,48.95930282728026,28.266666666666666,0,84.8,0,113.06666666666666,48.95930282728026,84.8,97.91860565456052,28.266666666666666,97.91860565456052,0,48.95930282728026" fill="#222" fill-opacity="0.15" stroke="#000" stroke-opacity="0.02" transform="translate(197.86666666666665, 0.0)"  /><polyline points="0,48.95930282728026,28.266666666666666,0,84.8,0,113.06666666666666,48.95930282728026,84.8,97.91860565456052,28.266666666666666,97.91860565456052,0,48.95930282728026" fill="#222" fill-opacity="0.15" stroke="#000" stroke-opacity="0.02" transform="translate(197.86666666666665, 587.5116339273632)"  /><polyline points="0,48.95930282728026,28.266666666666666,0,84.8,0,113.06666666666666,48.95930282728026,84.8,97.91860565456052,28.266666666666666,97.91860565456052,0,48.95930282728026" fill="#222" fill-opacity="0.098" stroke="#000" stroke-opacity="0.02" transform="translate(282.66666666666663, -48.95930282728026)"  /><polyline points="0,48.95930282728026,28.266666666666666,0,84.8,0,113.06666666666666,48.95930282728026,84.8,97.91860565456052,28.266666666666666,97.91860565456052,0,48.95930282728026" fill="#222" fill-opacity="0.098" stroke="#000" stroke-opacity="0.02" transform="translate(282.66666666666663, 538.5523311000829)"  /><polyline points="0,48.95930282728026,28.266666666666666,0,84.8,0,113.06666666666666,48.95930282728026,84.8,97.91860565456052,28.266666666666666,97.91860565456052,0,48.95930282728026" fill="#ddd" fill-opacity="0.07200000000000001" stroke="#000" stroke-opacity="0.02" transform="translate(367.4666666666666, 0.0)"  /><polyline points="0,48.95930282728026,28.266666666666666,0,84.8,0,113.06666666666666,48.95930282728026,84.8,97.91860565456052,28.266666666666666,97.91860565456052,0,48.95930282728026" fill="#ddd" fill-opacity="0.07200000000000001" stroke="#000" stroke-opacity="0.02" transform="translate(367.4666666666666, 587.5116339273632)"  /><polyline points="0,48.95930282728026,28.266666666666666,0,84.8,0,113.06666666666666,48.95930282728026,84.8,97.91860565456052,28.266666666666666,97.91860565456052,0,48.95930282728026" fill="#ddd" fill-opacity="0.07200000000000001" stroke="#000" stroke-opacity="0.02" transform="translate(-56.53333333333333, 48.95930282728026)"  /><polyline points="0,48.95930282728026,28.266666666666666,0,84.8,0,113.06666666666666,48.95930282728026,84.8,97.91860565456052,28.266666666666666,97.91860565456052,0,48.95930282728026" fill="#ddd" fill-opacity="0.07200000000000001" stroke="#000" stroke-opacity="0.02" transform="translate(452.26666666666665, 48.95930282728026)"  /><polyline points="0,48.95930282728026,28.266666666666666,0,84.8,0,113.06666666666666,48.95930282728026,84.8,97.91860565456052,28.266666666666666,97.91860565456052,0,48.95930282728026" fill="#222" fill-opacity="0.08066666666666666" stroke="#000" stroke-opacity="0.02" transform="translate(28.266666666666666, 97.91860565456054)"  /><polyline points="0,48.95930282728026,28.266666666666666,0,84.8,0,113.06666666666666,48.95930282728026,84.8,97.91860565456052,28.266666666666666,97.91860565456052,0,48.95930282728026" fill="#ddd" fill-opacity="0.07200000000000001" stroke="#000" stroke-opacity="0.02" transform="translate(113.06666666666666, 48.95930282728026)"  /><polyline points="0,48.95930282728026,28.266666666666666,0,84.8,0,113.06666666666666,48.95930282728026,84.8,97.91860565456052,28.266666666666666,97.91860565456052,0,48.95930282728026" fill="#222" fill-opacity="0.08066666666666666" stroke="#000" stroke-opacity="0.02" transform="translate(197.86666666666665, 97.91860565456054)"  /><polyline points="0,48.95930282728026,28.266666666666666,0,84.8,0,113.06666666666666,48.95930282728026,84.8,97.91860565456052,28.266666666666666,97.91860565456052,0,48.95930282728026" fill="#222" fill-opacity="0.15" stroke="#000" stroke-opacity="0.02" transform="translate(282.66666666666663, 48.95930282728026)"  /><polyline points="0,48.95930282728026,28.266666666666666,0,84.8,0,113.06666666666666,48.95930282728026,84.8,97.91860565456052,28.266666666666666,97.91860565456052,0,48.95930282728026" fill="#222" fill-opacity="0.11533333333333334" stroke="#000" stroke-opacity="0.02" transform="translate(367.4666666666666, 97.91860565456054)"  /><polyline points="0,48.95930282728026,28.266666666666666,0,84.8,0,113.06666666666666,48.95930282728026,84.8,97.91860565456052,28.266666666666666,97.91860565456052,0,48.95930282728026" fill="#222" fill-opacity="0.13266666666666665" stroke="#000" stroke-opacity="0.02" transform="translate(-56.53333333333333, 146.8779084818408)"  /><polyline points="0,48.95930282728026,28.266666666666666,0,84.8,0,113.06666666666666,48.95930282728026,84.8,97.91860565456052,28.266666666666666,97.91860565456052,0,48.95930282728026" fill="#222" fill-opacity="0.13266666666666665" stroke="#000" stroke-opacity="0.02" transform="translate(452.26666666666665, 146.8779084818408)"  /><polyline points="0,48.95930282728026,28.266666666666666,0,84.8,0,113.06666666666666,48.95930282728026,84.8,97.91860565456052,28.266666666666666,97.91860565456052,0,48.95930282728026" fill="#222" fill-opacity="0.046" stroke="#000" stroke-opacity="0.02" transform="translate(28.266666666666666, 195.83721130912105)"  /><polyline points="0,48.95930282728026,28.266666666666666,0,84.8,0,113.06666666666666,48.95930282728026,84.8,97.91860565456052,28.266666666666666,97.91860565456052,0,48.95930282728026" fill="#ddd" fill-opacity="0.10666666666666667" stroke="#000" stroke-opacity="0.02" transform="translate(113.06666666666666, 146.8779084818408)"  /><polyline points="0,48.95930282728026,28.266666666666666,0,84.8,0,113.06666666666666,48.95930282728026,84.8,97.91860565456052,28.266666666666666,97.91860565456052,0,48.95930282728026" fill="#222" fill-opacity="0.046" stroke="#000" stroke-opacity="0.02" transform="translate(197.86666666666665, 195.83721130912105)"  /><polyline points="0,48.95930282728026,28.266666666666666,0,84.8,0,113.06666666666666,48.95930282728026,84.8,97.91860565456052,28.266666666666666,97.91860565456052,0,48.95930282728026" fill="#ddd" fill-opacity="0.08933333333333333" stroke="#000" stroke-opacity="0.02" transform="translate(282.66666666666663, 146.8779084818408)"  /><polyline points="0,48.95930282728026,28.266666666666666,0,84.8,0,113.06666666666666,48.95930282728026,84.8,97.91860565456052,28.266666666666666,97.91860565456052,0,48.95930282728026" fill="#222" fill-opacity="0.046" stroke="#000" stroke-opacity="0.02" transform="translate(367.4666666666666, 195.83721130912105)"  /><polyline points="0,48.95930282728026,28.266666666666666,0,84.8,0,113.06666666666666,48.95930282728026,84.8,97.91860565456052,28.266666666666666,97.91860565456052,0,48.95930282728026" fill="#ddd" fill-opacity="0.12400000000000001" stroke="#000" stroke-opacity="0.02" transform="translate(-56.53333333333333, 244.79651413640133)"  /><polyline points="0,48.95930282728026,28.266666666666666,0,84.8,0,113.06666666666666,48.95930282728026,84.8,97.91860565456052,28.266666666666666,97.91860565456052,0,48.95930282728026" fill="#ddd" fill-opacity="0.12400000000000001" stroke="#000" stroke-opacity="0.02" transform="translate(452.26666666666665, 244.79651413640133)"  /><polyline points="0,48.95930282728026,28.266666666666666,0,84.8,0,113.06666666666666,48.95930282728026,84.8,97.91860565456052,28.266666666666666,97.91860565456052,0,48.95930282728026" fill="#222" fill-opacity="0.06333333333333334" stroke="#000" stroke-opacity="0.02" transform="translate(28.266666666666666, 293.7558169636816)"  /><polyline points="0,48.95930282728026,28.266666666666666,0,84.8,0,113.06666666666666,48.95930282728026,84.8,97.91860565456052,28.266666666666666,97.91860565456052,0,48.95930282728026" fill="#222" fill-opacity="0.046" stroke="#000" stroke-opacity="0.02" transform="translate(113.06666666666666, 244.79651413640133)"  /><polyline points="0,48.95930282728026,28.266666666666666,0,84.8,0,113.06666666666666,48.95930282728026,84.8,97.91860565456052,28.266666666666666,97.91860565456052,0,48.95930282728026" fill="#ddd" fill-opacity="0.03733333333333333" stroke="#000" stroke-opacity="0.02" transform="translate(197.86666666666665, 293.7558169636816)"  /><polyline points="0,48.95930282728026,28.266666666666666,0,84.8,0,113.06666666666666,48.95930282728026,84.8,97.91860565456052,28.266666666666666,97.91860565456052,0,48.95930282728026" fill="#222" fill-opacity="0.028666666666666667" stroke="#000" stroke-opacity="0.02" transform="translate(282.66666666666663, 244.79651413640133)"  /><polyline points="0,48.95930282728026,28.266666666666666,0,84.8,0,113.06666666666666,48.95930282728026,84.8,97.91860565456052,28.266666666666666,97.91860565456052,0,48.95930282728026" fill="#ddd" fill-opacity="0.07200000000000001" stroke="#000" stroke-opacity="0.02" transform="translate(367.4666666666666, 293.7558169636816)"  /><polyline points="0,48.95930282728026,28.266666666666666,0,84.8,0,113.06666666666666,48.95930282728026,84.8,97.91860565456052,28.266666666666666,97.91860565456052,0,48.95930282728026" fill="#222" fill-opacity="0.08066666666666666" stroke="#000" stroke-opacity="0.02" transform="translate(-56.53333333333333, 342.7151197909618)"  /><polyline points="0,48.95930282728026,28.266666666666666,0,84.8,0,113.06666666666666,48.95930282728026,84.8,97.91860565456052,28.266666666666666,97.91860565456052,0,48.95930282728026" fill="#222" fill-opacity="0.08066666666666666" stroke="#000" stroke-opacity="0.02" transform="translate(452.26666666666665, 342.7151197909618)"  /><polyline points="0,48.95930282728026,28.266666666666666,0,84.8,0,113.06666666666666,48.95930282728026,84.8,97.91860565456052,28.266666666666666,97.91860565456052,0,48.95930282728026" fill="#222" fill-opacity="0.098" stroke="#000" stroke-opacity="0.02" transform="translate(28.266666666666666, 391.6744226182421)"  /><polyline points="0,48.95930282728026,28.266666666666666,0,84.8,0,113.06666666666666,48.95930282728026,84.8,97.91860565456052,28.266666666666666,97.91860565456052,0,48.95930282728026" fill="#222" fill-opacity="0.098" stroke="#000" stroke-opacity="0.02" transform="translate(113.06666666666666, 342.7151197909618)"  /><polyline points="0,48.95930282728026,28.266666666666666,0,84.8,0,113.06666666666666,48.95930282728026,84.8,97.91860565456052,28.266666666666666,97.91860565456052,0,48.95930282728026" fill="#222" fill-opacity="0.11533333333333334" stroke="#000" stroke-opacity="0.02" transform="translate(197.86666666666665, 391.6744226182421)"  /><polyline points="0,48.95930282728026,28.266666666666666,0,84.8,0,113.06666666666666,48.95930282728026,84.8,97.91860565456052,28.266666666666666,97.91860565456052,0,48.95930282728026" fill="#ddd" fill-opacity="0.14133333333333334" stroke="#000" stroke-opacity="0.02" transform="translate(282.66666666666663, 342.7151197909618)"  /><polyline points="0,48.95930282728026,28.266666666666666,0,84.8,0,113.06666666666666,48.95930282728026,84.8,97.91860565456052,28.266666666666666,97.91860565456052,0,48.95930282728026" fill="#222" fill-opacity="0.11533333333333334" stroke="#000" stroke-opacity="0.02" transform="translate(367.4666666666666, 391.6744226182421)"  /><polyline points="0,48.95930282728026,28.266666666666666,0,84.8,0,113.06666666666666,48.95930282728026,84.8,97.91860565456052,28.266666666666666,97.91860565456052,0,48.95930282728026" fill="#ddd" fill-opacity="0.05466666666666667" stroke="#000" stroke-opacity="0.02" transform="translate(-56.53333333333333, 440.6337254455223)"  /><polyline points="0,48.95930282728026,28.266666666666666,0,84.8,0,113.06666666666666,48.95930282728026,84.8,97.91860565456052,28.266666666666666,97.91860565456052,0,48.95930282728026" fill="#ddd" fill-opacity="0.05466666666666667" stroke="#000" stroke-opacity="0.02" transform="translate(452.26666666666665, 440.6337254455223)"  /><polyline points="0,48.95930282728026,28.266666666666666,0,84.8,0,113.06666666666666,48.95930282728026,84.8,97.91860565456052,28.266666666666666,97.91860565456052,0,48.95930282728026" fill="#222" fill-opacity="0.11533333333333334" stroke="#000" stroke-opacity="0.02" transform="translate(28.266666666666666, 489.59302827280254)"  /><polyline points="0,48.95930282728026,28.266666666666666,0,84.8,0,113.06666666666666,48.95930282728026,84.8,97.91860565456052,28.266666666666666,97.91860565456052,0,48.95930282728026" fill="#ddd" fill-opacity="0.05466666666666667" stroke="#000" stroke-opacity="0.02" transform="translate(113.06666666666666, 440.6337254455223)"  /><polyline points="0,48.95930282728026,28.266666666666666,0,84.8,0,113.06666666666666,48.95930282728026,84.8,97.91860565456052,28.266666666666666,97.91860565456052,0,48.95930282728026" fill="#222" fill-opacity="0.06333333333333334" stroke="#000" stroke-opacity="0.02" transform="translate(197.86666666666665, 489.59302827280254)"  /><polyline points="0,48.95930282728026,28.266666666666666,0,84.8,0,113.06666666666666,48.95930282728026,84.8,97.91860565456052,28.266666666666666,97.91860565456052,0,48.95930282728026" fill="#ddd" fill-opacity="0.07200000000000001" stroke="#000" stroke-opacity="0.02" transform="translate(282.66666666666663, 440.6337254455223)"  /><polyline points="0,48.95930282728026,28.266666666666666,0,84.8,0,113.06666666666666,48.95930282728026,84.8,97.91860565456052,28.266666666666666,97.91860565456052,0,48.95930282728026" fill="#ddd" fill-opacity="0.05466666666666667" stroke="#000" stroke-opacity="0.02" transform="translate(367.4666666666666, 489.59302827280254)"  /></svg>