<svg xmlns="http://www.w3.org/2000/svg" width="290" height="335"><rect x="0" y="0" width="100%" height="100%" fill="rgb(161, 46, 128)"  /><polyline points="0,27.943753028777884,16.133333333333333,0,48.4,0,64.53333333333333,27.943753028777884,48.4,55.88750605755577,16.133333333333333,55.88750605755577,0,27.943753028777884" fill="#222" fill-opacity="0.08066666666666666" stroke="#000" stroke-opacity="0.02" transform="translate(-32.266666666666666, -27.943753028777884)"  /><polyline points="0,27.943753028777884,16.133333333333333,0,48.4,0,64.53333333333333,27.943753028777884,48.4,55.88750605755577,16.133333333333333,55.88750605755577,0,27.943753028777884" fill="#222" fill-opacity="0.08066666666666666" stroke="#000" stroke-opacity="0.02" transform="translate(258.1333333333333, -27.943753028777884)"  /><polyline points="0,27.943753028777884,16.133333333333333,0,48.4,0,64.53333333333333,27.943753028777884,48.4,55.88750605755577,16.133333333333333,55.88750605755577,0,27.943753028777884" fill="#222" fill-opacity="0.08066666666666666" stroke="#000" stroke-opacity="0.02" transform="translate(-32.266666666666666, 307.38128331655673)"  /><polyline points="0,27.943753028777884,16.133333333333333,0,48.4,0,64.53333333333333,27.943753028777884,48.4,55.88750605755577,16.133333333333333,55.88750605755577,0,27.943753028777884" fill="#222" fill-opacity="0.08066666666666666" stroke="#000" stroke-opacity="0.02" transform="translate(258.1333333333333, 307.38128331655673)"  /><polyline points="0,27.943753028777884,16.133333333333333,0,48.4,0,64.53333333333333,27.943753028777884,48.4,55.88750605755577,16.133333333333333,55.88750605755577,0,27.943753028777884" fill="#ddd" fill-opacity="0.10666666666666667" stroke="#000" stroke-opacity="0.02" transform="translate(16.133333333333333, 0.0)"  /><polyline points="0,27.943753028777884,16.133333333333333,0,48.4,0,64.53333333333333,27.943753028777884,48.4,55.88750605755577,16.133333333333333,55.88750605755577,0,27.943753028777884" fill="#ddd" fill-opacity="0.10666666666666667" stroke="#000" stroke-opacity="0.02" transform="translate(16.133333333333333, 335.32503634533464)"  /><polyline points="0,27.943753028777884,16.133333333333333,0,48.4,0,64.53333333333333,27.943753028777884,48.4,55.88750605755577,16.133333333333333,55.88750605755577,0,27.943753028777884" fill="#222" fill-opacity="0.08066666666666666" stroke="#000" stroke-opacity="0.02" transform="translate(64.53333333333333, -27.943753028777884)"  /><polyline points="0,27.943753028777884,16.133333333333333,0,48.4,0,64.53333333333333,27.943753028777884,48.4,55.88750605755577,16.133333333333333,55.88750605755577,0,27.943753028777884" fill="#222" fill-opacity="0.08066666666666666" stroke="#000" stroke-opacity="0.02" transform="translate(64.53333333333333, 307.38128331655673)"  /><polyline points="0,27.943753028777884,16.133333333333333,0,48.4,0,64.53333333333333,27.943753028777884,48.4,55.88750605755577,16.133333333333333,55.88750605755577,0,27.943753028777884" fill="#ddd" fill-opacity="0.02" stroke="#000" stroke-opacity="0.02" transform="translate(112.93333333333332, 0.0)"  /><polyline points="0,27.943753028777884,16.133333333333333,0,48.4,0,64.53333333333333,27.943753028777884,48.4,55.88750605755577,16.133333333333333,55.88750605755577,0,27.943753028777884" fill="#ddd" fill-opacity="0.02" stroke="#000" stroke-opacity="0.02" transform="translate(112.93333333333332, 335.32503634533464)"  /><polyline points="0,27.943753028777884,16.133333333333333,0,48.4,0,64.53333333333333,27.943753028777884,48.4,55.88750605755577,16.133333333333333,55.88750605755577,0,27.943753028777884" fill="#222" fill-opacity="0.028666666666666667" stroke="#000" stroke-opacity="0.02" transform="translate(161.33333333333331, -27.943753028777884)"  /><polyline points="0,27.943753028777884,16.133333333333333,0,48.4,0,64.53333333333333,27.943753028777884,48.4,55.88750605755577,16.133333333333333,55.88750605755577,0,27.943753028777884" fill="#222" fill-opacity="0.028666666666666667" stroke="#000" stroke-opacity="0.02" transform="translate(161.33333333333331, 307.38128331655673)"  /><polyline points="0,27.943753028777884,16.133333333333333,0,48.4,0,64.53333333333333,27.943753028777884,48.4,55.88750605755577,16.133333333333333,55.88750605755577,0,27.943753028777884" fill="#ddd" fill-opacity="0.08933333333333333" stroke="#000" stroke-opacity="0.02" transform="translate(209.7333333333333, 0.0)"  /><polyline points="0,27.943753028777884,16.133333333333333,0,48.4,0,64.53333333333333,27.943753028777884,48.4,55.88750605755577,16.133333333333333,55.88750605755577,0,27.943753028777884" fill="#ddd" fill-opacity="0.08933333333333333" stroke="#000" stroke-opacity="0.02" transform="translate(209.7333333333333, 335.32503634533464)"  /><polyline points="0,27.943753028777884,16.133333333333333,0,48.4,0,64.53333333333333,27.943753028777884,48.4,55.88750605755577,16.133333333333333,55.88750605755577,0,27.943753028777884" fill="#ddd" fill-opacity="0.05466666666666667" stroke="#000" stroke-opacity="0.02" transform="translate(-32.266666666666666, 27.943753028777884)"  /><polyline points="0,27.943753028777884,16.133333333333333,0,48.4,0,64.53333333333333,27.943753028777884,48.4,55.88750605755577,16.133333333333333,55.88750605755577,0,27.943753028777884" fill="#ddd" fill-opacity="0.05466666666666667" stroke="#000" stroke-opacity="0.02" transform="translate(258.1333333333333, 27.943753028777884)"  /><polyline points="0,27.943753028777884,16.133333333333333,0,48.4,0,64.53333333333333,27.943753028777884,48.4,55.88750605755577,16.133333333333333,55.88750605755577,0,27.943753028777884" fill="#222" fill-opacity="0.06333333333333334" stroke="#000" stroke-opacity="0.02" transform="translate(16.133333333333333, 55.887506057555775)"  /><polyline points="0,27.943753028777884,16.133333333333333,0,48.4,0,64.53333333333333,27.943753028777884,48.4,55.88750605755577,16.133333333333333,55.88750605755577,0,27.943753028777884" fill="#222" fill-opacity="0.13266666666666665" stroke="#000" stroke-opacity="0.02" transform="translate(64.53333333333333, 27.943753028777884)"  /><polyline points="0,27.943753028777884,16.133333333333333,0,48.4,0,64.53333333333333,27.943753028777884,48.4,55.88750605755577,16.133333333333333,55.88750605755577,0,27.943753028777884" fill="#ddd" fill-opacity="0.10666666666666667" stroke="#000" stroke-opacity="0.02" transform="translate(112.93333333333332, 55.887506057555775)"  /><polyline points="0,27.943753028777884,16.133333333333333,0,48.4,0,64.53333333333333,27.943753028777884,48.4,55.88750605755577,16.133333333333333,55.88750605755577,0,27.943753028777884" fill="#ddd" fill-opacity="0.02" stroke="#000" stroke-opacity="0.02" transform="translate(161.33333333333331, 27.943753028777884)"  /><polyline points="0,27.943753028777884,16.133333333333333,0,48.4,0,64.53333333333333,27.943753028777884,48.4,55.88750605755577,16.133333333333333,55.88750605755577,0,27.943753028777884" fill="#ddd" fill-opacity="0.07200000000000001" stroke="#000" stroke-opacity="0.02" transform="translate(209.7333333333333, 55.887506057555775)"  /><polyline points="0,27.943753028777884,16.133333333333333,0,48.4,0,64.53333333333333,27.943753028777884,48.4,55.88750605755577,16.133333333333333,55.88750605755577,0,27.943753028777884" fill="#222" fill-opacity="0.06333333333333334" stroke="#000" stroke-opacity="0.02" transform="translate(-32.266666666666666, 83.83125908633366)"  /><polyline points="0,27.943753028777884,16.133333333333333,0,48.4,0,64.53333333333333,27.943753028777884,48.4,55.88750605755577,16.133333333333333,55.88750605755577,0,27.943753028777884" fill="#222" fill-opacity="0.06333333333333334" stroke="#000" stroke-opacity="0.02" transform="translate(258.1333333333333, 83.83125908633366)"  /><polyline points="0,27.943753028777884,16.133333333333333,0,48.4,0,64.53333333333333,27.943753028777884,48.4,55.88750605755577,16.133333333333333,55.88750605755577,0,27.943753028777884" fill="#222" fill-opacity="0.06333333333333334" stroke="#000" stroke-opacity="0.02" transform="translate(16.133333333333333, 111.77501211511154)"  /><polyline points="0,27.943753028777884,16.133333333333333,0,48.4,0,64.53333333333333,27.943753028777884,48.4,55.88750605755577,16.133333333333333,55.88750605755577,0,27.943753028777884" fill="#222" fill-opacity="0.028666666666666667" stroke="#000" stroke-opacity="0.02" transform="translate(64.53333333333333, 83.83125908633366)"  /><polyline points="0,27.943753028777884,16.133333333333333,0,48.4,0,64.53333333333333,27.943753028777884,48.4,55.88750605755577,16.133333333333333,55.88750605755577,0,27.943753028777884" fill="#ddd" fill-opacity="0.14133333333333334" stroke="#000" stroke-opacity="0.02" transform="translate(112.93333333333332, 111.77501211511154)"  /><polyline points="0,27.943753028777884,16.133333333333333,0,48.4,0,64.53333333333333,27.943753028777884,48.4,55.88750605755577,16.133333333333333,55.88750605755577,0,27.943753028777884" fill="#ddd" fill-opacity="0.08933333333333333" stroke="#000" stroke-opacity="0.02" transform="translate(161.33333333333331, 83.83125908633366)"  /><polyline points="0,27.943753028777884,16.133333333333333,0,48.4,0,64.53333333333333,27.943753028777884,48.4,55.88750605755577,16.133333333333333,55.88750605755577,0,27.943753028777884" fill="#ddd" fill-opacity="0.14133333333333334" stroke="#000" stroke-opacity="0.02" transform="translate(209.7333333333333, 111.77501211511154)"  /><polyline points="0,27.943753028777884,16.133333333333333,0,48.4,0,64.53333333333333,27.943753028777884,48.4,55.88750605755577,16.133333333333333,55.88750605755577,0,27.943753028777884" fill="#222" fill-opacity="0.028666666666666667" stroke="#000" stroke-opacity="0.02" transform="translate(-32.266666666666666, 139.71876514388944)"  /><polyline points="0,27.943753028777884,16.133333333333333,0,48.4,0,64.53333333333333,27.943753028777884,48.4,55.88750605755577,16.133333333333333,55.88750605755577,0,27.943753028777884" fill="#222" fill-opacity="0.028666666666666667" stroke="#000" stroke-opacity="0.02" transform="translate(258.1333333333333, 139.71876514388944)"  /><polyline points="0,27.943753028777884,16.133333333333333,0,48.4,0,64.53333333333333,27.943753028777884,48.4,55.88750605755577,16.133333333333333,55.88750605755577,0,27.943753028777884" fill="#ddd" fill-opacity="0.07200000000000001" stroke="#000" stroke-opacity="0.02" transform="translate(16.133333333333333, 167.66251817266732)"  /><polyline points="0,27.943753028777884,16.133333333333333,0,48.4,0,64.53333333333333,27.943753028777884,48.4,55.88750605755577,16.133333333333333,55.88750605755577,0,27.943753028777884" fill="#ddd" fill-opacity="0.05466666666666667" stroke="#000" stroke-opacity="0.02" transform="translate(64.53333333333333, 139.71876514388944)"  /><polyline points="0,27.943753028777884,16.133333333333333,0,48.4,0,64.53333333333333,27.943753028777884,48.4,55.88750605755577,16.133333333333333,55.88750605755577,0,27.943753028777884" fill="#ddd" fill-opacity="0.07200000000000001" stroke="#000" stroke-opacity="0.02" transform="translate(112.93333333333332, 167.66251817266732)"  /><polyline points="0,27.943753028777884,16.133333333333333,0,48.4,0,64.53333333333333,27.943753028777884,48.4,55.88750605755577,16.133333333333333,55.88750605755577,0,27.943753028777884" fill="#ddd" fill-opacity="0.12400000000000001" stroke="#000" stroke-opacity="0.02" transform="translate(161.33333333333331, 139.71876514388944)"  /><polyline points="0,27.943753028777884,16.133333333333333,0,48.4,0,64.53333333333333,27.943753028777884,48.4,55.88750605755577,16.133333333333333,55.88750605755577,0,27.943753028777884" fill="#ddd" fill-opacity="0.07200000000000001" stroke="#000" stroke-opacity="0.02" transform="translate(209.7333333333333, 167.66251817266732)"  /><polyline points="0,27.943753028777884,16.133333333333333,0,48.4,0,64.53333333333333,27.943753028777884,48.4,55.88750605755577,16.133333333333333,55.88750605755577,0,27.943753028777884" fill="#222" fill-opacity="0.15" stroke="#000" stroke-opacity="0.02" transform="translate(-32.266666666666666, 195.6062712014452)"  /><polyline points="0,27.943753028777884,16.133333333333333,0,48.4,0,64.53333333333333,27.943753028777884,48.4,55.88750605755577,16.133333333333333,55.88750605755577,0,27.943753028777884" fill="#222" fill-opacity="0.15" stroke="#000" stroke-opacity="0.02" transform="translate(258.1333333333333, 195.6062712014452)"  /><polyline points="0,27.943753028777884,16.133333333333333,0,48.4,0,64.53333333333333,27.943753028777884,48.4,55.88750605755577,16.133333333333333,55.88750605755577,0,27.943753028777884" fill="#222" fill-opacity="0.028666666666666667" stroke="#000" stroke-opacity="0.02" transform="translate(16.133333333333333, 223.55002423022307)"  /><polyline points="0,27.943753028777884,16.133333333333333,0,48.4,0,64.53333333333333,27.943753028777884,48.4,55.88750605755577,16.133333333333333,55.88750605755577,0,27.943753028777884" fill="#222" fill-opacity="0.098" stroke="#000" stroke-opacity="0.02" transform="translate(64.53333333333333, 195.6062712014452)"  /><polyline points="0,27.943753028777884,16.133333333333333,0,48.4,0,64.53333333333333,27.943753028777884,48.4,55.88750605755577,16.133333333333333,55.88750605755577,0,27.943753028777884" fill="#ddd" fill-opacity="0.10666666666666667" stroke="#000" stroke-opacity="0.02" transform="translate(112.93333333333332, 223.55002423022307)"  /><polyline points="0,27.943753028777884,16.133333333333333,0,48.4,0,64.53333333333333,27.943753028777884,48.4,55.88750605755577,16.133333333333333,55.88750605755577,0,27.943753028777884" fill="#222" fill-opacity="0.098" stroke="#000" stroke-opacity="0.02" transform="translate(161.33333333333331, 195.6062712014452)"  /><polyline points="0,27.943753028777884,16.133333333333333,0,48.4,0,64.53333333333333,27.943753028777884,48.4,55.88750605755577,16.133333333333333,55.88750605755577,0,27.943753028777884" fill="#ddd" fill-opacity="0.02" stroke="#000" stroke-opacity="0.02" transform="translate(209.7333333333333, 223.55002423022307)"  /><polyline points="0,27.943753028777884,16.133333333333333,0,48.4,0,64.53333333333333,27.943753028777884,48.4,55.88750605755577,16.133333333333333,55.88750605755577,0,27.943753028777884" fill="#ddd" fill-opacity="0.08933333333333333" stroke="#000" stroke-opacity="0.02" transform="translate(-32.266666666666666, 251.49377725900095)"  /><polyline points="0,27.943753028777884,16.133333333333333,0,48.4,0,64.53333333333333,27.943753028777884,48.4,55.88750605755577,16.133333333333333,55.88750605755577,0,27.943753028777884" fill="#ddd" fill-opacity="0.08933333333333333" stroke="#000" stroke-opacity="0.02" transform="translate(258.1333333333333, 251.49377725900095)"  /><polyline points="0,27.943753028777884,16.133333333333333,0,48.4,0,64.53333333333333,27.943753028777884,48.4,55.88750605755577,16.133333333333333,55.88750605755577,0,27.943753028777884" fill="#ddd" fill-opacity="0.10666666666666667" stroke="#000" stroke-opacity="0.02" transform="translate(16.133333333333333, 279.4375302877788)"  /><polyline points="0,27.943753028777884,16.133333333333333,0,48.4,0,64.53333333333333,27.943753028777884,48.4,55.88750605755577,16.133333333333333,55.88750605755577,0,27.943753028777884" fill="#ddd" fill-opacity="0.14133333333333334" stroke="#000" stroke-opacity="0.02" transform="translate(64.53333333333333, 251.49377725900095)"  /><polyline points="0,27.943753028777884,16.133333333333333,0,48.4,0,64.53333333333333,27.943753028777884,48.4,55.88750605755577,16.133333333333333,55.88750605755577,0,27.943753028777884" fill="#ddd" fill-opacity="0.07200000000000001" stroke="#000" stroke-opacity="0.02" transform="translate(112.93333333333332, 279.4375302877788)"  /><polyline points="0,27.943753028777884,16.133333333333333,0,48.4,0,64.53333333333333,27.943753028777884,48.4,55.88750605755577,16.133333333333333,55.88750605755577,0,27.943753028777884" fill="#222" fill-opacity="0.11533333333333334" stroke="#000" stroke-opacity="0.02" transform="translate(161.33333333333331, 251.49377725900095)"  /><polyline points="0,27.943753028777884,16.133333333333333,0,48.4,0,64.53333333333333,27.943753028777884,48.4,55.88750605755577,16.133333333333333,55.88750605755577,0,27.943753028777884" fill="#ddd" fill-opacity="0.12400000000000001" stroke="#000" stroke-opacity="0.02" transform="translate(209.7333333333333, 279.4375302877788)"  /></svg>