<svg xmlns="http://www.w3.org/2000/svg" width="100" height="100"><rect x="0" y="0" width="100%" height="100%" fill="rgb(134, 73, 89)"  /><polyline points="0,18.937088829419725,10.933333333333334,0,32.8,0,43.733333333333334,18.937088829419725,32.8,37.87417765883945,10.933333333333334,37.87417765883945,0,18.937088829419725" fill="#ddd" fill-opacity="0.05466666666666667" stroke="#000" stroke-opacity="0.02" transform="translate(-21.866666666666667, -18.937088829419725)"  /><polyline points="0,18.937088829419725,10.933333333333334,0,32.8,0,43.733333333333334,18.937088829419725,32.8,37.87417765883945,10.933333333333334,37.87417765883945,0,18.937088829419725" fill="#ddd" fill-opacity="0.05466666666666667" stroke="#000" stroke-opacity="0.02" transform="translate(174.9333333333333, -18.937088829419725)"  /><polyline points="0,18.937088829419725,10.933333333333334,0,32.8,0,43.733333333333334,18.937088829419725,32.8,37.87417765883945,10.933333333333334,37.87417765883945,0,18.937088829419725" fill="#ddd" fill-opacity="0.05466666666666667" stroke="#000" stroke-opacity="0.02" transform="translate(-21.866666666666667, 208.30797712361698)"  /><polyline points="0,18.937088829419725,10.933333333333334,0,32.8,0,43.733333333333334,18.937088829419725,32.8,37.87417765883945,10.933333333333334,37.87417765883945,0,18.937088829419725" fill="#ddd" fill-opacity="0.05466666666666667" stroke="#000" stroke-opacity="0.02" transform="translate(174.9333333333333, 208.30797712361698)"  /><polyline points="0,18.937088829419725,10.933333333333334,0,32.8,0,43.733333333333334,18.937088829419725,32.8,37.87417765883945,10.933333333333334,37.87417765883945,0,18.937088829419725" fill="#ddd" fill-opacity="0.07200000000000001" stroke="#000" stroke-opacity="0.02" transform="translate(10.93333333333333, 0.0)"  /><polyline points="0,18.937088829419725,10.933333333333334,0,32.8,0,43.733333333333334,18.937088829419725,32.8,37.87417765883945,10.933333333333334,37.87417765883945,0,18.937088829419725" fill="#ddd" fill-opacity="0.07200000000000001" stroke="#000" stroke-opacity="0.02" transform="translate(10.93333333333333, 227.24506595303671)"  /><polyline points="0,18.937088829419725,10.933333333333334,0,32.8,0,43.733333333333334,18.937088829419725,32.8,37.87417765883945,10.933333333333334,37.87417765883945,0,18.937088829419725" fill="#222" fill-opacity="0.11533333333333334" stroke="#000" stroke-opacity="0.02" transform="translate(43.73333333333333, -18.937088829419725)"  /><polyline points="0,18.937088829419725,10.933333333333334,0,32.8,0,43.733333333333334,18.937088829419725,32.8,37.87417765883945,10.933333333333334,37.87417765883945,0,18.937088829419725" fill="#222" fill-opacity="0.11533333333333334" stroke="#000" stroke-opacity="0.02" transform="translate(43.73333333333333, 208.30797712361698)"  /><polyline points="0,18.937088829419725,10.933333333333334,0,32.8,0,43.733333333333334,18.937088829419725,32.8,37.87417765883945,10.933333333333334,37.87417765883945,0,18.937088829419725" fill="#222" fill-opacity="0.13266666666666665" stroke="#000" stroke-opacity="0.02" transform="translate(76.53333333333333, 0.0)"  /><polyline points="0,18.937088829419725,10.933333333333334,0,32.8,0,43.733333333333334,18.937088829419725,32.8,37.87417765883945,10.933333333333334,37.87417765883945,0,18.937088829419725" fill="#222" fill-opacity="0.13266666666666665" stroke="#000" stroke-opacity="0.02" transform="translate(76.53333333333333, 227.24506595303671)"  /><polyline points="0,18.937088829419725,10.933333333333334,0,32.8,0,43.733333333333334,18.937088829419725,32.8,37.87417765883945,10.933333333333334,37.87417765883945,0,18.937088829419725" fill="#ddd" fill-opacity="0.05466666666666667" stroke="#000" stroke-opacity="0.02" transform="translate(109.33333333333331, -18.937088829419725)"  /><polyline points="0,18.937088829419725,10.933333333333334,0,32.8,0,43.733333333333334,18.937088829419725,32.8,37.87417765883945,10.933333333333334,37.87417765883945,0,18.937088829419725" fill="#ddd" fill-opacity="0.05466666666666667" stroke="#000" stroke-opacity="0.02" transform="translate(109.33333333333331, 208.30797712361698)"  /><polyline points="0,18.937088829419725,10.933333333333334,0,32.8,0,43.733333333333334,18.937088829419725,32.8,37.87417765883945,10.933333333333334,37.87417765883945,0,18.937088829419725" fill="#222" fill-opacity="0.046" stroke="#000" stroke-opacity="0.02" transform="translate(142.13333333333333, 0.0)"  /><polyline points="0,18.937088829419725,10.933333333333334,0,32.8,0,43.733333333333334,18.937088829419725,32.8,37.87417765883945,10.933333333333334,37.87417765883945,0,18.937088829419725" fill="#222" fill-opacity="0.046" stroke="#000" stroke-opacity="0.02" transform="translate(142.13333333333333, 227.24506595303671)"  /><polyline points="0,18.937088829419725,10.933333333333334,0,32.8,0,43.733333333333334,18.937088829419725,32.8,37.87417765883945,10.933333333333334,37.87417765883945,0,18.937088829419725" fill="#222" fill-opacity="0.11533333333333334" stroke="#000" stroke-opacity="0.02" transform="translate(-21.866666666666667, 18.937088829419725)"  /><polyline points="0,18.937088829419725,10.933333333333334,0,32.8,0,43.733333333333334,18.937088829419725,32.8,37.87417765883945,10.933333333333334,37.87417765883945,0,18.937088829419725" fill="#222" fill-opacity="0.11533333333333334" stroke="#000" stroke-opacity="0.02" transform="translate(174.9333333333333, 18.937088829419725)"  /><polyline points="0,18.937088829419725,10.933333333333334,0,32.8,0,43.733333333333334,18.937088829419725,32.8,37.87417765883945,10.933333333333334,37.87417765883945,0,18.937088829419725" fill="#222" fill-opacity="0.098" stroke="#000" stroke-opacity="0.02" transform="translate(10.93333333333333, 37.87417765883946)"  /><polyline points="0,18.937088829419725,10.933333333333334,0,32.8,0,43.733333333333334,18.937088829419725,32.8,37.87417765883945,10.933333333333334,37.87417765883945,0,18.937088829419725" fill="#222" fill-opacity="0.06333333333333334" stroke="#000" stroke-opacity="0.02" transform="translate(43.73333333333333, 18.937088829419725)"  /><polyline points="0,18.937088829419725,10.933333333333334,0,32.8,0,43.733333333333334,18.937088829419725,32.8,37.87417765883945,10.933333333333334,37.87417765883945,0,18.937088829419725" fill="#222" fill-opacity="0.06333333333333334" stroke="#000" stroke-opacity="0.02" transform="translate(76.53333333333333, 37.87417765883946)"  /><polyline points="0,18.937088829419725,10.933333333333334,0,32.8,0,43.733333333333334,18.937088829419725,32.8,37.87417765883945,10.933333333333334,37.87417765883945,0,18.937088829419725" fill="#222" fill-opacity="0.06333333333333334" stroke="#000" stroke-opacity="0.02" transform="translate(109.33333333333331, 18.937088829419725)"  /><polyline points="0,18.937088829419725,10.933333333333334,0,32.8,0,43.733333333333334,18.937088829419725,32.8,37.87417765883945,10.933333333333334,37.87417765883945,0,18.937088829419725" fill="#ddd" fill-opacity="0.07200000000000001" stroke="#000" stroke-opacity="0.02" transform="translate(142.13333333333333, 37.87417765883946)"  /><polyline points="0,18.937088829419725,10.933333333333334,0,32.8,0,43.733333333333334,18.937088829419725,32.8,37.87417765883945,10.933333333333334,37.87417765883945,0,18.937088829419725" fill="#222" fill-opacity="0.08066666666666666" stroke="#000" stroke-opacity="0.02" transform="translate(-21.866666666666667, 56.81126648825918)"  /><polyline points="0,18.937088829419725,10.933333333333334,0,32.8,0,43.733333333333334,18.937088829419725,32.8,37.87417765883945,10.933333333333334,37.87417765883945,0,18.937088829419725" fill="#222" fill-opacity="0.08066666666666666" stroke="#000" stroke-opacity="0.02" transform="translate(174.9333333333333, 56.81126648825918)"  /><polyline points="0,18.937088829419725,10.933333333333334,0,32.8,0,43.733333333333334,18.937088829419725,32.8,37.87417765883945,10.933333333333334,37.87417765883945,0,18.937088829419725" fill="#222" fill-opacity="0.028666666666666667" stroke="#000" stroke-opacity="0.02" transform="translate(10.93333333333333, 75.7483553176789)"  /><polyline points="0,18.937088829419725,10.933333333333334,0,32.8,0,43.733333333333334,18.937088829419725,32.8,37.87417765883945,10.933333333333334,37.87417765883945,0,18.937088829419725" fill="#ddd" fill-opacity="0.02" stroke="#000" stroke-opacity="0.02" transform="translate(43.73333333333333, 56.81126648825918)"  /><polyline points="0,18.937088829419725,10.933333333333334,0,32.8,0,43.733333333333334,18.937088829419725,32.8,37.87417765883945,10.933333333333334,37.87417765883945,0,18.937088829419725" fill="#222" fill-opacity="0.11533333333333334" stroke="#000" stroke-opacity="0.02" transform="translate(76.53333333333333, 75.7483553176789)"  /><polyline points="0,18.937088829419725,10.933333333333334,0,32.8,0,43.733333333333334,18.937088829419725,32.8,37.87417765883945,10.933333333333334,37.87417765883945,0,18.937088829419725" fill="#222" fill-opacity="0.028666666666666667" stroke="#000" stroke-opacity="0.02" transform="translate(109.33333333333331, 56.81126648825918)"  /><polyline points="0,18.937088829419725,10.933333333333334,0,32.8,0,43.733333333333334,18.937088829419725,32.8,37.87417765883945,10.933333333333334,37.87417765883945,0,18.937088829419725" fill="#222" fill-opacity="0.13266666666666665" stroke="#000" stroke-opacity="0.02" transform="translate(142.13333333333333, 75.7483553176789)"  /><polyline points="0,18.937088829419725,10.933333333333334,0,32.8,0,43.733333333333334,18.937088829419725,32.8,37.87417765883945,10.933333333333334,37.87417765883945,0,18.937088829419725" fill="#ddd" fill-opacity="0.08933333333333333" stroke="#000" stroke-opacity="0.02" transform="translate(-21.866666666666667, 94.68544414709864)"  /><polyline points="0,18.937088829419725,10.933333333333334,0,32.8,0,43.733333333333334,18.937088829419725,32.8,37.87417765883945,10.933333333333334,37.87417765883945,0,18.937088829419725" fill="#ddd" fill-opacity="0.08933333333333333" stroke="#000" stroke-opacity="0.02" transform="translate(174.9333333333333, 94.68544414709864)"  /><polyline points="0,18.937088829419725,10.933333333333334,0,32.8,0,43.733333333333334,18.937088829419725,32.8,37.87417765883945,10.933333333333334,37.87417765883945,0,18.937088829419725" fill="#ddd" fill-opacity="0.14133333333333334" stroke="#000" stroke-opacity="0.02" transform="translate(10.93333333333333, 113.62253297651837)"  /><polyline points="0,18.937088829419725,10.933333333333334,0,32.8,0,43.733333333333334,18.937088829419725,32.8,37.87417765883945,10.933333333333334,37.87417765883945,0,18.937088829419725" fill="#222" fill-opacity="0.028666666666666667" stroke="#000" stroke-opacity="0.02" transform="translate(43.73333333333333, 94.68544414709864)"  /><polyline points="0,18.937088829419725,10.933333333333334,0,32.8,0,43.733333333333334,18.937088829419725,32.8,37.87417765883945,10.933333333333334,37.87417765883945,0,18.937088829419725" fill="#222" fill-opacity="0.08066666666666666" stroke="#000" stroke-opacity="0.02" transform="translate(76.53333333333333, 113.62253297651837)"  /><polyline points="0,18.937088829419725,10.933333333333334,0,32.8,0,43.733333333333334,18.937088829419725,32.8,37.87417765883945,10.933333333333334,37.87417765883945,0,18.937088829419725" fill="#ddd" fill-opacity="0.05466666666666667" stroke="#000" stroke-opacity="0.02" transform="translate(109.33333333333331, 94.68544414709864)"  /><polyline points="0,18.937088829419725,10.933333333333334,0,32.8,0,43.733333333333334,18.937088829419725,32.8,37.87417765883945,10.933333333333334,37.87417765883945,0,18.937088829419725" fill="#ddd" fill-opacity="0.02" stroke="#000" stroke-opacity="0.02" transform="translate(142.13333333333333, 113.62253297651837)"  /><polyline points="0,18.937088829419725,10.933333333333334,0,32.8,0,43.733333333333334,18.937088829419725,32.8,37.87417765883945,10.933333333333334,37.87417765883945,0,18.937088829419725" fill="#222" fill-opacity="0.06333333333333334" stroke="#000" stroke-opacity="0.02" transform="translate(-21.866666666666667, 132.55962180593806)"  /><polyline points="0,18.937088829419725,10.933333333333334,0,32.8,0,43.733333333333334,18.937088829419725,32.8,37.87417765883945,10.933333333333334,37.87417765883945,0,18.937088829419725" fill="#222" fill-opacity="0.06333333333333334" stroke="#000" stroke-opacity="0.02" transform="translate(174.9333333333333, 132.55962180593806)"  /><polyline points="0,18.937088829419725,10.933333333333334,0,32.8,0,43.733333333333334,18.937088829419725,32.8,37.87417765883945,10.933333333333334,37.87417765883945,0,18.937088829419725" fill="#222" fill-opacity="0.098" stroke="#000" stroke-opacity="0.02" transform="translate(10.93333333333333, 151.4967106353578)"  /><polyline points="0,18.937088829419725,10.933333333333334,0,32.8,0,43.733333333333334,18.937088829419725,32.8,37.87417765883945,10.933333333333334,37.87417765883945,0,18.937088829419725" fill="#222" fill-opacity="0.06333333333333334" stroke="#000" stroke-opacity="0.02" transform="translate(43.73333333333333, 132.55962180593806)"  /><polyline points="0,18.937088829419725,10.933333333333334,0,32.8,0,43.733333333333334,18.937088829419725,32.8,37.87417765883945,10.933333333333334,37.87417765883945,0,18.937088829419725" fill="#222" fill-opacity="0.11533333333333334" stroke="#000" stroke-opacity="0.02" transform="translate(76.53333333333333, 151.4967106353578)"  /><polyline points="0,18.937088829419725,10.933333333333334,0,32.8,0,43.733333333333334,18.937088829419725,32.8,37.87417765883945,10.933333333333334,37.87417765883945,0,18.937088829419725" fill="#ddd" fill-opacity="0.10666666666666667" stroke="#000" stroke-opacity="0.02" transform="translate(109.33333333333331, 132.55962180593806)"  /><polyline points="0,18.937088829419725,10.933333333333334,0,32.8,0,43.733333333333334,18.937088829419725,32.8,37.87417765883945,10.933333333333334,37.87417765883945,0,18.937088829419725" fill="#222" fill-opacity="0.08066666666666666" stroke="#000" stroke-opacity="0.02" transform="translate(142.13333333333333, 151.4967106353578)"  /><polyline points="0,18.937088829419725,10.933333333333334,0,32.8,0,43.733333333333334,18.937088829419725,32.8,37.87417765883945,10.933333333333334,37.87417765883945,0,18.937088829419725" fill="#ddd" fill-opacity="0.02" stroke="#000" stroke-opacity="0.02" transform="translate(-21.866666666666667, 170.4337994647775)"  /><polyline points="0,18.937088829419725,10.933333333333334,0,32.8,0,43.733333333333334,18.937088829419725,32.8,37.87417765883945,10.933333333333334,37.87417765883945,0,18.937088829419725" fill="#ddd" fill-opacity="0.02" stroke="#000" stroke-opacity="0.02" transform="translate(174.9333333333333, 170.4337994647775)"  /><polyline points="0,18.937088829419725,10.933333333333334,0,32.8,0,43.733333333333334,18.937088829419725,32.8,37.87417765883945,10.933333333333334,37.87417765883945,0,18.937088829419725" fill="#ddd" fill-opacity="0.14133333333333334" stroke="#000" stroke-opacity="0.02" transform="translate(10.93333333333333, 189.37088829419724)"  /><polyline points="0,18.937088829419725,10.933333333333334,0,32.8,0,43.733333333333334,18.937088829419725,32.8,37.87417765883945,10.933333333333334,37.87417765883945,0,18.937088829419725" fill="#222" fill-opacity="0.15" stroke="#000" stroke-opacity="0.02" transform="translate(43.73333333333333, 170.4337994647775)"  /><polyline points="0,18.937088829419725,10.933333333333334,0,32.8,0,43.733333333333334,18.937088829419725,32.8,37.87417765883945,10.933333333333334,37.87417765883945,0,18.937088829419725" fill="#ddd" fill-opacity="0.07200000000000001" stroke="#000" stroke-opacity="0.02" transform="translate(76.53333333333333, 189.37088829419724)"  /><polyline points="0,18.937088829419725,10.933333333333334,0,32.8,0,43.733333333333334,18.937088829419725,32.8,37.87417765883945,10.933333333333334,37.87417765883945,0,18.937088829419725" fill="#ddd" fill-opacity="0.03733333333333333" stroke="#000" stroke-opacity="0.02" transform="translate(109.33333333333331, 170.4337994647775)"  /><polyline points="0,18.937088829419725,10.933333333333334,0,32.8,0,43.733333333333334,18.937088829419725,32.8,37.87417765883945,10.933333333333334,37.87417765883945,0,18.937088829419725" fill="#222" fill-opacity="0.15" stroke="#000" stroke-opacity="0.02" transform="translate(142.13333333333333, 189.37088829419724)"  /></svg>