<svg xmlns="http://www.w3.org/2000/svg" width="250" height="250"><rect x="0" y="0" width="100%" height="100%" fill="rgb(161, 46, 128)"  /><polyline points="0, 0, 31.333333333333332, 31.333333333333332, 0, 31.333333333333332, 0, 0" stroke="#000" stroke-opacity="0.02" fill-opacity="0.08066666666666666" fill="#222" transform="translate(0.0, 31.333333333333332) scale(1, -1)"  /><polyline points="0, 0, 31.333333333333332, 31.333333333333332, 0, 31.333333333333332, 0, 0" stroke="#000" stroke-opacity="0.02" fill-opacity="0.08066666666666666" fill="#222" transform="translate(62.666666666666664, 31.333333333333332) scale(-1, -1)"  /><polyline points="0, 0, 31.333333333333332, 31.333333333333332, 0, 31.333333333333332, 0, 0" stroke="#000" stroke-opacity="0.02" fill-opacity="0.08066666666666666" fill="#222" transform="translate(0.0, 31.333333333333332) scale(1, 1)"  /><polyline points="0, 0, 31.333333333333332, 31.333333333333332, 0, 31.333333333333332, 0, 0" stroke="#000" stroke-opacity="0.02" fill-opacity="0.08066666666666666" fill="#222" transform="translate(62.666666666666664, 31.333333333333332) scale(-1, 1)"  /><polyline points="0, 0, 31.333333333333332, 31.333333333333332, 0, 31.333333333333332, 0, 0" stroke="#000" stroke-opacity="0.02" fill-opacity="0.10666666666666667" fill="#ddd" transform="translate(94.0, 0.0) scale(-1, 1)"  /><polyline points="0, 0, 31.333333333333332, 31.333333333333332, 0, 31.333333333333332, 0, 0" stroke="#000" stroke-opacity="0.02" fill-opacity="0.10666666666666667" fill="#ddd" transform="translate(94.0, 62.666666666666664) scale(1, -1)"  /><polyline points="0, 0, 31.333333333333332, 31.333333333333332, 0, 31.333333333333332, 0, 0" stroke="#000" stroke-opacity="0.02" fill-opacity="0.08066666666666666" fill="#222" transform="translate(94.0, 62.666666666666664) scale(-1, -1)"  /><polyline points="0, 0, 31.333333333333332, 31.333333333333332, 0, 31.333333333333332, 0, 0" stroke="#000" stroke-opacity="0.02" fill-opacity="0.08066666666666666" fill="#222" transform="translate(94.0, 0.0) scale(1, 1)"  /><polyline points="0, 0, 31.333333333333332, 31.333333333333332, 0, 31.333333333333332, 0, 0" stroke="#000" stroke-opacity="0.02" fill-opacity="0.08066666666666666" fill="#222" transform="translate(125.33333333333333, 31.333333333333332) scale(1, -1)"  /><polyline points="0, 0, 31.333333333333332, 31.333333333333332, 0, 31.333333333333332, 0, 0" stroke="#000" stroke-opacity="0.02" fill-opacity="0.08066666666666666" fill="#222" transform="translate(188.0, 31.333333333333332) scale(-1, -1)"  /><polyline points="0, 0, 31.333333333333332, 31.333333333333332, 0, 31.333333333333332, 0, 0" stroke="#000" stroke-opacity="0.02" fill-opacity="0.08066666666666666" fill="#222" transform="translate(125.33333333333333, 31.333333333333332) scale(1, 1)"  /><polyline points="0, 0, 31.333333333333332, 31.333333333333332, 0, 31.333333333333332, 0, 0" stroke="#000" stroke-opacity="0.02" fill-opacity="0.08066666666666666" fill="#222" transform="translate(188.0, 31.333333333333332) scale(-1, 1)"  /><polyline points="0, 0, 31.333333333333332, 31.333333333333332, 0, 31.333333333333332, 0, 0" stroke="#000" stroke-opacity="0.02" fill-opacity="0.02" fill="#ddd" transform="translate(219.33333333333334, 0.0) scale(-1, 1)"  /><polyline points="0, 0, 31.333333333333332, 31.333333333333332, 0, 31.333333333333332, 0, 0" stroke="#000" stroke-opacity="0.02" fill-opacity="0.02" fill="#ddd" transform="translate(219.33333333333334, 62.666666666666664) scale(1, -1)"  /><polyline points="0, 0, 31.333333333333332, 31.333333333333332, 0, 31.333333333333332, 0, 0" stroke="#000" stroke-opacity="0.02" fill-opacity="0.028666666666666667" fill="#222" transform="translate(219.33333333333334, 62.666666666666664) scale(-1, -1)"  /><polyline points="0, 0, 31.333333333333332, 31.333333333333332, 0, 31.333333333333332, 0, 0" stroke="#000" stroke-opacity="0.02" fill-opacity="0.028666666666666667" fill="#222" transform="translate(219.33333333333334, 0.0) scale(1, 1)"  /><polyline points="0, 0, 31.333333333333332, 31.333333333333332, 0, 31.333333333333332, 0, 0" stroke="#000" stroke-opacity="0.02" fill-opacity="0.028666666666666667" fill="#222" transform="translate(31.333333333333332, 62.666666666666664) scale(-1, 1)"  /><polyline points="0, 0, 31.333333333333332, 31.333333333333332, 0, 31.333333333333332, 0, 0" stroke="#000" stroke-opacity="0.02" fill-opacity="0.028666666666666667" fill="#222" transform="translate(31.333333333333332, 125.33333333333333) scale(1, -1)"  /><polyline points="0, 0, 31.333333333333332, 31.333333333333332, 0, 31.333333333333332, 0, 0" stroke="#000" stroke-opacity="0.02" fill-opacity="0.08933333333333333" fill="#ddd" transform="translate(31.333333333333332, 125.33333333333333) scale(-1, -1)"  /><polyline points="0, 0, 31.333333333333332, 31.333333333333332, 0, 31.333333333333332, 0, 0" stroke="#000" stroke-opacity="0.02" fill-opacity="0.08933333333333333" fill="#ddd" transform="translate(31.333333333333332, 62.666666666666664) scale(1, 1)"  /><polyline points="0, 0, 31.333333333333332, 31.333333333333332, 0, 31.333333333333332, 0, 0" stroke="#000" stroke-opacity="0.02" fill-opacity="0.08933333333333333" fill="#ddd" transform="translate(62.666666666666664, 94.0) scale(1, -1)"  /><polyline points="0, 0, 31.333333333333332, 31.333333333333332, 0, 31.333333333333332, 0, 0" stroke="#000" stroke-opacity="0.02" fill-opacity="0.08933333333333333" fill="#ddd" transform="translate(125.33333333333333, 94.0) scale(-1, -1)"  /><polyline points="0, 0, 31.333333333333332, 31.333333333333332, 0, 31.333333333333332, 0, 0" stroke="#000" stroke-opacity="0.02" fill-opacity="0.08933333333333333" fill="#ddd" transform="translate(62.666666666666664, 94.0) scale(1, 1)"  /><polyline points="0, 0, 31.333333333333332, 31.333333333333332, 0, 31.333333333333332, 0, 0" stroke="#000" stroke-opacity="0.02" fill-opacity="0.08933333333333333" fill="#ddd" transform="translate(125.33333333333333, 94.0) scale(-1, 1)"  /><polyline points="0, 0, 31.333333333333332, 31.333333333333332, 0, 31.333333333333332, 0, 0" stroke="#000" stroke-opacity="0.02" fill-opacity="0.05466666666666667" fill="#ddd" transform="translate(156.66666666666666, 62.666666666666664) scale(-1, 1)"  /><polyline points="0, 0, 31.333333333333332, 31.333333333333332, 0, 31.333333333333332, 0, 0" stroke="#000" stroke-opacity="0.02" fill-opacity="0.05466666666666667" fill="#ddd" transform="translate(156.66666666666666, 125.33333333333333) scale(1, -1)"  /><polyline points="0, 0, 31.333333333333332, 31.333333333333332, 0, 31.333333333333332, 0, 0" stroke="#000" stroke-opacity="0.02" fill-opacity="0.06333333333333334" fill="#222" transform="translate(156.66666666666666, 125.33333333333333) scale(-1, -1)"  /><polyline points="0, 0, 31.333333333333332, 31.333333333333332, 0, 31.333333333333332, 0, 0" stroke="#000" stroke-opacity="0.02" fill-opacity="0.06333333333333334" fill="#222" transform="translate(156.66666666666666, 62.666666666666664) scale(1, 1)"  /><polyline points="0, 0, 31.333333333333332, 31.333333333333332, 0, 31.333333333333332, 0, 0" stroke="#000" stroke-opacity="0.02" fill-opacity="0.06333333333333334" fill="#222" transform="translate(188.0, 94.0) scale(1, -1)"  /><polyline points="0, 0, 31.333333333333332, 31.333333333333332, 0, 31.333333333333332, 0, 0" stroke="#000" stroke-opacity="0.02" fill-opacity="0.06333333333333334" fill="#222" transform="translate(250.66666666666666, 94.0) scale(-1, -1)"  /><polyline points="0, 0, 31.333333333333332, 31.333333333333332, 0, 31.333333333333332, 0, 0" stroke="#000" stroke-opacity="0.02" fill-opacity="0.06333333333333334" fill="#222" transform="translate(188.0, 94.0) scale(1, 1)"  /><polyline points="0, 0, 31.333333333333332, 31.333333333333332, 0, 31.333333333333332, 0, 0" stroke="#000" stroke-opacity="0.02" fill-opacity="0.06333333333333334" fill="#222" transform="translate(250.66666666666666, 94.0) scale(-1, 1)"  /><polyline points="0, 0, 31.333333333333332, 31.333333333333332, 0, 31.333333333333332, 0, 0" stroke="#000" stroke-opacity="0.02" fill-opacity="0.13266666666666665" fill="#222" transform="translate(0.0, 156.66666666666666) scale(1, -1)"  /><polyline points="0, 0, 31.333333333333332, 31.333333333333332, 0, 31.333333333333332, 0, 0" stroke="#000" stroke-opacity="0.02" fill-opacity="0.13266666666666665" fill="#222" transform="translate(62.666666666666664, 156.66666666666666) scale(-1, -1)"  /><polyline points="0, 0, 31.333333333333332, 31.333333333333332, 0, 31.333333333333332, 0, 0" stroke="#000" stroke-opacity="0.02" fill-opacity="0.13266666666666665" fill="#222" transform="translate(0.0, 156.66666666666666) scale(1, 1)"  /><polyline points="0, 0, 31.333333333333332, 31.333333333333332, 0, 31.333333333333332, 0, 0" stroke="#000" stroke-opacity="0.02" fill-opacity="0.13266666666666665" fill="#222" transform="translate(62.666666666666664, 156.66666666666666) scale(-1, 1)"  /><polyline points="0, 0, 31.333333333333332, 31.333333333333332, 0, 31.333333333333332, 0, 0" stroke="#000" stroke-opacity="0.02" fill-opacity="0.10666666666666667" fill="#ddd" transform="translate(94.0, 125.33333333333333) scale(-1, 1)"  /><polyline points="0, 0, 31.333333333333332, 31.333333333333332, 0, 31.333333333333332, 0, 0" stroke="#000" stroke-opacity="0.02" fill-opacity="0.10666666666666667" fill="#ddd" transform="translate(94.0, 188.0) scale(1, -1)"  /><polyline points="0, 0, 31.333333333333332, 31.333333333333332, 0, 31.333333333333332, 0, 0" stroke="#000" stroke-opacity="0.02" fill-opacity="0.02" fill="#ddd" transform="translate(94.0, 188.0) scale(-1, -1)"  /><polyline points="0, 0, 31.333333333333332, 31.333333333333332, 0, 31.333333333333332, 0, 0" stroke="#000" stroke-opacity="0.02" fill-opacity="0.02" fill="#ddd" transform="translate(94.0, 125.33333333333333) scale(1, 1)"  /><polyline points="0, 0, 31.333333333333332, 31.333333333333332, 0, 31.333333333333332, 0, 0" stroke="#000" stroke-opacity="0.02" fill-opacity="0.02" fill="#ddd" transform="translate(125.33333333333333, 156.66666666666666) scale(1, -1)"  /><polyline points="0, 0, 31.333333333333332, 31.333333333333332, 0, 31.333333333333332, 0, 0" stroke="#000" stroke-opacity="0.02" fill-opacity="0.02" fill="#ddd" transform="translate(188.0, 156.66666666666666) scale(-1, -1)"  /><polyline points="0, 0, 31.333333333333332, 31.333333333333332, 0, 31.333333333333332, 0, 0" stroke="#000" stroke-opacity="0.02" fill-opacity="0.02" fill="#ddd" transform="translate(125.33333333333333, 156.66666666666666) scale(1, 1)"  /><polyline points="0, 0, 31.333333333333332, 31.333333333333332, 0, 31.333333333333332, 0, 0" stroke="#000" stroke-opacity="0.02" fill-opacity="0.02" fill="#ddd" transform="translate(188.0, 156.66666666666666) scale(-1, 1)"  /><polyline points="0, 0, 31.333333333333332, 31.333333333333332, 0, 31.333333333333332, 0, 0" stroke="#000" stroke-opacity="0.02" fill-opacity="0.07200000000000001" fill="#ddd" transform="translate(219.33333333333334, 125.33333333333333) scale(-1, 1)"  /><polyline points="0, 0, 31.333333333333332, 31.333333333333332, 0, 31.333333333333332, 0, 0" stroke="#000" stroke-opacity="0.02" fill-opacity="0.07200000000000001" fill="#ddd" transform="translate(219.33333333333334, 188.0) scale(1, -1)"  /><polyline points="0, 0, 31.333333333333332, 31.333333333333332, 0, 31.333333333333332, 0, 0" stroke="#000" stroke-opacity="0.02" fill-opacity="0.06333333333333334" fill="#222" transform="translate(219.33333333333334, 188.0) scale(-1, -1)"  /><polyline points="0, 0, 31.333333333333332, 31.333333333333332, 0, 31.333333333333332, 0, 0" stroke="#000" stroke-opacity="0.02" fill-opacity="0.06333333333333334" fill="#222" transform="translate(219.33333333333334, 125.33333333333333) scale(1, 1)"  /><polyline points="0, 0, 31.333333333333332, 31.333333333333332, 0, 31.333333333333332, 0, 0" stroke="#000" stroke-opacity="0.02" fill-opacity="0.06333333333333334" fill="#222" transform="translate(31.333333333333332, 188.0) scale(-1, 1)"  /><polyline points="0, 0, 31.333333333333332, 31.333333333333332, 0, 31.333333333333332, 0, 0" stroke="#000" stroke-opacity="0.02" fill-opacity="0.06333333333333334" fill="#222" transform="translate(31.333333333333332, 250.66666666666666) scale(1, -1)"  /><polyline points="0, 0, 31.333333333333332, 31.333333333333332, 0, 31.333333333333332, 0, 0" stroke="#000" stroke-opacity="0.02" fill-opacity="0.06333333333333334" fill="#222" transform="translate(31.333333333333332, 250.66666666666666) scale(-1, -1)"  /><polyline points="0, 0, 31.333333333333332, 31.333333333333332, 0, 31.333333333333332, 0, 0" stroke="#000" stroke-opacity="0.02" fill-opacity="0.06333333333333334" fill="#222" transform="translate(31.333333333333332, 188.0) scale(1, 1)"  /><polyline points="0, 0, 31.333333333333332, 31.333333333333332, 0, 31.333333333333332, 0, 0" stroke="#000" stroke-opacity="0.02" fill-opacity="0.06333333333333334" fill="#222" transform="translate(62.666666666666664, 219.33333333333334) scale(1, -1)"  /><polyline points="0, 0, 31.333333333333332, 31.333333333333332, 0, 31.333333333333332, 0, 0" stroke="#000" stroke-opacity="0.02" fill-opacity="0.06333333333333334" fill="#222" transform="translate(125.33333333333333, 219.33333333333334) scale(-1, -1)"  /><polyline points="0, 0, 31.333333333333332, 31.333333333333332, 0, 31.333333333333332, 0, 0" stroke="#000" stroke-opacity="0.02" fill-opacity="0.06333333333333334" fill="#222" transform="translate(62.666666666666664, 219.33333333333334) scale(1, 1)"  /><polyline points="0, 0, 31.333333333333332, 31.333333333333332, 0, 31.333333333333332, 0, 0" stroke="#000" stroke-opacity="0.02" fill-opacity="0.06333333333333334" fill="#222" transform="translate(125.33333333333333, 219.33333333333334) scale(-1, 1)"  /><polyline points="0, 0, 31.333333333333332, 31.333333333333332, 0, 31.333333333333332, 0, 0" stroke="#000" stroke-opacity="0.02" fill-opacity="0.028666666666666667" fill="#222" transform="translate(156.66666666666666, 188.0) scale(-1, 1)"  /><polyline points="0, 0, 31.333333333333332, 31.333333333333332, 0, 31.333333333333332, 0, 0" stroke="#000" stroke-opacity="0.02" fill-opacity="0.028666666666666667" fill="#222" transform="translate(156.66666666666666, 250.66666666666666) scale(1, -1)"  /><polyline points="0, 0, 31.333333333333332, 31.333333333333332, 0, 31.333333333333332, 0, 0" stroke="#000" stroke-opacity="0.02" fill-opacity="0.14133333333333334" fill="#ddd" transform="translate(156.66666666666666, 250.66666666666666) scale(-1, -1)"  /><polyline points="0, 0, 31.333333333333332, 31.333333333333332, 0, 31.333333333333332, 0, 0" stroke="#000" stroke-opacity="0.02" fill-opacity="0.14133333333333334" fill="#ddd" transform="translate(156.66666666666666, 188.0) scale(1, 1)"  /><polyline points="0, 0, 31.333333333333332, 31.333333333333332, 0, 31.333333333333332, 0, 0" stroke="#000" stroke-opacity="0.02" fill-opacity="0.14133333333333334" fill="#ddd" transform="translate(188.0, 219.33333333333334) scale(1, -1)"  /><polyline points="0, 0, 31.333333333333332, 31.333333333333332, 0, 31.333333333333332, 0, 0" stroke="#000" stroke-opacity="0.02" fill-opacity="0.14133333333333334" fill="#ddd" transform="translate(250.66666666666666, 219.33333333333334) scale(-1, -1)"  /><polyline points="0, 0, 31.333333333333332, 31.333333333333332, 0, 31.333333333333332, 0, 0" stroke="#000" stroke-opacity="0.02" fill-opacity="0.14133333333333334" fill="#ddd" transform="translate(188.0, 219.33333333333334) scale(1, 1)"  /><polyline points="0, 0, 31.333333333333332, 31.333333333333332, 0, 31.333333333333332, 0, 0" stroke="#000" stroke-opacity="0.02" fill-opacity="0.14133333333333334" fill="#ddd" transform="translate(250.66666666666666, 219.33333333333334) scale(-1, 1)"  /></svg>