<svg xmlns="http://www.w3.org/2000/svg" width="100" height="100"><rect x="0" y="0" width="100%" height="100%" fill="rgb(149, 60, 58)"  /><polyline points="0, 0, 40.66666666666667, 40.66666666666667, 0, 40.66666666666667, 0, 0" stroke="#000" stroke-opacity="0.02" fill-opacity="0.11533333333333334" fill="#222" transform="translate(0.0, 40.66666666666667) scale(1, -1)"  /><polyline points="0, 0, 40.66666666666667, 40.66666666666667, 0, 40.66666666666667, 0, 0" stroke="#000" stroke-opacity="0.02" fill-opacity="0.11533333333333334" fill="#222" transform="translate(81.33333333333334, 40.66666666666667) scale(-1, -1)"  /><polyline points="0, 0, 40.66666666666667, 40.66666666666667, 0, 40.66666666666667, 0, 0" stroke="#000" stroke-opacity="0.02" fill-opacity="0.11533333333333334" fill="#222" transform="translate(0.0, 40.66666666666667) scale(1, 1)"  /><polyline points="0, 0, 40.66666666666667, 40.66666666666667, 0, 40.66666666666667, 0, 0" stroke="#000" stroke-opacity="0.02" fill-opacity="0.11533333333333334" fill="#222" transform="translate(81.33333333333334, 40.66666666666667) scale(-1, 1)"  /><polyline points="0, 0, 40.66666666666667, 40.66666666666667, 0, 40.66666666666667, 0, 0" stroke="#000" stroke-opacity="0.02" fill-opacity="0.08933333333333333" fill="#ddd" transform="translate(122.00000000000001, 0.0) scale(-1, 1)"  /><polyline points="0, 0, 40.66666666666667, 40.66666666666667, 0, 40.66666666666667, 0, 0" stroke="#000" stroke-opacity="0.02" fill-opacity="0.08933333333333333" fill="#ddd" transform="translate(122.00000000000001, 81.33333333333334) scale(1, -1)"  /><polyline points="0, 0, 40.66666666666667, 40.66666666666667, 0, 40.66666666666667, 0, 0" stroke="#000" stroke-opacity="0.02" fill-opacity="0.10666666666666667" fill="#ddd" transform="translate(122.00000000000001, 81.33333333333334) scale(-1, -1)"  /><polyline points="0, 0, 40.66666666666667, 40.66666666666667, 0, 40.66666666666667, 0, 0" stroke="#000" stroke-opacity="0.02" fill-opacity="0.10666666666666667" fill="#ddd" transform="translate(122.00000000000001, 0.0) scale(1, 1)"  /><polyline points="0, 0, 40.66666666666667, 40.66666666666667, 0, 40.66666666666667, 0, 0" stroke="#000" stroke-opacity="0.02" fill-opacity="0.10666666666666667" fill="#ddd" transform="translate(162.66666666666669, 40.66666666666667) scale(1, -1)"  /><polyline points="0, 0, 40.66666666666667, 40.66666666666667, 0, 40.66666666666667, 0, 0" stroke="#000" stroke-opacity="0.02" fill-opacity="0.10666666666666667" fill="#ddd" transform="translate(244.00000000000003, 40.66666666666667) scale(-1, -1)"  /><polyline points="0, 0, 40.66666666666667, 40.66666666666667, 0, 40.66666666666667, 0, 0" stroke="#000" stroke-opacity="0.02" fill-opacity="0.10666666666666667" fill="#ddd" transform="translate(162.66666666666669, 40.66666666666667) scale(1, 1)"  /><polyline points="0, 0, 40.66666666666667, 40.66666666666667, 0, 40.66666666666667, 0, 0" stroke="#000" stroke-opacity="0.02" fill-opacity="0.10666666666666667" fill="#ddd" transform="translate(244.00000000000003, 40.66666666666667) scale(-1, 1)"  /><polyline points="0, 0, 40.66666666666667, 40.66666666666667, 0, 40.66666666666667, 0, 0" stroke="#000" stroke-opacity="0.02" fill-opacity="0.03733333333333333" fill="#ddd" transform="translate(284.6666666666667, 0.0) scale(-1, 1)"  /><polyline points="0, 0, 40.66666666666667, 40.66666666666667, 0, 40.66666666666667, 0, 0" stroke="#000" stroke-opacity="0.02" fill-opacity="0.03733333333333333" fill="#ddd" transform="translate(284.6666666666667, 81.33333333333334) scale(1, -1)"  /><polyline points="0, 0, 40.66666666666667, 40.66666666666667, 0, 40.66666666666667, 0, 0" stroke="#000" stroke-opacity="0.02" fill-opacity="0.02" fill="#ddd" transform="translate(284.6666666666667, 81.33333333333334) scale(-1, -1)"  /><polyline points="0, 0, 40.66666666666667, 40.66666666666667, 0, 40.66666666666667, 0, 0" stroke="#000" stroke-opacity="0.02" fill-opacity="0.02" fill="#ddd" transform="translate(284.6666666666667, 0.0) scale(1, 1)"  /><polyline points="0, 0, 40.66666666666667, 40.66666666666667, 0, 40.66666666666667, 0, 0" stroke="#000" stroke-opacity="0.02" fill-opacity="0.02" fill="#ddd" transform="translate(40.66666666666667, 81.33333333333334) scale(-1, 1)"  /><polyline points="0, 0, 40.66666666666667, 40.66666666666667, 0, 40.66666666666667, 0, 0" stroke="#000" stroke-opacity="0.02" fill-opacity="0.02" fill="#ddd" transform="translate(40.66666666666667, 162.66666666666669) scale(1, -1)"  /><polyline points="0, 0, 40.66666666666667, 40.66666666666667, 0, 40.66666666666667, 0, 0" stroke="#000" stroke-opacity="0.02" fill-opacity="0.07200000000000001" fill="#ddd" transform="translate(40.66666666666667, 162.66666666666669) scale(-1, -1)"  /><polyline points="0, 0, 40.66666666666667, 40.66666666666667, 0, 40.66666666666667, 0, 0" stroke="#000" stroke-opacity="0.02" fill-opacity="0.07200000000000001" fill="#ddd" transform="translate(40.66666666666667, 81.33333333333334) scale(1, 1)"  /><polyline points="0, 0, 40.66666666666667, 40.66666666666667, 0, 40.66666666666667, 0, 0" stroke="#000" stroke-opacity="0.02" fill-opacity="0.07200000000000001" fill="#ddd" transform="translate(81.33333333333334, 122.00000000000001) scale(1, -1)"  /><polyline points="0, 0, 40.66666666666667, 40.66666666666667, 0, 40.66666666666667, 0, 0" stroke="#000" stroke-opacity="0.02" fill-opacity="0.07200000000000001" fill="#ddd" transform="translate(162.66666666666669, 122.00000000000001) scale(-1, -1)"  /><polyline points="0, 0, 40.66666666666667, 40.66666666666667, 0, 40.66666666666667, 0, 0" stroke="#000" stroke-opacity="0.02" fill-opacity="0.07200000000000001" fill="#ddd" transform="translate(81.33333333333334, 122.00000000000001) scale(1, 1)"  /><polyline points="0, 0, 40.66666666666667, 40.66666666666667, 0, 40.66666666666667, 0, 0" stroke="#000" stroke-opacity="0.02" fill-opacity="0.07200000000000001" fill="#ddd" transform="translate(162.66666666666669, 122.00000000000001) scale(-1, 1)"  /><polyline points="0, 0, 40.66666666666667, 40.66666666666667, 0, 40.66666666666667, 0, 0" stroke="#000" stroke-opacity="0.02" fill-opacity="0.046" fill="#222" transform="translate(203.33333333333337, 81.33333333333334) scale(-1, 1)"  /><polyline points="0, 0, 40.66666666666667, 40.66666666666667, 0, 40.66666666666667, 0, 0" stroke="#000" stroke-opacity="0.02" fill-opacity="0.046" fill="#222" transform="translate(203.33333333333337, 162.66666666666669) scale(1, -1)"  /><polyline points="0, 0, 40.66666666666667, 40.66666666666667, 0, 40.66666666666667, 0, 0" stroke="#000" stroke-opacity="0.02" fill-opacity="0.02" fill="#ddd" transform="translate(203.33333333333337, 162.66666666666669) scale(-1, -1)"  /><polyline points="0, 0, 40.66666666666667, 40.66666666666667, 0, 40.66666666666667, 0, 0" stroke="#000" stroke-opacity="0.02" fill-opacity="0.02" fill="#ddd" transform="translate(203.33333333333337, 81.33333333333334) scale(1, 1)"  /><polyline points="0, 0, 40.66666666666667, 40.66666666666667, 0, 40.66666666666667, 0, 0" stroke="#000" stroke-opacity="0.02" fill-opacity="0.02" fill="#ddd" transform="translate(244.00000000000003, 122.00000000000001) scale(1, -1)"  /><polyline points="0, 0, 40.66666666666667, 40.66666666666667, 0, 40.66666666666667, 0, 0" stroke="#000" stroke-opacity="0.02" fill-opacity="0.02" fill="#ddd" transform="translate(325.33333333333337, 122.00000000000001) scale(-1, -1)"  /><polyline points="0, 0, 40.66666666666667, 40.66666666666667, 0, 40.66666666666667, 0, 0" stroke="#000" stroke-opacity="0.02" fill-opacity="0.02" fill="#ddd" transform="translate(244.00000000000003, 122.00000000000001) scale(1, 1)"  /><polyline points="0, 0, 40.66666666666667, 40.66666666666667, 0, 40.66666666666667, 0, 0" stroke="#000" stroke-opacity="0.02" fill-opacity="0.02" fill="#ddd" transform="translate(325.33333333333337, 122.00000000000001) scale(-1, 1)"  /><polyline points="0, 0, 40.66666666666667, 40.66666666666667, 0, 40.66666666666667, 0, 0" stroke="#000" stroke-opacity="0.02" fill-opacity="0.08933333333333333" fill="#ddd" transform="translate(0.0, 203.33333333333337) scale(1, -1)"  /><polyline points="0, 0, 40.66666666666667, 40.66666666666667, 0, 40.66666666666667, 0, 0" stroke="#000" stroke-opacity="0.02" fill-opacity="0.08933333333333333" fill="#ddd" transform="translate(81.33333333333334, 203.33333333333337) scale(-1, -1)"  /><polyline points="0, 0, 40.66666666666667, 40.66666666666667, 0, 40.66666666666667, 0, 0" stroke="#000" stroke-opacity="0.02" fill-opacity="0.08933333333333333" fill="#ddd" transform="translate(0.0, 203.33333333333337) scale(1, 1)"  /><polyline points="0, 0, 40.66666666666667, 40.66666666666667, 0, 40.66666666666667, 0, 0" stroke="#000" stroke-opacity="0.02" fill-opacity="0.08933333333333333" fill="#ddd" transform="translate(81.33333333333334, 203.33333333333337) scale(-1, 1)"  /><polyline points="0, 0, 40.66666666666667, 40.66666666666667, 0, 40.66666666666667, 0, 0" stroke="#000" stroke-opacity="0.02" fill-opacity="0.098" fill="#222" transform="translate(122.00000000000001, 162.66666666666669) scale(-1, 1)"  /><polyline points="0, 0, 40.66666666666667, 40.66666666666667, 0, 40.66666666666667, 0, 0" stroke="#000" stroke-opacity="0.02" fill-opacity="0.098" fill="#222" transform="translate(122.00000000000001, 244.00000000000003) scale(1, -1)"  /><polyline points="0, 0, 40.66666666666667, 40.66666666666667, 0, 40.66666666666667, 0, 0" stroke="#000" stroke-opacity="0.02" fill-opacity="0.098" fill="#222" transform="translate(122.00000000000001, 244.00000000000003) scale(-1, -1)"  /><polyline points="0, 0, 40.66666666666667, 40.66666666666667, 0, 40.66666666666667, 0, 0" stroke="#000" stroke-opacity="0.02" fill-opacity="0.098" fill="#222" transform="translate(122.00000000000001, 162.66666666666669) scale(1, 1)"  /><polyline points="0, 0, 40.66666666666667, 40.66666666666667, 0, 40.66666666666667, 0, 0" stroke="#000" stroke-opacity="0.02" fill-opacity="0.098" fill="#222" transform="translate(162.66666666666669, 203.33333333333337) scale(1, -1)"  /><polyline points="0, 0, 40.66666666666667, 40.66666666666667, 0, 40.66666666666667, 0, 0" stroke="#000" stroke-opacity="0.02" fill-opacity="0.098" fill="#222" transform="translate(244.00000000000003, 203.33333333333337) scale(-1, -1)"  /><polyline points="0, 0, 40.66666666666667, 40.66666666666667, 0, 40.66666666666667, 0, 0" stroke="#000" stroke-opacity="0.02" fill-opacity="0.098" fill="#222" transform="translate(162.66666666666669, 203.33333333333337) scale(1, 1)"  /><polyline points="0, 0, 40.66666666666667, 40.66666666666667, 0, 40.66666666666667, 0, 0" stroke="#000" stroke-opacity="0.02" fill-opacity="0.098" fill="#222" transform="translate(244.00000000000003, 203.33333333333337) scale(-1, 1)"  /><polyline points="0, 0, 40.66666666666667, 40.66666666666667, 0, 40.66666666666667, 0, 0" stroke="#000" stroke-opacity="0.02" fill-opacity="0.046" fill="#222" transform="translate(284.6666666666667, 162.66666666666669) scale(-1, 1)"  /><polyline points="0, 0, 40.66666666666667, 40.66666666666667, 0, 40.66666666666667, 0, 0" stroke="#000" stroke-opacity="0.02" fill-opacity="0.046" fill="#222" transform="translate(284.6666666666667, 244.00000000000003) scale(1, -1)"  /><polyline points="0, 0, 40.66666666666667, 40.66666666666667, 0, 40.66666666666667, 0, 0" stroke="#000" stroke-opacity="0.02" fill-opacity="0.02" fill="#ddd" transform="translate(284.6666666666667, 244.00000000000003) scale(-1, -1)"  /><polyline points="0, 0, 40.66666666666667, 40.66666666666667, 0, 40.66666666666667, 0, 0" stroke="#000" stroke-opacity="0.02" fill-opacity="0.02" fill="#ddd" transform="translate(284.6666666666667, 162.66666666666669) scale(1, 1)"  /><polyline points="0, 0, 40.66666666666667, 40.66666666666667, 0, 40.66666666666667, 0, 0" stroke="#000" stroke-opacity="0.02" fill-opacity="0.02" fill="#ddd" transform="translate(40.66666666666667, 244.00000000000003) scale(-1, 1)"  /><polyline points="0, 0, 40.66666666666667, 40.66666666666667, 0, 40.66666666666667, 0, 0" stroke="#000" stroke-opacity="0.02" fill-opacity="0.02" fill="#ddd" transform="translate(40.66666666666667, 325.33333333333337) scale(1, -1)"  /><polyline points="0, 0, 40.66666666666667, 40.66666666666667, 0, 40.66666666666667, 0, 0" stroke="#000" stroke-opacity="0.02" fill-opacity="0.03733333333333333" fill="#ddd" transform="translate(40.66666666666667, 325.33333333333337) scale(-1, -1)"  /><polyline points="0, 0, 40.66666666666667, 40.66666666666667, 0, 40.66666666666667, 0, 0" stroke="#000" stroke-opacity="0.02" fill-opacity="0.03733333333333333" fill="#ddd" transform="translate(40.66666666666667, 244.00000000000003) scale(1, 1)"  /><polyline points="0, 0, 40.66666666666667, 40.66666666666667, 0, 40.66666666666667, 0, 0" stroke="#000" stroke-opacity="0.02" fill-opacity="0.03733333333333333" fill="#ddd" transform="translate(81.33333333333334, 284.6666666666667) scale(1, -1)"  /><polyline points="0, 0, 40.66666666666667, 40.66666666666667, 0, 40.66666666666667, 0, 0" stroke="#000" stroke-opacity="0.02" fill-opacity="0.03733333333333333" fill="#ddd" transform="translate(162.66666666666669, 284.6666666666667) scale(-1, -1)"  /><polyline points="0, 0, 40.66666666666667, 40.66666666666667, 0, 40.66666666666667, 0, 0" stroke="#000" stroke-opacity="0.02" fill-opacity="0.03733333333333333" fill="#ddd" transform="translate(81.33333333333334, 284.6666666666667) scale(1, 1)"  /><polyline points="0, 0, 40.66666666666667, 40.66666666666667, 0, 40.66666666666667, 0, 0" stroke="#000" stroke-opacity="0.02" fill-opacity="0.03733333333333333" fill="#ddd" transform="translate(162.66666666666669, 284.6666666666667) scale(-1, 1)"  /><polyline points="0, 0, 40.66666666666667, 40.66666666666667, 0, 40.66666666666667, 0, 0" stroke="#000" stroke-opacity="0.02" fill-opacity="0.15" fill="#222" transform="translate(203.33333333333337, 244.00000000000003) scale(-1, 1)"  /><polyline points="0, 0, 40.66666666666667, 40.66666666666667, 0, 40.66666666666667, 0, 0" stroke="#000" stroke-opacity="0.02" fill-opacity="0.15" fill="#222" transform="translate(203.33333333333337, 325.33333333333337) scale(1, -1)"  /><polyline points="0, 0, 40.66666666666667, 40.66666666666667, 0, 40.66666666666667, 0, 0" stroke="#000" stroke-opacity="0.02" fill-opacity="0.15" fill="#222" transform="translate(203.33333333333337, 325.33333333333337) scale(-1, -1)"  /><polyline points="0, 0, 40.66666666666667, 40.66666666666667, 0, 40.66666666666667, 0, 0" stroke="#000" stroke-opacity="0.02" fill-opacity="0.15" fill="#222" transform="translate(203.33333333333337, 244.00000000000003) scale(1, 1)"  /><polyline points="0, 0, 40.66666666666667, 40.66666666666667, 0, 40.66666666666667, 0, 0" stroke="#000" stroke-opacity="0.02" fill-opacity="0.15" fill="#222" transform="translate(244.00000000000003, 284.6666666666667) scale(1, -1)"  /><polyline points="0, 0, 40.66666666666667, 40.66666666666667, 0, 40.66666666666667, 0, 0" stroke="#000" stroke-opacity="0.02" fill-opacity="0.15" fill="#222" transform="translate(325.33333333333337, 284.6666666666667) scale(-1, -1)"  /><polyline points="0, 0, 40.66666666666667, 40.66666666666667, 0, 40.66666666666667, 0, 0" stroke="#000" stroke-opacity="0.02" fill-opacity="0.15" fill="#222" transform="translate(244.00000000000003, 284.6666666666667) scale(1, 1)"  /><polyline points="0, 0, 40.66666666666667, 40.66666666666667, 0, 40.66666666666667, 0, 0" stroke="#000" stroke-opacity="0.02" fill-opacity="0.15" fill="#222" transform="translate(325.33333333333337, 284.6666666666667) scale(-1, 1)"  /></svg>