<svg xmlns="http://www.w3.org/2000/svg" width="381" height="381"><rect x="0" y="0" width="100%" height="100%" fill="rgb(63, 144, 77)"  /><polyline points="0, 0, 47.666666666666664, 47.666666666666664, 0, 47.666666666666664, 0, 0" stroke="#000" stroke-opacity="0.02" fill-opacity="0.14133333333333334" fill="#ddd" transform="translate(0.0, 47.666666666666664) scale(1, -1)"  /><polyline points="0, 0, 47.666666666666664, 47.666666666666664, 0, 47.666666666666664, 0, 0" stroke="#000" stroke-opacity="0.02" fill-opacity="0.14133333333333334" fill="#ddd" transform="translate(95.33333333333333, 47.666666666666664) scale(-1, -1)"  /><polyline points="0, 0, 47.666666666666664, 47.666666666666664, 0, 47.666666666666664, 0, 0" stroke="#000" stroke-opacity="0.02" fill-opacity="0.14133333333333334" fill="#ddd" transform="translate(0.0, 47.666666666666664) scale(1, 1)"  /><polyline points="0, 0, 47.666666666666664, 47.666666666666664, 0, 47.666666666666664, 0, 0" stroke="#000" stroke-opacity="0.02" fill-opacity="0.14133333333333334" fill="#ddd" transform="translate(95.33333333333333, 47.666666666666664) scale(-1, 1)"  /><polyline points="0, 0, 47.666666666666664, 47.666666666666664, 0, 47.666666666666664, 0, 0" stroke="#000" stroke-opacity="0.02" fill-opacity="0.08933333333333333" fill="#ddd" transform="translate(143.0, 0.0) scale(-1, 1)"  /><polyline points="0, 0, 47.666666666666664, 47.666666666666664, 0, 47.666666666666664, 0, 0" stroke="#000" stroke-opacity="0.02" fill-opacity="0.08933333333333333" fill="#ddd" transform="translate(143.0, 95.33333333333333) scale(1, -1)"  /><polyline points="0, 0, 47.666666666666664, 47.666666666666664, 0, 47.666666666666664, 0, 0" stroke="#000" stroke-opacity="0.02" fill-opacity="0.13266666666666665" fill="#222" transform="translate(143.0, 95.33333333333333) scale(-1, -1)"  /><polyline points="0, 0, 47.666666666666664, 47.666666666666664, 0, 47.666666666666664, 0, 0" stroke="#000" stroke-opacity="0.02" fill-opacity="0.13266666666666665" fill="#222" transform="translate(143.0, 0.0) scale(1, 1)"  /><polyline points="0, 0, 47.666666666666664, 47.666666666666664, 0, 47.666666666666664, 0, 0" stroke="#000" stroke-opacity="0.02" fill-opacity="0.13266666666666665" fill="#222" transform="translate(190.66666666666666, 47.666666666666664) scale(1, -1)"  /><polyline points="0, 0, 47.666666666666664, 47.666666666666664, 0, 47.666666666666664, 0, 0" stroke="#000" stroke-opacity="0.02" fill-opacity="0.13266666666666665" fill="#222" transform="translate(286.0, 47.666666666666664) scale(-1, -1)"  /><polyline points="0, 0, 47.666666666666664, 47.666666666666664, 0, 47.666666666666664, 0, 0" stroke="#000" stroke-opacity="0.02" fill-opacity="0.13266666666666665" fill="#222" transform="translate(190.66666666666666, 47.666666666666664) scale(1, 1)"  /><polyline points="0, 0, 47.666666666666664, 47.666666666666664, 0, 47.666666666666664, 0, 0" stroke="#000" stroke-opacity="0.02" fill-opacity="0.13266666666666665" fill="#222" transform="translate(286.0, 47.666666666666664) scale(-1, 1)"  /><polyline points="0, 0, 47.666666666666664, 47.666666666666664, 0, 47.666666666666664, 0, 0" stroke="#000" stroke-opacity="0.02" fill-opacity="0.15" fill="#222" transform="translate(333.6666666666667, 0.0) scale(-1, 1)"  /><polyline points="0, 0, 47.666666666666664, 47.666666666666664, 0, 47.666666666666664, 0, 0" stroke="#000" stroke-opacity="0.02" fill-opacity="0.15" fill="#222" transform="translate(333.6666666666667, 95.33333333333333) scale(1, -1)"  /><polyline points="0, 0, 47.666666666666664, 47.666666666666664, 0, 47.666666666666664, 0, 0" stroke="#000" stroke-opacity="0.02" fill-opacity="0.098" fill="#222" transform="translate(333.6666666666667, 95.33333333333333) scale(-1, -1)"  /><polyline points="0, 0, 47.666666666666664, 47.666666666666664, 0, 47.666666666666664, 0, 0" stroke="#000" stroke-opacity="0.02" fill-opacity="0.098" fill="#222" transform="translate(333.6666666666667, 0.0) scale(1, 1)"  /><polyline points="0, 0, 47.666666666666664, 47.666666666666664, 0, 47.666666666666664, 0, 0" stroke="#000" stroke-opacity="0.02" fill-opacity="0.098" fill="#222" transform="translate(47.666666666666664, 95.33333333333333) scale(-1, 1)"  /><polyline points="0, 0, 47.666666666666664, 47.666666666666664, 0, 47.666666666666664, 0, 0" stroke="#000" stroke-opacity="0.02" fill-opacity="0.098" fill="#222" transform="translate(47.666666666666664, 190.66666666666666) scale(1, -1)"  /><polyline points="0, 0, 47.666666666666664, 47.666666666666664, 0, 47.666666666666664, 0, 0" stroke="#000" stroke-opacity="0.02" fill-opacity="0.07200000000000001" fill="#ddd" transform="translate(47.666666666666664, 190.66666666666666) scale(-1, -1)"  /><polyline points="0, 0, 47.666666666666664, 47.666666666666664, 0, 47.666666666666664, 0, 0" stroke="#000" stroke-opacity="0.02" fill-opacity="0.07200000000000001" fill="#ddd" transform="translate(47.666666666666664, 95.33333333333333) scale(1, 1)"  /><polyline points="0, 0, 47.666666666666664, 47.666666666666664, 0, 47.666666666666664, 0, 0" stroke="#000" stroke-opacity="0.02" fill-opacity="0.07200000000000001" fill="#ddd" transform="translate(95.33333333333333, 143.0) scale(1, -1)"  /><polyline points="0, 0, 47.666666666666664, 47.666666666666664, 0, 47.666666666666664, 0, 0" stroke="#000" stroke-opacity="0.02" fill-opacity="0.07200000000000001" fill="#ddd" transform="translate(190.66666666666666, 143.0) scale(-1, -1)"  /><polyline points="0, 0, 47.666666666666664, 47.666666666666664, 0, 47.666666666666664, 0, 0" stroke="#000" stroke-opacity="0.02" fill-opacity="0.07200000000000001" fill="#ddd" transform="translate(95.33333333333333, 143.0) scale(1, 1)"  /><polyline points="0, 0, 47.666666666666664, 47.666666666666664, 0, 47.666666666666664, 0, 0" stroke="#000" stroke-opacity="0.02" fill-opacity="0.07200000000000001" fill="#ddd" transform="translate(190.66666666666666, 143.0) scale(-1, 1)"  /><polyline points="0, 0, 47.666666666666664, 47.666666666666664, 0, 47.666666666666664, 0, 0" stroke="#000" stroke-opacity="0.02" fill-opacity="0.07200000000000001" fill="#ddd" transform="translate(238.33333333333331, 95.33333333333333) scale(-1, 1)"  /><polyline points="0, 0, 47.666666666666664, 47.666666666666664, 0, 47.666666666666664, 0, 0" stroke="#000" stroke-opacity="0.02" fill-opacity="0.07200000000000001" fill="#ddd" transform="translate(238.33333333333331, 190.66666666666666) scale(1, -1)"  /><polyline points="0, 0, 47.666666666666664, 47.666666666666664, 0, 47.666666666666664, 0, 0" stroke="#000" stroke-opacity="0.02" fill-opacity="0.08066666666666666" fill="#222" transform="translate(238.33333333333331, 190.66666666666666) scale(-1, -1)"  /><polyline points="0, 0, 47.666666666666664, 47.666666666666664, 0, 47.666666666666664, 0, 0" stroke="#000" stroke-opacity="0.02" fill-opacity="0.08066666666666666" fill="#222" transform="translate(238.33333333333331, 95.33333333333333) scale(1, 1)"  /><polyline points="0, 0, 47.666666666666664, 47.666666666666664, 0, 47.666666666666664, 0, 0" stroke="#000" stroke-opacity="0.02" fill-opacity="0.08066666666666666" fill="#222" transform="translate(286.0, 143.0) scale(1, -1)"  /><polyline points="0, 0, 47.666666666666664, 47.666666666666664, 0, 47.666666666666664, 0, 0" stroke="#000" stroke-opacity="0.02" fill-opacity="0.08066666666666666" fill="#222" transform="translate(381.3333333333333, 143.0) scale(-1, -1)"  /><polyline points="0, 0, 47.666666666666664, 47.666666666666664, 0, 47.666666666666664, 0, 0" stroke="#000" stroke-opacity="0.02" fill-opacity="0.08066666666666666" fill="#222" transform="translate(286.0, 143.0) scale(1, 1)"  /><polyline points="0, 0, 47.666666666666664, 47.666666666666664, 0, 47.666666666666664, 0, 0" stroke="#000" stroke-opacity="0.02" fill-opacity="0.08066666666666666" fill="#222" transform="translate(381.3333333333333, 143.0) scale(-1, 1)"  /><polyline points="0, 0, 47.666666666666664, 47.666666666666664, 0, 47.666666666666664, 0, 0" stroke="#000" stroke-opacity="0.02" fill-opacity="0.07200000000000001" fill="#ddd" transform="translate(0.0, 238.33333333333331) scale(1, -1)"  /><polyline points="0, 0, 47.666666666666664, 47.666666666666664, 0, 47.666666666666664, 0, 0" stroke="#000" stroke-opacity="0.02" fill-opacity="0.07200000000000001" fill="#ddd" transform="translate(95.33333333333333, 238.33333333333331) scale(-1, -1)"  /><polyline points="0, 0, 47.666666666666664, 47.666666666666664, 0, 47.666666666666664, 0, 0" stroke="#000" stroke-opacity="0.02" fill-opacity="0.07200000000000001" fill="#ddd" transform="translate(0.0, 238.33333333333331) scale(1, 1)"  /><polyline points="0, 0, 47.666666666666664, 47.666666666666664, 0, 47.666666666666664, 0, 0" stroke="#000" stroke-opacity="0.02" fill-opacity="0.07200000000000001" fill="#ddd" transform="translate(95.33333333333333, 238.33333333333331) scale(-1, 1)"  /><polyline points="0, 0, 47.666666666666664, 47.666666666666664, 0, 47.666666666666664, 0, 0" stroke="#000" stroke-opacity="0.02" fill-opacity="0.08066666666666666" fill="#222" transform="translate(143.0, 190.66666666666666) scale(-1, 1)"  /><polyline points="0, 0, 47.666666666666664, 47.666666666666664, 0, 47.666666666666664, 0, 0" stroke="#000" stroke-opacity="0.02" fill-opacity="0.08066666666666666" fill="#222" transform="translate(143.0, 286.0) scale(1, -1)"  /><polyline points="0, 0, 47.666666666666664, 47.666666666666664, 0, 47.666666666666664, 0, 0" stroke="#000" stroke-opacity="0.02" fill-opacity="0.15" fill="#222" transform="translate(143.0, 286.0) scale(-1, -1)"  /><polyline points="0, 0, 47.666666666666664, 47.666666666666664, 0, 47.666666666666664, 0, 0" stroke="#000" stroke-opacity="0.02" fill-opacity="0.15" fill="#222" transform="translate(143.0, 190.66666666666666) scale(1, 1)"  /><polyline points="0, 0, 47.666666666666664, 47.666666666666664, 0, 47.666666666666664, 0, 0" stroke="#000" stroke-opacity="0.02" fill-opacity="0.15" fill="#222" transform="translate(190.66666666666666, 238.33333333333331) scale(1, -1)"  /><polyline points="0, 0, 47.666666666666664, 47.666666666666664, 0, 47.666666666666664, 0, 0" stroke="#000" stroke-opacity="0.02" fill-opacity="0.15" fill="#222" transform="translate(286.0, 238.33333333333331) scale(-1, -1)"  /><polyline points="0, 0, 47.666666666666664, 47.666666666666664, 0, 47.666666666666664, 0, 0" stroke="#000" stroke-opacity="0.02" fill-opacity="0.15" fill="#222" transform="translate(190.66666666666666, 238.33333333333331) scale(1, 1)"  /><polyline points="0, 0, 47.666666666666664, 47.666666666666664, 0, 47.666666666666664, 0, 0" stroke="#000" stroke-opacity="0.02" fill-opacity="0.15" fill="#222" transform="translate(286.0, 238.33333333333331) scale(-1, 1)"  /><polyline points="0, 0, 47.666666666666664, 47.666666666666664, 0, 47.666666666666664, 0, 0" stroke="#000" stroke-opacity="0.02" fill-opacity="0.11533333333333334" fill="#222" transform="translate(333.6666666666667, 190.66666666666666) scale(-1, 1)"  /><polyline points="0, 0, 47.666666666666664, 47.666666666666664, 0, 47.666666666666664, 0, 0" stroke="#000" stroke-opacity="0.02" fill-opacity="0.11533333333333334" fill="#222" transform="translate(333.6666666666667, 286.0) scale(1, -1)"  /><polyline points="0, 0, 47.666666666666664, 47.666666666666664, 0, 47.666666666666664, 0, 0" stroke="#000" stroke-opacity="0.02" fill-opacity="0.13266666666666665" fill="#222" transform="translate(333.6666666666667, 286.0) scale(-1, -1)"  /><polyline points="0, 0, 47.666666666666664, 47.666666666666664, 0, 47.666666666666664, 0, 0" stroke="#000" stroke-opacity="0.02" fill-opacity="0.13266666666666665" fill="#222" transform="translate(333.6666666666667, 190.66666666666666) scale(1, 1)"  /><polyline points="0, 0, 47.666666666666664, 47.666666666666664, 0, 47.666666666666664, 0, 0" stroke="#000" stroke-opacity="0.02" fill-opacity="0.13266666666666665" fill="#222" transform="translate(47.666666666666664, 286.0) scale(-1, 1)"  /><polyline points="0, 0, 47.666666666666664, 47.666666666666664, 0, 47.666666666666664, 0, 0" stroke="#000" stroke-opacity="0.02" fill-opacity="0.13266666666666665" fill="#222" transform="translate(47.666666666666664, 381.3333333333333) scale(1, -1)"  /><polyline points="0, 0, 47.666666666666664, 47.666666666666664, 0, 47.666666666666664, 0, 0" stroke="#000" stroke-opacity="0.02" fill-opacity="0.046" fill="#222" transform="translate(47.666666666666664, 381.3333333333333) scale(-1, -1)"  /><polyline points="0, 0, 47.666666666666664, 47.666666666666664, 0, 47.666666666666664, 0, 0" stroke="#000" stroke-opacity="0.02" fill-opacity="0.046" fill="#222" transform="translate(47.666666666666664, 286.0) scale(1, 1)"  /><polyline points="0, 0, 47.666666666666664, 47.666666666666664, 0, 47.666666666666664, 0, 0" stroke="#000" stroke-opacity="0.02" fill-opacity="0.046" fill="#222" transform="translate(95.33333333333333, 333.6666666666667) scale(1, -1)"  /><polyline points="0, 0, 47.666666666666664, 47.666666666666664, 0, 47.666666666666664, 0, 0" stroke="#000" stroke-opacity="0.02" fill-opacity="0.046" fill="#222" transform="translate(190.66666666666666, 333.6666666666667) scale(-1, -1)"  /><polyline points="0, 0, 47.666666666666664, 47.666666666666664, 0, 47.666666666666664, 0, 0" stroke="#000" stroke-opacity="0.02" fill-opacity="0.046" fill="#222" transform="translate(95.33333333333333, 333.6666666666667) scale(1, 1)"  /><polyline points="0, 0, 47.666666666666664, 47.666666666666664, 0, 47.666666666666664, 0, 0" stroke="#000" stroke-opacity="0.02" fill-opacity="0.046" fill="#222" transform="translate(190.66666666666666, 333.6666666666667) scale(-1, 1)"  /><polyline points="0, 0, 47.666666666666664, 47.666666666666664, 0, 47.666666666666664, 0, 0" stroke="#000" stroke-opacity="0.02" fill-opacity="0.10666666666666667" fill="#ddd" transform="translate(238.33333333333331, 286.0) scale(-1, 1)"  /><polyline points="0, 0, 47.666666666666664, 47.666666666666664, 0, 47.666666666666664, 0, 0" stroke="#000" stroke-opacity="0.02" fill-opacity="0.10666666666666667" fill="#ddd" transform="translate(238.33333333333331, 381.3333333333333) scale(1, -1)"  /><polyline points="0, 0, 47.666666666666664, 47.666666666666664, 0, 47.666666666666664, 0, 0" stroke="#000" stroke-opacity="0.02" fill-opacity="0.046" fill="#222" transform="translate(238.33333333333331, 381.3333333333333) scale(-1, -1)"  /><polyline points="0, 0, 47.666666666666664, 47.666666666666664, 0, 47.666666666666664, 0, 0" stroke="#000" stroke-opacity="0.02" fill-opacity="0.046" fill="#222" transform="translate(238.33333333333331, 286.0) scale(1, 1)"  /><polyline points="0, 0, 47.666666666666664, 47.666666666666664, 0, 47.666666666666664, 0, 0" stroke="#000" stroke-opacity="0.02" fill-opacity="0.046" fill="#222" transform="translate(286.0, 333.6666666666667) scale(1, -1)"  /><polyline points="0, 0, 47.666666666666664, 47.666666666666664, 0, 47.666666666666664, 0, 0" stroke="#000" stroke-opacity="0.02" fill-opacity="0.046" fill="#222" transform="translate(381.3333333333333, 333.6666666666667) scale(-1, -1)"  /><polyline points="0, 0, 47.666666666666664, 47.666666666666664, 0, 47.666666666666664, 0, 0" stroke="#000" stroke-opacity="0.02" fill-opacity="0.046" fill="#222" transform="translate(286.0, 333.6666666666667) scale(1, 1)"  /><polyline points="0, 0, 47.666666666666664, 47.666666666666664, 0, 47.666666666666664, 0, 0" stroke="#000" stroke-opacity="0.02" fill-opacity="0.046" fill="#222" transform="translate(381.3333333333333, 333.6666666666667) scale(-1, 1)"  /></svg>