<svg xmlns="http://www.w3.org/2000/svg" width="100" height="100"><rect x="0" y="0" width="100%" height="100%" fill="rgb(155, 52, 117)"  /><rect x="6.0" y="6.0" width="84.0" height="84.0" fill="none" stroke="#222" style="opacity:0.15;stroke-width:12.0px;"  /><rect x="30.0" y="30.0" width="36.0" height="36.0" fill="none" stroke="#222" style="opacity:0.13266666666666665;stroke-width:12.0px;"  /><rect x="114.0" y="6.0" width="84.0" height="84.0" fill="none" stroke="#ddd" style="opacity:0.02;stroke-width:12.0px;"  /><rect x="138.0" y="30.0" width="36.0" height="36.0" fill="none" stroke="#222" style="opacity:0.08066666666666666;stroke-width:12.0px;"  /><rect x="222.0" y="6.0" width="84.0" height="84.0" fill="none" stroke="#222" style="opacity:0.13266666666666665;stroke-width:12.0px;"  /><rect x="246.0" y="30.0" width="36.0" height="36.0" fill="none" stroke="#ddd" style="opacity:0.12400000000000001;stroke-width:12.0px;"  /><rect x="330.0" y="6.0" width="84.0" height="84.0" fill="none" stroke="#222" style="opacity:0.13266666666666665;stroke-width:12.0px;"  /><rect x="354.0" y="30.0" width="36.0" height="36.0" fill="none" stroke="#ddd" style="opacity:0.05466666666666667;stroke-width:12.0px;"  /><rect x="438.0" y="6.0" width="84.0" height="84.0" fill="none" stroke="#ddd" style="opacity:0.12400000000000001;stroke-width:12.0px;"  /><rect x="462.0" y="30.0" width="36.0" height="36.0" fill="none" stroke="#222" style="opacity:0.098;stroke-width:12.0px;"  /><rect x="546.0" y="6.0" width="84.0" height="84.0" fill="none" stroke="#222" style="opacity:0.028666666666666667;stroke-width:12.0px;"  /><rect x="570.0" y="30.0" width="36.0" height="36.0" fill="none" stroke="#222" style="opacity:0.08066666666666666;stroke-width:12.0px;"  /><rect x="6.0" y="114.0" width="84.0" height="84.0" fill="none" stroke="#ddd" style="opacity:0.03733333333333333;stroke-width:12.0px;"  /><rect x="30.0" y="138.0" width="36.0" height="36.0" fill="none" stroke="#ddd" style="opacity:0.05466666666666667;stroke-width:12.0px;"  /><rect x="114.0" y="114.0" width="84.0" height="84.0" fill="none" stroke="#ddd" style="opacity:0.03733333333333333;stroke-width:12.0px;"  /><rect x="138.0" y="138.0" width="36.0" height="36.0" fill="none" stroke="#222" style="opacity:0.06333333333333334;stroke-width:12.0px;"  /><rect x="222.0" y="114.0" width="84.0" height="84.0" fill="none" stroke="#ddd" style="opacity:0.10666666666666667;stroke-width:12.0px;"  /><rect x="246.0" y="138.0" width="36.0" height="36.0" fill="none" stroke="#222" style="opacity:0.08066666666666666;stroke-width:12.0px;"  /><rect x="330.0" y="114.0" width="84.0" height="84.0" fill="none" stroke="#222" style="opacity:0.15;stroke-width:12.0px;"  /><rect x="354.0" y="138.0" width="36.0" height="36.0" fill="none" stroke="#ddd" style="opacity:0.08933333333333333;stroke-width:12.0px;"  /><rect x="438.0" y="114.0" width="84.0" height="84.0" fill="none" stroke="#ddd" style="opacity:0.05466666666666667;stroke-width:12.0px;"  /><rect x="462.0" y="138.0" width="36.0" height="36.0" fill="none" stroke="#222" style="opacity:0.11533333333333334;stroke-width:12.0px;"  /><rect x="546.0" y="114.0" width="84.0" height="84.0" fill="none" stroke="#ddd" style="opacity:0.05466666666666667;stroke-width:12.0px;"  /><rect x="570.0" y="138.0" width="36.0" height="36.0" fill="none" stroke="#222" style="opacity:0.13266666666666665;stroke-width:12.0px;"  /><rect x="6.0" y="222.0" width="84.0" height="84.0" fill="none" stroke="#ddd" style="opacity:0.05466666666666667;stroke-width:12.0px;"  /><rect x="30.0" y="246.0" width="36.0" height="36.0" fill="none" stroke="#222" style="opacity:0.028666666666666667;stroke-width:12.0px;"  /><rect x="114.0" y="222.0" width="84.0" height="84.0" fill="none" stroke="#222" style="opacity:0.08066666666666666;stroke-width:12.0px;"  /><rect x="138.0" y="246.0" width="36.0" height="36.0" fill="none" stroke="#ddd" style="opacity:0.12400000000000001;stroke-width:12.0px;"  /><rect x="222.0" y="222.0" width="84.0" height="84.0" fill="none" stroke="#222" style="opacity:0.028666666666666667;stroke-width:12.0px;"  /><rect x="246.0" y="246.0" width="36.0" height="36.0" fill="none" stroke="#222" style="opacity:0.15;stroke-width:12.0px;"  /><rect x="330.0" y="222.0" width="84.0" height="84.0" fill="none" stroke="#ddd" style="opacity:0.10666666666666667;stroke-width:12.0px;"  /><rect x="354.0" y="246.0" width="36.0" height="36.0" fill="none" stroke="#222" style="opacity:0.098;stroke-width:12.0px;"  /><rect x="438.0" y="222.0" width="84.0" height="84.0" fill="none" stroke="#222" style="opacity:0.13266666666666665;stroke-width:12.0px;"  /><rect x="462.0" y="246.0" width="36.0" height="36.0" fill="none" stroke="#ddd" style="opacity:0.07200000000000001;stroke-width:12.0px;"  /><rect x="546.0" y="222.0" width="84.0" height="84.0" fill="none" stroke="#ddd" style="opacity:0.08933333333333333;stroke-width:12.0px;"  /><rect x="570.0" y="246.0" width="36.0" height="36.0" fill="none" stroke="#222" style="opacity:0.08066666666666666;stroke-width:12.0px;"  /><rect x="6.0" y="330.0" width="84.0" height="84.0" fill="none" stroke="#222" style="opacity:0.06333333333333334;stroke-width:12.0px;"  /><rect x="30.0" y="354.0" width="36.0" height="36.0" fill="none" stroke="#222" style="opacity:0.046;stroke-width:12.0px;"  /><rect x="114.0" y="330.0" width="84.0" height="84.0" fill="none" stroke="#ddd" style="opacity:0.07200000000000001;stroke-width:12.0px;"  /><rect x="138.0" y="354.0" width="36.0" height="36.0" fill="none" stroke="#222" style="opacity:0.08066666666666666;stroke-width:12.0px;"  /><rect x="222.0" y="330.0" width="84.0" height="84.0" fill="none" stroke="#222" style="opacity:0.08066666666666666;stroke-width:12.0px;"  /><rect x="246.0" y="354.0" width="36.0" height="36.0" fill="none" stroke="#ddd" style="opacity:0.07200000000000001;stroke-width:12.0px;"  /><rect x="330.0" y="330.0" width="84.0" height="84.0" fill="none" stroke="#222" style="opacity:0.046;stroke-width:12.0px;"  /><rect x="354.0" y="354.0" width="36.0" height="36.0" fill="none" stroke="#222" style="opacity:0.06333333333333334;stroke-width:12.0px;"  /><rect x="438.0" y="330.0" width="84.0" height="84.0" fill="none" stroke="#222" style="opacity:0.08066666666666666;stroke-width:12.0px;"  /><rect x="462.0" y="354.0" width="36.0" height="36.0" fill="none" stroke="#ddd" style="opacity:0.08933333333333333;stroke-width:12.0px;"  /><rect x="546.0" y="330.0" width="84.0" height="84.0" fill="none" stroke="#ddd" style="opacity:0.07200000000000001;stroke-width:12.0px;"  /><rect x="570.0" y="354.0" width="36.0" height="36.0" fill="none" stroke="#222" style="opacity:0.13266666666666665;stroke-width:12.0px;"  /><rect x="6.0" y="438.0" width="84.0" height="84.0" fill="none" stroke="#222" style="opacity:0.098;stroke-width:12.0px;"  /><rect x="30.0" y="462.0" width="36.0" height="36.0" fill="none" stroke="#ddd" style="opacity:0.10666666666666667;stroke-width:12.0px;"  /><rect x="114.0" y="438.0" width="84.0" height="84.0" fill="none" stroke="#222" style="opacity:0.15;stroke-width:12.0px;"  /><rect x="138.0" y="462.0" width="36.0" height="36.0" fill="none" stroke="#222" style="opacity:0.028666666666666667;stroke-width:12.0px;"  /><rect x="222.0" y="438.0" width="84.0" height="84.0" fill="none" stroke="#ddd" style="opacity:0.12400000000000001;stroke-width:12.0px;"  /><rect x="246.0" y="462.0" width="36.0" height="36.0" fill="none" stroke="#222" style="opacity:0.08066666666666666;stroke-width:12.0px;"  /><rect x="330.0" y="438.0" width="84.0" height="84.0" fill="none" stroke="#222" style="opacity:0.028666666666666667;stroke-width:12.0px;"  /><rect x="354.0" y="462.0" width="36.0" height="36.0" fill="none" stroke="#ddd" style="opacity:0.05466666666666667;stroke-width:12.0px;"  /><rect x="438.0" y="438.0" width="84.0" height="84.0" fill="none" stroke="#222" style="opacity:0.13266666666666665;stroke-width:12.0px;"  /><rect x="462.0" y="462.0" width="36.0" height="36.0" fill="none" stroke="#ddd" style="opacity:0.05466666666666667;stroke-width:12.0px;"  /><rect x="546.0" y="438.0" width="84.0" height="84.0" fill="none" stroke="#222" style="opacity:0.11533333333333334;stroke-width:12.0px;"  /><rect x="570.0" y="462.0" width="36.0" height="36.0" fill="none" stroke="#ddd" style="opacity:0.05466666666666667;stroke-width:12.0px;"  /><rect x="6.0" y="546.0" width="84.0" height="84.0" fill="none" stroke="#ddd" style="opacity:0.08933333333333333;stroke-width:12.0px;"  /><rect x="30.0" y="570.0" width="36.0" height="36.0" fill="none" stroke="#222" style="opacity:0.15;stroke-width:12.0px;"  /><rect x="114.0" y="546.0" width="84.0" height="84.0" fill="none" stroke="#222" style="opacity:0.08066666666666666;stroke-width:12.0px;"  /><rect x="138.0" y="570.0" width="36.0" height="36.0" fill="none" stroke="#ddd" style="opacity:0.10666666666666667;stroke-width:12.0px;"  /><rect x="222.0" y="546.0" width="84.0" height="84.0" fill="none" stroke="#222" style="opacity:0.06333333333333334;stroke-width:12.0px;"  /><rect x="246.0" y="570.0" width="36.0" height="36.0" fill="none" stroke="#ddd" style="opacity:0.03733333333333333;stroke-width:12.0px;"  /><rect x="330.0" y="546.0" width="84.0" height="84.0" fill="none" stroke="#ddd" style="opacity:0.05466666666666667;stroke-width:12.0px;"  /><rect x="354.0" y="570.0" width="36.0" height="36.0" fill="none" stroke="#ddd" style="opacity:0.03733333333333333;stroke-width:12.0px;"  /><rect x="438.0" y="546.0" width="84.0" height="84.0" fill="none" stroke="#222" style="opacity:0.08066666666666666;stroke-width:12.0px;"  /><rect x="462.0" y="570.0" width="36.0" height="36.0" fill="none" stroke="#222" style="opacity:0.028666666666666667;stroke-width:12.0px;"  /><rect x="546.0" y="546.0" width="84.0" height="84.0" fill="none" stroke="#222" style="opacity:0.098;stroke-width:12.0px;"  /><rect x="570.0" y="570.0" width="36.0" height="36.0" fill="none" stroke="#ddd" style="opacity:0.12400000000000001;stroke-width:12.0px;"  /></svg>