<svg xmlns="http://www.w3.org/2000/svg" width="340" height="340"><rect x="0" y="0" width="100%" height="100%" fill="rgb(63, 144, 77)"  /><polyline points="18.7,0,37.96666666666667,0,56.666666666666664,18.7,56.666666666666664,37.96666666666667,37.96666666666667,56.666666666666664,18.7,56.666666666666664,0,37.96666666666667,0,18.7,18.7,0" fill="#ddd" fill-opacity="0.14133333333333334" stroke="#000" stroke-opacity="0.02" transform="translate(0.0, 0.0)"  /><polyline points="18.7,0,37.96666666666667,0,56.666666666666664,18.7,56.666666666666664,37.96666666666667,37.96666666666667,56.666666666666664,18.7,56.666666666666664,0,37.96666666666667,0,18.7,18.7,0" fill="#ddd" fill-opacity="0.08933333333333333" stroke="#000" stroke-opacity="0.02" transform="translate(56.666666666666664, 0.0)"  /><polyline points="18.7,0,37.96666666666667,0,56.666666666666664,18.7,56.666666666666664,37.96666666666667,37.96666666666667,56.666666666666664,18.7,56.666666666666664,0,37.96666666666667,0,18.7,18.7,0" fill="#222" fill-opacity="0.13266666666666665" stroke="#000" stroke-opacity="0.02" transform="translate(113.33333333333333, 0.0)"  /><polyline points="18.7,0,37.96666666666667,0,56.666666666666664,18.7,56.666666666666664,37.96666666666667,37.96666666666667,56.666666666666664,18.7,56.666666666666664,0,37.96666666666667,0,18.7,18.7,0" fill="#222" fill-opacity="0.15" stroke="#000" stroke-opacity="0.02" transform="translate(170.0, 0.0)"  /><polyline points="18.7,0,37.96666666666667,0,56.666666666666664,18.7,56.666666666666664,37.96666666666667,37.96666666666667,56.666666666666664,18.7,56.666666666666664,0,37.96666666666667,0,18.7,18.7,0" fill="#222" fill-opacity="0.098" stroke="#000" stroke-opacity="0.02" transform="translate(226.66666666666666, 0.0)"  /><polyline points="18.7,0,37.96666666666667,0,56.666666666666664,18.7,56.666666666666664,37.96666666666667,37.96666666666667,56.666666666666664,18.7,56.666666666666664,0,37.96666666666667,0,18.7,18.7,0" fill="#ddd" fill-opacity="0.07200000000000001" stroke="#000" stroke-opacity="0.02" transform="translate(283.3333333333333, 0.0)"  /><polyline points="18.7,0,37.96666666666667,0,56.666666666666664,18.7,56.666666666666664,37.96666666666667,37.96666666666667,56.666666666666664,18.7,56.666666666666664,0,37.96666666666667,0,18.7,18.7,0" fill="#ddd" fill-opacity="0.07200000000000001" stroke="#000" stroke-opacity="0.02" transform="translate(0.0, 56.666666666666664)"  /><polyline points="18.7,0,37.96666666666667,0,56.666666666666664,18.7,56.666666666666664,37.96666666666667,37.96666666666667,56.666666666666664,18.7,56.666666666666664,0,37.96666666666667,0,18.7,18.7,0" fill="#222" fill-opacity="0.08066666666666666" stroke="#000" stroke-opacity="0.02" transform="translate(56.666666666666664, 56.666666666666664)"  /><polyline points="18.7,0,37.96666666666667,0,56.666666666666664,18.7,56.666666666666664,37.96666666666667,37.96666666666667,56.666666666666664,18.7,56.666666666666664,0,37.96666666666667,0,18.7,18.7,0" fill="#ddd" fill-opacity="0.07200000000000001" stroke="#000" stroke-opacity="0.02" transform="translate(113.33333333333333, 56.666666666666664)"  /><polyline points="18.7,0,37.96666666666667,0,56.666666666666664,18.7,56.666666666666664,37.96666666666667,37.96666666666667,56.666666666666664,18.7,56.666666666666664,0,37.96666666666667,0,18.7,18.7,0" fill="#222" fill-opacity="0.08066666666666666" stroke="#000" stroke-opacity="0.02" transform="translate(170.0, 56.666666666666664)"  /><polyline points="18.7,0,37.96666666666667,0,56.666666666666664,18.7,56.666666666666664,37.96666666666667,37.96666666666667,56.666666666666664,18.7,56.666666666666664,0,37.96666666666667,0,18.7,18.7,0" fill="#222" fill-opacity="0.15" stroke="#000" stroke-opacity="0.02" transform="translate(226.66666666666666, 56.666666666666664)"  /><polyline points="18.7,0,37.96666666666667,0,56.666666666666664,18.7,56.666666666666664,37.96666666666667,37.96666666666667,56.666666666666664,18.7,56.666666666666664,0,37.96666666666667,0,18.7,18.7,0" fill="#222" fill-opacity="0.11533333333333334" stroke="#000" stroke-opacity="0.02" transform="translate(283.3333333333333, 56.666666666666664)"  /><polyline points="18.7,0,37.96666666666667,0,56.666666666666664,18.7,56.666666666666664,37.96666666666667,37.96666666666667,56.666666666666664,18.7,56.666666666666664,0,37.96666666666667,0,18.7,18.7,0" fill="#222" fill-opacity="0.13266666666666665" stroke="#000" stroke-opacity="0.02" transform="translate(0.0, 113.33333333333333)"  /><polyline points="18.7,0,37.96666666666667,0,56.666666666666664,18.7,56.666666666666664,37.96666666666667,37.96666666666667,56.666666666666664,18.7,56.666666666666664,0,37.96666666666667,0,18.7,18.7,0" fill="#222" fill-opacity="0.046" stroke="#000" stroke-opacity="0.02" transform="translate(56.666666666666664, 113.33333333333333)"  /><polyline points="18.7,0,37.96666666666667,0,56.666666666666664,18.7,56.666666666666664,37.96666666666667,37.96666666666667,56.666666666666664,18.7,56.666666666666664,0,37.96666666666667,0,18.7,18.7,0" fill="#ddd" fill-opacity="0.10666666666666667" stroke="#000" stroke-opacity="0.02" transform="translate(113.33333333333333, 113.33333333333333)"  /><polyline points="18.7,0,37.96666666666667,0,56.666666666666664,18.7,56.666666666666664,37.96666666666667,37.96666666666667,56.666666666666664,18.7,56.666666666666664,0,37.96666666666667,0,18.7,18.7,0" fill="#222" fill-opacity="0.046" stroke="#000" stroke-opacity="0.02" transform="translate(170.0, 113.33333333333333)"  /><polyline points="18.7,0,37.96666666666667,0,56.666666666666664,18.7,56.666666666666664,37.96666666666667,37.96666666666667,56.666666666666664,18.7,56.666666666666664,0,37.96666666666667,0,18.7,18.7,0" fill="#ddd" fill-opacity="0.08933333333333333" stroke="#000" stroke-opacity="0.02" transform="translate(226.66666666666666, 113.33333333333333)"  /><polyline points="18.7,0,37.96666666666667,0,56.666666666666664,18.7,56.666666666666664,37.96666666666667,37.96666666666667,56.666666666666664,18.7,56.666666666666664,0,37.96666666666667,0,18.7,18.7,0" fill="#222" fill-opacity="0.046" stroke="#000" stroke-opacity="0.02" transform="translate(283.3333333333333, 113.33333333333333)"  /><polyline points="18.7,0,37.96666666666667,0,56.666666666666664,18.7,56.666666666666664,37.96666666666667,37.96666666666667,56.666666666666664,18.7,56.666666666666664,0,37.96666666666667,0,18.7,18.7,0" fill="#ddd" fill-opacity="0.12400000000000001" stroke="#000" stroke-opacity="0.02" transform="translate(0.0, 170.0)"  /><polyline points="18.7,0,37.96666666666667,0,56.666666666666664,18.7,56.666666666666664,37.96666666666667,37.96666666666667,56.666666666666664,18.7,56.666666666666664,0,37.96666666666667,0,18.7,18.7,0" fill="#222" fill-opacity="0.06333333333333334" stroke="#000" stroke-opacity="0.02" transform="translate(56.666666666666664, 170.0)"  /><polyline points="18.7,0,37.96666666666667,0,56.666666666666664,18.7,56.666666666666664,37.96666666666667,37.96666666666667,56.666666666666664,18.7,56.666666666666664,0,37.96666666666667,0,18.7,18.7,0" fill="#222" fill-opacity="0.046" stroke="#000" stroke-opacity="0.02" transform="translate(113.33333333333333, 170.0)"  /><polyline points="18.7,0,37.96666666666667,0,56.666666666666664,18.7,56.666666666666664,37.96666666666667,37.96666666666667,56.666666666666664,18.7,56.666666666666664,0,37.96666666666667,0,18.7,18.7,0" fill="#ddd" fill-opacity="0.03733333333333333" stroke="#000" stroke-opacity="0.02" transform="translate(170.0, 170.0)"  /><polyline points="18.7,0,37.96666666666667,0,56.666666666666664,18.7,56.666666666666664,37.96666666666667,37.96666666666667,56.666666666666664,18.7,56.666666666666664,0,37.96666666666667,0,18.7,18.7,0" fill="#222" fill-opacity="0.028666666666666667" stroke="#000" stroke-opacity="0.02" transform="translate(226.66666666666666, 170.0)"  /><polyline points="18.7,0,37.96666666666667,0,56.666666666666664,18.7,56.666666666666664,37.96666666666667,37.96666666666667,56.666666666666664,18.7,56.666666666666664,0,37.96666666666667,0,18.7,18.7,0" fill="#ddd" fill-opacity="0.07200000000000001" stroke="#000" stroke-opacity="0.02" transform="translate(283.3333333333333, 170.0)"  /><polyline points="18.7,0,37.96666666666667,0,56.666666666666664,18.7,56.666666666666664,37.96666666666667,37.96666666666667,56.666666666666664,18.7,56.666666666666664,0,37.96666666666667,0,18.7,18.7,0" fill="#222" fill-opacity="0.08066666666666666" stroke="#000" stroke-opacity="0.02" transform="translate(0.0, 226.66666666666666)"  /><polyline points="18.7,0,37.96666666666667,0,56.666666666666664,18.7,56.666666666666664,37.96666666666667,37.96666666666667,56.666666666666664,18.7,56.666666666666664,0,37.96666666666667,0,18.7,18.7,0" fill="#222" fill-opacity="0.098" stroke="#000" stroke-opacity="0.02" transform="translate(56.666666666666664, 226.66666666666666)"  /><polyline points="18.7,0,37.96666666666667,0,56.666666666666664,18.7,56.666666666666664,37.96666666666667,37.96666666666667,56.666666666666664,18.7,56.666666666666664,0,37.96666666666667,0,18.7,18.7,0" fill="#222" fill-opacity="0.098" stroke="#000" stroke-opacity="0.02" transform="translate(113.33333333333333, 226.66666666666666)"  /><polyline points="18.7,0,37.96666666666667,0,56.666666666666664,18.7,56.666666666666664,37.96666666666667,37.96666666666667,56.666666666666664,18.7,56.666666666666664,0,37.96666666666667,0,18.7,18.7,0" fill="#222" fill-opacity="0.11533333333333334" stroke="#000" stroke-opacity="0.02" transform="translate(170.0, 226.66666666666666)"  /><polyline points="18.7,0,37.96666666666667,0,56.666666666666664,18.7,56.666666666666664,37.96666666666667,37.96666666666667,56.666666666666664,18.7,56.666666666666664,0,37.96666666666667,0,18.7,18.7,0" fill="#ddd" fill-opacity="0.14133333333333334" stroke="#000" stroke-opacity="0.02" transform="translate(226.66666666666666, 226.66666666666666)"  /><polyline points="18.7,0,37.96666666666667,0,56.666666666666664,18.7,56.666666666666664,37.96666666666667,37.96666666666667,56.666666666666664,18.7,56.666666666666664,0,37.96666666666667,0,18.7,18.7,0" fill="#222" fill-opacity="0.11533333333333334" stroke="#000" stroke-opacity="0.02" transform="translate(283.3333333333333, 226.66666666666666)"  /><polyline points="18.7,0,37.96666666666667,0,56.666666666666664,18.7,56.666666666666664,37.96666666666667,37.96666666666667,56.666666666666664,18.7,56.666666666666664,0,37.96666666666667,0,18.7,18.7,0" fill="#ddd" fill-opacity="0.05466666666666667" stroke="#000" stroke-opacity="0.02" transform="translate(0.0, 283.3333333333333)"  /><polyline points="18.7,0,37.96666666666667,0,56.666666666666664,18.7,56.666666666666664,37.96666666666667,37.96666666666667,56.666666666666664,18.7,56.666666666666664,0,37.96666666666667,0,18.7,18.7,0" fill="#222" fill-opacity="0.11533333333333334" stroke="#000" stroke-opacity="0.02" transform="translate(56.666666666666664, 283.3333333333333)"  /><polyline points="18.7,0,37.96666666666667,0,56.666666666666664,18.7,56.666666666666664,37.96666666666667,37.96666666666667,56.666666666666664,18.7,56.666666666666664,0,37.96666666666667,0,18.7,18.7,0" fill="#ddd" fill-opacity="0.05466666666666667" stroke="#000" stroke-opacity="0.02" transform="translate(113.33333333333333, 283.3333333333333)"  /><polyline points="18.7,0,37.96666666666667,0,56.666666666666664,18.7,56.666666666666664,37.96666666666667,37.96666666666667,56.666666666666664,18.7,56.666666666666664,0,37.96666666666667,0,18.7,18.7,0" fill="#222" fill-opacity="0.06333333333333334" stroke="#000" stroke-opacity="0.02" transform="translate(170.0, 283.3333333333333)"  /><polyline points="18.7,0,37.96666666666667,0,56.666666666666664,18.7,56.666666666666664,37.96666666666667,37.96666666666667,56.666666666666664,18.7,56.666666666666664,0,37.96666666666667,0,18.7,18.7,0" fill="#ddd" fill-opacity="0.07200000000000001" stroke="#000" stroke-opacity="0.02" transform="translate(226.66666666666666, 283.3333333333333)"  /><polyline points="18.7,0,37.96666666666667,0,56.666666666666664,18.7,56.666666666666664,37.96666666666667,37.96666666666667,56.666666666666664,18.7,56.666666666666664,0,37.96666666666667,0,18.7,18.7,0" fill="#ddd" fill-opacity="0.05466666666666667" stroke="#000" stroke-opacity="0.02" transform="translate(283.3333333333333, 283.3333333333333)"  /></svg>