<svg xmlns="http://www.w3.org/2000/svg" width="199" height="199"><rect x="0" y="0" width="100%" height="100%" fill="rgb(161, 46, 128)"  /><polyline points="10.999999999999998,0,22.33333333333333,0,33.33333333333333,10.999999999999998,33.33333333333333,22.33333333333333,22.33333333333333,33.33333333333333,10.999999999999998,33.33333333333333,0,22.33333333333333,0,10.999999999999998,10.999999999999998,0" fill="#222" fill-opacity="0.08066666666666666" stroke="#000" stroke-opacity="0.02" transform="translate(0.0, 0.0)"  /><polyline points="10.999999999999998,0,22.33333333333333,0,33.33333333333333,10.999999999999998,33.33333333333333,22.33333333333333,22.33333333333333,33.33333333333333,10.999999999999998,33.33333333333333,0,22.33333333333333,0,10.999999999999998,10.999999999999998,0" fill="#ddd" fill-opacity="0.10666666666666667" stroke="#000" stroke-opacity="0.02" transform="translate(33.33333333333333, 0.0)"  /><polyline points="10.999999999999998,0,22.33333333333333,0,33.33333333333333,10.999999999999998,33.33333333333333,22.33333333333333,22.33333333333333,33.33333333333333,10.999999999999998,33.33333333333333,0,22.33333333333333,0,10.999999999999998,10.999999999999998,0" fill="#222" fill-opacity="0.08066666666666666" stroke="#000" stroke-opacity="0.02" transform="translate(66.66666666666666, 0.0)"  /><polyline points="10.999999999999998,0,22.33333333333333,0,33.33333333333333,10.999999999999998,33.33333333333333,22.33333333333333,22.33333333333333,33.33333333333333,10.999999999999998,33.33333333333333,0,22.33333333333333,0,10.999999999999998,10.999999999999998,0" fill="#ddd" fill-opacity="0.02" stroke="#000" stroke-opacity="0.02" transform="translate(99.99999999999999, 0.0)"  /><polyline points="10.999999999999998,0,22.33333333333333,0,33.33333333333333,10.999999999999998,33.33333333333333,22.33333333333333,22.33333333333333,33.33333333333333,10.999999999999998,33.33333333333333,0,22.33333333333333,0,10.999999999999998,10.999999999999998,0" fill="#222" fill-opacity="0.028666666666666667" stroke="#000" stroke-opacity="0.02" transform="translate(133.33333333333331, 0.0)"  /><polyline points="10.999999999999998,0,22.33333333333333,0,33.33333333333333,10.999999999999998,33.33333333333333,22.33333333333333,22.33333333333333,33.33333333333333,10.999999999999998,33.33333333333333,0,22.33333333333333,0,10.999999999999998,10.999999999999998,0" fill="#ddd" fill-opacity="0.08933333333333333" stroke="#000" stroke-opacity="0.02" transform="translate(166.66666666666663, 0.0)"  /><polyline points="10.999999999999998,0,22.33333333333333,0,33.33333333333333,10.999999999999998,33.33333333333333,22.33333333333333,22.33333333333333,33.33333333333333,10.999999999999998,33.33333333333333,0,22.33333333333333,0,10.999999999999998,10.999999999999998,0" fill="#ddd" fill-opacity="0.05466666666666667" stroke="#000" stroke-opacity="0.02" transform="translate(0.0, 33.33333333333333)"  /><polyline points="10.999999999999998,0,22.33333333333333,0,33.33333333333333,10.999999999999998,33.33333333333333,22.33333333333333,22.33333333333333,33.33333333333333,10.999999999999998,33.33333333333333,0,22.33333333333333,0,10.999999999999998,10.999999999999998,0" fill="#222" fill-opacity="0.06333333333333334" stroke="#000" stroke-opacity="0.02" transform="translate(33.33333333333333, 33.33333333333333)"  /><polyline points="10.999999999999998,0,22.33333333333333,0,33.33333333333333,10.999999999999998,33.33333333333333,22.33333333333333,22.33333333333333,33.33333333333333,10.999999999999998,33.33333333333333,0,22.33333333333333,0,10.999999999999998,10.999999999999998,0" fill="#222" fill-opacity="0.13266666666666665" stroke="#000" stroke-opacity="0.02" transform="translate(66.66666666666666, 33.33333333333333)"  /><polyline points="10.999999999999998,0,22.33333333333333,0,33.33333333333333,10.999999999999998,33.33333333333333,22.33333333333333,22.33333333333333,33.33333333333333,10.999999999999998,33.33333333333333,0,22.33333333333333,0,10.999999999999998,10.999999999999998,0" fill="#ddd" fill-opacity="0.10666666666666667" stroke="#000" stroke-opacity="0.02" transform="translate(99.99999999999999, 33.33333333333333)"  /><polyline points="10.999999999999998,0,22.33333333333333,0,33.33333333333333,10.999999999999998,33.33333333333333,22.33333333333333,22.33333333333333,33.33333333333333,10.999999999999998,33.33333333333333,0,22.33333333333333,0,10.999999999999998,10.999999999999998,0" fill="#ddd" fill-opacity="0.02" stroke="#000" stroke-opacity="0.02" transform="translate(133.33333333333331, 33.33333333333333)"  /><polyline points="10.999999999999998,0,22.33333333333333,0,33.33333333333333,10.999999999999998,33.33333333333333,22.33333333333333,22.33333333333333,33.33333333333333,10.999999999999998,33.33333333333333,0,22.33333333333333,0,10.999999999999998,10.999999999999998,0" fill="#ddd" fill-opacity="0.07200000000000001" stroke="#000" stroke-opacity="0.02" transform="translate(166.66666666666663, 33.33333333333333)"  /><polyline points="10.999999999999998,0,22.33333333333333,0,33.33333333333333,10.999999999999998,33.33333333333333,22.33333333333333,22.33333333333333,33.33333333333333,10.999999999999998,33.33333333333333,0,22.33333333333333,0,10.999999999999998,10.999999999999998,0" fill="#222" fill-opacity="0.06333333333333334" stroke="#000" stroke-opacity="0.02" transform="translate(0.0, 66.66666666666666)"  /><polyline points="10.999999999999998,0,22.33333333333333,0,33.33333333333333,10.999999999999998,33.33333333333333,22.33333333333333,22.33333333333333,33.33333333333333,10.999999999999998,33.33333333333333,0,22.33333333333333,0,10.999999999999998,10.999999999999998,0" fill="#222" fill-opacity="0.06333333333333334" stroke="#000" stroke-opacity="0.02" transform="translate(33.33333333333333, 66.66666666666666)"  /><polyline points="10.999999999999998,0,22.33333333333333,0,33.33333333333333,10.999999999999998,33.33333333333333,22.33333333333333,22.33333333333333,33.33333333333333,10.999999999999998,33.33333333333333,0,22.33333333333333,0,10.999999999999998,10.999999999999998,0" fill="#222" fill-opacity="0.028666666666666667" stroke="#000" stroke-opacity="0.02" transform="translate(66.66666666666666, 66.66666666666666)"  /><polyline points="10.999999999999998,0,22.33333333333333,0,33.33333333333333,10.999999999999998,33.33333333333333,22.33333333333333,22.33333333333333,33.33333333333333,10.999999999999998,33.33333333333333,0,22.33333333333333,0,10.999999999999998,10.999999999999998,0" fill="#ddd" fill-opacity="0.14133333333333334" stroke="#000" stroke-opacity="0.02" transform="translate(99.99999999999999, 66.66666666666666)"  /><polyline points="10.999999999999998,0,22.33333333333333,0,33.33333333333333,10.999999999999998,33.33333333333333,22.33333333333333,22.33333333333333,33.33333333333333,10.999999999999998,33.33333333333333,0,22.33333333333333,0,10.999999999999998,10.999999999999998,0" fill="#ddd" fill-opacity="0.08933333333333333" stroke="#000" stroke-opacity="0.02" transform="translate(133.33333333333331, 66.66666666666666)"  /><polyline points="10.999999999999998,0,22.33333333333333,0,33.33333333333333,10.999999999999998,33.33333333333333,22.33333333333333,22.33333333333333,33.33333333333333,10.999999999999998,33.33333333333333,0,22.33333333333333,0,10.999999999999998,10.999999999999998,0" fill="#ddd" fill-opacity="0.14133333333333334" stroke="#000" stroke-opacity="0.02" transform="translate(166.66666666666663, 66.66666666666666)"  /><polyline points="10.999999999999998,0,22.33333333333333,0,33.33333333333333,10.999999999999998,33.33333333333333,22.33333333333333,22.33333333333333,33.33333333333333,10.999999999999998,33.33333333333333,0,22.33333333333333,0,10.999999999999998,10.999999999999998,0" fill="#222" fill-opacity="0.028666666666666667" stroke="#000" stroke-opacity="0.02" transform="translate(0.0, 99.99999999999999)"  /><polyline points="10.999999999999998,0,22.33333333333333,0,33.33333333333333,10.999999999999998,33.33333333333333,22.33333333333333,22.33333333333333,33.33333333333333,10.999999999999998,33.33333333333333,0,22.33333333333333,0,10.999999999999998,10.999999999999998,0" fill="#ddd" fill-opacity="0.07200000000000001" stroke="#000" stroke-opacity="0.02" transform="translate(33.33333333333333, 99.99999999999999)"  /><polyline points="10.999999999999998,0,22.33333333333333,0,33.33333333333333,10.999999999999998,33.33333333333333,22.33333333333333,22.33333333333333,33.33333333333333,10.999999999999998,33.33333333333333,0,22.33333333333333,0,10.999999999999998,10.999999999999998,0" fill="#ddd" fill-opacity="0.05466666666666667" stroke="#000" stroke-opacity="0.02" transform="translate(66.66666666666666, 99.99999999999999)"  /><polyline points="10.999999999999998,0,22.33333333333333,0,33.33333333333333,10.999999999999998,33.33333333333333,22.33333333333333,22.33333333333333,33.33333333333333,10.999999999999998,33.33333333333333,0,22.33333333333333,0,10.999999999999998,10.999999999999998,0" fill="#ddd" fill-opacity="0.07200000000000001" stroke="#000" stroke-opacity="0.02" transform="translate(99.99999999999999, 99.99999999999999)"  /><polyline points="10.999999999999998,0,22.33333333333333,0,33.33333333333333,10.999999999999998,33.33333333333333,22.33333333333333,22.33333333333333,33.33333333333333,10.999999999999998,33.33333333333333,0,22.33333333333333,0,10.999999999999998,10.999999999999998,0" fill="#ddd" fill-opacity="0.12400000000000001" stroke="#000" stroke-opacity="0.02" transform="translate(133.33333333333331, 99.99999999999999)"  /><polyline points="10.999999999999998,0,22.33333333333333,0,33.33333333333333,10.999999999999998,33.33333333333333,22.33333333333333,22.33333333333333,33.33333333333333,10.999999999999998,33.33333333333333,0,22.33333333333333,0,10.999999999999998,10.999999999999998,0" fill="#ddd" fill-opacity="0.07200000000000001" stroke="#000" stroke-opacity="0.02" transform="translate(166.66666666666663, 99.99999999999999)"  /><polyline points="10.999999999999998,0,22.33333333333333,0,33.33333333333333,10.999999999999998,33.33333333333333,22.33333333333333,22.33333333333333,33.33333333333333,10.999999999999998,33.33333333333333,0,22.33333333333333,0,10.999999999999998,10.999999999999998,0" fill="#222" fill-opacity="0.15" stroke="#000" stroke-opacity="0.02" transform="translate(0.0, 133.33333333333331)"  /><polyline points="10.999999999999998,0,22.33333333333333,0,33.33333333333333,10.999999999999998,33.33333333333333,22.33333333333333,22.33333333333333,33.33333333333333,10.999999999999998,33.33333333333333,0,22.33333333333333,0,10.999999999999998,10.999999999999998,0" fill="#222" fill-opacity="0.028666666666666667" stroke="#000" stroke-opacity="0.02" transform="translate(33.33333333333333, 133.33333333333331)"  /><polyline points="10.999999999999998,0,22.33333333333333,0,33.33333333333333,10.999999999999998,33.33333333333333,22.33333333333333,22.33333333333333,33.33333333333333,10.999999999999998,33.33333333333333,0,22.33333333333333,0,10.999999999999998,10.999999999999998,0" fill="#222" fill-opacity="0.098" stroke="#000" stroke-opacity="0.02" transform="translate(66.66666666666666, 133.33333333333331)"  /><polyline points="10.999999999999998,0,22.33333333333333,0,33.33333333333333,10.999999999999998,33.33333333333333,22.33333333333333,22.33333333333333,33.33333333333333,10.999999999999998,33.33333333333333,0,22.33333333333333,0,10.999999999999998,10.999999999999998,0" fill="#ddd" fill-opacity="0.10666666666666667" stroke="#000" stroke-opacity="0.02" transform="translate(99.99999999999999, 133.33333333333331)"  /><polyline points="10.999999999999998,0,22.33333333333333,0,33.33333333333333,10.999999999999998,33.33333333333333,22.33333333333333,22.33333333333333,33.33333333333333,10.999999999999998,33.33333333333333,0,22.33333333333333,0,10.999999999999998,10.999999999999998,0" fill="#222" fill-opacity="0.098" stroke="#000" stroke-opacity="0.02" transform="translate(133.33333333333331, 133.33333333333331)"  /><polyline points="10.999999999999998,0,22.33333333333333,0,33.33333333333333,10.999999999999998,33.33333333333333,22.33333333333333,22.33333333333333,33.33333333333333,10.999999999999998,33.33333333333333,0,22.33333333333333,0,10.999999999999998,10.999999999999998,0" fill="#ddd" fill-opacity="0.02" stroke="#000" stroke-opacity="0.02" transform="translate(166.66666666666663, 133.33333333333331)"  /><polyline points="10.999999999999998,0,22.33333333333333,0,33.33333333333333,10.999999999999998,33.33333333333333,22.33333333333333,22.33333333333333,33.33333333333333,10.999999999999998,33.33333333333333,0,22.33333333333333,0,10.999999999999998,10.999999999999998,0" fill="#ddd" fill-opacity="0.08933333333333333" stroke="#000" stroke-opacity="0.02" transform="translate(0.0, 166.66666666666663)"  /><polyline points="10.999999999999998,0,22.33333333333333,0,33.33333333333333,10.999999999999998,33.33333333333333,22.33333333333333,22.33333333333333,33.33333333333333,10.999999999999998,33.33333333333333,0,22.33333333333333,0,10.999999999999998,10.999999999999998,0" fill="#ddd" fill-opacity="0.10666666666666667" stroke="#000" stroke-opacity="0.02" transform="translate(33.33333333333333, 166.66666666666663)"  /><polyline points="10.999999999999998,0,22.33333333333333,0,33.33333333333333,10.999999999999998,33.33333333333333,22.33333333333333,22.33333333333333,33.33333333333333,10.999999999999998,33.33333333333333,0,22.33333333333333,0,10.999999999999998,10.999999999999998,0" fill="#ddd" fill-opacity="0.14133333333333334" stroke="#000" stroke-opacity="0.02" transform="translate(66.66666666666666, 166.66666666666663)"  /><polyline points="10.999999999999998,0,22.33333333333333,0,33.33333333333333,10.999999999999998,33.33333333333333,22.33333333333333,22.33333333333333,33.33333333333333,10.999999999999998,33.33333333333333,0,22.33333333333333,0,10.999999999999998,10.999999999999998,0" fill="#ddd" fill-opacity="0.07200000000000001" stroke="#000" stroke-opacity="0.02" transform="translate(99.99999999999999, 166.66666666666663)"  /><polyline points="10.999999999999998,0,22.33333333333333,0,33.33333333333333,10.999999999999998,33.33333333333333,22.33333333333333,22.33333333333333,33.33333333333333,10.999999999999998,33.33333333333333,0,22.33333333333333,0,10.999999999999998,10.999999999999998,0" fill="#222" fill-opacity="0.11533333333333334" stroke="#000" stroke-opacity="0.02" transform="translate(133.33333333333331, 166.66666666666663)"  /><polyline points="10.999999999999998,0,22.33333333333333,0,33.33333333333333,10.999999999999998,33.33333333333333,22.33333333333333,22.33333333333333,33.33333333333333,10.999999999999998,33.33333333333333,0,22.33333333333333,0,10.999999999999998,10.999999999999998,0" fill="#ddd" fill-opacity="0.12400000000000001" stroke="#000" stroke-opacity="0.02" transform="translate(166.66666666666663, 166.66666666666663)"  /></svg>