<svg xmlns="http://www.w3.org/2000/svg" width="565" height="565"><rect x="0" y="0" width="100%" height="100%" fill="rgb(63, 144, 77)"  /><circle cx="0.0" cy="0.0" r="94.16666666666667" fill="#ddd" style="opacity:0.14133333333333334;"  /><circle cx="565.0" cy="0.0" r="94.16666666666667" fill="#ddd" style="opacity:0.14133333333333334;"  /><circle cx="0.0" cy="565.0" r="94.16666666666667" fill="#ddd" style="opacity:0.14133333333333334;"  /><circle cx="565.0" cy="565.0" r="94.16666666666667" fill="#ddd" style="opacity:0.14133333333333334;"  /><circle cx="94.16666666666667" cy="0.0" r="94.16666666666667" fill="#ddd" style="opacity:0.08933333333333333;"  /><circle cx="94.16666666666667" cy="565.0" r="94.16666666666667" fill="#ddd" style="opacity:0.08933333333333333;"  /><circle cx="188.33333333333334" cy="0.0" r="94.16666666666667" fill="#222" style="opacity:0.13266666666666665;"  /><circle cx="188.33333333333334" cy="565.0" r="94.16666666666667" fill="#222" style="opacity:0.13266666666666665;"  /><circle cx="282.5" cy="0.0" r="94.16666666666667" fill="#222" style="opacity:0.15;"  /><circle cx="282.5" cy="565.0" r="94.16666666666667" fill="#222" style="opacity:0.15;"  /><circle cx="376.6666666666667" cy="0.0" r="94.16666666666667" fill="#222" style="opacity:0.098;"  /><circle cx="376.6666666666667" cy="565.0" r="94.16666666666667" fill="#222" style="opacity:0.098;"  /><circle cx="470.83333333333337" cy="0.0" r="94.16666666666667" fill="#ddd" style="opacity:0.07200000000000001;"  /><circle cx="470.83333333333337" cy="565.0" r="94.16666666666667" fill="#ddd" style="opacity:0.07200000000000001;"  /><circle cx="0.0" cy="94.16666666666667" r="94.16666666666667" fill="#ddd" style="opacity:0.07200000000000001;"  /><circle cx="565.0" cy="94.16666666666667" r="94.16666666666667" fill="#ddd" style="opacity:0.07200000000000001;"  /><circle cx="94.16666666666667" cy="94.16666666666667" r="94.16666666666667" fill="#222" style="opacity:0.08066666666666666;"  /><circle cx="188.33333333333334" cy="94.16666666666667" r="94.16666666666667" fill="#ddd" style="opacity:0.07200000000000001;"  /><circle cx="282.5" cy="94.16666666666667" r="94.16666666666667" fill="#222" style="opacity:0.08066666666666666;"  /><circle cx="376.6666666666667" cy="94.16666666666667" r="94.16666666666667" fill="#222" style="opacity:0.15;"  /><circle cx="470.83333333333337" cy="94.16666666666667" r="94.16666666666667" fill="#222" style="opacity:0.11533333333333334;"  /><circle cx="0.0" cy="188.33333333333334" r="94.16666666666667" fill="#222" style="opacity:0.13266666666666665;"  /><circle cx="565.0" cy="188.33333333333334" r="94.16666666666667" fill="#222" style="opacity:0.13266666666666665;"  /><circle cx="94.16666666666667" cy="188.33333333333334" r="94.16666666666667" fill="#222" style="opacity:0.046;"  /><circle cx="188.33333333333334" cy="188.33333333333334" r="94.16666666666667" fill="#ddd" style="opacity:0.10666666666666667;"  /><circle cx="282.5" cy="188.33333333333334" r="94.16666666666667" fill="#222" style="opacity:0.046;"  /><circle cx="376.6666666666667" cy="188.33333333333334" r="94.16666666666667" fill="#ddd" style="opacity:0.08933333333333333;"  /><circle cx="470.83333333333337" cy="188.33333333333334" r="94.16666666666667" fill="#222" style="opacity:0.046;"  /><circle cx="0.0" cy="282.5" r="94.16666666666667" fill="#ddd" style="opacity:0.12400000000000001;"  /><circle cx="565.0" cy="282.5" r="94.16666666666667" fill="#ddd" style="opacity:0.12400000000000001;"  /><circle cx="94.16666666666667" cy="282.5" r="94.16666666666667" fill="#222" style="opacity:0.06333333333333334;"  /><circle cx="188.33333333333334" cy="282.5" r="94.16666666666667" fill="#222" style="opacity:0.046;"  /><circle cx="282.5" cy="282.5" r="94.16666666666667" fill="#ddd" style="opacity:0.03733333333333333;"  /><circle cx="376.6666666666667" cy="282.5" r="94.16666666666667" fill="#222" style="opacity:0.028666666666666667;"  /><circle cx="470.83333333333337" cy="282.5" r="94.16666666666667" fill="#ddd" style="opacity:0.07200000000000001;"  /><circle cx="0.0" cy="376.6666666666667" r="94.16666666666667" fill="#222" style="opacity:0.08066666666666666;"  /><circle cx="565.0" cy="376.6666666666667" r="94.16666666666667" fill="#222" style="opacity:0.08066666666666666;"  /><circle cx="94.16666666666667" cy="376.6666666666667" r="94.16666666666667" fill="#222" style="opacity:0.098;"  /><circle cx="188.33333333333334" cy="376.6666666666667" r="94.16666666666667" fill="#222" style="opacity:0.098;"  /><circle cx="282.5" cy="376.6666666666667" r="94.16666666666667" fill="#222" style="opacity:0.11533333333333334;"  /><circle cx="376.6666666666667" cy="376.6666666666667" r="94.16666666666667" fill="#ddd" style="opacity:0.14133333333333334;"  /><circle cx="470.83333333333337" cy="376.6666666666667" r="94.16666666666667" fill="#222" style="opacity:0.11533333333333334;"  /><circle cx="0.0" cy="470.83333333333337" r="94.16666666666667" fill="#ddd" style="opacity:0.05466666666666667;"  /><circle cx="565.0" cy="470.83333333333337" r="94.16666666666667" fill="#ddd" style="opacity:0.05466666666666667;"  /><circle cx="94.16666666666667" cy="470.83333333333337" r="94.16666666666667" fill="#222" style="opacity:0.11533333333333334;"  /><circle cx="188.33333333333334" cy="470.83333333333337" r="94.16666666666667" fill="#ddd" style="opacity:0.05466666666666667;"  /><circle cx="282.5" cy="470.83333333333337" r="94.16666666666667" fill="#222" style="opacity:0.06333333333333334;"  /><circle cx="376.6666666666667" cy="470.83333333333337" r="94.16666666666667" fill="#ddd" style="opacity:0.07200000000000001;"  /><circle cx="470.83333333333337" cy="470.83333333333337" r="94.16666666666667" fill="#ddd" style="opacity:0.05466666666666667;"  /></svg>