<svg xmlns="http://www.w3.org/2000/svg" width="100" height="100"><rect x="0" y="0" width="100%" height="100%" fill="rgb(161, 46, 128)"  /><circle cx="0.0" cy="0.0" r="53.333333333333336" fill="#222" style="opacity:0.08066666666666666;"  /><circle cx="320.0" cy="0.0" r="53.333333333333336" fill="#222" style="opacity:0.08066666666666666;"  /><circle cx="0.0" cy="320.0" r="53.333333333333336" fill="#222" style="opacity:0.08066666666666666;"  /><circle cx="320.0" cy="320.0" r="53.333333333333336" fill="#222" style="opacity:0.08066666666666666;"  /><circle cx="53.333333333333336" cy="0.0" r="53.333333333333336" fill="#ddd" style="opacity:0.10666666666666667;"  /><circle cx="53.333333333333336" cy="320.0" r="53.333333333333336" fill="#ddd" style="opacity:0.10666666666666667;"  /><circle cx="106.66666666666667" cy="0.0" r="53.333333333333336" fill="#222" style="opacity:0.08066666666666666;"  /><circle cx="106.66666666666667" cy="320.0" r="53.333333333333336" fill="#222" style="opacity:0.08066666666666666;"  /><circle cx="160.0" cy="0.0" r="53.333333333333336" fill="#ddd" style="opacity:0.02;"  /><circle cx="160.0" cy="320.0" r="53.333333333333336" fill="#ddd" style="opacity:0.02;"  /><circle cx="213.33333333333334" cy="0.0" r="53.333333333333336" fill="#222" style="opacity:0.028666666666666667;"  /><circle cx="213.33333333333334" cy="320.0" r="53.333333333333336" fill="#222" style="opacity:0.028666666666666667;"  /><circle cx="266.6666666666667" cy="0.0" r="53.333333333333336" fill="#ddd" style="opacity:0.08933333333333333;"  /><circle cx="266.6666666666667" cy="320.0" r="53.333333333333336" fill="#ddd" style="opacity:0.08933333333333333;"  /><circle cx="0.0" cy="53.333333333333336" r="53.333333333333336" fill="#ddd" style="opacity:0.05466666666666667;"  /><circle cx="320.0" cy="53.333333333333336" r="53.333333333333336" fill="#ddd" style="opacity:0.05466666666666667;"  /><circle cx="53.333333333333336" cy="53.333333333333336" r="53.333333333333336" fill="#222" style="opacity:0.06333333333333334;"  /><circle cx="106.66666666666667" cy="53.333333333333336" r="53.333333333333336" fill="#222" style="opacity:0.13266666666666665;"  /><circle cx="160.0" cy="53.333333333333336" r="53.333333333333336" fill="#ddd" style="opacity:0.10666666666666667;"  /><circle cx="213.33333333333334" cy="53.333333333333336" r="53.333333333333336" fill="#ddd" style="opacity:0.02;"  /><circle cx="266.6666666666667" cy="53.333333333333336" r="53.333333333333336" fill="#ddd" style="opacity:0.07200000000000001;"  /><circle cx="0.0" cy="106.66666666666667" r="53.333333333333336" fill="#222" style="opacity:0.06333333333333334;"  /><circle cx="320.0" cy="106.66666666666667" r="53.333333333333336" fill="#222" style="opacity:0.06333333333333334;"  /><circle cx="53.333333333333336" cy="106.66666666666667" r="53.333333333333336" fill="#222" style="opacity:0.06333333333333334;"  /><circle cx="106.66666666666667" cy="106.66666666666667" r="53.333333333333336" fill="#222" style="opacity:0.028666666666666667;"  /><circle cx="160.0" cy="106.66666666666667" r="53.333333333333336" fill="#ddd" style="opacity:0.14133333333333334;"  /><circle cx="213.33333333333334" cy="106.66666666666667" r="53.333333333333336" fill="#ddd" style="opacity:0.08933333333333333;"  /><circle cx="266.6666666666667" cy="106.66666666666667" r="53.333333333333336" fill="#ddd" style="opacity:0.14133333333333334;"  /><circle cx="0.0" cy="160.0" r="53.333333333333336" fill="#222" style="opacity:0.028666666666666667;"  /><circle cx="320.0" cy="160.0" r="53.333333333333336" fill="#222" style="opacity:0.028666666666666667;"  /><circle cx="53.333333333333336" cy="160.0" r="53.333333333333336" fill="#ddd" style="opacity:0.07200000000000001;"  /><circle cx="106.66666666666667" cy="160.0" r="53.333333333333336" fill="#ddd" style="opacity:0.05466666666666667;"  /><circle cx="160.0" cy="160.0" r="53.333333333333336" fill="#ddd" style="opacity:0.07200000000000001;"  /><circle cx="213.33333333333334" cy="160.0" r="53.333333333333336" fill="#ddd" style="opacity:0.12400000000000001;"  /><circle cx="266.6666666666667" cy="160.0" r="53.333333333333336" fill="#ddd" style="opacity:0.07200000000000001;"  /><circle cx="0.0" cy="213.33333333333334" r="53.333333333333336" fill="#222" style="opacity:0.15;"  /><circle cx="320.0" cy="213.33333333333334" r="53.333333333333336" fill="#222" style="opacity:0.15;"  /><circle cx="53.333333333333336" cy="213.33333333333334" r="53.333333333333336" fill="#222" style="opacity:0.028666666666666667;"  /><circle cx="106.66666666666667" cy="213.33333333333334" r="53.333333333333336" fill="#222" style="opacity:0.098;"  /><circle cx="160.0" cy="213.33333333333334" r="53.333333333333336" fill="#ddd" style="opacity:0.10666666666666667;"  /><circle cx="213.33333333333334" cy="213.33333333333334" r="53.333333333333336" fill="#222" style="opacity:0.098;"  /><circle cx="266.6666666666667" cy="213.33333333333334" r="53.333333333333336" fill="#ddd" style="opacity:0.02;"  /><circle cx="0.0" cy="266.6666666666667" r="53.333333333333336" fill="#ddd" style="opacity:0.08933333333333333;"  /><circle cx="320.0" cy="266.6666666666667" r="53.333333333333336" fill="#ddd" style="opacity:0.08933333333333333;"  /><circle cx="53.333333333333336" cy="266.6666666666667" r="53.333333333333336" fill="#ddd" style="opacity:0.10666666666666667;"  /><circle cx="106.66666666666667" cy="266.6666666666667" r="53.333333333333336" fill="#ddd" style="opacity:0.14133333333333334;"  /><circle cx="160.0" cy="266.6666666666667" r="53.333333333333336" fill="#ddd" style="opacity:0.07200000000000001;"  /><circle cx="213.33333333333334" cy="266.6666666666667" r="53.333333333333336" fill="#222" style="opacity:0.11533333333333334;"  /><circle cx="266.6666666666667" cy="266.6666666666667" r="53.333333333333336" fill="#ddd" style="opacity:0.12400000000000001;"  /></svg>