<svg xmlns="http://www.w3.org/2000/svg" width="100" height="100"><rect x="0" y="0" width="100%" height="100%" fill="rgb(94, 71, 136)"  /><circle cx="0.0" cy="0.0" r="52.5" fill="none" stroke="#222" style="opacity:0.15;stroke-width:15.0px;"  /><circle cx="360.0" cy="0.0" r="52.5" fill="none" stroke="#222" style="opacity:0.15;stroke-width:15.0px;"  /><circle cx="0.0" cy="360.0" r="52.5" fill="none" stroke="#222" style="opacity:0.15;stroke-width:15.0px;"  /><circle cx="360.0" cy="360.0" r="52.5" fill="none" stroke="#222" style="opacity:0.15;stroke-width:15.0px;"  /><circle cx="60.0" cy="0.0" r="52.5" fill="none" stroke="#222" style="opacity:0.13266666666666665;stroke-width:15.0px;"  /><circle cx="60.0" cy="360.0" r="52.5" fill="none" stroke="#222" style="opacity:0.13266666666666665;stroke-width:15.0px;"  /><circle cx="120.0" cy="0.0" r="52.5" fill="none" stroke="#222" style="opacity:0.028666666666666667;stroke-width:15.0px;"  /><circle cx="120.0" cy="360.0" r="52.5" fill="none" stroke="#222" style="opacity:0.028666666666666667;stroke-width:15.0px;"  /><circle cx="180.0" cy="0.0" r="52.5" fill="none" stroke="#222" style="opacity:0.06333333333333334;stroke-width:15.0px;"  /><circle cx="180.0" cy="360.0" r="52.5" fill="none" stroke="#222" style="opacity:0.06333333333333334;stroke-width:15.0px;"  /><circle cx="240.0" cy="0.0" r="52.5" fill="none" stroke="#222" style="opacity:0.028666666666666667;stroke-width:15.0px;"  /><circle cx="240.0" cy="360.0" r="52.5" fill="none" stroke="#222" style="opacity:0.028666666666666667;stroke-width:15.0px;"  /><circle cx="300.0" cy="0.0" r="52.5" fill="none" stroke="#222" style="opacity:0.028666666666666667;stroke-width:15.0px;"  /><circle cx="300.0" cy="360.0" r="52.5" fill="none" stroke="#222" style="opacity:0.028666666666666667;stroke-width:15.0px;"  /><circle cx="0.0" cy="60.0" r="52.5" fill="none" stroke="#222" style="opacity:0.046;stroke-width:15.0px;"  /><circle cx="360.0" cy="60.0" r="52.5" fill="none" stroke="#222" style="opacity:0.046;stroke-width:15.0px;"  /><circle cx="60.0" cy="60.0" r="52.5" fill="none" stroke="#222" style="opacity:0.08066666666666666;stroke-width:15.0px;"  /><circle cx="120.0" cy="60.0" r="52.5" fill="none" stroke="#222" style="opacity:0.15;stroke-width:15.0px;"  /><circle cx="180.0" cy="60.0" r="52.5" fill="none" stroke="#ddd" style="opacity:0.02;stroke-width:15.0px;"  /><circle cx="240.0" cy="60.0" r="52.5" fill="none" stroke="#ddd" style="opacity:0.05466666666666667;stroke-width:15.0px;"  /><circle cx="300.0" cy="60.0" r="52.5" fill="none" stroke="#222" style="opacity:0.15;stroke-width:15.0px;"  /><circle cx="0.0" cy="120.0" r="52.5" fill="none" stroke="#222" style="opacity:0.15;stroke-width:15.0px;"  /><circle cx="360.0" cy="120.0" r="52.5" fill="none" stroke="#222" style="opacity:0.15;stroke-width:15.0px;"  /><circle cx="60.0" cy="120.0" r="52.5" fill="none" stroke="#222" style="opacity:0.098;stroke-width:15.0px;"  /><circle cx="120.0" cy="120.0" r="52.5" fill="none" stroke="#ddd" style="opacity:0.05466666666666667;stroke-width:15.0px;"  /><circle cx="180.0" cy="120.0" r="52.5" fill="none" stroke="#ddd" style="opacity:0.07200000000000001;stroke-width:15.0px;"  /><circle cx="240.0" cy="120.0" r="52.5" fill="none" stroke="#ddd" style="opacity:0.08933333333333333;stroke-width:15.0px;"  /><circle cx="300.0" cy="120.0" r="52.5" fill="none" stroke="#222" style="opacity:0.11533333333333334;stroke-width:15.0px;"  /><circle cx="0.0" cy="180.0" r="52.5" fill="none" stroke="#222" style="opacity:0.046;stroke-width:15.0px;"  /><circle cx="360.0" cy="180.0" r="52.5" fill="none" stroke="#222" style="opacity:0.046;stroke-width:15.0px;"  /><circle cx="60.0" cy="180.0" r="52.5" fill="none" stroke="#222" style="opacity:0.08066666666666666;stroke-width:15.0px;"  /><circle cx="120.0" cy="180.0" r="52.5" fill="none" stroke="#ddd" style="opacity:0.03733333333333333;stroke-width:15.0px;"  /><circle cx="180.0" cy="180.0" r="52.5" fill="none" stroke="#ddd" style="opacity:0.05466666666666667;stroke-width:15.0px;"  /><circle cx="240.0" cy="180.0" r="52.5" fill="none" stroke="#222" style="opacity:0.046;stroke-width:15.0px;"  /><circle cx="300.0" cy="180.0" r="52.5" fill="none" stroke="#222" style="opacity:0.098;stroke-width:15.0px;"  /><circle cx="0.0" cy="240.0" r="52.5" fill="none" stroke="#ddd" style="opacity:0.07200000000000001;stroke-width:15.0px;"  /><circle cx="360.0" cy="240.0" r="52.5" fill="none" stroke="#ddd" style="opacity:0.07200000000000001;stroke-width:15.0px;"  /><circle cx="60.0" cy="240.0" r="52.5" fill="none" stroke="#ddd" style="opacity:0.02;stroke-width:15.0px;"  /><circle cx="120.0" cy="240.0" r="52.5" fill="none" stroke="#ddd" style="opacity:0.02;stroke-width:15.0px;"  /><circle cx="180.0" cy="240.0" r="52.5" fill="none" stroke="#222" style="opacity:0.15;stroke-width:15.0px;"  /><circle cx="240.0" cy="240.0" r="52.5" fill="none" stroke="#ddd" style="opacity:0.10666666666666667;stroke-width:15.0px;"  /><circle cx="300.0" cy="240.0" r="52.5" fill="none" stroke="#222" style="opacity:0.08066666666666666;stroke-width:15.0px;"  /><circle cx="0.0" cy="300.0" r="52.5" fill="none" stroke="#222" style="opacity:0.13266666666666665;stroke-width:15.0px;"  /><circle cx="360.0" cy="300.0" r="52.5" fill="none" stroke="#222" style="opacity:0.13266666666666665;stroke-width:15.0px;"  /><circle cx="60.0" cy="300.0" r="52.5" fill="none" stroke="#222" style="opacity:0.028666666666666667;stroke-width:15.0px;"  /><circle cx="120.0" cy="300.0" r="52.5" fill="none" stroke="#222" style="opacity:0.08066666666666666;stroke-width:15.0px;"  /><circle cx="180.0" cy="300.0" r="52.5" fill="none" stroke="#222" style="opacity:0.11533333333333334;stroke-width:15.0px;"  /><circle cx="240.0" cy="300.0" r="52.5" fill="none" stroke="#ddd" style="opacity:0.02;stroke-width:15.0px;"  /><circle cx="300.0" cy="300.0" r="52.5" fill="none" stroke="#222" style="opacity:0.08066666666666666;stroke-width:15.0px;"  /></svg>