<svg xmlns="http://www.w3.org/2000/svg" width="100" height="100"><rect x="0" y="0" width="100%" height="100%" fill="rgb(58, 71, 149)"  /><circle cx="0.0" cy="0.0" r="24.166666666666664" fill="#ddd" style="opacity:0.03733333333333333;"  /><circle cx="145.0" cy="0.0" r="24.166666666666664" fill="#ddd" style="opacity:0.03733333333333333;"  /><circle cx="0.0" cy="145.0" r="24.166666666666664" fill="#ddd" style="opacity:0.03733333333333333;"  /><circle cx="145.0" cy="145.0" r="24.166666666666664" fill="#ddd" style="opacity:0.03733333333333333;"  /><circle cx="24.166666666666664" cy="0.0" r="24.166666666666664" fill="#ddd" style="opacity:0.08933333333333333;"  /><circle cx="24.166666666666664" cy="145.0" r="24.166666666666664" fill="#ddd" style="opacity:0.08933333333333333;"  /><circle cx="48.33333333333333" cy="0.0" r="24.166666666666664" fill="#ddd" style="opacity:0.10666666666666667;"  /><circle cx="48.33333333333333" cy="145.0" r="24.166666666666664" fill="#ddd" style="opacity:0.10666666666666667;"  /><circle cx="72.5" cy="0.0" r="24.166666666666664" fill="#222" style="opacity:0.13266666666666665;"  /><circle cx="72.5" cy="145.0" r="24.166666666666664" fill="#222" style="opacity:0.13266666666666665;"  /><circle cx="96.66666666666666" cy="0.0" r="24.166666666666664" fill="#ddd" style="opacity:0.14133333333333334;"  /><circle cx="96.66666666666666" cy="145.0" r="24.166666666666664" fill="#ddd" style="opacity:0.14133333333333334;"  /><circle cx="120.83333333333331" cy="0.0" r="24.166666666666664" fill="#222" style="opacity:0.08066666666666666;"  /><circle cx="120.83333333333331" cy="145.0" r="24.166666666666664" fill="#222" style="opacity:0.08066666666666666;"  /><circle cx="0.0" cy="24.166666666666664" r="24.166666666666664" fill="#222" style="opacity:0.098;"  /><circle cx="145.0" cy="24.166666666666664" r="24.166666666666664" fill="#222" style="opacity:0.098;"  /><circle cx="24.166666666666664" cy="24.166666666666664" r="24.166666666666664" fill="#ddd" style="opacity:0.08933333333333333;"  /><circle cx="48.33333333333333" cy="24.166666666666664" r="24.166666666666664" fill="#ddd" style="opacity:0.05466666666666667;"  /><circle cx="72.5" cy="24.166666666666664" r="24.166666666666664" fill="#222" style="opacity:0.11533333333333334;"  /><circle cx="96.66666666666666" cy="24.166666666666664" r="24.166666666666664" fill="#222" style="opacity:0.028666666666666667;"  /><circle cx="120.83333333333331" cy="24.166666666666664" r="24.166666666666664" fill="#ddd" style="opacity:0.14133333333333334;"  /><circle cx="0.0" cy="48.33333333333333" r="24.166666666666664" fill="#222" style="opacity:0.08066666666666666;"  /><circle cx="145.0" cy="48.33333333333333" r="24.166666666666664" fill="#222" style="opacity:0.08066666666666666;"  /><circle cx="24.166666666666664" cy="48.33333333333333" r="24.166666666666664" fill="#ddd" style="opacity:0.08933333333333333;"  /><circle cx="48.33333333333333" cy="48.33333333333333" r="24.166666666666664" fill="#222" style="opacity:0.06333333333333334;"  /><circle cx="72.5" cy="48.33333333333333" r="24.166666666666664" fill="#222" style="opacity:0.11533333333333334;"  /><circle cx="96.66666666666666" cy="48.33333333333333" r="24.166666666666664" fill="#222" style="opacity:0.11533333333333334;"  /><circle cx="120.83333333333331" cy="48.33333333333333" r="24.166666666666664" fill="#ddd" style="opacity:0.03733333333333333;"  /><circle cx="0.0" cy="72.5" r="24.166666666666664" fill="#222" style="opacity:0.046;"  /><circle cx="145.0" cy="72.5" r="24.166666666666664" fill="#222" style="opacity:0.046;"  /><circle cx="24.166666666666664" cy="72.5" r="24.166666666666664" fill="#ddd" style="opacity:0.14133333333333334;"  /><circle cx="48.33333333333333" cy="72.5" r="24.166666666666664" fill="#222" style="opacity:0.11533333333333334;"  /><circle cx="72.5" cy="72.5" r="24.166666666666664" fill="#222" style="opacity:0.08066666666666666;"  /><circle cx="96.66666666666666" cy="72.5" r="24.166666666666664" fill="#ddd" style="opacity:0.12400000000000001;"  /><circle cx="120.83333333333331" cy="72.5" r="24.166666666666664" fill="#ddd" style="opacity:0.03733333333333333;"  /><circle cx="0.0" cy="96.66666666666666" r="24.166666666666664" fill="#ddd" style="opacity:0.12400000000000001;"  /><circle cx="145.0" cy="96.66666666666666" r="24.166666666666664" fill="#ddd" style="opacity:0.12400000000000001;"  /><circle cx="24.166666666666664" cy="96.66666666666666" r="24.166666666666664" fill="#ddd" style="opacity:0.10666666666666667;"  /><circle cx="48.33333333333333" cy="96.66666666666666" r="24.166666666666664" fill="#ddd" style="opacity:0.03733333333333333;"  /><circle cx="72.5" cy="96.66666666666666" r="24.166666666666664" fill="#ddd" style="opacity:0.12400000000000001;"  /><circle cx="96.66666666666666" cy="96.66666666666666" r="24.166666666666664" fill="#ddd" style="opacity:0.08933333333333333;"  /><circle cx="120.83333333333331" cy="96.66666666666666" r="24.166666666666664" fill="#222" style="opacity:0.08066666666666666;"  /><circle cx="0.0" cy="120.83333333333331" r="24.166666666666664" fill="#222" style="opacity:0.08066666666666666;"  /><circle cx="145.0" cy="120.83333333333331" r="24.166666666666664" fill="#222" style="opacity:0.08066666666666666;"  /><circle cx="24.166666666666664" cy="120.83333333333331" r="24.166666666666664" fill="#ddd" style="opacity:0.03733333333333333;"  /><circle cx="48.33333333333333" cy="120.83333333333331" r="24.166666666666664" fill="#ddd" style="opacity:0.14133333333333334;"  /><circle cx="72.5" cy="120.83333333333331" r="24.166666666666664" fill="#222" style="opacity:0.098;"  /><circle cx="96.66666666666666" cy="120.83333333333331" r="24.166666666666664" fill="#ddd" style="opacity:0.05466666666666667;"  /><circle cx="120.83333333333331" cy="120.83333333333331" r="24.166666666666664" fill="#ddd" style="opacity:0.05466666666666667;"  /></svg>