<svg xmlns="http://www.w3.org/2000/svg" width="461" height="461"><rect x="0" y="0" width="100%" height="100%" fill="rgb(63, 144, 77)"  /><rect x="0" y="19" width="100%" height="13" opacity="0.08933333333333333" fill="#ddd"  /><rect x="0" y="50" width="100%" height="20" opacity="0.15" fill="#222"  /><rect x="0" y="84" width="100%" height="11" opacity="0.07200000000000001" fill="#ddd"  /><rect x="0" y="106" width="100%" height="12" opacity="0.08066666666666666" fill="#222"  /><rect x="0" y="129" width="100%" height="12" opacity="0.08066666666666666" fill="#222"  /><rect x="0" y="161" width="100%" height="16" opacity="0.11533333333333334" fill="#222"  /><rect x="0" y="195" width="100%" height="8" opacity="0.046" fill="#222"  /><rect x="0" y="218" width="100%" height="8" opacity="0.046" fill="#222"  /><rect x="0" y="239" width="100%" height="8" opacity="0.046" fill="#222"  /><rect x="0" y="264" width="100%" height="10" opacity="0.06333333333333334" fill="#222"  /><rect x="0" y="282" width="100%" height="7" opacity="0.03733333333333333" fill="#ddd"  /><rect x="0" y="295" width="100%" height="11" opacity="0.07200000000000001" fill="#ddd"  /><rect x="0" y="318" width="100%" height="14" opacity="0.098" fill="#222"  /><rect x="0" y="346" width="100%" height="16" opacity="0.11533333333333334" fill="#222"  /><rect x="0" y="381" width="100%" height="16" opacity="0.11533333333333334" fill="#222"  /><rect x="0" y="406" width="100%" height="16" opacity="0.11533333333333334" fill="#222"  /><rect x="0" y="431" width="100%" height="10" opacity="0.06333333333333334" fill="#222"  /><rect x="0" y="452" width="100%" height="9" opacity="0.05466666666666667" fill="#ddd"  /><rect x="19" y="0" width="13" height="100%" opacity="0.08933333333333333" fill="#ddd"  /><rect x="50" y="0" width="20" height="100%" opacity="0.15" fill="#222"  /><rect x="84" y="0" width="11" height="100%" opacity="0.07200000000000001" fill="#ddd"  /><rect x="106" y="0" width="12" height="100%" opacity="0.08066666666666666" fill="#222"  /><rect x="129" y="0" width="12" height="100%" opacity="0.08066666666666666" fill="#222"  /><rect x="161" y="0" width="16" height="100%" opacity="0.11533333333333334" fill="#222"  /><rect x="195" y="0" width="8" height="100%" opacity="0.046" fill="#222"  /><rect x="218" y="0" width="8" height="100%" opacity="0.046" fill="#222"  /><rect x="239" y="0" width="8" height="100%" opacity="0.046" fill="#222"  /><rect x="264" y="0" width="10" height="100%" opacity="0.06333333333333334" fill="#222"  /><rect x="282" y="0" width="7" height="100%" opacity="0.03733333333333333" fill="#ddd"  /><rect x="295" y="0" width="11" height="100%" opacity="0.07200000000000001" fill="#ddd"  /><rect x="318" y="0" width="14" height="100%" opacity="0.098" fill="#222"  /><rect x="346" y="0" width="16" height="100%" opacity="0.11533333333333334" fill="#222"  /><rect x="381" y="0" width="16" height="100%" opacity="0.11533333333333334" fill="#222"  /><rect x="406" y="0" width="16" height="100%" opacity="0.11533333333333334" fill="#222"  /><rect x="431" y="0" width="10" height="100%" opacity="0.06333333333333334" fill="#222"  /><rect x="452" y="0" width="9" height="100%" opacity="0.05466666666666667" fill="#ddd"  /></svg>