<svg xmlns="http://www.w3.org/2000/svg" width="100" height="100"><rect x="0" y="0" width="100%" height="100%" fill="rgb(69, 90, 138)"  /><rect x="0" y="11" width="100%" height="6" opacity="0.028666666666666667" fill="#222"  /><rect x="0" y="23" width="100%" height="10" opacity="0.06333333333333334" fill="#222"  /><rect x="0" y="47" width="100%" height="15" opacity="0.10666666666666667" fill="#ddd"  /><rect x="0" y="70" width="100%" height="18" opacity="0.13266666666666665" fill="#222"  /><rect x="0" y="94" width="100%" height="13" opacity="0.08933333333333333" fill="#ddd"  /><rect x="0" y="114" width="100%" height="9" opacity="0.05466666666666667" fill="#ddd"  /><rect x="0" y="128" width="100%" height="10" opacity="0.06333333333333334" fill="#222"  /><rect x="0" y="149" width="100%" height="7" opacity="0.03733333333333333" fill="#ddd"  /><rect x="0" y="166" width="100%" height="14" opacity="0.098" fill="#222"  /><rect x="0" y="190" width="100%" height="5" opacity="0.02" fill="#ddd"  /><rect x="0" y="210" width="100%" height="9" opacity="0.05466666666666667" fill="#ddd"  /><rect x="0" y="237" width="100%" height="17" opacity="0.12400000000000001" fill="#ddd"  /><rect x="0" y="274" width="100%" height="13" opacity="0.08933333333333333" fill="#ddd"  /><rect x="0" y="295" width="100%" height="14" opacity="0.098" fill="#222"  /><rect x="0" y="322" width="100%" height="12" opacity="0.08066666666666666" fill="#222"  /><rect x="0" y="353" width="100%" height="12" opacity="0.08066666666666666" fill="#222"  /><rect x="0" y="373" width="100%" height="15" opacity="0.10666666666666667" fill="#ddd"  /><rect x="0" y="404" width="100%" height="12" opacity="0.08066666666666666" fill="#222"  /><rect x="11" y="0" width="6" height="100%" opacity="0.028666666666666667" fill="#222"  /><rect x="23" y="0" width="10" height="100%" opacity="0.06333333333333334" fill="#222"  /><rect x="47" y="0" width="15" height="100%" opacity="0.10666666666666667" fill="#ddd"  /><rect x="70" y="0" width="18" height="100%" opacity="0.13266666666666665" fill="#222"  /><rect x="94" y="0" width="13" height="100%" opacity="0.08933333333333333" fill="#ddd"  /><rect x="114" y="0" width="9" height="100%" opacity="0.05466666666666667" fill="#ddd"  /><rect x="128" y="0" width="10" height="100%" opacity="0.06333333333333334" fill="#222"  /><rect x="149" y="0" width="7" height="100%" opacity="0.03733333333333333" fill="#ddd"  /><rect x="166" y="0" width="14" height="100%" opacity="0.098" fill="#222"  /><rect x="190" y="0" width="5" height="100%" opacity="0.02" fill="#ddd"  /><rect x="210" y="0" width="9" height="100%" opacity="0.05466666666666667" fill="#ddd"  /><rect x="237" y="0" width="17" height="100%" opacity="0.12400000000000001" fill="#ddd"  /><rect x="274" y="0" width="13" height="100%" opacity="0.08933333333333333" fill="#ddd"  /><rect x="295" y="0" width="14" height="100%" opacity="0.098" fill="#222"  /><rect x="322" y="0" width="12" height="100%" opacity="0.08066666666666666" fill="#222"  /><rect x="353" y="0" width="12" height="100%" opacity="0.08066666666666666" fill="#222"  /><rect x="373" y="0" width="15" height="100%" opacity="0.10666666666666667" fill="#ddd"  /><rect x="404" y="0" width="12" height="100%" opacity="0.08066666666666666" fill="#222"  /></svg>