<svg xmlns="http://www.w3.org/2000/svg" width="438" height="438"><rect x="0" y="0" width="100%" height="100%" fill="rgb(161, 46, 128)"  /><rect x="0" y="12" width="100%" height="15" opacity="0.10666666666666667" fill="#ddd"  /><rect x="0" y="39" width="100%" height="5" opacity="0.02" fill="#ddd"  /><rect x="0" y="50" width="100%" height="13" opacity="0.08933333333333333" fill="#ddd"  /><rect x="0" y="72" width="100%" height="10" opacity="0.06333333333333334" fill="#222"  /><rect x="0" y="100" width="100%" height="15" opacity="0.10666666666666667" fill="#ddd"  /><rect x="0" y="120" width="100%" height="11" opacity="0.07200000000000001" fill="#ddd"  /><rect x="0" y="141" width="100%" height="10" opacity="0.06333333333333334" fill="#222"  /><rect x="0" y="157" width="100%" height="19" opacity="0.14133333333333334" fill="#ddd"  /><rect x="0" y="189" width="100%" height="19" opacity="0.14133333333333334" fill="#ddd"  /><rect x="0" y="214" width="100%" height="11" opacity="0.07200000000000001" fill="#ddd"  /><rect x="0" y="234" width="100%" height="11" opacity="0.07200000000000001" fill="#ddd"  /><rect x="0" y="262" width="100%" height="11" opacity="0.07200000000000001" fill="#ddd"  /><rect x="0" y="293" width="100%" height="6" opacity="0.028666666666666667" fill="#222"  /><rect x="0" y="313" width="100%" height="15" opacity="0.10666666666666667" fill="#ddd"  /><rect x="0" y="342" width="100%" height="5" opacity="0.02" fill="#ddd"  /><rect x="0" y="360" width="100%" height="15" opacity="0.10666666666666667" fill="#ddd"  /><rect x="0" y="394" width="100%" height="11" opacity="0.07200000000000001" fill="#ddd"  /><rect x="0" y="421" width="100%" height="17" opacity="0.12400000000000001" fill="#ddd"  /><rect x="12" y="0" width="15" height="100%" opacity="0.10666666666666667" fill="#ddd"  /><rect x="39" y="0" width="5" height="100%" opacity="0.02" fill="#ddd"  /><rect x="50" y="0" width="13" height="100%" opacity="0.08933333333333333" fill="#ddd"  /><rect x="72" y="0" width="10" height="100%" opacity="0.06333333333333334" fill="#222"  /><rect x="100" y="0" width="15" height="100%" opacity="0.10666666666666667" fill="#ddd"  /><rect x="120" y="0" width="11" height="100%" opacity="0.07200000000000001" fill="#ddd"  /><rect x="141" y="0" width="10" height="100%" opacity="0.06333333333333334" fill="#222"  /><rect x="157" y="0" width="19" height="100%" opacity="0.14133333333333334" fill="#ddd"  /><rect x="189" y="0" width="19" height="100%" opacity="0.14133333333333334" fill="#ddd"  /><rect x="214" y="0" width="11" height="100%" opacity="0.07200000000000001" fill="#ddd"  /><rect x="234" y="0" width="11" height="100%" opacity="0.07200000000000001" fill="#ddd"  /><rect x="262" y="0" width="11" height="100%" opacity="0.07200000000000001" fill="#ddd"  /><rect x="293" y="0" width="6" height="100%" opacity="0.028666666666666667" fill="#222"  /><rect x="313" y="0" width="15" height="100%" opacity="0.10666666666666667" fill="#ddd"  /><rect x="342" y="0" width="5" height="100%" opacity="0.02" fill="#ddd"  /><rect x="360" y="0" width="15" height="100%" opacity="0.10666666666666667" fill="#ddd"  /><rect x="394" y="0" width="11" height="100%" opacity="0.07200000000000001" fill="#ddd"  /><rect x="421" y="0" width="17" height="100%" opacity="0.12400000000000001" fill="#ddd"  /></svg>