<svg xmlns="http://www.w3.org/2000/svg" width="288" height="288"><rect x="0" y="0" width="100%" height="100%" fill="rgb(63, 144, 77)"  /><g fill="#ddd" stroke="#000" stroke-opacity="0.02" style="fill-opacity:0.14133333333333334;" transform="translate(-24.0,-36.0)" ><rect x="24.0" y="0" width="24.0" height="72.0"  /><rect x="0" y="24.0" width="72.0" height="24.0"  /></g><g fill="#ddd" stroke="#000" stroke-opacity="0.02" style="fill-opacity:0.14133333333333334;" transform="translate(264.0,-36.0)" ><rect x="24.0" y="0" width="24.0" height="72.0"  /><rect x="0" y="24.0" width="72.0" height="24.0"  /></g><g fill="#ddd" stroke="#000" stroke-opacity="0.02" style="fill-opacity:0.14133333333333334;" transform="translate(-24.0,252.0)" ><rect x="24.0" y="0" width="24.0" height="72.0"  /><rect x="0" y="24.0" width="72.0" height="24.0"  /></g><g fill="#ddd" stroke="#000" stroke-opacity="0.02" style="fill-opacity:0.14133333333333334;" transform="translate(264.0,252.0)" ><rect x="24.0" y="0" width="24.0" height="72.0"  /><rect x="0" y="24.0" width="72.0" height="24.0"  /></g><g fill="#ddd" stroke="#000" stroke-opacity="0.02" style="fill-opacity:0.08933333333333333;" transform="translate(24.0,-36.0)" ><rect x="24.0" y="0" width="24.0" height="72.0"  /><rect x="0" y="24.0" width="72.0" height="24.0"  /></g><g fill="#ddd" stroke="#000" stroke-opacity="0.02" style="fill-opacity:0.08933333333333333;" transform="translate(24.0,252.0)" ><rect x="24.0" y="0" width="24.0" height="72.0"  /><rect x="0" y="24.0" width="72.0" height="24.0"  /></g><g fill="#222" stroke="#000" stroke-opacity="0.02" style="fill-opacity:0.13266666666666665;" transform="translate(72.0,-36.0)" ><rect x="24.0" y="0" width="24.0" height="72.0"  /><rect x="0" y="24.0" width="72.0" height="24.0"  /></g><g fill="#222" stroke="#000" stroke-opacity="0.02" style="fill-opacity:0.13266666666666665;" transform="translate(72.0,252.0)" ><rect x="24.0" y="0" width="24.0" height="72.0"  /><rect x="0" y="24.0" width="72.0" height="24.0"  /></g><g fill="#222" stroke="#000" stroke-opacity="0.02" style="fill-opacity:0.15;" transform="translate(120.0,-36.0)" ><rect x="24.0" y="0" width="24.0" height="72.0"  /><rect x="0" y="24.0" width="72.0" height="24.0"  /></g><g fill="#222" stroke="#000" stroke-opacity="0.02" style="fill-opacity:0.15;" transform="translate(120.0,252.0)" ><rect x="24.0" y="0" width="24.0" height="72.0"  /><rect x="0" y="24.0" width="72.0" height="24.0"  /></g><g fill="#222" stroke="#000" stroke-opacity="0.02" style="fill-opacity:0.098;" transform="translate(168.0,-36.0)" ><rect x="24.0" y="0" width="24.0" height="72.0"  /><rect x="0" y="24.0" width="72.0" height="24.0"  /></g><g fill="#222" stroke="#000" stroke-opacity="0.02" style="fill-opacity:0.098;" transform="translate(168.0,252.0)" ><rect x="24.0" y="0" width="24.0" height="72.0"  /><rect x="0" y="24.0" width="72.0" height="24.0"  /></g><g fill="#ddd" stroke="#000" stroke-opacity="0.02" style="fill-opacity:0.07200000000000001;" transform="translate(216.0,-36.0)" ><rect x="24.0" y="0" width="24.0" height="72.0"  /><rect x="0" y="24.0" width="72.0" height="24.0"  /></g><g fill="#ddd" stroke="#000" stroke-opacity="0.02" style="fill-opacity:0.07200000000000001;" transform="translate(216.0,252.0)" ><rect x="24.0" y="0" width="24.0" height="72.0"  /><rect x="0" y="24.0" width="72.0" height="24.0"  /></g><g fill="#ddd" stroke="#000" stroke-opacity="0.02" style="fill-opacity:0.07200000000000001;" transform="translate(0.0,12.0)" ><rect x="24.0" y="0" width="24.0" height="72.0"  /><rect x="0" y="24.0" width="72.0" height="24.0"  /></g><g fill="#ddd" stroke="#000" stroke-opacity="0.02" style="fill-opacity:0.07200000000000001;" transform="translate(288.0,12.0)" ><rect x="24.0" y="0" width="24.0" height="72.0"  /><rect x="0" y="24.0" width="72.0" height="24.0"  /></g><g fill="#222" stroke="#000" stroke-opacity="0.02" style="fill-opacity:0.08066666666666666;" transform="translate(48.0,12.0)" ><rect x="24.0" y="0" width="24.0" height="72.0"  /><rect x="0" y="24.0" width="72.0" height="24.0"  /></g><g fill="#ddd" stroke="#000" stroke-opacity="0.02" style="fill-opacity:0.07200000000000001;" transform="translate(96.0,12.0)" ><rect x="24.0" y="0" width="24.0" height="72.0"  /><rect x="0" y="24.0" width="72.0" height="24.0"  /></g><g fill="#222" stroke="#000" stroke-opacity="0.02" style="fill-opacity:0.08066666666666666;" transform="translate(144.0,12.0)" ><rect x="24.0" y="0" width="24.0" height="72.0"  /><rect x="0" y="24.0" width="72.0" height="24.0"  /></g><g fill="#222" stroke="#000" stroke-opacity="0.02" style="fill-opacity:0.15;" transform="translate(192.0,12.0)" ><rect x="24.0" y="0" width="24.0" height="72.0"  /><rect x="0" y="24.0" width="72.0" height="24.0"  /></g><g fill="#222" stroke="#000" stroke-opacity="0.02" style="fill-opacity:0.11533333333333334;" transform="translate(240.0,12.0)" ><rect x="24.0" y="0" width="24.0" height="72.0"  /><rect x="0" y="24.0" width="72.0" height="24.0"  /></g><g fill="#222" stroke="#000" stroke-opacity="0.02" style="fill-opacity:0.13266666666666665;" transform="translate(-24.0,60.0)" ><rect x="24.0" y="0" width="24.0" height="72.0"  /><rect x="0" y="24.0" width="72.0" height="24.0"  /></g><g fill="#222" stroke="#000" stroke-opacity="0.02" style="fill-opacity:0.13266666666666665;" transform="translate(264.0,60.0)" ><rect x="24.0" y="0" width="24.0" height="72.0"  /><rect x="0" y="24.0" width="72.0" height="24.0"  /></g><g fill="#222" stroke="#000" stroke-opacity="0.02" style="fill-opacity:0.046;" transform="translate(24.0,60.0)" ><rect x="24.0" y="0" width="24.0" height="72.0"  /><rect x="0" y="24.0" width="72.0" height="24.0"  /></g><g fill="#ddd" stroke="#000" stroke-opacity="0.02" style="fill-opacity:0.10666666666666667;" transform="translate(72.0,60.0)" ><rect x="24.0" y="0" width="24.0" height="72.0"  /><rect x="0" y="24.0" width="72.0" height="24.0"  /></g><g fill="#222" stroke="#000" stroke-opacity="0.02" style="fill-opacity:0.046;" transform="translate(120.0,60.0)" ><rect x="24.0" y="0" width="24.0" height="72.0"  /><rect x="0" y="24.0" width="72.0" height="24.0"  /></g><g fill="#ddd" stroke="#000" stroke-opacity="0.02" style="fill-opacity:0.08933333333333333;" transform="translate(168.0,60.0)" ><rect x="24.0" y="0" width="24.0" height="72.0"  /><rect x="0" y="24.0" width="72.0" height="24.0"  /></g><g fill="#222" stroke="#000" stroke-opacity="0.02" style="fill-opacity:0.046;" transform="translate(216.0,60.0)" ><rect x="24.0" y="0" width="24.0" height="72.0"  /><rect x="0" y="24.0" width="72.0" height="24.0"  /></g><g fill="#ddd" stroke="#000" stroke-opacity="0.02" style="fill-opacity:0.12400000000000001;" transform="translate(0.0,108.0)" ><rect x="24.0" y="0" width="24.0" height="72.0"  /><rect x="0" y="24.0" width="72.0" height="24.0"  /></g><g fill="#ddd" stroke="#000" stroke-opacity="0.02" style="fill-opacity:0.12400000000000001;" transform="translate(288.0,108.0)" ><rect x="24.0" y="0" width="24.0" height="72.0"  /><rect x="0" y="24.0" width="72.0" height="24.0"  /></g><g fill="#222" stroke="#000" stroke-opacity="0.02" style="fill-opacity:0.06333333333333334;" transform="translate(48.0,108.0)" ><rect x="24.0" y="0" width="24.0" height="72.0"  /><rect x="0" y="24.0" width="72.0" height="24.0"  /></g><g fill="#222" stroke="#000" stroke-opacity="0.02" style="fill-opacity:0.046;" transform="translate(96.0,108.0)" ><rect x="24.0" y="0" width="24.0" height="72.0"  /><rect x="0" y="24.0" width="72.0" height="24.0"  /></g><g fill="#ddd" stroke="#000" stroke-opacity="0.02" style="fill-opacity:0.03733333333333333;" transform="translate(144.0,108.0)" ><rect x="24.0" y="0" width="24.0" height="72.0"  /><rect x="0" y="24.0" width="72.0" height="24.0"  /></g><g fill="#222" stroke="#000" stroke-opacity="0.02" style="fill-opacity:0.028666666666666667;" transform="translate(192.0,108.0)" ><rect x="24.0" y="0" width="24.0" height="72.0"  /><rect x="0" y="24.0" width="72.0" height="24.0"  /></g><g fill="#ddd" stroke="#000" stroke-opacity="0.02" style="fill-opacity:0.07200000000000001;" transform="translate(240.0,108.0)" ><rect x="24.0" y="0" width="24.0" height="72.0"  /><rect x="0" y="24.0" width="72.0" height="24.0"  /></g><g fill="#222" stroke="#000" stroke-opacity="0.02" style="fill-opacity:0.08066666666666666;" transform="translate(-24.0,156.0)" ><rect x="24.0" y="0" width="24.0" height="72.0"  /><rect x="0" y="24.0" width="72.0" height="24.0"  /></g><g fill="#222" stroke="#000" stroke-opacity="0.02" style="fill-opacity:0.08066666666666666;" transform="translate(264.0,156.0)" ><rect x="24.0" y="0" width="24.0" height="72.0"  /><rect x="0" y="24.0" width="72.0" height="24.0"  /></g><g fill="#222" stroke="#000" stroke-opacity="0.02" style="fill-opacity:0.098;" transform="translate(24.0,156.0)" ><rect x="24.0" y="0" width="24.0" height="72.0"  /><rect x="0" y="24.0" width="72.0" height="24.0"  /></g><g fill="#222" stroke="#000" stroke-opacity="0.02" style="fill-opacity:0.098;" transform="translate(72.0,156.0)" ><rect x="24.0" y="0" width="24.0" height="72.0"  /><rect x="0" y="24.0" width="72.0" height="24.0"  /></g><g fill="#222" stroke="#000" stroke-opacity="0.02" style="fill-opacity:0.11533333333333334;" transform="translate(120.0,156.0)" ><rect x="24.0" y="0" width="24.0" height="72.0"  /><rect x="0" y="24.0" width="72.0" height="24.0"  /></g><g fill="#ddd" stroke="#000" stroke-opacity="0.02" style="fill-opacity:0.14133333333333334;" transform="translate(168.0,156.0)" ><rect x="24.0" y="0" width="24.0" height="72.0"  /><rect x="0" y="24.0" width="72.0" height="24.0"  /></g><g fill="#222" stroke="#000" stroke-opacity="0.02" style="fill-opacity:0.11533333333333334;" transform="translate(216.0,156.0)" ><rect x="24.0" y="0" width="24.0" height="72.0"  /><rect x="0" y="24.0" width="72.0" height="24.0"  /></g><g fill="#ddd" stroke="#000" stroke-opacity="0.02" style="fill-opacity:0.05466666666666667;" transform="translate(0.0,204.0)" ><rect x="24.0" y="0" width="24.0" height="72.0"  /><rect x="0" y="24.0" width="72.0" height="24.0"  /></g><g fill="#ddd" stroke="#000" stroke-opacity="0.02" style="fill-opacity:0.05466666666666667;" transform="translate(288.0,204.0)" ><rect x="24.0" y="0" width="24.0" height="72.0"  /><rect x="0" y="24.0" width="72.0" height="24.0"  /></g><g fill="#222" stroke="#000" stroke-opacity="0.02" style="fill-opacity:0.11533333333333334;" transform="translate(48.0,204.0)" ><rect x="24.0" y="0" width="24.0" height="72.0"  /><rect x="0" y="24.0" width="72.0" height="24.0"  /></g><g fill="#ddd" stroke="#000" stroke-opacity="0.02" style="fill-opacity:0.05466666666666667;" transform="translate(96.0,204.0)" ><rect x="24.0" y="0" width="24.0" height="72.0"  /><rect x="0" y="24.0" width="72.0" height="24.0"  /></g><g fill="#222" stroke="#000" stroke-opacity="0.02" style="fill-opacity:0.06333333333333334;" transform="translate(144.0,204.0)" ><rect x="24.0" y="0" width="24.0" height="72.0"  /><rect x="0" y="24.0" width="72.0" height="24.0"  /></g><g fill="#ddd" stroke="#000" stroke-opacity="0.02" style="fill-opacity:0.07200000000000001;" transform="translate(192.0,204.0)" ><rect x="24.0" y="0" width="24.0" height="72.0"  /><rect x="0" y="24.0" width="72.0" height="24.0"  /></g><g fill="#ddd" stroke="#000" stroke-opacity="0.02" style="fill-opacity:0.05466666666666667;" transform="translate(240.0,204.0)" ><rect x="24.0" y="0" width="24.0" height="72.0"  /><rect x="0" y="24.0" width="72.0" height="24.0"  /></g></svg>