<svg xmlns="http://www.w3.org/2000/svg" width="100" height="100"><rect x="0" y="0" width="100%" height="100%" fill="rgb(161, 46, 128)"  /><g fill="#222" stroke="#000" stroke-opacity="0.02" style="fill-opacity:0.08066666666666666;" transform="translate(-17.0,-25.5)" ><rect x="17.0" y="0" width="17.0" height="51.0"  /><rect x="0" y="17.0" width="51.0" height="17.0"  /></g><g fill="#222" stroke="#000" stroke-opacity="0.02" style="fill-opacity:0.08066666666666666;" transform="translate(187.0,-25.5)" ><rect x="17.0" y="0" width="17.0" height="51.0"  /><rect x="0" y="17.0" width="51.0" height="17.0"  /></g><g fill="#222" stroke="#000" stroke-opacity="0.02" style="fill-opacity:0.08066666666666666;" transform="translate(-17.0,178.5)" ><rect x="17.0" y="0" width="17.0" height="51.0"  /><rect x="0" y="17.0" width="51.0" height="17.0"  /></g><g fill="#222" stroke="#000" stroke-opacity="0.02" style="fill-opacity:0.08066666666666666;" transform="translate(187.0,178.5)" ><rect x="17.0" y="0" width="17.0" height="51.0"  /><rect x="0" y="17.0" width="51.0" height="17.0"  /></g><g fill="#ddd" stroke="#000" stroke-opacity="0.02" style="fill-opacity:0.10666666666666667;" transform="translate(17.0,-25.5)" ><rect x="17.0" y="0" width="17.0" height="51.0"  /><rect x="0" y="17.0" width="51.0" height="17.0"  /></g><g fill="#ddd" stroke="#000" stroke-opacity="0.02" style="fill-opacity:0.10666666666666667;" transform="translate(17.0,178.5)" ><rect x="17.0" y="0" width="17.0" height="51.0"  /><rect x="0" y="17.0" width="51.0" height="17.0"  /></g><g fill="#222" stroke="#000" stroke-opacity="0.02" style="fill-opacity:0.08066666666666666;" transform="translate(51.0,-25.5)" ><rect x="17.0" y="0" width="17.0" height="51.0"  /><rect x="0" y="17.0" width="51.0" height="17.0"  /></g><g fill="#222" stroke="#000" stroke-opacity="0.02" style="fill-opacity:0.08066666666666666;" transform="translate(51.0,178.5)" ><rect x="17.0" y="0" width="17.0" height="51.0"  /><rect x="0" y="17.0" width="51.0" height="17.0"  /></g><g fill="#ddd" stroke="#000" stroke-opacity="0.02" style="fill-opacity:0.02;" transform="translate(85.0,-25.5)" ><rect x="17.0" y="0" width="17.0" height="51.0"  /><rect x="0" y="17.0" width="51.0" height="17.0"  /></g><g fill="#ddd" stroke="#000" stroke-opacity="0.02" style="fill-opacity:0.02;" transform="translate(85.0,178.5)" ><rect x="17.0" y="0" width="17.0" height="51.0"  /><rect x="0" y="17.0" width="51.0" height="17.0"  /></g><g fill="#222" stroke="#000" stroke-opacity="0.02" style="fill-opacity:0.028666666666666667;" transform="translate(119.0,-25.5)" ><rect x="17.0" y="0" width="17.0" height="51.0"  /><rect x="0" y="17.0" width="51.0" height="17.0"  /></g><g fill="#222" stroke="#000" stroke-opacity="0.02" style="fill-opacity:0.028666666666666667;" transform="translate(119.0,178.5)" ><rect x="17.0" y="0" width="17.0" height="51.0"  /><rect x="0" y="17.0" width="51.0" height="17.0"  /></g><g fill="#ddd" stroke="#000" stroke-opacity="0.02" style="fill-opacity:0.08933333333333333;" transform="translate(153.0,-25.5)" ><rect x="17.0" y="0" width="17.0" height="51.0"  /><rect x="0" y="17.0" width="51.0" height="17.0"  /></g><g fill="#ddd" stroke="#000" stroke-opacity="0.02" style="fill-opacity:0.08933333333333333;" transform="translate(153.0,178.5)" ><rect x="17.0" y="0" width="17.0" height="51.0"  /><rect x="0" y="17.0" width="51.0" height="17.0"  /></g><g fill="#ddd" stroke="#000" stroke-opacity="0.02" style="fill-opacity:0.05466666666666667;" transform="translate(0.0,8.5)" ><rect x="17.0" y="0" width="17.0" height="51.0"  /><rect x="0" y="17.0" width="51.0" height="17.0"  /></g><g fill="#ddd" stroke="#000" stroke-opacity="0.02" style="fill-opacity:0.05466666666666667;" transform="translate(204.0,8.5)" ><rect x="17.0" y="0" width="17.0" height="51.0"  /><rect x="0" y="17.0" width="51.0" height="17.0"  /></g><g fill="#222" stroke="#000" stroke-opacity="0.02" style="fill-opacity:0.06333333333333334;" transform="translate(34.0,8.5)" ><rect x="17.0" y="0" width="17.0" height="51.0"  /><rect x="0" y="17.0" width="51.0" height="17.0"  /></g><g fill="#222" stroke="#000" stroke-opacity="0.02" style="fill-opacity:0.13266666666666665;" transform="translate(68.0,8.5)" ><rect x="17.0" y="0" width="17.0" height="51.0"  /><rect x="0" y="17.0" width="51.0" height="17.0"  /></g><g fill="#ddd" stroke="#000" stroke-opacity="0.02" style="fill-opacity:0.10666666666666667;" transform="translate(102.0,8.5)" ><rect x="17.0" y="0" width="17.0" height="51.0"  /><rect x="0" y="17.0" width="51.0" height="17.0"  /></g><g fill="#ddd" stroke="#000" stroke-opacity="0.02" style="fill-opacity:0.02;" transform="translate(136.0,8.5)" ><rect x="17.0" y="0" width="17.0" height="51.0"  /><rect x="0" y="17.0" width="51.0" height="17.0"  /></g><g fill="#ddd" stroke="#000" stroke-opacity="0.02" style="fill-opacity:0.07200000000000001;" transform="translate(170.0,8.5)" ><rect x="17.0" y="0" width="17.0" height="51.0"  /><rect x="0" y="17.0" width="51.0" height="17.0"  /></g><g fill="#222" stroke="#000" stroke-opacity="0.02" style="fill-opacity:0.06333333333333334;" transform="translate(-17.0,42.5)" ><rect x="17.0" y="0" width="17.0" height="51.0"  /><rect x="0" y="17.0" width="51.0" height="17.0"  /></g><g fill="#222" stroke="#000" stroke-opacity="0.02" style="fill-opacity:0.06333333333333334;" transform="translate(187.0,42.5)" ><rect x="17.0" y="0" width="17.0" height="51.0"  /><rect x="0" y="17.0" width="51.0" height="17.0"  /></g><g fill="#222" stroke="#000" stroke-opacity="0.02" style="fill-opacity:0.06333333333333334;" transform="translate(17.0,42.5)" ><rect x="17.0" y="0" width="17.0" height="51.0"  /><rect x="0" y="17.0" width="51.0" height="17.0"  /></g><g fill="#222" stroke="#000" stroke-opacity="0.02" style="fill-opacity:0.028666666666666667;" transform="translate(51.0,42.5)" ><rect x="17.0" y="0" width="17.0" height="51.0"  /><rect x="0" y="17.0" width="51.0" height="17.0"  /></g><g fill="#ddd" stroke="#000" stroke-opacity="0.02" style="fill-opacity:0.14133333333333334;" transform="translate(85.0,42.5)" ><rect x="17.0" y="0" width="17.0" height="51.0"  /><rect x="0" y="17.0" width="51.0" height="17.0"  /></g><g fill="#ddd" stroke="#000" stroke-opacity="0.02" style="fill-opacity:0.08933333333333333;" transform="translate(119.0,42.5)" ><rect x="17.0" y="0" width="17.0" height="51.0"  /><rect x="0" y="17.0" width="51.0" height="17.0"  /></g><g fill="#ddd" stroke="#000" stroke-opacity="0.02" style="fill-opacity:0.14133333333333334;" transform="translate(153.0,42.5)" ><rect x="17.0" y="0" width="17.0" height="51.0"  /><rect x="0" y="17.0" width="51.0" height="17.0"  /></g><g fill="#222" stroke="#000" stroke-opacity="0.02" style="fill-opacity:0.028666666666666667;" transform="translate(0.0,76.5)" ><rect x="17.0" y="0" width="17.0" height="51.0"  /><rect x="0" y="17.0" width="51.0" height="17.0"  /></g><g fill="#222" stroke="#000" stroke-opacity="0.02" style="fill-opacity:0.028666666666666667;" transform="translate(204.0,76.5)" ><rect x="17.0" y="0" width="17.0" height="51.0"  /><rect x="0" y="17.0" width="51.0" height="17.0"  /></g><g fill="#ddd" stroke="#000" stroke-opacity="0.02" style="fill-opacity:0.07200000000000001;" transform="translate(34.0,76.5)" ><rect x="17.0" y="0" width="17.0" height="51.0"  /><rect x="0" y="17.0" width="51.0" height="17.0"  /></g><g fill="#ddd" stroke="#000" stroke-opacity="0.02" style="fill-opacity:0.05466666666666667;" transform="translate(68.0,76.5)" ><rect x="17.0" y="0" width="17.0" height="51.0"  /><rect x="0" y="17.0" width="51.0" height="17.0"  /></g><g fill="#ddd" stroke="#000" stroke-opacity="0.02" style="fill-opacity:0.07200000000000001;" transform="translate(102.0,76.5)" ><rect x="17.0" y="0" width="17.0" height="51.0"  /><rect x="0" y="17.0" width="51.0" height="17.0"  /></g><g fill="#ddd" stroke="#000" stroke-opacity="0.02" style="fill-opacity:0.12400000000000001;" transform="translate(136.0,76.5)" ><rect x="17.0" y="0" width="17.0" height="51.0"  /><rect x="0" y="17.0" width="51.0" height="17.0"  /></g><g fill="#ddd" stroke="#000" stroke-opacity="0.02" style="fill-opacity:0.07200000000000001;" transform="translate(170.0,76.5)" ><rect x="17.0" y="0" width="17.0" height="51.0"  /><rect x="0" y="17.0" width="51.0" height="17.0"  /></g><g fill="#222" stroke="#000" stroke-opacity="0.02" style="fill-opacity:0.15;" transform="translate(-17.0,110.5)" ><rect x="17.0" y="0" width="17.0" height="51.0"  /><rect x="0" y="17.0" width="51.0" height="17.0"  /></g><g fill="#222" stroke="#000" stroke-opacity="0.02" style="fill-opacity:0.15;" transform="translate(187.0,110.5)" ><rect x="17.0" y="0" width="17.0" height="51.0"  /><rect x="0" y="17.0" width="51.0" height="17.0"  /></g><g fill="#222" stroke="#000" stroke-opacity="0.02" style="fill-opacity:0.028666666666666667;" transform="translate(17.0,110.5)" ><rect x="17.0" y="0" width="17.0" height="51.0"  /><rect x="0" y="17.0" width="51.0" height="17.0"  /></g><g fill="#222" stroke="#000" stroke-opacity="0.02" style="fill-opacity:0.098;" transform="translate(51.0,110.5)" ><rect x="17.0" y="0" width="17.0" height="51.0"  /><rect x="0" y="17.0" width="51.0" height="17.0"  /></g><g fill="#ddd" stroke="#000" stroke-opacity="0.02" style="fill-opacity:0.10666666666666667;" transform="translate(85.0,110.5)" ><rect x="17.0" y="0" width="17.0" height="51.0"  /><rect x="0" y="17.0" width="51.0" height="17.0"  /></g><g fill="#222" stroke="#000" stroke-opacity="0.02" style="fill-opacity:0.098;" transform="translate(119.0,110.5)" ><rect x="17.0" y="0" width="17.0" height="51.0"  /><rect x="0" y="17.0" width="51.0" height="17.0"  /></g><g fill="#ddd" stroke="#000" stroke-opacity="0.02" style="fill-opacity:0.02;" transform="translate(153.0,110.5)" ><rect x="17.0" y="0" width="17.0" height="51.0"  /><rect x="0" y="17.0" width="51.0" height="17.0"  /></g><g fill="#ddd" stroke="#000" stroke-opacity="0.02" style="fill-opacity:0.08933333333333333;" transform="translate(0.0,144.5)" ><rect x="17.0" y="0" width="17.0" height="51.0"  /><rect x="0" y="17.0" width="51.0" height="17.0"  /></g><g fill="#ddd" stroke="#000" stroke-opacity="0.02" style="fill-opacity:0.08933333333333333;" transform="translate(204.0,144.5)" ><rect x="17.0" y="0" width="17.0" height="51.0"  /><rect x="0" y="17.0" width="51.0" height="17.0"  /></g><g fill="#ddd" stroke="#000" stroke-opacity="0.02" style="fill-opacity:0.10666666666666667;" transform="translate(34.0,144.5)" ><rect x="17.0" y="0" width="17.0" height="51.0"  /><rect x="0" y="17.0" width="51.0" height="17.0"  /></g><g fill="#ddd" stroke="#000" stroke-opacity="0.02" style="fill-opacity:0.14133333333333334;" transform="translate(68.0,144.5)" ><rect x="17.0" y="0" width="17.0" height="51.0"  /><rect x="0" y="17.0" width="51.0" height="17.0"  /></g><g fill="#ddd" stroke="#000" stroke-opacity="0.02" style="fill-opacity:0.07200000000000001;" transform="translate(102.0,144.5)" ><rect x="17.0" y="0" width="17.0" height="51.0"  /><rect x="0" y="17.0" width="51.0" height="17.0"  /></g><g fill="#222" stroke="#000" stroke-opacity="0.02" style="fill-opacity:0.11533333333333334;" transform="translate(136.0,144.5)" ><rect x="17.0" y="0" width="17.0" height="51.0"  /><rect x="0" y="17.0" width="51.0" height="17.0"  /></g><g fill="#ddd" stroke="#000" stroke-opacity="0.02" style="fill-opacity:0.12400000000000001;" transform="translate(170.0,144.5)" ><rect x="17.0" y="0" width="17.0" height="51.0"  /><rect x="0" y="17.0" width="51.0" height="17.0"  /></g></svg>