<svg xmlns="http://www.w3.org/2000/svg" width="100" height="100"><rect x="0" y="0" width="100%" height="100%" fill="rgb(65, 93, 142)"  /><g fill="#222" stroke="#000" stroke-opacity="0.02" style="fill-opacity:0.15;" transform="translate(-25.0,-37.5)" ><rect x="25.0" y="0" width="25.0" height="75.0"  /><rect x="0" y="25.0" width="75.0" height="25.0"  /></g><g fill="#222" stroke="#000" stroke-opacity="0.02" style="fill-opacity:0.15;" transform="translate(275.0,-37.5)" ><rect x="25.0" y="0" width="25.0" height="75.0"  /><rect x="0" y="25.0" width="75.0" height="25.0"  /></g><g fill="#222" stroke="#000" stroke-opacity="0.02" style="fill-opacity:0.15;" transform="translate(-25.0,262.5)" ><rect x="25.0" y="0" width="25.0" height="75.0"  /><rect x="0" y="25.0" width="75.0" height="25.0"  /></g><g fill="#222" stroke="#000" stroke-opacity="0.02" style="fill-opacity:0.15;" transform="translate(275.0,262.5)" ><rect x="25.0" y="0" width="25.0" height="75.0"  /><rect x="0" y="25.0" width="75.0" height="25.0"  /></g><g fill="#ddd" stroke="#000" stroke-opacity="0.02" style="fill-opacity:0.10666666666666667;" transform="translate(25.0,-37.5)" ><rect x="25.0" y="0" width="25.0" height="75.0"  /><rect x="0" y="25.0" width="75.0" height="25.0"  /></g><g fill="#ddd" stroke="#000" stroke-opacity="0.02" style="fill-opacity:0.10666666666666667;" transform="translate(25.0,262.5)" ><rect x="25.0" y="0" width="25.0" height="75.0"  /><rect x="0" y="25.0" width="75.0" height="25.0"  /></g><g fill="#ddd" stroke="#000" stroke-opacity="0.02" style="fill-opacity:0.07200000000000001;" transform="translate(75.0,-37.5)" ><rect x="25.0" y="0" width="25.0" height="75.0"  /><rect x="0" y="25.0" width="75.0" height="25.0"  /></g><g fill="#ddd" stroke="#000" stroke-opacity="0.02" style="fill-opacity:0.07200000000000001;" transform="translate(75.0,262.5)" ><rect x="25.0" y="0" width="25.0" height="75.0"  /><rect x="0" y="25.0" width="75.0" height="25.0"  /></g><g fill="#222" stroke="#000" stroke-opacity="0.02" style="fill-opacity:0.11533333333333334;" transform="translate(125.0,-37.5)" ><rect x="25.0" y="0" width="25.0" height="75.0"  /><rect x="0" y="25.0" width="75.0" height="25.0"  /></g><g fill="#222" stroke="#000" stroke-opacity="0.02" style="fill-opacity:0.11533333333333334;" transform="translate(125.0,262.5)" ><rect x="25.0" y="0" width="25.0" height="75.0"  /><rect x="0" y="25.0" width="75.0" height="25.0"  /></g><g fill="#222" stroke="#000" stroke-opacity="0.02" style="fill-opacity:0.11533333333333334;" transform="translate(175.0,-37.5)" ><rect x="25.0" y="0" width="25.0" height="75.0"  /><rect x="0" y="25.0" width="75.0" height="25.0"  /></g><g fill="#222" stroke="#000" stroke-opacity="0.02" style="fill-opacity:0.11533333333333334;" transform="translate(175.0,262.5)" ><rect x="25.0" y="0" width="25.0" height="75.0"  /><rect x="0" y="25.0" width="75.0" height="25.0"  /></g><g fill="#ddd" stroke="#000" stroke-opacity="0.02" style="fill-opacity:0.14133333333333334;" transform="translate(225.0,-37.5)" ><rect x="25.0" y="0" width="25.0" height="75.0"  /><rect x="0" y="25.0" width="75.0" height="25.0"  /></g><g fill="#ddd" stroke="#000" stroke-opacity="0.02" style="fill-opacity:0.14133333333333334;" transform="translate(225.0,262.5)" ><rect x="25.0" y="0" width="25.0" height="75.0"  /><rect x="0" y="25.0" width="75.0" height="25.0"  /></g><g fill="#ddd" stroke="#000" stroke-opacity="0.02" style="fill-opacity:0.02;" transform="translate(0.0,12.5)" ><rect x="25.0" y="0" width="25.0" height="75.0"  /><rect x="0" y="25.0" width="75.0" height="25.0"  /></g><g fill="#ddd" stroke="#000" stroke-opacity="0.02" style="fill-opacity:0.02;" transform="translate(300.0,12.5)" ><rect x="25.0" y="0" width="25.0" height="75.0"  /><rect x="0" y="25.0" width="75.0" height="25.0"  /></g><g fill="#222" stroke="#000" stroke-opacity="0.02" style="fill-opacity:0.11533333333333334;" transform="translate(50.0,12.5)" ><rect x="25.0" y="0" width="25.0" height="75.0"  /><rect x="0" y="25.0" width="75.0" height="25.0"  /></g><g fill="#222" stroke="#000" stroke-opacity="0.02" style="fill-opacity:0.06333333333333334;" transform="translate(100.0,12.5)" ><rect x="25.0" y="0" width="25.0" height="75.0"  /><rect x="0" y="25.0" width="75.0" height="25.0"  /></g><g fill="#222" stroke="#000" stroke-opacity="0.02" style="fill-opacity:0.06333333333333334;" transform="translate(150.0,12.5)" ><rect x="25.0" y="0" width="25.0" height="75.0"  /><rect x="0" y="25.0" width="75.0" height="25.0"  /></g><g fill="#222" stroke="#000" stroke-opacity="0.02" style="fill-opacity:0.13266666666666665;" transform="translate(200.0,12.5)" ><rect x="25.0" y="0" width="25.0" height="75.0"  /><rect x="0" y="25.0" width="75.0" height="25.0"  /></g><g fill="#222" stroke="#000" stroke-opacity="0.02" style="fill-opacity:0.06333333333333334;" transform="translate(250.0,12.5)" ><rect x="25.0" y="0" width="25.0" height="75.0"  /><rect x="0" y="25.0" width="75.0" height="25.0"  /></g><g fill="#222" stroke="#000" stroke-opacity="0.02" style="fill-opacity:0.028666666666666667;" transform="translate(-25.0,62.5)" ><rect x="25.0" y="0" width="25.0" height="75.0"  /><rect x="0" y="25.0" width="75.0" height="25.0"  /></g><g fill="#222" stroke="#000" stroke-opacity="0.02" style="fill-opacity:0.028666666666666667;" transform="translate(275.0,62.5)" ><rect x="25.0" y="0" width="25.0" height="75.0"  /><rect x="0" y="25.0" width="75.0" height="25.0"  /></g><g fill="#ddd" stroke="#000" stroke-opacity="0.02" style="fill-opacity:0.10666666666666667;" transform="translate(25.0,62.5)" ><rect x="25.0" y="0" width="25.0" height="75.0"  /><rect x="0" y="25.0" width="75.0" height="25.0"  /></g><g fill="#ddd" stroke="#000" stroke-opacity="0.02" style="fill-opacity:0.07200000000000001;" transform="translate(75.0,62.5)" ><rect x="25.0" y="0" width="25.0" height="75.0"  /><rect x="0" y="25.0" width="75.0" height="25.0"  /></g><g fill="#ddd" stroke="#000" stroke-opacity="0.02" style="fill-opacity:0.05466666666666667;" transform="translate(125.0,62.5)" ><rect x="25.0" y="0" width="25.0" height="75.0"  /><rect x="0" y="25.0" width="75.0" height="25.0"  /></g><g fill="#222" stroke="#000" stroke-opacity="0.02" style="fill-opacity:0.15;" transform="translate(175.0,62.5)" ><rect x="25.0" y="0" width="25.0" height="75.0"  /><rect x="0" y="25.0" width="75.0" height="25.0"  /></g><g fill="#222" stroke="#000" stroke-opacity="0.02" style="fill-opacity:0.06333333333333334;" transform="translate(225.0,62.5)" ><rect x="25.0" y="0" width="25.0" height="75.0"  /><rect x="0" y="25.0" width="75.0" height="25.0"  /></g><g fill="#222" stroke="#000" stroke-opacity="0.02" style="fill-opacity:0.06333333333333334;" transform="translate(0.0,112.5)" ><rect x="25.0" y="0" width="25.0" height="75.0"  /><rect x="0" y="25.0" width="75.0" height="25.0"  /></g><g fill="#222" stroke="#000" stroke-opacity="0.02" style="fill-opacity:0.06333333333333334;" transform="translate(300.0,112.5)" ><rect x="25.0" y="0" width="25.0" height="75.0"  /><rect x="0" y="25.0" width="75.0" height="25.0"  /></g><g fill="#ddd" stroke="#000" stroke-opacity="0.02" style="fill-opacity:0.05466666666666667;" transform="translate(50.0,112.5)" ><rect x="25.0" y="0" width="25.0" height="75.0"  /><rect x="0" y="25.0" width="75.0" height="25.0"  /></g><g fill="#ddd" stroke="#000" stroke-opacity="0.02" style="fill-opacity:0.12400000000000001;" transform="translate(100.0,112.5)" ><rect x="25.0" y="0" width="25.0" height="75.0"  /><rect x="0" y="25.0" width="75.0" height="25.0"  /></g><g fill="#ddd" stroke="#000" stroke-opacity="0.02" style="fill-opacity:0.03733333333333333;" transform="translate(150.0,112.5)" ><rect x="25.0" y="0" width="25.0" height="75.0"  /><rect x="0" y="25.0" width="75.0" height="25.0"  /></g><g fill="#222" stroke="#000" stroke-opacity="0.02" style="fill-opacity:0.11533333333333334;" transform="translate(200.0,112.5)" ><rect x="25.0" y="0" width="25.0" height="75.0"  /><rect x="0" y="25.0" width="75.0" height="25.0"  /></g><g fill="#222" stroke="#000" stroke-opacity="0.02" style="fill-opacity:0.15;" transform="translate(250.0,112.5)" ><rect x="25.0" y="0" width="25.0" height="75.0"  /><rect x="0" y="25.0" width="75.0" height="25.0"  /></g><g fill="#ddd" stroke="#000" stroke-opacity="0.02" style="fill-opacity:0.08933333333333333;" transform="translate(-25.0,162.5)" ><rect x="25.0" y="0" width="25.0" height="75.0"  /><rect x="0" y="25.0" width="75.0" height="25.0"  /></g><g fill="#ddd" stroke="#000" stroke-opacity="0.02" style="fill-opacity:0.08933333333333333;" transform="translate(275.0,162.5)" ><rect x="25.0" y="0" width="25.0" height="75.0"  /><rect x="0" y="25.0" width="75.0" height="25.0"  /></g><g fill="#222" stroke="#000" stroke-opacity="0.02" style="fill-opacity:0.11533333333333334;" transform="translate(25.0,162.5)" ><rect x="25.0" y="0" width="25.0" height="75.0"  /><rect x="0" y="25.0" width="75.0" height="25.0"  /></g><g fill="#ddd" stroke="#000" stroke-opacity="0.02" style="fill-opacity:0.12400000000000001;" transform="translate(75.0,162.5)" ><rect x="25.0" y="0" width="25.0" height="75.0"  /><rect x="0" y="25.0" width="75.0" height="25.0"  /></g><g fill="#222" stroke="#000" stroke-opacity="0.02" style="fill-opacity:0.13266666666666665;" transform="translate(125.0,162.5)" ><rect x="25.0" y="0" width="25.0" height="75.0"  /><rect x="0" y="25.0" width="75.0" height="25.0"  /></g><g fill="#222" stroke="#000" stroke-opacity="0.02" style="fill-opacity:0.13266666666666665;" transform="translate(175.0,162.5)" ><rect x="25.0" y="0" width="25.0" height="75.0"  /><rect x="0" y="25.0" width="75.0" height="25.0"  /></g><g fill="#ddd" stroke="#000" stroke-opacity="0.02" style="fill-opacity:0.10666666666666667;" transform="translate(225.0,162.5)" ><rect x="25.0" y="0" width="25.0" height="75.0"  /><rect x="0" y="25.0" width="75.0" height="25.0"  /></g><g fill="#ddd" stroke="#000" stroke-opacity="0.02" style="fill-opacity:0.07200000000000001;" transform="translate(0.0,212.5)" ><rect x="25.0" y="0" width="25.0" height="75.0"  /><rect x="0" y="25.0" width="75.0" height="25.0"  /></g><g fill="#ddd" stroke="#000" stroke-opacity="0.02" style="fill-opacity:0.07200000000000001;" transform="translate(300.0,212.5)" ><rect x="25.0" y="0" width="25.0" height="75.0"  /><rect x="0" y="25.0" width="75.0" height="25.0"  /></g><g fill="#ddd" stroke="#000" stroke-opacity="0.02" style="fill-opacity:0.08933333333333333;" transform="translate(50.0,212.5)" ><rect x="25.0" y="0" width="25.0" height="75.0"  /><rect x="0" y="25.0" width="75.0" height="25.0"  /></g><g fill="#ddd" stroke="#000" stroke-opacity="0.02" style="fill-opacity:0.03733333333333333;" transform="translate(100.0,212.5)" ><rect x="25.0" y="0" width="25.0" height="75.0"  /><rect x="0" y="25.0" width="75.0" height="25.0"  /></g><g fill="#222" stroke="#000" stroke-opacity="0.02" style="fill-opacity:0.06333333333333334;" transform="translate(150.0,212.5)" ><rect x="25.0" y="0" width="25.0" height="75.0"  /><rect x="0" y="25.0" width="75.0" height="25.0"  /></g><g fill="#ddd" stroke="#000" stroke-opacity="0.02" style="fill-opacity:0.10666666666666667;" transform="translate(200.0,212.5)" ><rect x="25.0" y="0" width="25.0" height="75.0"  /><rect x="0" y="25.0" width="75.0" height="25.0"  /></g><g fill="#222" stroke="#000" stroke-opacity="0.02" style="fill-opacity:0.06333333333333334;" transform="translate(250.0,212.5)" ><rect x="25.0" y="0" width="25.0" height="75.0"  /><rect x="0" y="25.0" width="75.0" height="25.0"  /></g></svg>