<svg xmlns="http://www.w3.org/2000/svg" width="100" height="100"><rect x="0" y="0" width="100%" height="100%" fill="rgb(121, 131, 76)"  /><path d="M0 53 C 28.0 0, 52.0 0, 80 53 S 132.0 106, 160 53 S 212.0 0, 240.0, 53" fill="none" stroke="#222" style="opacity:0.046;stroke-width:6px;" transform="translate(-40, -79.5)"  /><path d="M0 53 C 28.0 0, 52.0 0, 80 53 S 132.0 106, 160 53 S 212.0 0, 240.0, 53" fill="none" stroke="#222" style="opacity:0.046;stroke-width:6px;" transform="translate(-40, 136.5)"  /><path d="M0 53 C 28.0 0, 52.0 0, 80 53 S 132.0 106, 160 53 S 212.0 0, 240.0, 53" fill="none" stroke="#222" style="opacity:0.06333333333333334;stroke-width:6px;" transform="translate(-40, -73.5)"  /><path d="M0 53 C 28.0 0, 52.0 0, 80 53 S 132.0 106, 160 53 S 212.0 0, 240.0, 53" fill="none" stroke="#222" style="opacity:0.06333333333333334;stroke-width:6px;" transform="translate(-40, 142.5)"  /><path d="M0 53 C 28.0 0, 52.0 0, 80 53 S 132.0 106, 160 53 S 212.0 0, 240.0, 53" fill="none" stroke="#ddd" style="opacity:0.03733333333333333;stroke-width:6px;" transform="translate(-40, -67.5)"  /><path d="M0 53 C 28.0 0, 52.0 0, 80 53 S 132.0 106, 160 53 S 212.0 0, 240.0, 53" fill="none" stroke="#ddd" style="opacity:0.03733333333333333;stroke-width:6px;" transform="translate(-40, 148.5)"  /><path d="M0 53 C 28.0 0, 52.0 0, 80 53 S 132.0 106, 160 53 S 212.0 0, 240.0, 53" fill="none" stroke="#222" style="opacity:0.08066666666666666;stroke-width:6px;" transform="translate(-40, -61.5)"  /><path d="M0 53 C 28.0 0, 52.0 0, 80 53 S 132.0 106, 160 53 S 212.0 0, 240.0, 53" fill="none" stroke="#222" style="opacity:0.08066666666666666;stroke-width:6px;" transform="translate(-40, 154.5)"  /><path d="M0 53 C 28.0 0, 52.0 0, 80 53 S 132.0 106, 160 53 S 212.0 0, 240.0, 53" fill="none" stroke="#222" style="opacity:0.06333333333333334;stroke-width:6px;" transform="translate(-40, -55.5)"  /><path d="M0 53 C 28.0 0, 52.0 0, 80 53 S 132.0 106, 160 53 S 212.0 0, 240.0, 53" fill="none" stroke="#222" style="opacity:0.06333333333333334;stroke-width:6px;" transform="translate(-40, 160.5)"  /><path d="M0 53 C 28.0 0, 52.0 0, 80 53 S 132.0 106, 160 53 S 212.0 0, 240.0, 53" fill="none" stroke="#222" style="opacity:0.11533333333333334;stroke-width:6px;" transform="translate(-40, -49.5)"  /><path d="M0 53 C 28.0 0, 52.0 0, 80 53 S 132.0 106, 160 53 S 212.0 0, 240.0, 53" fill="none" stroke="#222" style="opacity:0.11533333333333334;stroke-width:6px;" transform="translate(-40, 166.5)"  /><path d="M0 53 C 28.0 0, 52.0 0, 80 53 S 132.0 106, 160 53 S 212.0 0, 240.0, 53" fill="none" stroke="#222" style="opacity:0.06333333333333334;stroke-width:6px;" transform="translate(-40, -43.5)"  /><path d="M0 53 C 28.0 0, 52.0 0, 80 53 S 132.0 106, 160 53 S 212.0 0, 240.0, 53" fill="none" stroke="#222" style="opacity:0.06333333333333334;stroke-width:6px;" transform="translate(-40, 172.5)"  /><path d="M0 53 C 28.0 0, 52.0 0, 80 53 S 132.0 106, 160 53 S 212.0 0, 240.0, 53" fill="none" stroke="#ddd" style="opacity:0.10666666666666667;stroke-width:6px;" transform="translate(-40, -37.5)"  /><path d="M0 53 C 28.0 0, 52.0 0, 80 53 S 132.0 106, 160 53 S 212.0 0, 240.0, 53" fill="none" stroke="#ddd" style="opacity:0.10666666666666667;stroke-width:6px;" transform="translate(-40, 178.5)"  /><path d="M0 53 C 28.0 0, 52.0 0, 80 53 S 132.0 106, 160 53 S 212.0 0, 240.0, 53" fill="none" stroke="#222" style="opacity:0.13266666666666665;stroke-width:6px;" transform="translate(-40, -31.5)"  /><path d="M0 53 C 28.0 0, 52.0 0, 80 53 S 132.0 106, 160 53 S 212.0 0, 240.0, 53" fill="none" stroke="#222" style="opacity:0.13266666666666665;stroke-width:6px;" transform="translate(-40, 184.5)"  /><path d="M0 53 C 28.0 0, 52.0 0, 80 53 S 132.0 106, 160 53 S 212.0 0, 240.0, 53" fill="none" stroke="#222" style="opacity:0.15;stroke-width:6px;" transform="translate(-40, -25.5)"  /><path d="M0 53 C 28.0 0, 52.0 0, 80 53 S 132.0 106, 160 53 S 212.0 0, 240.0, 53" fill="none" stroke="#222" style="opacity:0.15;stroke-width:6px;" transform="translate(-40, 190.5)"  /><path d="M0 53 C 28.0 0, 52.0 0, 80 53 S 132.0 106, 160 53 S 212.0 0, 240.0, 53" fill="none" stroke="#222" style="opacity:0.13266666666666665;stroke-width:6px;" transform="translate(-40, -19.5)"  /><path d="M0 53 C 28.0 0, 52.0 0, 80 53 S 132.0 106, 160 53 S 212.0 0, 240.0, 53" fill="none" stroke="#222" style="opacity:0.13266666666666665;stroke-width:6px;" transform="translate(-40, 196.5)"  /><path d="M0 53 C 28.0 0, 52.0 0, 80 53 S 132.0 106, 160 53 S 212.0 0, 240.0, 53" fill="none" stroke="#ddd" style="opacity:0.08933333333333333;stroke-width:6px;" transform="translate(-40, -13.5)"  /><path d="M0 53 C 28.0 0, 52.0 0, 80 53 S 132.0 106, 160 53 S 212.0 0, 240.0, 53" fill="none" stroke="#ddd" style="opacity:0.08933333333333333;stroke-width:6px;" transform="translate(-40, 202.5)"  /><path d="M0 53 C 28.0 0, 52.0 0, 80 53 S 132.0 106, 160 53 S 212.0 0, 240.0, 53" fill="none" stroke="#222" style="opacity:0.028666666666666667;stroke-width:6px;" transform="translate(-40, -7.5)"  /><path d="M0 53 C 28.0 0, 52.0 0, 80 53 S 132.0 106, 160 53 S 212.0 0, 240.0, 53" fill="none" stroke="#222" style="opacity:0.028666666666666667;stroke-width:6px;" transform="translate(-40, 208.5)"  /><path d="M0 53 C 28.0 0, 52.0 0, 80 53 S 132.0 106, 160 53 S 212.0 0, 240.0, 53" fill="none" stroke="#ddd" style="opacity:0.02;stroke-width:6px;" transform="translate(-40, -1.5)"  /><path d="M0 53 C 28.0 0, 52.0 0, 80 53 S 132.0 106, 160 53 S 212.0 0, 240.0, 53" fill="none" stroke="#ddd" style="opacity:0.02;stroke-width:6px;" transform="translate(-40, 214.5)"  /><path d="M0 53 C 28.0 0, 52.0 0, 80 53 S 132.0 106, 160 53 S 212.0 0, 240.0, 53" fill="none" stroke="#ddd" style="opacity:0.12400000000000001;stroke-width:6px;" transform="translate(-40, 4.5)"  /><path d="M0 53 C 28.0 0, 52.0 0, 80 53 S 132.0 106, 160 53 S 212.0 0, 240.0, 53" fill="none" stroke="#ddd" style="opacity:0.12400000000000001;stroke-width:6px;" transform="translate(-40, 220.5)"  /><path d="M0 53 C 28.0 0, 52.0 0, 80 53 S 132.0 106, 160 53 S 212.0 0, 240.0, 53" fill="none" stroke="#ddd" style="opacity:0.14133333333333334;stroke-width:6px;" transform="translate(-40, 10.5)"  /><path d="M0 53 C 28.0 0, 52.0 0, 80 53 S 132.0 106, 160 53 S 212.0 0, 240.0, 53" fill="none" stroke="#ddd" style="opacity:0.14133333333333334;stroke-width:6px;" transform="translate(-40, 226.5)"  /><path d="M0 53 C 28.0 0, 52.0 0, 80 53 S 132.0 106, 160 53 S 212.0 0, 240.0, 53" fill="none" stroke="#ddd" style="opacity:0.02;stroke-width:6px;" transform="translate(-40, 16.5)"  /><path d="M0 53 C 28.0 0, 52.0 0, 80 53 S 132.0 106, 160 53 S 212.0 0, 240.0, 53" fill="none" stroke="#ddd" style="opacity:0.02;stroke-width:6px;" transform="translate(-40, 232.5)"  /><path d="M0 53 C 28.0 0, 52.0 0, 80 53 S 132.0 106, 160 53 S 212.0 0, 240.0, 53" fill="none" stroke="#222" style="opacity:0.15;stroke-width:6px;" transform="translate(-40, 22.5)"  /><path d="M0 53 C 28.0 0, 52.0 0, 80 53 S 132.0 106, 160 53 S 212.0 0, 240.0, 53" fill="none" stroke="#222" style="opacity:0.15;stroke-width:6px;" transform="translate(-40, 238.5)"  /><path d="M0 53 C 28.0 0, 52.0 0, 80 53 S 132.0 106, 160 53 S 212.0 0, 240.0, 53" fill="none" stroke="#222" style="opacity:0.098;stroke-width:6px;" transform="translate(-40, 28.5)"  /><path d="M0 53 C 28.0 0, 52.0 0, 80 53 S 132.0 106, 160 53 S 212.0 0, 240.0, 53" fill="none" stroke="#222" style="opacity:0.098;stroke-width:6px;" transform="translate(-40, 244.5)"  /><path d="M0 53 C 28.0 0, 52.0 0, 80 53 S 132.0 106, 160 53 S 212.0 0, 240.0, 53" fill="none" stroke="#222" style="opacity:0.06333333333333334;stroke-width:6px;" transform="translate(-40, 34.5)"  /><path d="M0 53 C 28.0 0, 52.0 0, 80 53 S 132.0 106, 160 53 S 212.0 0, 240.0, 53" fill="none" stroke="#222" style="opacity:0.06333333333333334;stroke-width:6px;" transform="translate(-40, 250.5)"  /><path d="M0 53 C 28.0 0, 52.0 0, 80 53 S 132.0 106, 160 53 S 212.0 0, 240.0, 53" fill="none" stroke="#222" style="opacity:0.13266666666666665;stroke-width:6px;" transform="translate(-40, 40.5)"  /><path d="M0 53 C 28.0 0, 52.0 0, 80 53 S 132.0 106, 160 53 S 212.0 0, 240.0, 53" fill="none" stroke="#222" style="opacity:0.13266666666666665;stroke-width:6px;" transform="translate(-40, 256.5)"  /><path d="M0 53 C 28.0 0, 52.0 0, 80 53 S 132.0 106, 160 53 S 212.0 0, 240.0, 53" fill="none" stroke="#222" style="opacity:0.06333333333333334;stroke-width:6px;" transform="translate(-40, 46.5)"  /><path d="M0 53 C 28.0 0, 52.0 0, 80 53 S 132.0 106, 160 53 S 212.0 0, 240.0, 53" fill="none" stroke="#222" style="opacity:0.06333333333333334;stroke-width:6px;" transform="translate(-40, 262.5)"  /><path d="M0 53 C 28.0 0, 52.0 0, 80 53 S 132.0 106, 160 53 S 212.0 0, 240.0, 53" fill="none" stroke="#ddd" style="opacity:0.14133333333333334;stroke-width:6px;" transform="translate(-40, 52.5)"  /><path d="M0 53 C 28.0 0, 52.0 0, 80 53 S 132.0 106, 160 53 S 212.0 0, 240.0, 53" fill="none" stroke="#ddd" style="opacity:0.14133333333333334;stroke-width:6px;" transform="translate(-40, 268.5)"  /><path d="M0 53 C 28.0 0, 52.0 0, 80 53 S 132.0 106, 160 53 S 212.0 0, 240.0, 53" fill="none" stroke="#222" style="opacity:0.06333333333333334;stroke-width:6px;" transform="translate(-40, 58.5)"  /><path d="M0 53 C 28.0 0, 52.0 0, 80 53 S 132.0 106, 160 53 S 212.0 0, 240.0, 53" fill="none" stroke="#222" style="opacity:0.06333333333333334;stroke-width:6px;" transform="translate(-40, 274.5)"  /><path d="M0 53 C 28.0 0, 52.0 0, 80 53 S 132.0 106, 160 53 S 212.0 0, 240.0, 53" fill="none" stroke="#ddd" style="opacity:0.14133333333333334;stroke-width:6px;" transform="translate(-40, 64.5)"  /><path d="M0 53 C 28.0 0, 52.0 0, 80 53 S 132.0 106, 160 53 S 212.0 0, 240.0, 53" fill="none" stroke="#ddd" style="opacity:0.14133333333333334;stroke-width:6px;" transform="translate(-40, 280.5)"  /><path d="M0 53 C 28.0 0, 52.0 0, 80 53 S 132.0 106, 160 53 S 212.0 0, 240.0, 53" fill="none" stroke="#ddd" style="opacity:0.14133333333333334;stroke-width:6px;" transform="translate(-40, 70.5)"  /><path d="M0 53 C 28.0 0, 52.0 0, 80 53 S 132.0 106, 160 53 S 212.0 0, 240.0, 53" fill="none" stroke="#ddd" style="opacity:0.14133333333333334;stroke-width:6px;" transform="translate(-40, 286.5)"  /><path d="M0 53 C 28.0 0, 52.0 0, 80 53 S 132.0 106, 160 53 S 212.0 0, 240.0, 53" fill="none" stroke="#ddd" style="opacity:0.10666666666666667;stroke-width:6px;" transform="translate(-40, 76.5)"  /><path d="M0 53 C 28.0 0, 52.0 0, 80 53 S 132.0 106, 160 53 S 212.0 0, 240.0, 53" fill="none" stroke="#ddd" style="opacity:0.10666666666666667;stroke-width:6px;" transform="translate(-40, 292.5)"  /><path d="M0 53 C 28.0 0, 52.0 0, 80 53 S 132.0 106, 160 53 S 212.0 0, 240.0, 53" fill="none" stroke="#ddd" style="opacity:0.08933333333333333;stroke-width:6px;" transform="translate(-40, 82.5)"  /><path d="M0 53 C 28.0 0, 52.0 0, 80 53 S 132.0 106, 160 53 S 212.0 0, 240.0, 53" fill="none" stroke="#ddd" style="opacity:0.08933333333333333;stroke-width:6px;" transform="translate(-40, 298.5)"  /><path d="M0 53 C 28.0 0, 52.0 0, 80 53 S 132.0 106, 160 53 S 212.0 0, 240.0, 53" fill="none" stroke="#222" style="opacity:0.028666666666666667;stroke-width:6px;" transform="translate(-40, 88.5)"  /><path d="M0 53 C 28.0 0, 52.0 0, 80 53 S 132.0 106, 160 53 S 212.0 0, 240.0, 53" fill="none" stroke="#222" style="opacity:0.028666666666666667;stroke-width:6px;" transform="translate(-40, 304.5)"  /><path d="M0 53 C 28.0 0, 52.0 0, 80 53 S 132.0 106, 160 53 S 212.0 0, 240.0, 53" fill="none" stroke="#ddd" style="opacity:0.08933333333333333;stroke-width:6px;" transform="translate(-40, 94.5)"  /><path d="M0 53 C 28.0 0, 52.0 0, 80 53 S 132.0 106, 160 53 S 212.0 0, 240.0, 53" fill="none" stroke="#ddd" style="opacity:0.08933333333333333;stroke-width:6px;" transform="translate(-40, 310.5)"  /><path d="M0 53 C 28.0 0, 52.0 0, 80 53 S 132.0 106, 160 53 S 212.0 0, 240.0, 53" fill="none" stroke="#ddd" style="opacity:0.02;stroke-width:6px;" transform="translate(-40, 100.5)"  /><path d="M0 53 C 28.0 0, 52.0 0, 80 53 S 132.0 106, 160 53 S 212.0 0, 240.0, 53" fill="none" stroke="#ddd" style="opacity:0.02;stroke-width:6px;" transform="translate(-40, 316.5)"  /><path d="M0 53 C 28.0 0, 52.0 0, 80 53 S 132.0 106, 160 53 S 212.0 0, 240.0, 53" fill="none" stroke="#ddd" style="opacity:0.12400000000000001;stroke-width:6px;" transform="translate(-40, 106.5)"  /><path d="M0 53 C 28.0 0, 52.0 0, 80 53 S 132.0 106, 160 53 S 212.0 0, 240.0, 53" fill="none" stroke="#ddd" style="opacity:0.12400000000000001;stroke-width:6px;" transform="translate(-40, 322.5)"  /><path d="M0 53 C 28.0 0, 52.0 0, 80 53 S 132.0 106, 160 53 S 212.0 0, 240.0, 53" fill="none" stroke="#ddd" style="opacity:0.03733333333333333;stroke-width:6px;" transform="translate(-40, 112.5)"  /><path d="M0 53 C 28.0 0, 52.0 0, 80 53 S 132.0 106, 160 53 S 212.0 0, 240.0, 53" fill="none" stroke="#ddd" style="opacity:0.03733333333333333;stroke-width:6px;" transform="translate(-40, 328.5)"  /><path d="M0 53 C 28.0 0, 52.0 0, 80 53 S 132.0 106, 160 53 S 212.0 0, 240.0, 53" fill="none" stroke="#ddd" style="opacity:0.03733333333333333;stroke-width:6px;" transform="translate(-40, 118.5)"  /><path d="M0 53 C 28.0 0, 52.0 0, 80 53 S 132.0 106, 160 53 S 212.0 0, 240.0, 53" fill="none" stroke="#ddd" style="opacity:0.03733333333333333;stroke-width:6px;" transform="translate(-40, 334.5)"  /><path d="M0 53 C 28.0 0, 52.0 0, 80 53 S 132.0 106, 160 53 S 212.0 0, 240.0, 53" fill="none" stroke="#222" style="opacity:0.08066666666666666;stroke-width:6px;" transform="translate(-40, 124.5)"  /><path d="M0 53 C 28.0 0, 52.0 0, 80 53 S 132.0 106, 160 53 S 212.0 0, 240.0, 53" fill="none" stroke="#222" style="opacity:0.08066666666666666;stroke-width:6px;" transform="translate(-40, 340.5)"  /><path d="M0 53 C 28.0 0, 52.0 0, 80 53 S 132.0 106, 160 53 S 212.0 0, 240.0, 53" fill="none" stroke="#ddd" style="opacity:0.05466666666666667;stroke-width:6px;" transform="translate(-40, 130.5)"  /><path d="M0 53 C 28.0 0, 52.0 0, 80 53 S 132.0 106, 160 53 S 212.0 0, 240.0, 53" fill="none" stroke="#ddd" style="opacity:0.05466666666666667;stroke-width:6px;" transform="translate(-40, 346.5)"  /></svg>