<svg xmlns="http://www.w3.org/2000/svg" width="380" height="936"><rect x="0" y="0" width="100%" height="100%" fill="rgb(63, 144, 77)"  /><path d="M0 67 C 66.5 0, 123.5 0, 190 67 S 313.5 134, 380 67 S 503.5 0, 570.0, 67" fill="none" stroke="#ddd" style="opacity:0.14133333333333334;stroke-width:26px;" transform="translate(-95, -100.5)"  /><path d="M0 67 C 66.5 0, 123.5 0, 190 67 S 313.5 134, 380 67 S 503.5 0, 570.0, 67" fill="none" stroke="#ddd" style="opacity:0.14133333333333334;stroke-width:26px;" transform="translate(-95, 835.5)"  /><path d="M0 67 C 66.5 0, 123.5 0, 190 67 S 313.5 134, 380 67 S 503.5 0, 570.0, 67" fill="none" stroke="#ddd" style="opacity:0.08933333333333333;stroke-width:26px;" transform="translate(-95, -74.5)"  /><path d="M0 67 C 66.5 0, 123.5 0, 190 67 S 313.5 134, 380 67 S 503.5 0, 570.0, 67" fill="none" stroke="#ddd" style="opacity:0.08933333333333333;stroke-width:26px;" transform="translate(-95, 861.5)"  /><path d="M0 67 C 66.5 0, 123.5 0, 190 67 S 313.5 134, 380 67 S 503.5 0, 570.0, 67" fill="none" stroke="#222" style="opacity:0.13266666666666665;stroke-width:26px;" transform="translate(-95, -48.5)"  /><path d="M0 67 C 66.5 0, 123.5 0, 190 67 S 313.5 134, 380 67 S 503.5 0, 570.0, 67" fill="none" stroke="#222" style="opacity:0.13266666666666665;stroke-width:26px;" transform="translate(-95, 887.5)"  /><path d="M0 67 C 66.5 0, 123.5 0, 190 67 S 313.5 134, 380 67 S 503.5 0, 570.0, 67" fill="none" stroke="#222" style="opacity:0.15;stroke-width:26px;" transform="translate(-95, -22.5)"  /><path d="M0 67 C 66.5 0, 123.5 0, 190 67 S 313.5 134, 380 67 S 503.5 0, 570.0, 67" fill="none" stroke="#222" style="opacity:0.15;stroke-width:26px;" transform="translate(-95, 913.5)"  /><path d="M0 67 C 66.5 0, 123.5 0, 190 67 S 313.5 134, 380 67 S 503.5 0, 570.0, 67" fill="none" stroke="#222" style="opacity:0.098;stroke-width:26px;" transform="translate(-95, 3.5)"  /><path d="M0 67 C 66.5 0, 123.5 0, 190 67 S 313.5 134, 380 67 S 503.5 0, 570.0, 67" fill="none" stroke="#222" style="opacity:0.098;stroke-width:26px;" transform="translate(-95, 939.5)"  /><path d="M0 67 C 66.5 0, 123.5 0, 190 67 S 313.5 134, 380 67 S 503.5 0, 570.0, 67" fill="none" stroke="#ddd" style="opacity:0.07200000000000001;stroke-width:26px;" transform="translate(-95, 29.5)"  /><path d="M0 67 C 66.5 0, 123.5 0, 190 67 S 313.5 134, 380 67 S 503.5 0, 570.0, 67" fill="none" stroke="#ddd" style="opacity:0.07200000000000001;stroke-width:26px;" transform="translate(-95, 965.5)"  /><path d="M0 67 C 66.5 0, 123.5 0, 190 67 S 313.5 134, 380 67 S 503.5 0, 570.0, 67" fill="none" stroke="#ddd" style="opacity:0.07200000000000001;stroke-width:26px;" transform="translate(-95, 55.5)"  /><path d="M0 67 C 66.5 0, 123.5 0, 190 67 S 313.5 134, 380 67 S 503.5 0, 570.0, 67" fill="none" stroke="#ddd" style="opacity:0.07200000000000001;stroke-width:26px;" transform="translate(-95, 991.5)"  /><path d="M0 67 C 66.5 0, 123.5 0, 190 67 S 313.5 134, 380 67 S 503.5 0, 570.0, 67" fill="none" stroke="#222" style="opacity:0.08066666666666666;stroke-width:26px;" transform="translate(-95, 81.5)"  /><path d="M0 67 C 66.5 0, 123.5 0, 190 67 S 313.5 134, 380 67 S 503.5 0, 570.0, 67" fill="none" stroke="#222" style="opacity:0.08066666666666666;stroke-width:26px;" transform="translate(-95, 1017.5)"  /><path d="M0 67 C 66.5 0, 123.5 0, 190 67 S 313.5 134, 380 67 S 503.5 0, 570.0, 67" fill="none" stroke="#ddd" style="opacity:0.07200000000000001;stroke-width:26px;" transform="translate(-95, 107.5)"  /><path d="M0 67 C 66.5 0, 123.5 0, 190 67 S 313.5 134, 380 67 S 503.5 0, 570.0, 67" fill="none" stroke="#ddd" style="opacity:0.07200000000000001;stroke-width:26px;" transform="translate(-95, 1043.5)"  /><path d="M0 67 C 66.5 0, 123.5 0, 190 67 S 313.5 134, 380 67 S 503.5 0, 570.0, 67" fill="none" stroke="#222" style="opacity:0.08066666666666666;stroke-width:26px;" transform="translate(-95, 133.5)"  /><path d="M0 67 C 66.5 0, 123.5 0, 190 67 S 313.5 134, 380 67 S 503.5 0, 570.0, 67" fill="none" stroke="#222" style="opacity:0.08066666666666666;stroke-width:26px;" transform="translate(-95, 1069.5)"  /><path d="M0 67 C 66.5 0, 123.5 0, 190 67 S 313.5 134, 380 67 S 503.5 0, 570.0, 67" fill="none" stroke="#222" style="opacity:0.15;stroke-width:26px;" transform="translate(-95, 159.5)"  /><path d="M0 67 C 66.5 0, 123.5 0, 190 67 S 313.5 134, 380 67 S 503.5 0, 570.0, 67" fill="none" stroke="#222" style="opacity:0.15;stroke-width:26px;" transform="translate(-95, 1095.5)"  /><path d="M0 67 C 66.5 0, 123.5 0, 190 67 S 313.5 134, 380 67 S 503.5 0, 570.0, 67" fill="none" stroke="#222" style="opacity:0.11533333333333334;stroke-width:26px;" transform="translate(-95, 185.5)"  /><path d="M0 67 C 66.5 0, 123.5 0, 190 67 S 313.5 134, 380 67 S 503.5 0, 570.0, 67" fill="none" stroke="#222" style="opacity:0.11533333333333334;stroke-width:26px;" transform="translate(-95, 1121.5)"  /><path d="M0 67 C 66.5 0, 123.5 0, 190 67 S 313.5 134, 380 67 S 503.5 0, 570.0, 67" fill="none" stroke="#222" style="opacity:0.13266666666666665;stroke-width:26px;" transform="translate(-95, 211.5)"  /><path d="M0 67 C 66.5 0, 123.5 0, 190 67 S 313.5 134, 380 67 S 503.5 0, 570.0, 67" fill="none" stroke="#222" style="opacity:0.13266666666666665;stroke-width:26px;" transform="translate(-95, 1147.5)"  /><path d="M0 67 C 66.5 0, 123.5 0, 190 67 S 313.5 134, 380 67 S 503.5 0, 570.0, 67" fill="none" stroke="#222" style="opacity:0.046;stroke-width:26px;" transform="translate(-95, 237.5)"  /><path d="M0 67 C 66.5 0, 123.5 0, 190 67 S 313.5 134, 380 67 S 503.5 0, 570.0, 67" fill="none" stroke="#222" style="opacity:0.046;stroke-width:26px;" transform="translate(-95, 1173.5)"  /><path d="M0 67 C 66.5 0, 123.5 0, 190 67 S 313.5 134, 380 67 S 503.5 0, 570.0, 67" fill="none" stroke="#ddd" style="opacity:0.10666666666666667;stroke-width:26px;" transform="translate(-95, 263.5)"  /><path d="M0 67 C 66.5 0, 123.5 0, 190 67 S 313.5 134, 380 67 S 503.5 0, 570.0, 67" fill="none" stroke="#ddd" style="opacity:0.10666666666666667;stroke-width:26px;" transform="translate(-95, 1199.5)"  /><path d="M0 67 C 66.5 0, 123.5 0, 190 67 S 313.5 134, 380 67 S 503.5 0, 570.0, 67" fill="none" stroke="#222" style="opacity:0.046;stroke-width:26px;" transform="translate(-95, 289.5)"  /><path d="M0 67 C 66.5 0, 123.5 0, 190 67 S 313.5 134, 380 67 S 503.5 0, 570.0, 67" fill="none" stroke="#222" style="opacity:0.046;stroke-width:26px;" transform="translate(-95, 1225.5)"  /><path d="M0 67 C 66.5 0, 123.5 0, 190 67 S 313.5 134, 380 67 S 503.5 0, 570.0, 67" fill="none" stroke="#ddd" style="opacity:0.08933333333333333;stroke-width:26px;" transform="translate(-95, 315.5)"  /><path d="M0 67 C 66.5 0, 123.5 0, 190 67 S 313.5 134, 380 67 S 503.5 0, 570.0, 67" fill="none" stroke="#ddd" style="opacity:0.08933333333333333;stroke-width:26px;" transform="translate(-95, 1251.5)"  /><path d="M0 67 C 66.5 0, 123.5 0, 190 67 S 313.5 134, 380 67 S 503.5 0, 570.0, 67" fill="none" stroke="#222" style="opacity:0.046;stroke-width:26px;" transform="translate(-95, 341.5)"  /><path d="M0 67 C 66.5 0, 123.5 0, 190 67 S 313.5 134, 380 67 S 503.5 0, 570.0, 67" fill="none" stroke="#222" style="opacity:0.046;stroke-width:26px;" transform="translate(-95, 1277.5)"  /><path d="M0 67 C 66.5 0, 123.5 0, 190 67 S 313.5 134, 380 67 S 503.5 0, 570.0, 67" fill="none" stroke="#ddd" style="opacity:0.12400000000000001;stroke-width:26px;" transform="translate(-95, 367.5)"  /><path d="M0 67 C 66.5 0, 123.5 0, 190 67 S 313.5 134, 380 67 S 503.5 0, 570.0, 67" fill="none" stroke="#ddd" style="opacity:0.12400000000000001;stroke-width:26px;" transform="translate(-95, 1303.5)"  /><path d="M0 67 C 66.5 0, 123.5 0, 190 67 S 313.5 134, 380 67 S 503.5 0, 570.0, 67" fill="none" stroke="#222" style="opacity:0.06333333333333334;stroke-width:26px;" transform="translate(-95, 393.5)"  /><path d="M0 67 C 66.5 0, 123.5 0, 190 67 S 313.5 134, 380 67 S 503.5 0, 570.0, 67" fill="none" stroke="#222" style="opacity:0.06333333333333334;stroke-width:26px;" transform="translate(-95, 1329.5)"  /><path d="M0 67 C 66.5 0, 123.5 0, 190 67 S 313.5 134, 380 67 S 503.5 0, 570.0, 67" fill="none" stroke="#222" style="opacity:0.046;stroke-width:26px;" transform="translate(-95, 419.5)"  /><path d="M0 67 C 66.5 0, 123.5 0, 190 67 S 313.5 134, 380 67 S 503.5 0, 570.0, 67" fill="none" stroke="#222" style="opacity:0.046;stroke-width:26px;" transform="translate(-95, 1355.5)"  /><path d="M0 67 C 66.5 0, 123.5 0, 190 67 S 313.5 134, 380 67 S 503.5 0, 570.0, 67" fill="none" stroke="#ddd" style="opacity:0.03733333333333333;stroke-width:26px;" transform="translate(-95, 445.5)"  /><path d="M0 67 C 66.5 0, 123.5 0, 190 67 S 313.5 134, 380 67 S 503.5 0, 570.0, 67" fill="none" stroke="#ddd" style="opacity:0.03733333333333333;stroke-width:26px;" transform="translate(-95, 1381.5)"  /><path d="M0 67 C 66.5 0, 123.5 0, 190 67 S 313.5 134, 380 67 S 503.5 0, 570.0, 67" fill="none" stroke="#222" style="opacity:0.028666666666666667;stroke-width:26px;" transform="translate(-95, 471.5)"  /><path d="M0 67 C 66.5 0, 123.5 0, 190 67 S 313.5 134, 380 67 S 503.5 0, 570.0, 67" fill="none" stroke="#222" style="opacity:0.028666666666666667;stroke-width:26px;" transform="translate(-95, 1407.5)"  /><path d="M0 67 C 66.5 0, 123.5 0, 190 67 S 313.5 134, 380 67 S 503.5 0, 570.0, 67" fill="none" stroke="#ddd" style="opacity:0.07200000000000001;stroke-width:26px;" transform="translate(-95, 497.5)"  /><path d="M0 67 C 66.5 0, 123.5 0, 190 67 S 313.5 134, 380 67 S 503.5 0, 570.0, 67" fill="none" stroke="#ddd" style="opacity:0.07200000000000001;stroke-width:26px;" transform="translate(-95, 1433.5)"  /><path d="M0 67 C 66.5 0, 123.5 0, 190 67 S 313.5 134, 380 67 S 503.5 0, 570.0, 67" fill="none" stroke="#222" style="opacity:0.08066666666666666;stroke-width:26px;" transform="translate(-95, 523.5)"  /><path d="M0 67 C 66.5 0, 123.5 0, 190 67 S 313.5 134, 380 67 S 503.5 0, 570.0, 67" fill="none" stroke="#222" style="opacity:0.08066666666666666;stroke-width:26px;" transform="translate(-95, 1459.5)"  /><path d="M0 67 C 66.5 0, 123.5 0, 190 67 S 313.5 134, 380 67 S 503.5 0, 570.0, 67" fill="none" stroke="#222" style="opacity:0.098;stroke-width:26px;" transform="translate(-95, 549.5)"  /><path d="M0 67 C 66.5 0, 123.5 0, 190 67 S 313.5 134, 380 67 S 503.5 0, 570.0, 67" fill="none" stroke="#222" style="opacity:0.098;stroke-width:26px;" transform="translate(-95, 1485.5)"  /><path d="M0 67 C 66.5 0, 123.5 0, 190 67 S 313.5 134, 380 67 S 503.5 0, 570.0, 67" fill="none" stroke="#222" style="opacity:0.098;stroke-width:26px;" transform="translate(-95, 575.5)"  /><path d="M0 67 C 66.5 0, 123.5 0, 190 67 S 313.5 134, 380 67 S 503.5 0, 570.0, 67" fill="none" stroke="#222" style="opacity:0.098;stroke-width:26px;" transform="translate(-95, 1511.5)"  /><path d="M0 67 C 66.5 0, 123.5 0, 190 67 S 313.5 134, 380 67 S 503.5 0, 570.0, 67" fill="none" stroke="#222" style="opacity:0.11533333333333334;stroke-width:26px;" transform="translate(-95, 601.5)"  /><path d="M0 67 C 66.5 0, 123.5 0, 190 67 S 313.5 134, 380 67 S 503.5 0, 570.0, 67" fill="none" stroke="#222" style="opacity:0.11533333333333334;stroke-width:26px;" transform="translate(-95, 1537.5)"  /><path d="M0 67 C 66.5 0, 123.5 0, 190 67 S 313.5 134, 380 67 S 503.5 0, 570.0, 67" fill="none" stroke="#ddd" style="opacity:0.14133333333333334;stroke-width:26px;" transform="translate(-95, 627.5)"  /><path d="M0 67 C 66.5 0, 123.5 0, 190 67 S 313.5 134, 380 67 S 503.5 0, 570.0, 67" fill="none" stroke="#ddd" style="opacity:0.14133333333333334;stroke-width:26px;" transform="translate(-95, 1563.5)"  /><path d="M0 67 C 66.5 0, 123.5 0, 190 67 S 313.5 134, 380 67 S 503.5 0, 570.0, 67" fill="none" stroke="#222" style="opacity:0.11533333333333334;stroke-width:26px;" transform="translate(-95, 653.5)"  /><path d="M0 67 C 66.5 0, 123.5 0, 190 67 S 313.5 134, 380 67 S 503.5 0, 570.0, 67" fill="none" stroke="#222" style="opacity:0.11533333333333334;stroke-width:26px;" transform="translate(-95, 1589.5)"  /><path d="M0 67 C 66.5 0, 123.5 0, 190 67 S 313.5 134, 380 67 S 503.5 0, 570.0, 67" fill="none" stroke="#ddd" style="opacity:0.05466666666666667;stroke-width:26px;" transform="translate(-95, 679.5)"  /><path d="M0 67 C 66.5 0, 123.5 0, 190 67 S 313.5 134, 380 67 S 503.5 0, 570.0, 67" fill="none" stroke="#ddd" style="opacity:0.05466666666666667;stroke-width:26px;" transform="translate(-95, 1615.5)"  /><path d="M0 67 C 66.5 0, 123.5 0, 190 67 S 313.5 134, 380 67 S 503.5 0, 570.0, 67" fill="none" stroke="#222" style="opacity:0.11533333333333334;stroke-width:26px;" transform="translate(-95, 705.5)"  /><path d="M0 67 C 66.5 0, 123.5 0, 190 67 S 313.5 134, 380 67 S 503.5 0, 570.0, 67" fill="none" stroke="#222" style="opacity:0.11533333333333334;stroke-width:26px;" transform="translate(-95, 1641.5)"  /><path d="M0 67 C 66.5 0, 123.5 0, 190 67 S 313.5 134, 380 67 S 503.5 0, 570.0, 67" fill="none" stroke="#ddd" style="opacity:0.05466666666666667;stroke-width:26px;" transform="translate(-95, 731.5)"  /><path d="M0 67 C 66.5 0, 123.5 0, 190 67 S 313.5 134, 380 67 S 503.5 0, 570.0, 67" fill="none" stroke="#ddd" style="opacity:0.05466666666666667;stroke-width:26px;" transform="translate(-95, 1667.5)"  /><path d="M0 67 C 66.5 0, 123.5 0, 190 67 S 313.5 134, 380 67 S 503.5 0, 570.0, 67" fill="none" stroke="#222" style="opacity:0.06333333333333334;stroke-width:26px;" transform="translate(-95, 757.5)"  /><path d="M0 67 C 66.5 0, 123.5 0, 190 67 S 313.5 134, 380 67 S 503.5 0, 570.0, 67" fill="none" stroke="#222" style="opacity:0.06333333333333334;stroke-width:26px;" transform="translate(-95, 1693.5)"  /><path d="M0 67 C 66.5 0, 123.5 0, 190 67 S 313.5 134, 380 67 S 503.5 0, 570.0, 67" fill="none" stroke="#ddd" style="opacity:0.07200000000000001;stroke-width:26px;" transform="translate(-95, 783.5)"  /><path d="M0 67 C 66.5 0, 123.5 0, 190 67 S 313.5 134, 380 67 S 503.5 0, 570.0, 67" fill="none" stroke="#ddd" style="opacity:0.07200000000000001;stroke-width:26px;" transform="translate(-95, 1719.5)"  /><path d="M0 67 C 66.5 0, 123.5 0, 190 67 S 313.5 134, 380 67 S 503.5 0, 570.0, 67" fill="none" stroke="#ddd" style="opacity:0.05466666666666667;stroke-width:26px;" transform="translate(-95, 809.5)"  /><path d="M0 67 C 66.5 0, 123.5 0, 190 67 S 313.5 134, 380 67 S 503.5 0, 570.0, 67" fill="none" stroke="#ddd" style="opacity:0.05466666666666667;stroke-width:26px;" transform="translate(-95, 1745.5)"  /></svg>