<svg xmlns="http://www.w3.org/2000/svg" width="240" height="540"><rect x="0" y="0" width="100%" height="100%" fill="rgb(161, 46, 128)"  /><path d="M0 76 C 42.0 0, 78.0 0, 120 76 S 198.0 152, 240 76 S 318.0 0, 360.0, 76" fill="none" stroke="#222" style="opacity:0.08066666666666666;stroke-width:15px;" transform="translate(-60, -114.0)"  /><path d="M0 76 C 42.0 0, 78.0 0, 120 76 S 198.0 152, 240 76 S 318.0 0, 360.0, 76" fill="none" stroke="#222" style="opacity:0.08066666666666666;stroke-width:15px;" transform="translate(-60, 426.0)"  /><path d="M0 76 C 42.0 0, 78.0 0, 120 76 S 198.0 152, 240 76 S 318.0 0, 360.0, 76" fill="none" stroke="#ddd" style="opacity:0.10666666666666667;stroke-width:15px;" transform="translate(-60, -99.0)"  /><path d="M0 76 C 42.0 0, 78.0 0, 120 76 S 198.0 152, 240 76 S 318.0 0, 360.0, 76" fill="none" stroke="#ddd" style="opacity:0.10666666666666667;stroke-width:15px;" transform="translate(-60, 441.0)"  /><path d="M0 76 C 42.0 0, 78.0 0, 120 76 S 198.0 152, 240 76 S 318.0 0, 360.0, 76" fill="none" stroke="#222" style="opacity:0.08066666666666666;stroke-width:15px;" transform="translate(-60, -84.0)"  /><path d="M0 76 C 42.0 0, 78.0 0, 120 76 S 198.0 152, 240 76 S 318.0 0, 360.0, 76" fill="none" stroke="#222" style="opacity:0.08066666666666666;stroke-width:15px;" transform="translate(-60, 456.0)"  /><path d="M0 76 C 42.0 0, 78.0 0, 120 76 S 198.0 152, 240 76 S 318.0 0, 360.0, 76" fill="none" stroke="#ddd" style="opacity:0.02;stroke-width:15px;" transform="translate(-60, -69.0)"  /><path d="M0 76 C 42.0 0, 78.0 0, 120 76 S 198.0 152, 240 76 S 318.0 0, 360.0, 76" fill="none" stroke="#ddd" style="opacity:0.02;stroke-width:15px;" transform="translate(-60, 471.0)"  /><path d="M0 76 C 42.0 0, 78.0 0, 120 76 S 198.0 152, 240 76 S 318.0 0, 360.0, 76" fill="none" stroke="#222" style="opacity:0.028666666666666667;stroke-width:15px;" transform="translate(-60, -54.0)"  /><path d="M0 76 C 42.0 0, 78.0 0, 120 76 S 198.0 152, 240 76 S 318.0 0, 360.0, 76" fill="none" stroke="#222" style="opacity:0.028666666666666667;stroke-width:15px;" transform="translate(-60, 486.0)"  /><path d="M0 76 C 42.0 0, 78.0 0, 120 76 S 198.0 152, 240 76 S 318.0 0, 360.0, 76" fill="none" stroke="#ddd" style="opacity:0.08933333333333333;stroke-width:15px;" transform="translate(-60, -39.0)"  /><path d="M0 76 C 42.0 0, 78.0 0, 120 76 S 198.0 152, 240 76 S 318.0 0, 360.0, 76" fill="none" stroke="#ddd" style="opacity:0.08933333333333333;stroke-width:15px;" transform="translate(-60, 501.0)"  /><path d="M0 76 C 42.0 0, 78.0 0, 120 76 S 198.0 152, 240 76 S 318.0 0, 360.0, 76" fill="none" stroke="#ddd" style="opacity:0.05466666666666667;stroke-width:15px;" transform="translate(-60, -24.0)"  /><path d="M0 76 C 42.0 0, 78.0 0, 120 76 S 198.0 152, 240 76 S 318.0 0, 360.0, 76" fill="none" stroke="#ddd" style="opacity:0.05466666666666667;stroke-width:15px;" transform="translate(-60, 516.0)"  /><path d="M0 76 C 42.0 0, 78.0 0, 120 76 S 198.0 152, 240 76 S 318.0 0, 360.0, 76" fill="none" stroke="#222" style="opacity:0.06333333333333334;stroke-width:15px;" transform="translate(-60, -9.0)"  /><path d="M0 76 C 42.0 0, 78.0 0, 120 76 S 198.0 152, 240 76 S 318.0 0, 360.0, 76" fill="none" stroke="#222" style="opacity:0.06333333333333334;stroke-width:15px;" transform="translate(-60, 531.0)"  /><path d="M0 76 C 42.0 0, 78.0 0, 120 76 S 198.0 152, 240 76 S 318.0 0, 360.0, 76" fill="none" stroke="#222" style="opacity:0.13266666666666665;stroke-width:15px;" transform="translate(-60, 6.0)"  /><path d="M0 76 C 42.0 0, 78.0 0, 120 76 S 198.0 152, 240 76 S 318.0 0, 360.0, 76" fill="none" stroke="#222" style="opacity:0.13266666666666665;stroke-width:15px;" transform="translate(-60, 546.0)"  /><path d="M0 76 C 42.0 0, 78.0 0, 120 76 S 198.0 152, 240 76 S 318.0 0, 360.0, 76" fill="none" stroke="#ddd" style="opacity:0.10666666666666667;stroke-width:15px;" transform="translate(-60, 21.0)"  /><path d="M0 76 C 42.0 0, 78.0 0, 120 76 S 198.0 152, 240 76 S 318.0 0, 360.0, 76" fill="none" stroke="#ddd" style="opacity:0.10666666666666667;stroke-width:15px;" transform="translate(-60, 561.0)"  /><path d="M0 76 C 42.0 0, 78.0 0, 120 76 S 198.0 152, 240 76 S 318.0 0, 360.0, 76" fill="none" stroke="#ddd" style="opacity:0.02;stroke-width:15px;" transform="translate(-60, 36.0)"  /><path d="M0 76 C 42.0 0, 78.0 0, 120 76 S 198.0 152, 240 76 S 318.0 0, 360.0, 76" fill="none" stroke="#ddd" style="opacity:0.02;stroke-width:15px;" transform="translate(-60, 576.0)"  /><path d="M0 76 C 42.0 0, 78.0 0, 120 76 S 198.0 152, 240 76 S 318.0 0, 360.0, 76" fill="none" stroke="#ddd" style="opacity:0.07200000000000001;stroke-width:15px;" transform="translate(-60, 51.0)"  /><path d="M0 76 C 42.0 0, 78.0 0, 120 76 S 198.0 152, 240 76 S 318.0 0, 360.0, 76" fill="none" stroke="#ddd" style="opacity:0.07200000000000001;stroke-width:15px;" transform="translate(-60, 591.0)"  /><path d="M0 76 C 42.0 0, 78.0 0, 120 76 S 198.0 152, 240 76 S 318.0 0, 360.0, 76" fill="none" stroke="#222" style="opacity:0.06333333333333334;stroke-width:15px;" transform="translate(-60, 66.0)"  /><path d="M0 76 C 42.0 0, 78.0 0, 120 76 S 198.0 152, 240 76 S 318.0 0, 360.0, 76" fill="none" stroke="#222" style="opacity:0.06333333333333334;stroke-width:15px;" transform="translate(-60, 606.0)"  /><path d="M0 76 C 42.0 0, 78.0 0, 120 76 S 198.0 152, 240 76 S 318.0 0, 360.0, 76" fill="none" stroke="#222" style="opacity:0.06333333333333334;stroke-width:15px;" transform="translate(-60, 81.0)"  /><path d="M0 76 C 42.0 0, 78.0 0, 120 76 S 198.0 152, 240 76 S 318.0 0, 360.0, 76" fill="none" stroke="#222" style="opacity:0.06333333333333334;stroke-width:15px;" transform="translate(-60, 621.0)"  /><path d="M0 76 C 42.0 0, 78.0 0, 120 76 S 198.0 152, 240 76 S 318.0 0, 360.0, 76" fill="none" stroke="#222" style="opacity:0.028666666666666667;stroke-width:15px;" transform="translate(-60, 96.0)"  /><path d="M0 76 C 42.0 0, 78.0 0, 120 76 S 198.0 152, 240 76 S 318.0 0, 360.0, 76" fill="none" stroke="#222" style="opacity:0.028666666666666667;stroke-width:15px;" transform="translate(-60, 636.0)"  /><path d="M0 76 C 42.0 0, 78.0 0, 120 76 S 198.0 152, 240 76 S 318.0 0, 360.0, 76" fill="none" stroke="#ddd" style="opacity:0.14133333333333334;stroke-width:15px;" transform="translate(-60, 111.0)"  /><path d="M0 76 C 42.0 0, 78.0 0, 120 76 S 198.0 152, 240 76 S 318.0 0, 360.0, 76" fill="none" stroke="#ddd" style="opacity:0.14133333333333334;stroke-width:15px;" transform="translate(-60, 651.0)"  /><path d="M0 76 C 42.0 0, 78.0 0, 120 76 S 198.0 152, 240 76 S 318.0 0, 360.0, 76" fill="none" stroke="#ddd" style="opacity:0.08933333333333333;stroke-width:15px;" transform="translate(-60, 126.0)"  /><path d="M0 76 C 42.0 0, 78.0 0, 120 76 S 198.0 152, 240 76 S 318.0 0, 360.0, 76" fill="none" stroke="#ddd" style="opacity:0.08933333333333333;stroke-width:15px;" transform="translate(-60, 666.0)"  /><path d="M0 76 C 42.0 0, 78.0 0, 120 76 S 198.0 152, 240 76 S 318.0 0, 360.0, 76" fill="none" stroke="#ddd" style="opacity:0.14133333333333334;stroke-width:15px;" transform="translate(-60, 141.0)"  /><path d="M0 76 C 42.0 0, 78.0 0, 120 76 S 198.0 152, 240 76 S 318.0 0, 360.0, 76" fill="none" stroke="#ddd" style="opacity:0.14133333333333334;stroke-width:15px;" transform="translate(-60, 681.0)"  /><path d="M0 76 C 42.0 0, 78.0 0, 120 76 S 198.0 152, 240 76 S 318.0 0, 360.0, 76" fill="none" stroke="#222" style="opacity:0.028666666666666667;stroke-width:15px;" transform="translate(-60, 156.0)"  /><path d="M0 76 C 42.0 0, 78.0 0, 120 76 S 198.0 152, 240 76 S 318.0 0, 360.0, 76" fill="none" stroke="#222" style="opacity:0.028666666666666667;stroke-width:15px;" transform="translate(-60, 696.0)"  /><path d="M0 76 C 42.0 0, 78.0 0, 120 76 S 198.0 152, 240 76 S 318.0 0, 360.0, 76" fill="none" stroke="#ddd" style="opacity:0.07200000000000001;stroke-width:15px;" transform="translate(-60, 171.0)"  /><path d="M0 76 C 42.0 0, 78.0 0, 120 76 S 198.0 152, 240 76 S 318.0 0, 360.0, 76" fill="none" stroke="#ddd" style="opacity:0.07200000000000001;stroke-width:15px;" transform="translate(-60, 711.0)"  /><path d="M0 76 C 42.0 0, 78.0 0, 120 76 S 198.0 152, 240 76 S 318.0 0, 360.0, 76" fill="none" stroke="#ddd" style="opacity:0.05466666666666667;stroke-width:15px;" transform="translate(-60, 186.0)"  /><path d="M0 76 C 42.0 0, 78.0 0, 120 76 S 198.0 152, 240 76 S 318.0 0, 360.0, 76" fill="none" stroke="#ddd" style="opacity:0.05466666666666667;stroke-width:15px;" transform="translate(-60, 726.0)"  /><path d="M0 76 C 42.0 0, 78.0 0, 120 76 S 198.0 152, 240 76 S 318.0 0, 360.0, 76" fill="none" stroke="#ddd" style="opacity:0.07200000000000001;stroke-width:15px;" transform="translate(-60, 201.0)"  /><path d="M0 76 C 42.0 0, 78.0 0, 120 76 S 198.0 152, 240 76 S 318.0 0, 360.0, 76" fill="none" stroke="#ddd" style="opacity:0.07200000000000001;stroke-width:15px;" transform="translate(-60, 741.0)"  /><path d="M0 76 C 42.0 0, 78.0 0, 120 76 S 198.0 152, 240 76 S 318.0 0, 360.0, 76" fill="none" stroke="#ddd" style="opacity:0.12400000000000001;stroke-width:15px;" transform="translate(-60, 216.0)"  /><path d="M0 76 C 42.0 0, 78.0 0, 120 76 S 198.0 152, 240 76 S 318.0 0, 360.0, 76" fill="none" stroke="#ddd" style="opacity:0.12400000000000001;stroke-width:15px;" transform="translate(-60, 756.0)"  /><path d="M0 76 C 42.0 0, 78.0 0, 120 76 S 198.0 152, 240 76 S 318.0 0, 360.0, 76" fill="none" stroke="#ddd" style="opacity:0.07200000000000001;stroke-width:15px;" transform="translate(-60, 231.0)"  /><path d="M0 76 C 42.0 0, 78.0 0, 120 76 S 198.0 152, 240 76 S 318.0 0, 360.0, 76" fill="none" stroke="#ddd" style="opacity:0.07200000000000001;stroke-width:15px;" transform="translate(-60, 771.0)"  /><path d="M0 76 C 42.0 0, 78.0 0, 120 76 S 198.0 152, 240 76 S 318.0 0, 360.0, 76" fill="none" stroke="#222" style="opacity:0.15;stroke-width:15px;" transform="translate(-60, 246.0)"  /><path d="M0 76 C 42.0 0, 78.0 0, 120 76 S 198.0 152, 240 76 S 318.0 0, 360.0, 76" fill="none" stroke="#222" style="opacity:0.15;stroke-width:15px;" transform="translate(-60, 786.0)"  /><path d="M0 76 C 42.0 0, 78.0 0, 120 76 S 198.0 152, 240 76 S 318.0 0, 360.0, 76" fill="none" stroke="#222" style="opacity:0.028666666666666667;stroke-width:15px;" transform="translate(-60, 261.0)"  /><path d="M0 76 C 42.0 0, 78.0 0, 120 76 S 198.0 152, 240 76 S 318.0 0, 360.0, 76" fill="none" stroke="#222" style="opacity:0.028666666666666667;stroke-width:15px;" transform="translate(-60, 801.0)"  /><path d="M0 76 C 42.0 0, 78.0 0, 120 76 S 198.0 152, 240 76 S 318.0 0, 360.0, 76" fill="none" stroke="#222" style="opacity:0.098;stroke-width:15px;" transform="translate(-60, 276.0)"  /><path d="M0 76 C 42.0 0, 78.0 0, 120 76 S 198.0 152, 240 76 S 318.0 0, 360.0, 76" fill="none" stroke="#222" style="opacity:0.098;stroke-width:15px;" transform="translate(-60, 816.0)"  /><path d="M0 76 C 42.0 0, 78.0 0, 120 76 S 198.0 152, 240 76 S 318.0 0, 360.0, 76" fill="none" stroke="#ddd" style="opacity:0.10666666666666667;stroke-width:15px;" transform="translate(-60, 291.0)"  /><path d="M0 76 C 42.0 0, 78.0 0, 120 76 S 198.0 152, 240 76 S 318.0 0, 360.0, 76" fill="none" stroke="#ddd" style="opacity:0.10666666666666667;stroke-width:15px;" transform="translate(-60, 831.0)"  /><path d="M0 76 C 42.0 0, 78.0 0, 120 76 S 198.0 152, 240 76 S 318.0 0, 360.0, 76" fill="none" stroke="#222" style="opacity:0.098;stroke-width:15px;" transform="translate(-60, 306.0)"  /><path d="M0 76 C 42.0 0, 78.0 0, 120 76 S 198.0 152, 240 76 S 318.0 0, 360.0, 76" fill="none" stroke="#222" style="opacity:0.098;stroke-width:15px;" transform="translate(-60, 846.0)"  /><path d="M0 76 C 42.0 0, 78.0 0, 120 76 S 198.0 152, 240 76 S 318.0 0, 360.0, 76" fill="none" stroke="#ddd" style="opacity:0.02;stroke-width:15px;" transform="translate(-60, 321.0)"  /><path d="M0 76 C 42.0 0, 78.0 0, 120 76 S 198.0 152, 240 76 S 318.0 0, 360.0, 76" fill="none" stroke="#ddd" style="opacity:0.02;stroke-width:15px;" transform="translate(-60, 861.0)"  /><path d="M0 76 C 42.0 0, 78.0 0, 120 76 S 198.0 152, 240 76 S 318.0 0, 360.0, 76" fill="none" stroke="#ddd" style="opacity:0.08933333333333333;stroke-width:15px;" transform="translate(-60, 336.0)"  /><path d="M0 76 C 42.0 0, 78.0 0, 120 76 S 198.0 152, 240 76 S 318.0 0, 360.0, 76" fill="none" stroke="#ddd" style="opacity:0.08933333333333333;stroke-width:15px;" transform="translate(-60, 876.0)"  /><path d="M0 76 C 42.0 0, 78.0 0, 120 76 S 198.0 152, 240 76 S 318.0 0, 360.0, 76" fill="none" stroke="#ddd" style="opacity:0.10666666666666667;stroke-width:15px;" transform="translate(-60, 351.0)"  /><path d="M0 76 C 42.0 0, 78.0 0, 120 76 S 198.0 152, 240 76 S 318.0 0, 360.0, 76" fill="none" stroke="#ddd" style="opacity:0.10666666666666667;stroke-width:15px;" transform="translate(-60, 891.0)"  /><path d="M0 76 C 42.0 0, 78.0 0, 120 76 S 198.0 152, 240 76 S 318.0 0, 360.0, 76" fill="none" stroke="#ddd" style="opacity:0.14133333333333334;stroke-width:15px;" transform="translate(-60, 366.0)"  /><path d="M0 76 C 42.0 0, 78.0 0, 120 76 S 198.0 152, 240 76 S 318.0 0, 360.0, 76" fill="none" stroke="#ddd" style="opacity:0.14133333333333334;stroke-width:15px;" transform="translate(-60, 906.0)"  /><path d="M0 76 C 42.0 0, 78.0 0, 120 76 S 198.0 152, 240 76 S 318.0 0, 360.0, 76" fill="none" stroke="#ddd" style="opacity:0.07200000000000001;stroke-width:15px;" transform="translate(-60, 381.0)"  /><path d="M0 76 C 42.0 0, 78.0 0, 120 76 S 198.0 152, 240 76 S 318.0 0, 360.0, 76" fill="none" stroke="#ddd" style="opacity:0.07200000000000001;stroke-width:15px;" transform="translate(-60, 921.0)"  /><path d="M0 76 C 42.0 0, 78.0 0, 120 76 S 198.0 152, 240 76 S 318.0 0, 360.0, 76" fill="none" stroke="#222" style="opacity:0.11533333333333334;stroke-width:15px;" transform="translate(-60, 396.0)"  /><path d="M0 76 C 42.0 0, 78.0 0, 120 76 S 198.0 152, 240 76 S 318.0 0, 360.0, 76" fill="none" stroke="#222" style="opacity:0.11533333333333334;stroke-width:15px;" transform="translate(-60, 936.0)"  /><path d="M0 76 C 42.0 0, 78.0 0, 120 76 S 198.0 152, 240 76 S 318.0 0, 360.0, 76" fill="none" stroke="#ddd" style="opacity:0.12400000000000001;stroke-width:15px;" transform="translate(-60, 411.0)"  /><path d="M0 76 C 42.0 0, 78.0 0, 120 76 S 198.0 152, 240 76 S 318.0 0, 360.0, 76" fill="none" stroke="#ddd" style="opacity:0.12400000000000001;stroke-width:15px;" transform="translate(-60, 951.0)"  /></svg>