<svg xmlns="http://www.w3.org/2000/svg" width="100" height="100"><rect x="0" y="0" width="100%" height="100%" fill="rgb(161, 46, 128)"  /><rect x="-10.666666666666666" y="-10.666666666666666" width="21.333333333333332" height="21.333333333333332" stroke="#000" stroke-opacity="0.02" fill="#222" fill-opacity="0.08066666666666666" stroke-width="1"  /><rect x="90.28375056146938" y="-10.666666666666666" width="21.333333333333332" height="21.333333333333332" stroke="#000" stroke-opacity="0.02" fill="#222" fill-opacity="0.08066666666666666" stroke-width="1"  /><rect x="-10.666666666666666" y="105.90083445627208" width="21.333333333333332" height="21.333333333333332" stroke="#000" stroke-opacity="0.02" fill="#222" fill-opacity="0.08066666666666666" stroke-width="1"  /><rect x="90.28375056146938" y="105.90083445627208" width="21.333333333333332" height="21.333333333333332" stroke="#000" stroke-opacity="0.02" fill="#222" fill-opacity="0.08066666666666666" stroke-width="1"  /><rect x="39.80854194740135" y="18.475208614068023" width="21.333333333333332" height="21.333333333333332" stroke="#000" stroke-opacity="0.02" fill="#ddd" fill-opacity="0.10666666666666667" stroke-width="1"  /><rect x="-10.666666666666666" y="47.61708389480271" width="21.333333333333332" height="21.333333333333332" stroke="#000" stroke-opacity="0.02" fill="#222" fill-opacity="0.08066666666666666" stroke-width="1"  /><rect x="90.28375056146938" y="47.61708389480271" width="21.333333333333332" height="21.333333333333332" stroke="#000" stroke-opacity="0.02" fill="#222" fill-opacity="0.08066666666666666" stroke-width="1"  /><rect x="39.80854194740135" y="76.7589591755374" width="21.333333333333332" height="21.333333333333332" stroke="#000" stroke-opacity="0.02" fill="#ddd" fill-opacity="0.02" stroke-width="1"  /><polyline points="0, 0, 18.475208614068023, 10.666666666666666, 0, 21.333333333333332, 0, 0" stroke="#000" stroke-opacity="0.02" fill="#222" fill-opacity="0.028666666666666667" stroke-width="1" transform="translate(10.666666666666666, -10.666666666666666) rotate(0, 10.666666666666666, 9.237604307034012)"  /><polyline points="0, 0, 18.475208614068023, 10.666666666666666, 0, 21.333333333333332, 0, 0" stroke="#000" stroke-opacity="0.02" fill="#222" fill-opacity="0.028666666666666667" stroke-width="1" transform="translate(10.666666666666666, 127.23416778960542) rotate(0, 10.666666666666666, 9.237604307034012) scale(1, -1)"  /><polyline points="0, 0, 18.475208614068023, 10.666666666666666, 0, 21.333333333333332, 0, 0" stroke="#000" stroke-opacity="0.02" fill="#ddd" fill-opacity="0.08933333333333333" stroke-width="1" transform="translate(90.28375056146938, -10.666666666666666) rotate(0, 10.666666666666666, 9.237604307034012) scale(-1, 1)"  /><polyline points="0, 0, 18.475208614068023, 10.666666666666666, 0, 21.333333333333332, 0, 0" stroke="#000" stroke-opacity="0.02" fill="#ddd" fill-opacity="0.08933333333333333" stroke-width="1" transform="translate(90.28375056146938, 127.23416778960542) rotate(0, 10.666666666666666, 9.237604307034012) scale(-1, -1)"  /><polyline points="0, 0, 18.475208614068023, 10.666666666666666, 0, 21.333333333333332, 0, 0" stroke="#000" stroke-opacity="0.02" fill="#ddd" fill-opacity="0.05466666666666667" stroke-width="1" transform="translate(61.14187528073469, 18.475208614068023)"  /><polyline points="0, 0, 18.475208614068023, 10.666666666666666, 0, 21.333333333333332, 0, 0" stroke="#000" stroke-opacity="0.02" fill="#222" fill-opacity="0.06333333333333334" stroke-width="1" transform="translate(39.80854194740136, 18.475208614068023) scale(-1, 1)"  /><polyline points="0, 0, 18.475208614068023, 10.666666666666666, 0, 21.333333333333332, 0, 0" stroke="#000" stroke-opacity="0.02" fill="#222" fill-opacity="0.13266666666666665" stroke-width="1" transform="translate(61.14187528073469, 98.09229250887073) scale(1, -1)"  /><polyline points="0, 0, 18.475208614068023, 10.666666666666666, 0, 21.333333333333332, 0, 0" stroke="#000" stroke-opacity="0.02" fill="#ddd" fill-opacity="0.10666666666666667" stroke-width="1" transform="translate(39.80854194740136, 98.09229250887073) scale(-1, -1)"  /><polyline points="0, 0, 18.475208614068023, 10.666666666666666, 0, 21.333333333333332, 0, 0" stroke="#000" stroke-opacity="0.02" fill="#ddd" fill-opacity="0.02" stroke-width="1" transform="translate(10.666666666666666, 47.61708389480271)"  /><polyline points="0, 0, 18.475208614068023, 10.666666666666666, 0, 21.333333333333332, 0, 0" stroke="#000" stroke-opacity="0.02" fill="#ddd" fill-opacity="0.07200000000000001" stroke-width="1" transform="translate(90.28375056146938, 47.61708389480271) scale(-1, 1)"  /><rect x="0" y="0" width="21.333333333333332" height="21.333333333333332" stroke="#000" stroke-opacity="0.02" fill="#222" fill-opacity="0.06333333333333334" stroke-width="1" transform="translate(10.666666666666666, 10.666666666666666) rotate(-30, 0, 0)"  /><rect x="0" y="0" width="21.333333333333332" height="21.333333333333332" stroke="#000" stroke-opacity="0.02" fill="#222" fill-opacity="0.06333333333333334" stroke-width="1" transform="scale(-1, 1) translate(-90.28375056146938, 10.666666666666666) rotate(-30, 0, 0)"  /><rect x="0" y="0" width="21.333333333333332" height="21.333333333333332" stroke="#000" stroke-opacity="0.02" fill="#222" fill-opacity="0.028666666666666667" stroke-width="1" transform="translate(10.666666666666666, 26.28375056146938) rotate(30, 0, 21.333333333333332)"  /><rect x="0" y="0" width="21.333333333333332" height="21.333333333333332" stroke="#000" stroke-opacity="0.02" fill="#ddd" fill-opacity="0.14133333333333334" stroke-width="1" transform="scale(-1, 1) translate(-90.28375056146938, 26.28375056146938) rotate(30, 0, 21.333333333333332)"  /><rect x="0" y="0" width="21.333333333333332" height="21.333333333333332" stroke="#000" stroke-opacity="0.02" fill="#ddd" fill-opacity="0.08933333333333333" stroke-width="1" transform="scale(1, -1) translate(10.666666666666666, -90.28375056146938) rotate(30, 0, 21.333333333333332)"  /><rect x="0" y="0" width="21.333333333333332" height="21.333333333333332" stroke="#000" stroke-opacity="0.02" fill="#ddd" fill-opacity="0.14133333333333334" stroke-width="1" transform="scale(-1, -1) translate(-90.28375056146938, -90.28375056146938) rotate(30, 0, 21.333333333333332)"  /><rect x="0" y="0" width="21.333333333333332" height="21.333333333333332" stroke="#000" stroke-opacity="0.02" fill="#222" fill-opacity="0.028666666666666667" stroke-width="1" transform="scale(1, -1) translate(10.666666666666666, -105.90083445627208) rotate(-30, 0, 0)"  /><rect x="0" y="0" width="21.333333333333332" height="21.333333333333332" stroke="#000" stroke-opacity="0.02" fill="#ddd" fill-opacity="0.07200000000000001" stroke-width="1" transform="scale(-1, -1) translate(-90.28375056146938, -105.90083445627208) rotate(-30, 0, 0)"  /></svg>