<svg xmlns="http://www.w3.org/2000/svg" width="178" height="205"><rect x="0" y="0" width="100%" height="100%" fill="rgb(63, 144, 77)"  /><rect x="-18.833333333333332" y="-18.833333333333332" width="37.666666666666664" height="37.666666666666664" stroke="#000" stroke-opacity="0.02" fill="#ddd" fill-opacity="0.14133333333333334" stroke-width="1"  /><rect x="159.40724708509435" y="-18.833333333333332" width="37.666666666666664" height="37.666666666666664" stroke="#000" stroke-opacity="0.02" fill="#ddd" fill-opacity="0.14133333333333334" stroke-width="1"  /><rect x="-18.833333333333332" y="186.98116083685537" width="37.666666666666664" height="37.666666666666664" stroke="#000" stroke-opacity="0.02" fill="#ddd" fill-opacity="0.14133333333333334" stroke-width="1"  /><rect x="159.40724708509435" y="186.98116083685537" width="37.666666666666664" height="37.666666666666664" stroke="#000" stroke-opacity="0.02" fill="#ddd" fill-opacity="0.14133333333333334" stroke-width="1"  /><rect x="70.28695687588052" y="32.62029020921385" width="37.666666666666664" height="37.666666666666664" stroke="#000" stroke-opacity="0.02" fill="#ddd" fill-opacity="0.08933333333333333" stroke-width="1"  /><rect x="-18.833333333333332" y="84.07391375176103" width="37.666666666666664" height="37.666666666666664" stroke="#000" stroke-opacity="0.02" fill="#222" fill-opacity="0.13266666666666665" stroke-width="1"  /><rect x="159.40724708509435" y="84.07391375176103" width="37.666666666666664" height="37.666666666666664" stroke="#000" stroke-opacity="0.02" fill="#222" fill-opacity="0.13266666666666665" stroke-width="1"  /><rect x="70.28695687588052" y="135.52753729430822" width="37.666666666666664" height="37.666666666666664" stroke="#000" stroke-opacity="0.02" fill="#222" fill-opacity="0.15" stroke-width="1"  /><polyline points="0, 0, 32.62029020921385, 18.833333333333332, 0, 37.666666666666664, 0, 0" stroke="#000" stroke-opacity="0.02" fill="#222" fill-opacity="0.098" stroke-width="1" transform="translate(18.833333333333332, -18.833333333333332) rotate(0, 18.833333333333332, 16.310145104606924)"  /><polyline points="0, 0, 32.62029020921385, 18.833333333333332, 0, 37.666666666666664, 0, 0" stroke="#000" stroke-opacity="0.02" fill="#222" fill-opacity="0.098" stroke-width="1" transform="translate(18.833333333333332, 224.64782750352205) rotate(0, 18.833333333333332, 16.310145104606924) scale(1, -1)"  /><polyline points="0, 0, 32.62029020921385, 18.833333333333332, 0, 37.666666666666664, 0, 0" stroke="#000" stroke-opacity="0.02" fill="#ddd" fill-opacity="0.07200000000000001" stroke-width="1" transform="translate(159.40724708509435, -18.833333333333332) rotate(0, 18.833333333333332, 16.310145104606924) scale(-1, 1)"  /><polyline points="0, 0, 32.62029020921385, 18.833333333333332, 0, 37.666666666666664, 0, 0" stroke="#000" stroke-opacity="0.02" fill="#ddd" fill-opacity="0.07200000000000001" stroke-width="1" transform="translate(159.40724708509435, 224.64782750352205) rotate(0, 18.833333333333332, 16.310145104606924) scale(-1, -1)"  /><polyline points="0, 0, 32.62029020921385, 18.833333333333332, 0, 37.666666666666664, 0, 0" stroke="#000" stroke-opacity="0.02" fill="#ddd" fill-opacity="0.07200000000000001" stroke-width="1" transform="translate(107.95362354254718, 32.62029020921385)"  /><polyline points="0, 0, 32.62029020921385, 18.833333333333332, 0, 37.666666666666664, 0, 0" stroke="#000" stroke-opacity="0.02" fill="#222" fill-opacity="0.08066666666666666" stroke-width="1" transform="translate(70.28695687588052, 32.62029020921385) scale(-1, 1)"  /><polyline points="0, 0, 32.62029020921385, 18.833333333333332, 0, 37.666666666666664, 0, 0" stroke="#000" stroke-opacity="0.02" fill="#ddd" fill-opacity="0.07200000000000001" stroke-width="1" transform="translate(107.95362354254718, 173.19420396097485) scale(1, -1)"  /><polyline points="0, 0, 32.62029020921385, 18.833333333333332, 0, 37.666666666666664, 0, 0" stroke="#000" stroke-opacity="0.02" fill="#222" fill-opacity="0.08066666666666666" stroke-width="1" transform="translate(70.28695687588052, 173.19420396097485) scale(-1, -1)"  /><polyline points="0, 0, 32.62029020921385, 18.833333333333332, 0, 37.666666666666664, 0, 0" stroke="#000" stroke-opacity="0.02" fill="#222" fill-opacity="0.15" stroke-width="1" transform="translate(18.833333333333332, 84.07391375176103)"  /><polyline points="0, 0, 32.62029020921385, 18.833333333333332, 0, 37.666666666666664, 0, 0" stroke="#000" stroke-opacity="0.02" fill="#222" fill-opacity="0.11533333333333334" stroke-width="1" transform="translate(159.40724708509435, 84.07391375176103) scale(-1, 1)"  /><rect x="0" y="0" width="37.666666666666664" height="37.666666666666664" stroke="#000" stroke-opacity="0.02" fill="#222" fill-opacity="0.13266666666666665" stroke-width="1" transform="translate(18.833333333333332, 18.833333333333332) rotate(-30, 0, 0)"  /><rect x="0" y="0" width="37.666666666666664" height="37.666666666666664" stroke="#000" stroke-opacity="0.02" fill="#222" fill-opacity="0.046" stroke-width="1" transform="scale(-1, 1) translate(-159.40724708509435, 18.833333333333332) rotate(-30, 0, 0)"  /><rect x="0" y="0" width="37.666666666666664" height="37.666666666666664" stroke="#000" stroke-opacity="0.02" fill="#ddd" fill-opacity="0.10666666666666667" stroke-width="1" transform="translate(18.833333333333332, 46.40724708509436) rotate(30, 0, 37.666666666666664)"  /><rect x="0" y="0" width="37.666666666666664" height="37.666666666666664" stroke="#000" stroke-opacity="0.02" fill="#222" fill-opacity="0.046" stroke-width="1" transform="scale(-1, 1) translate(-159.40724708509435, 46.40724708509436) rotate(30, 0, 37.666666666666664)"  /><rect x="0" y="0" width="37.666666666666664" height="37.666666666666664" stroke="#000" stroke-opacity="0.02" fill="#ddd" fill-opacity="0.08933333333333333" stroke-width="1" transform="scale(1, -1) translate(18.833333333333332, -159.40724708509435) rotate(30, 0, 37.666666666666664)"  /><rect x="0" y="0" width="37.666666666666664" height="37.666666666666664" stroke="#000" stroke-opacity="0.02" fill="#222" fill-opacity="0.046" stroke-width="1" transform="scale(-1, -1) translate(-159.40724708509435, -159.40724708509435) rotate(30, 0, 37.666666666666664)"  /><rect x="0" y="0" width="37.666666666666664" height="37.666666666666664" stroke="#000" stroke-opacity="0.02" fill="#ddd" fill-opacity="0.12400000000000001" stroke-width="1" transform="scale(1, -1) translate(18.833333333333332, -186.98116083685537) rotate(-30, 0, 0)"  /><rect x="0" y="0" width="37.666666666666664" height="37.666666666666664" stroke="#000" stroke-opacity="0.02" fill="#222" fill-opacity="0.06333333333333334" stroke-width="1" transform="scale(-1, -1) translate(-159.40724708509435, -186.98116083685537) rotate(-30, 0, 0)"  /></svg>