<svg xmlns="http://www.w3.org/2000/svg" width="100" height="100"><rect x="0" y="0" width="100%" height="100%" fill="rgb(161, 46, 128)"  /><polyline points="22.666666666666664, 0, 45.33333333333333, 39.259818304894544, 0, 39.259818304894544, 22.666666666666664, 0" fill="#222" fill-opacity="0.08066666666666666" stroke="#000" stroke-opacity="0.02" transform="translate(-22.666666666666664, 0.0) rotate(180, 22.666666666666664, 19.629909152447272)"  /><polyline points="22.666666666666664, 0, 45.33333333333333, 39.259818304894544, 0, 39.259818304894544, 22.666666666666664, 0" fill="#222" fill-opacity="0.08066666666666666" stroke="#000" stroke-opacity="0.02" transform="translate(113.33333333333334, 0.0) rotate(180, 22.666666666666664, 19.629909152447272)"  /><polyline points="22.666666666666664, 0, 45.33333333333333, 39.259818304894544, 0, 39.259818304894544, 22.666666666666664, 0" fill="#ddd" fill-opacity="0.10666666666666667" stroke="#000" stroke-opacity="0.02" transform="translate(0.0, 0.0) rotate(0, 22.666666666666664, 19.629909152447272)"  /><polyline points="22.666666666666664, 0, 45.33333333333333, 39.259818304894544, 0, 39.259818304894544, 22.666666666666664, 0" fill="#222" fill-opacity="0.08066666666666666" stroke="#000" stroke-opacity="0.02" transform="translate(22.666666666666664, 0.0) rotate(180, 22.666666666666664, 19.629909152447272)"  /><polyline points="22.666666666666664, 0, 45.33333333333333, 39.259818304894544, 0, 39.259818304894544, 22.666666666666664, 0" fill="#ddd" fill-opacity="0.02" stroke="#000" stroke-opacity="0.02" transform="translate(45.333333333333336, 0.0) rotate(0, 22.666666666666664, 19.629909152447272)"  /><polyline points="22.666666666666664, 0, 45.33333333333333, 39.259818304894544, 0, 39.259818304894544, 22.666666666666664, 0" fill="#222" fill-opacity="0.028666666666666667" stroke="#000" stroke-opacity="0.02" transform="translate(68.0, 0.0) rotate(180, 22.666666666666664, 19.629909152447272)"  /><polyline points="22.666666666666664, 0, 45.33333333333333, 39.259818304894544, 0, 39.259818304894544, 22.666666666666664, 0" fill="#ddd" fill-opacity="0.08933333333333333" stroke="#000" stroke-opacity="0.02" transform="translate(90.66666666666666, 0.0) rotate(0, 22.666666666666664, 19.629909152447272)"  /><polyline points="22.666666666666664, 0, 45.33333333333333, 39.259818304894544, 0, 39.259818304894544, 22.666666666666664, 0" fill="#ddd" fill-opacity="0.05466666666666667" stroke="#000" stroke-opacity="0.02" transform="translate(-22.666666666666664, 39.259818304894544) rotate(0, 22.666666666666664, 19.629909152447272)"  /><polyline points="22.666666666666664, 0, 45.33333333333333, 39.259818304894544, 0, 39.259818304894544, 22.666666666666664, 0" fill="#ddd" fill-opacity="0.05466666666666667" stroke="#000" stroke-opacity="0.02" transform="translate(113.33333333333334, 39.259818304894544) rotate(0, 22.666666666666664, 19.629909152447272)"  /><polyline points="22.666666666666664, 0, 45.33333333333333, 39.259818304894544, 0, 39.259818304894544, 22.666666666666664, 0" fill="#222" fill-opacity="0.06333333333333334" stroke="#000" stroke-opacity="0.02" transform="translate(0.0, 39.259818304894544) rotate(180, 22.666666666666664, 19.629909152447272)"  /><polyline points="22.666666666666664, 0, 45.33333333333333, 39.259818304894544, 0, 39.259818304894544, 22.666666666666664, 0" fill="#222" fill-opacity="0.13266666666666665" stroke="#000" stroke-opacity="0.02" transform="translate(22.666666666666664, 39.259818304894544) rotate(0, 22.666666666666664, 19.629909152447272)"  /><polyline points="22.666666666666664, 0, 45.33333333333333, 39.259818304894544, 0, 39.259818304894544, 22.666666666666664, 0" fill="#ddd" fill-opacity="0.10666666666666667" stroke="#000" stroke-opacity="0.02" transform="translate(45.333333333333336, 39.259818304894544) rotate(180, 22.666666666666664, 19.629909152447272)"  /><polyline points="22.666666666666664, 0, 45.33333333333333, 39.259818304894544, 0, 39.259818304894544, 22.666666666666664, 0" fill="#ddd" fill-opacity="0.02" stroke="#000" stroke-opacity="0.02" transform="translate(68.0, 39.259818304894544) rotate(0, 22.666666666666664, 19.629909152447272)"  /><polyline points="22.666666666666664, 0, 45.33333333333333, 39.259818304894544, 0, 39.259818304894544, 22.666666666666664, 0" fill="#ddd" fill-opacity="0.07200000000000001" stroke="#000" stroke-opacity="0.02" transform="translate(90.66666666666666, 39.259818304894544) rotate(180, 22.666666666666664, 19.629909152447272)"  /><polyline points="22.666666666666664, 0, 45.33333333333333, 39.259818304894544, 0, 39.259818304894544, 22.666666666666664, 0" fill="#222" fill-opacity="0.06333333333333334" stroke="#000" stroke-opacity="0.02" transform="translate(-22.666666666666664, 78.51963660978909) rotate(180, 22.666666666666664, 19.629909152447272)"  /><polyline points="22.666666666666664, 0, 45.33333333333333, 39.259818304894544, 0, 39.259818304894544, 22.666666666666664, 0" fill="#222" fill-opacity="0.06333333333333334" stroke="#000" stroke-opacity="0.02" transform="translate(113.33333333333334, 78.51963660978909) rotate(180, 22.666666666666664, 19.629909152447272)"  /><polyline points="22.666666666666664, 0, 45.33333333333333, 39.259818304894544, 0, 39.259818304894544, 22.666666666666664, 0" fill="#222" fill-opacity="0.06333333333333334" stroke="#000" stroke-opacity="0.02" transform="translate(0.0, 78.51963660978909) rotate(0, 22.666666666666664, 19.629909152447272)"  /><polyline points="22.666666666666664, 0, 45.33333333333333, 39.259818304894544, 0, 39.259818304894544, 22.666666666666664, 0" fill="#222" fill-opacity="0.028666666666666667" stroke="#000" stroke-opacity="0.02" transform="translate(22.666666666666664, 78.51963660978909) rotate(180, 22.666666666666664, 19.629909152447272)"  /><polyline points="22.666666666666664, 0, 45.33333333333333, 39.259818304894544, 0, 39.259818304894544, 22.666666666666664, 0" fill="#ddd" fill-opacity="0.14133333333333334" stroke="#000" stroke-opacity="0.02" transform="translate(45.333333333333336, 78.51963660978909) rotate(0, 22.666666666666664, 19.629909152447272)"  /><polyline points="22.666666666666664, 0, 45.33333333333333, 39.259818304894544, 0, 39.259818304894544, 22.666666666666664, 0" fill="#ddd" fill-opacity="0.08933333333333333" stroke="#000" stroke-opacity="0.02" transform="translate(68.0, 78.51963660978909) rotate(180, 22.666666666666664, 19.629909152447272)"  /><polyline points="22.666666666666664, 0, 45.33333333333333, 39.259818304894544, 0, 39.259818304894544, 22.666666666666664, 0" fill="#ddd" fill-opacity="0.14133333333333334" stroke="#000" stroke-opacity="0.02" transform="translate(90.66666666666666, 78.51963660978909) rotate(0, 22.666666666666664, 19.629909152447272)"  /><polyline points="22.666666666666664, 0, 45.33333333333333, 39.259818304894544, 0, 39.259818304894544, 22.666666666666664, 0" fill="#222" fill-opacity="0.028666666666666667" stroke="#000" stroke-opacity="0.02" transform="translate(-22.666666666666664, 117.77945491468364) rotate(0, 22.666666666666664, 19.629909152447272)"  /><polyline points="22.666666666666664, 0, 45.33333333333333, 39.259818304894544, 0, 39.259818304894544, 22.666666666666664, 0" fill="#222" fill-opacity="0.028666666666666667" stroke="#000" stroke-opacity="0.02" transform="translate(113.33333333333334, 117.77945491468364) rotate(0, 22.666666666666664, 19.629909152447272)"  /><polyline points="22.666666666666664, 0, 45.33333333333333, 39.259818304894544, 0, 39.259818304894544, 22.666666666666664, 0" fill="#ddd" fill-opacity="0.07200000000000001" stroke="#000" stroke-opacity="0.02" transform="translate(0.0, 117.77945491468364) rotate(180, 22.666666666666664, 19.629909152447272)"  /><polyline points="22.666666666666664, 0, 45.33333333333333, 39.259818304894544, 0, 39.259818304894544, 22.666666666666664, 0" fill="#ddd" fill-opacity="0.05466666666666667" stroke="#000" stroke-opacity="0.02" transform="translate(22.666666666666664, 117.77945491468364) rotate(0, 22.666666666666664, 19.629909152447272)"  /><polyline points="22.666666666666664, 0, 45.33333333333333, 39.259818304894544, 0, 39.259818304894544, 22.666666666666664, 0" fill="#ddd" fill-opacity="0.07200000000000001" stroke="#000" stroke-opacity="0.02" transform="translate(45.333333333333336, 117.77945491468364) rotate(180, 22.666666666666664, 19.629909152447272)"  /><polyline points="22.666666666666664, 0, 45.33333333333333, 39.259818304894544, 0, 39.259818304894544, 22.666666666666664, 0" fill="#ddd" fill-opacity="0.12400000000000001" stroke="#000" stroke-opacity="0.02" transform="translate(68.0, 117.77945491468364) rotate(0, 22.666666666666664, 19.629909152447272)"  /><polyline points="22.666666666666664, 0, 45.33333333333333, 39.259818304894544, 0, 39.259818304894544, 22.666666666666664, 0" fill="#ddd" fill-opacity="0.07200000000000001" stroke="#000" stroke-opacity="0.02" transform="translate(90.66666666666666, 117.77945491468364) rotate(180, 22.666666666666664, 19.629909152447272)"  /><polyline points="22.666666666666664, 0, 45.33333333333333, 39.259818304894544, 0, 39.259818304894544, 22.666666666666664, 0" fill="#222" fill-opacity="0.15" stroke="#000" stroke-opacity="0.02" transform="translate(-22.666666666666664, 157.03927321957818) rotate(180, 22.666666666666664, 19.629909152447272)"  /><polyline points="22.666666666666664, 0, 45.33333333333333, 39.259818304894544, 0, 39.259818304894544, 22.666666666666664, 0" fill="#222" fill-opacity="0.15" stroke="#000" stroke-opacity="0.02" transform="translate(113.33333333333334, 157.03927321957818) rotate(180, 22.666666666666664, 19.629909152447272)"  /><polyline points="22.666666666666664, 0, 45.33333333333333, 39.259818304894544, 0, 39.259818304894544, 22.666666666666664, 0" fill="#222" fill-opacity="0.028666666666666667" stroke="#000" stroke-opacity="0.02" transform="translate(0.0, 157.03927321957818) rotate(0, 22.666666666666664, 19.629909152447272)"  /><polyline points="22.666666666666664, 0, 45.33333333333333, 39.259818304894544, 0, 39.259818304894544, 22.666666666666664, 0" fill="#222" fill-opacity="0.098" stroke="#000" stroke-opacity="0.02" transform="translate(22.666666666666664, 157.03927321957818) rotate(180, 22.666666666666664, 19.629909152447272)"  /><polyline points="22.666666666666664, 0, 45.33333333333333, 39.259818304894544, 0, 39.259818304894544, 22.666666666666664, 0" fill="#ddd" fill-opacity="0.10666666666666667" stroke="#000" stroke-opacity="0.02" transform="translate(45.333333333333336, 157.03927321957818) rotate(0, 22.666666666666664, 19.629909152447272)"  /><polyline points="22.666666666666664, 0, 45.33333333333333, 39.259818304894544, 0, 39.259818304894544, 22.666666666666664, 0" fill="#222" fill-opacity="0.098" stroke="#000" stroke-opacity="0.02" transform="translate(68.0, 157.03927321957818) rotate(180, 22.666666666666664, 19.629909152447272)"  /><polyline points="22.666666666666664, 0, 45.33333333333333, 39.259818304894544, 0, 39.259818304894544, 22.666666666666664, 0" fill="#ddd" fill-opacity="0.02" stroke="#000" stroke-opacity="0.02" transform="translate(90.66666666666666, 157.03927321957818) rotate(0, 22.666666666666664, 19.629909152447272)"  /><polyline points="22.666666666666664, 0, 45.33333333333333, 39.259818304894544, 0, 39.259818304894544, 22.666666666666664, 0" fill="#ddd" fill-opacity="0.08933333333333333" stroke="#000" stroke-opacity="0.02" transform="translate(-22.666666666666664, 196.29909152447271) rotate(0, 22.666666666666664, 19.629909152447272)"  /><polyline points="22.666666666666664, 0, 45.33333333333333, 39.259818304894544, 0, 39.259818304894544, 22.666666666666664, 0" fill="#ddd" fill-opacity="0.08933333333333333" stroke="#000" stroke-opacity="0.02" transform="translate(113.33333333333334, 196.29909152447271) rotate(0, 22.666666666666664, 19.629909152447272)"  /><polyline points="22.666666666666664, 0, 45.33333333333333, 39.259818304894544, 0, 39.259818304894544, 22.666666666666664, 0" fill="#ddd" fill-opacity="0.10666666666666667" stroke="#000" stroke-opacity="0.02" transform="translate(0.0, 196.29909152447271) rotate(180, 22.666666666666664, 19.629909152447272)"  /><polyline points="22.666666666666664, 0, 45.33333333333333, 39.259818304894544, 0, 39.259818304894544, 22.666666666666664, 0" fill="#ddd" fill-opacity="0.14133333333333334" stroke="#000" stroke-opacity="0.02" transform="translate(22.666666666666664, 196.29909152447271) rotate(0, 22.666666666666664, 19.629909152447272)"  /><polyline points="22.666666666666664, 0, 45.33333333333333, 39.259818304894544, 0, 39.259818304894544, 22.666666666666664, 0" fill="#ddd" fill-opacity="0.07200000000000001" stroke="#000" stroke-opacity="0.02" transform="translate(45.333333333333336, 196.29909152447271) rotate(180, 22.666666666666664, 19.629909152447272)"  /><polyline points="22.666666666666664, 0, 45.33333333333333, 39.259818304894544, 0, 39.259818304894544, 22.666666666666664, 0" fill="#222" fill-opacity="0.11533333333333334" stroke="#000" stroke-opacity="0.02" transform="translate(68.0, 196.29909152447271) rotate(0, 22.666666666666664, 19.629909152447272)"  /><polyline points="22.666666666666664, 0, 45.33333333333333, 39.259818304894544, 0, 39.259818304894544, 22.666666666666664, 0" fill="#ddd" fill-opacity="0.12400000000000001" stroke="#000" stroke-opacity="0.02" transform="translate(90.66666666666666, 196.29909152447271) rotate(180, 22.666666666666664, 19.629909152447272)"  /></svg>