<svg xmlns="http://www.w3.org/2000/svg" width="226" height="393"><rect x="0" y="0" width="100%" height="100%" fill="rgb(63, 144, 77)"  /><polyline points="37.83333333333333, 0, 75.66666666666666, 65.52925555302251, 0, 65.52925555302251, 37.83333333333333, 0" fill="#ddd" fill-opacity="0.14133333333333334" stroke="#000" stroke-opacity="0.02" transform="translate(-37.83333333333333, 0.0) rotate(180, 37.83333333333333, 32.764627776511254)"  /><polyline points="37.83333333333333, 0, 75.66666666666666, 65.52925555302251, 0, 65.52925555302251, 37.83333333333333, 0" fill="#ddd" fill-opacity="0.14133333333333334" stroke="#000" stroke-opacity="0.02" transform="translate(189.16666666666663, 0.0) rotate(180, 37.83333333333333, 32.764627776511254)"  /><polyline points="37.83333333333333, 0, 75.66666666666666, 65.52925555302251, 0, 65.52925555302251, 37.83333333333333, 0" fill="#ddd" fill-opacity="0.08933333333333333" stroke="#000" stroke-opacity="0.02" transform="translate(0.0, 0.0) rotate(0, 37.83333333333333, 32.764627776511254)"  /><polyline points="37.83333333333333, 0, 75.66666666666666, 65.52925555302251, 0, 65.52925555302251, 37.83333333333333, 0" fill="#222" fill-opacity="0.13266666666666665" stroke="#000" stroke-opacity="0.02" transform="translate(37.83333333333333, 0.0) rotate(180, 37.83333333333333, 32.764627776511254)"  /><polyline points="37.83333333333333, 0, 75.66666666666666, 65.52925555302251, 0, 65.52925555302251, 37.83333333333333, 0" fill="#222" fill-opacity="0.15" stroke="#000" stroke-opacity="0.02" transform="translate(75.66666666666666, 0.0) rotate(0, 37.83333333333333, 32.764627776511254)"  /><polyline points="37.83333333333333, 0, 75.66666666666666, 65.52925555302251, 0, 65.52925555302251, 37.83333333333333, 0" fill="#222" fill-opacity="0.098" stroke="#000" stroke-opacity="0.02" transform="translate(113.49999999999999, 0.0) rotate(180, 37.83333333333333, 32.764627776511254)"  /><polyline points="37.83333333333333, 0, 75.66666666666666, 65.52925555302251, 0, 65.52925555302251, 37.83333333333333, 0" fill="#ddd" fill-opacity="0.07200000000000001" stroke="#000" stroke-opacity="0.02" transform="translate(151.33333333333331, 0.0) rotate(0, 37.83333333333333, 32.764627776511254)"  /><polyline points="37.83333333333333, 0, 75.66666666666666, 65.52925555302251, 0, 65.52925555302251, 37.83333333333333, 0" fill="#ddd" fill-opacity="0.07200000000000001" stroke="#000" stroke-opacity="0.02" transform="translate(-37.83333333333333, 65.52925555302251) rotate(0, 37.83333333333333, 32.764627776511254)"  /><polyline points="37.83333333333333, 0, 75.66666666666666, 65.52925555302251, 0, 65.52925555302251, 37.83333333333333, 0" fill="#ddd" fill-opacity="0.07200000000000001" stroke="#000" stroke-opacity="0.02" transform="translate(189.16666666666663, 65.52925555302251) rotate(0, 37.83333333333333, 32.764627776511254)"  /><polyline points="37.83333333333333, 0, 75.66666666666666, 65.52925555302251, 0, 65.52925555302251, 37.83333333333333, 0" fill="#222" fill-opacity="0.08066666666666666" stroke="#000" stroke-opacity="0.02" transform="translate(0.0, 65.52925555302251) rotate(180, 37.83333333333333, 32.764627776511254)"  /><polyline points="37.83333333333333, 0, 75.66666666666666, 65.52925555302251, 0, 65.52925555302251, 37.83333333333333, 0" fill="#ddd" fill-opacity="0.07200000000000001" stroke="#000" stroke-opacity="0.02" transform="translate(37.83333333333333, 65.52925555302251) rotate(0, 37.83333333333333, 32.764627776511254)"  /><polyline points="37.83333333333333, 0, 75.66666666666666, 65.52925555302251, 0, 65.52925555302251, 37.83333333333333, 0" fill="#222" fill-opacity="0.08066666666666666" stroke="#000" stroke-opacity="0.02" transform="translate(75.66666666666666, 65.52925555302251) rotate(180, 37.83333333333333, 32.764627776511254)"  /><polyline points="37.83333333333333, 0, 75.66666666666666, 65.52925555302251, 0, 65.52925555302251, 37.83333333333333, 0" fill="#222" fill-opacity="0.15" stroke="#000" stroke-opacity="0.02" transform="translate(113.49999999999999, 65.52925555302251) rotate(0, 37.83333333333333, 32.764627776511254)"  /><polyline points="37.83333333333333, 0, 75.66666666666666, 65.52925555302251, 0, 65.52925555302251, 37.83333333333333, 0" fill="#222" fill-opacity="0.11533333333333334" stroke="#000" stroke-opacity="0.02" transform="translate(151.33333333333331, 65.52925555302251) rotate(180, 37.83333333333333, 32.764627776511254)"  /><polyline points="37.83333333333333, 0, 75.66666666666666, 65.52925555302251, 0, 65.52925555302251, 37.83333333333333, 0" fill="#222" fill-opacity="0.13266666666666665" stroke="#000" stroke-opacity="0.02" transform="translate(-37.83333333333333, 131.05851110604502) rotate(180, 37.83333333333333, 32.764627776511254)"  /><polyline points="37.83333333333333, 0, 75.66666666666666, 65.52925555302251, 0, 65.52925555302251, 37.83333333333333, 0" fill="#222" fill-opacity="0.13266666666666665" stroke="#000" stroke-opacity="0.02" transform="translate(189.16666666666663, 131.05851110604502) rotate(180, 37.83333333333333, 32.764627776511254)"  /><polyline points="37.83333333333333, 0, 75.66666666666666, 65.52925555302251, 0, 65.52925555302251, 37.83333333333333, 0" fill="#222" fill-opacity="0.046" stroke="#000" stroke-opacity="0.02" transform="translate(0.0, 131.05851110604502) rotate(0, 37.83333333333333, 32.764627776511254)"  /><polyline points="37.83333333333333, 0, 75.66666666666666, 65.52925555302251, 0, 65.52925555302251, 37.83333333333333, 0" fill="#ddd" fill-opacity="0.10666666666666667" stroke="#000" stroke-opacity="0.02" transform="translate(37.83333333333333, 131.05851110604502) rotate(180, 37.83333333333333, 32.764627776511254)"  /><polyline points="37.83333333333333, 0, 75.66666666666666, 65.52925555302251, 0, 65.52925555302251, 37.83333333333333, 0" fill="#222" fill-opacity="0.046" stroke="#000" stroke-opacity="0.02" transform="translate(75.66666666666666, 131.05851110604502) rotate(0, 37.83333333333333, 32.764627776511254)"  /><polyline points="37.83333333333333, 0, 75.66666666666666, 65.52925555302251, 0, 65.52925555302251, 37.83333333333333, 0" fill="#ddd" fill-opacity="0.08933333333333333" stroke="#000" stroke-opacity="0.02" transform="translate(113.49999999999999, 131.05851110604502) rotate(180, 37.83333333333333, 32.764627776511254)"  /><polyline points="37.83333333333333, 0, 75.66666666666666, 65.52925555302251, 0, 65.52925555302251, 37.83333333333333, 0" fill="#222" fill-opacity="0.046" stroke="#000" stroke-opacity="0.02" transform="translate(151.33333333333331, 131.05851110604502) rotate(0, 37.83333333333333, 32.764627776511254)"  /><polyline points="37.83333333333333, 0, 75.66666666666666, 65.52925555302251, 0, 65.52925555302251, 37.83333333333333, 0" fill="#ddd" fill-opacity="0.12400000000000001" stroke="#000" stroke-opacity="0.02" transform="translate(-37.83333333333333, 196.58776665906754) rotate(0, 37.83333333333333, 32.764627776511254)"  /><polyline points="37.83333333333333, 0, 75.66666666666666, 65.52925555302251, 0, 65.52925555302251, 37.83333333333333, 0" fill="#ddd" fill-opacity="0.12400000000000001" stroke="#000" stroke-opacity="0.02" transform="translate(189.16666666666663, 196.58776665906754) rotate(0, 37.83333333333333, 32.764627776511254)"  /><polyline points="37.83333333333333, 0, 75.66666666666666, 65.52925555302251, 0, 65.52925555302251, 37.83333333333333, 0" fill="#222" fill-opacity="0.06333333333333334" stroke="#000" stroke-opacity="0.02" transform="translate(0.0, 196.58776665906754) rotate(180, 37.83333333333333, 32.764627776511254)"  /><polyline points="37.83333333333333, 0, 75.66666666666666, 65.52925555302251, 0, 65.52925555302251, 37.83333333333333, 0" fill="#222" fill-opacity="0.046" stroke="#000" stroke-opacity="0.02" transform="translate(37.83333333333333, 196.58776665906754) rotate(0, 37.83333333333333, 32.764627776511254)"  /><polyline points="37.83333333333333, 0, 75.66666666666666, 65.52925555302251, 0, 65.52925555302251, 37.83333333333333, 0" fill="#ddd" fill-opacity="0.03733333333333333" stroke="#000" stroke-opacity="0.02" transform="translate(75.66666666666666, 196.58776665906754) rotate(180, 37.83333333333333, 32.764627776511254)"  /><polyline points="37.83333333333333, 0, 75.66666666666666, 65.52925555302251, 0, 65.52925555302251, 37.83333333333333, 0" fill="#222" fill-opacity="0.028666666666666667" stroke="#000" stroke-opacity="0.02" transform="translate(113.49999999999999, 196.58776665906754) rotate(0, 37.83333333333333, 32.764627776511254)"  /><polyline points="37.83333333333333, 0, 75.66666666666666, 65.52925555302251, 0, 65.52925555302251, 37.83333333333333, 0" fill="#ddd" fill-opacity="0.07200000000000001" stroke="#000" stroke-opacity="0.02" transform="translate(151.33333333333331, 196.58776665906754) rotate(180, 37.83333333333333, 32.764627776511254)"  /><polyline points="37.83333333333333, 0, 75.66666666666666, 65.52925555302251, 0, 65.52925555302251, 37.83333333333333, 0" fill="#222" fill-opacity="0.08066666666666666" stroke="#000" stroke-opacity="0.02" transform="translate(-37.83333333333333, 262.11702221209003) rotate(180, 37.83333333333333, 32.764627776511254)"  /><polyline points="37.83333333333333, 0, 75.66666666666666, 65.52925555302251, 0, 65.52925555302251, 37.83333333333333, 0" fill="#222" fill-opacity="0.08066666666666666" stroke="#000" stroke-opacity="0.02" transform="translate(189.16666666666663, 262.11702221209003) rotate(180, 37.83333333333333, 32.764627776511254)"  /><polyline points="37.83333333333333, 0, 75.66666666666666, 65.52925555302251, 0, 65.52925555302251, 37.83333333333333, 0" fill="#222" fill-opacity="0.098" stroke="#000" stroke-opacity="0.02" transform="translate(0.0, 262.11702221209003) rotate(0, 37.83333333333333, 32.764627776511254)"  /><polyline points="37.83333333333333, 0, 75.66666666666666, 65.52925555302251, 0, 65.52925555302251, 37.83333333333333, 0" fill="#222" fill-opacity="0.098" stroke="#000" stroke-opacity="0.02" transform="translate(37.83333333333333, 262.11702221209003) rotate(180, 37.83333333333333, 32.764627776511254)"  /><polyline points="37.83333333333333, 0, 75.66666666666666, 65.52925555302251, 0, 65.52925555302251, 37.83333333333333, 0" fill="#222" fill-opacity="0.11533333333333334" stroke="#000" stroke-opacity="0.02" transform="translate(75.66666666666666, 262.11702221209003) rotate(0, 37.83333333333333, 32.764627776511254)"  /><polyline points="37.83333333333333, 0, 75.66666666666666, 65.52925555302251, 0, 65.52925555302251, 37.83333333333333, 0" fill="#ddd" fill-opacity="0.14133333333333334" stroke="#000" stroke-opacity="0.02" transform="translate(113.49999999999999, 262.11702221209003) rotate(180, 37.83333333333333, 32.764627776511254)"  /><polyline points="37.83333333333333, 0, 75.66666666666666, 65.52925555302251, 0, 65.52925555302251, 37.83333333333333, 0" fill="#222" fill-opacity="0.11533333333333334" stroke="#000" stroke-opacity="0.02" transform="translate(151.33333333333331, 262.11702221209003) rotate(0, 37.83333333333333, 32.764627776511254)"  /><polyline points="37.83333333333333, 0, 75.66666666666666, 65.52925555302251, 0, 65.52925555302251, 37.83333333333333, 0" fill="#ddd" fill-opacity="0.05466666666666667" stroke="#000" stroke-opacity="0.02" transform="translate(-37.83333333333333, 327.64627776511253) rotate(0, 37.83333333333333, 32.764627776511254)"  /><polyline points="37.83333333333333, 0, 75.66666666666666, 65.52925555302251, 0, 65.52925555302251, 37.83333333333333, 0" fill="#ddd" fill-opacity="0.05466666666666667" stroke="#000" stroke-opacity="0.02" transform="translate(189.16666666666663, 327.64627776511253) rotate(0, 37.83333333333333, 32.764627776511254)"  /><polyline points="37.83333333333333, 0, 75.66666666666666, 65.52925555302251, 0, 65.52925555302251, 37.83333333333333, 0" fill="#222" fill-opacity="0.11533333333333334" stroke="#000" stroke-opacity="0.02" transform="translate(0.0, 327.64627776511253) rotate(180, 37.83333333333333, 32.764627776511254)"  /><polyline points="37.83333333333333, 0, 75.66666666666666, 65.52925555302251, 0, 65.52925555302251, 37.83333333333333, 0" fill="#ddd" fill-opacity="0.05466666666666667" stroke="#000" stroke-opacity="0.02" transform="translate(37.83333333333333, 327.64627776511253) rotate(0, 37.83333333333333, 32.764627776511254)"  /><polyline points="37.83333333333333, 0, 75.66666666666666, 65.52925555302251, 0, 65.52925555302251, 37.83333333333333, 0" fill="#222" fill-opacity="0.06333333333333334" stroke="#000" stroke-opacity="0.02" transform="translate(75.66666666666666, 327.64627776511253) rotate(180, 37.83333333333333, 32.764627776511254)"  /><polyline points="37.83333333333333, 0, 75.66666666666666, 65.52925555302251, 0, 65.52925555302251, 37.83333333333333, 0" fill="#ddd" fill-opacity="0.07200000000000001" stroke="#000" stroke-opacity="0.02" transform="translate(113.49999999999999, 327.64627776511253) rotate(0, 37.83333333333333, 32.764627776511254)"  /><polyline points="37.83333333333333, 0, 75.66666666666666, 65.52925555302251, 0, 65.52925555302251, 37.83333333333333, 0" fill="#ddd" fill-opacity="0.05466666666666667" stroke="#000" stroke-opacity="0.02" transform="translate(151.33333333333331, 327.64627776511253) rotate(180, 37.83333333333333, 32.764627776511254)"  /></svg>