<svg xmlns="http://www.w3.org/2000/svg" width="100" height="100"><rect x="0" y="0" width="100%" height="100%" fill="rgb(161, 46, 128)"  /><g fill="#222" style="opacity:0.08066666666666666;" transform="translate(-24.046499999999998,-24.046499999999998) rotate(45, 24.046499999999998, 24.046499999999998)" ><rect x="17.0" y="0" width="17.0" height="51.0"  /><rect x="0" y="17.0" width="51.0" height="17.0"  /></g><g fill="#222" style="opacity:0.08066666666666666;" transform="translate(120.2325,-24.046499999999998) rotate(45, 24.046499999999998, 24.046499999999998)" ><rect x="17.0" y="0" width="17.0" height="51.0"  /><rect x="0" y="17.0" width="51.0" height="17.0"  /></g><g fill="#222" style="opacity:0.08066666666666666;" transform="translate(-24.046499999999998,120.23250000000002) rotate(45, 24.046499999999998, 24.046499999999998)" ><rect x="17.0" y="0" width="17.0" height="51.0"  /><rect x="0" y="17.0" width="51.0" height="17.0"  /></g><g fill="#222" style="opacity:0.08066666666666666;" transform="translate(120.2325,120.23250000000002) rotate(45, 24.046499999999998, 24.046499999999998)" ><rect x="17.0" y="0" width="17.0" height="51.0"  /><rect x="0" y="17.0" width="51.0" height="17.0"  /></g><g fill="#ddd" style="opacity:0.10666666666666667;" transform="translate(0.0,-12.023249999999999) rotate(45, 24.046499999999998, 24.046499999999998)" ><rect x="17.0" y="0" width="17.0" height="51.0"  /><rect x="0" y="17.0" width="51.0" height="17.0"  /></g><g fill="#ddd" style="opacity:0.10666666666666667;" transform="translate(0.0,132.25575000000003) rotate(45, 24.046499999999998, 24.046499999999998)" ><rect x="17.0" y="0" width="17.0" height="51.0"  /><rect x="0" y="17.0" width="51.0" height="17.0"  /></g><g fill="#222" style="opacity:0.08066666666666666;" transform="translate(24.046499999999998,-24.046499999999998) rotate(45, 24.046499999999998, 24.046499999999998)" ><rect x="17.0" y="0" width="17.0" height="51.0"  /><rect x="0" y="17.0" width="51.0" height="17.0"  /></g><g fill="#222" style="opacity:0.08066666666666666;" transform="translate(24.046499999999998,120.23250000000002) rotate(45, 24.046499999999998, 24.046499999999998)" ><rect x="17.0" y="0" width="17.0" height="51.0"  /><rect x="0" y="17.0" width="51.0" height="17.0"  /></g><g fill="#ddd" style="opacity:0.02;" transform="translate(48.093,-12.023249999999999) rotate(45, 24.046499999999998, 24.046499999999998)" ><rect x="17.0" y="0" width="17.0" height="51.0"  /><rect x="0" y="17.0" width="51.0" height="17.0"  /></g><g fill="#ddd" style="opacity:0.02;" transform="translate(48.093,132.25575000000003) rotate(45, 24.046499999999998, 24.046499999999998)" ><rect x="17.0" y="0" width="17.0" height="51.0"  /><rect x="0" y="17.0" width="51.0" height="17.0"  /></g><g fill="#222" style="opacity:0.028666666666666667;" transform="translate(72.1395,-24.046499999999998) rotate(45, 24.046499999999998, 24.046499999999998)" ><rect x="17.0" y="0" width="17.0" height="51.0"  /><rect x="0" y="17.0" width="51.0" height="17.0"  /></g><g fill="#222" style="opacity:0.028666666666666667;" transform="translate(72.1395,120.23250000000002) rotate(45, 24.046499999999998, 24.046499999999998)" ><rect x="17.0" y="0" width="17.0" height="51.0"  /><rect x="0" y="17.0" width="51.0" height="17.0"  /></g><g fill="#ddd" style="opacity:0.08933333333333333;" transform="translate(96.18599999999999,-12.023249999999999) rotate(45, 24.046499999999998, 24.046499999999998)" ><rect x="17.0" y="0" width="17.0" height="51.0"  /><rect x="0" y="17.0" width="51.0" height="17.0"  /></g><g fill="#ddd" style="opacity:0.08933333333333333;" transform="translate(96.18599999999999,132.25575000000003) rotate(45, 24.046499999999998, 24.046499999999998)" ><rect x="17.0" y="0" width="17.0" height="51.0"  /><rect x="0" y="17.0" width="51.0" height="17.0"  /></g><g fill="#ddd" style="opacity:0.05466666666666667;" transform="translate(-24.046499999999998,0.0) rotate(45, 24.046499999999998, 24.046499999999998)" ><rect x="17.0" y="0" width="17.0" height="51.0"  /><rect x="0" y="17.0" width="51.0" height="17.0"  /></g><g fill="#ddd" style="opacity:0.05466666666666667;" transform="translate(120.2325,0.0) rotate(45, 24.046499999999998, 24.046499999999998)" ><rect x="17.0" y="0" width="17.0" height="51.0"  /><rect x="0" y="17.0" width="51.0" height="17.0"  /></g><g fill="#222" style="opacity:0.06333333333333334;" transform="translate(0.0,12.02325) rotate(45, 24.046499999999998, 24.046499999999998)" ><rect x="17.0" y="0" width="17.0" height="51.0"  /><rect x="0" y="17.0" width="51.0" height="17.0"  /></g><g fill="#222" style="opacity:0.13266666666666665;" transform="translate(24.046499999999998,0.0) rotate(45, 24.046499999999998, 24.046499999999998)" ><rect x="17.0" y="0" width="17.0" height="51.0"  /><rect x="0" y="17.0" width="51.0" height="17.0"  /></g><g fill="#ddd" style="opacity:0.10666666666666667;" transform="translate(48.093,12.02325) rotate(45, 24.046499999999998, 24.046499999999998)" ><rect x="17.0" y="0" width="17.0" height="51.0"  /><rect x="0" y="17.0" width="51.0" height="17.0"  /></g><g fill="#ddd" style="opacity:0.02;" transform="translate(72.1395,0.0) rotate(45, 24.046499999999998, 24.046499999999998)" ><rect x="17.0" y="0" width="17.0" height="51.0"  /><rect x="0" y="17.0" width="51.0" height="17.0"  /></g><g fill="#ddd" style="opacity:0.07200000000000001;" transform="translate(96.18599999999999,12.02325) rotate(45, 24.046499999999998, 24.046499999999998)" ><rect x="17.0" y="0" width="17.0" height="51.0"  /><rect x="0" y="17.0" width="51.0" height="17.0"  /></g><g fill="#222" style="opacity:0.06333333333333334;" transform="translate(-24.046499999999998,24.0465) rotate(45, 24.046499999999998, 24.046499999999998)" ><rect x="17.0" y="0" width="17.0" height="51.0"  /><rect x="0" y="17.0" width="51.0" height="17.0"  /></g><g fill="#222" style="opacity:0.06333333333333334;" transform="translate(120.2325,24.0465) rotate(45, 24.046499999999998, 24.046499999999998)" ><rect x="17.0" y="0" width="17.0" height="51.0"  /><rect x="0" y="17.0" width="51.0" height="17.0"  /></g><g fill="#222" style="opacity:0.06333333333333334;" transform="translate(0.0,36.069750000000006) rotate(45, 24.046499999999998, 24.046499999999998)" ><rect x="17.0" y="0" width="17.0" height="51.0"  /><rect x="0" y="17.0" width="51.0" height="17.0"  /></g><g fill="#222" style="opacity:0.028666666666666667;" transform="translate(24.046499999999998,24.0465) rotate(45, 24.046499999999998, 24.046499999999998)" ><rect x="17.0" y="0" width="17.0" height="51.0"  /><rect x="0" y="17.0" width="51.0" height="17.0"  /></g><g fill="#ddd" style="opacity:0.14133333333333334;" transform="translate(48.093,36.069750000000006) rotate(45, 24.046499999999998, 24.046499999999998)" ><rect x="17.0" y="0" width="17.0" height="51.0"  /><rect x="0" y="17.0" width="51.0" height="17.0"  /></g><g fill="#ddd" style="opacity:0.08933333333333333;" transform="translate(72.1395,24.0465) rotate(45, 24.046499999999998, 24.046499999999998)" ><rect x="17.0" y="0" width="17.0" height="51.0"  /><rect x="0" y="17.0" width="51.0" height="17.0"  /></g><g fill="#ddd" style="opacity:0.14133333333333334;" transform="translate(96.18599999999999,36.069750000000006) rotate(45, 24.046499999999998, 24.046499999999998)" ><rect x="17.0" y="0" width="17.0" height="51.0"  /><rect x="0" y="17.0" width="51.0" height="17.0"  /></g><g fill="#222" style="opacity:0.028666666666666667;" transform="translate(-24.046499999999998,48.093) rotate(45, 24.046499999999998, 24.046499999999998)" ><rect x="17.0" y="0" width="17.0" height="51.0"  /><rect x="0" y="17.0" width="51.0" height="17.0"  /></g><g fill="#222" style="opacity:0.028666666666666667;" transform="translate(120.2325,48.093) rotate(45, 24.046499999999998, 24.046499999999998)" ><rect x="17.0" y="0" width="17.0" height="51.0"  /><rect x="0" y="17.0" width="51.0" height="17.0"  /></g><g fill="#ddd" style="opacity:0.07200000000000001;" transform="translate(0.0,60.11625000000001) rotate(45, 24.046499999999998, 24.046499999999998)" ><rect x="17.0" y="0" width="17.0" height="51.0"  /><rect x="0" y="17.0" width="51.0" height="17.0"  /></g><g fill="#ddd" style="opacity:0.05466666666666667;" transform="translate(24.046499999999998,48.093) rotate(45, 24.046499999999998, 24.046499999999998)" ><rect x="17.0" y="0" width="17.0" height="51.0"  /><rect x="0" y="17.0" width="51.0" height="17.0"  /></g><g fill="#ddd" style="opacity:0.07200000000000001;" transform="translate(48.093,60.11625000000001) rotate(45, 24.046499999999998, 24.046499999999998)" ><rect x="17.0" y="0" width="17.0" height="51.0"  /><rect x="0" y="17.0" width="51.0" height="17.0"  /></g><g fill="#ddd" style="opacity:0.12400000000000001;" transform="translate(72.1395,48.093) rotate(45, 24.046499999999998, 24.046499999999998)" ><rect x="17.0" y="0" width="17.0" height="51.0"  /><rect x="0" y="17.0" width="51.0" height="17.0"  /></g><g fill="#ddd" style="opacity:0.07200000000000001;" transform="translate(96.18599999999999,60.11625000000001) rotate(45, 24.046499999999998, 24.046499999999998)" ><rect x="17.0" y="0" width="17.0" height="51.0"  /><rect x="0" y="17.0" width="51.0" height="17.0"  /></g><g fill="#222" style="opacity:0.15;" transform="translate(-24.046499999999998,72.13949999999998) rotate(45, 24.046499999999998, 24.046499999999998)" ><rect x="17.0" y="0" width="17.0" height="51.0"  /><rect x="0" y="17.0" width="51.0" height="17.0"  /></g><g fill="#222" style="opacity:0.15;" transform="translate(120.2325,72.13949999999998) rotate(45, 24.046499999999998, 24.046499999999998)" ><rect x="17.0" y="0" width="17.0" height="51.0"  /><rect x="0" y="17.0" width="51.0" height="17.0"  /></g><g fill="#222" style="opacity:0.028666666666666667;" transform="translate(0.0,84.16274999999997) rotate(45, 24.046499999999998, 24.046499999999998)" ><rect x="17.0" y="0" width="17.0" height="51.0"  /><rect x="0" y="17.0" width="51.0" height="17.0"  /></g><g fill="#222" style="opacity:0.098;" transform="translate(24.046499999999998,72.13949999999998) rotate(45, 24.046499999999998, 24.046499999999998)" ><rect x="17.0" y="0" width="17.0" height="51.0"  /><rect x="0" y="17.0" width="51.0" height="17.0"  /></g><g fill="#ddd" style="opacity:0.10666666666666667;" transform="translate(48.093,84.16274999999997) rotate(45, 24.046499999999998, 24.046499999999998)" ><rect x="17.0" y="0" width="17.0" height="51.0"  /><rect x="0" y="17.0" width="51.0" height="17.0"  /></g><g fill="#222" style="opacity:0.098;" transform="translate(72.1395,72.13949999999998) rotate(45, 24.046499999999998, 24.046499999999998)" ><rect x="17.0" y="0" width="17.0" height="51.0"  /><rect x="0" y="17.0" width="51.0" height="17.0"  /></g><g fill="#ddd" style="opacity:0.02;" transform="translate(96.18599999999999,84.16274999999997) rotate(45, 24.046499999999998, 24.046499999999998)" ><rect x="17.0" y="0" width="17.0" height="51.0"  /><rect x="0" y="17.0" width="51.0" height="17.0"  /></g><g fill="#ddd" style="opacity:0.08933333333333333;" transform="translate(-24.046499999999998,96.18599999999998) rotate(45, 24.046499999999998, 24.046499999999998)" ><rect x="17.0" y="0" width="17.0" height="51.0"  /><rect x="0" y="17.0" width="51.0" height="17.0"  /></g><g fill="#ddd" style="opacity:0.08933333333333333;" transform="translate(120.2325,96.18599999999998) rotate(45, 24.046499999999998, 24.046499999999998)" ><rect x="17.0" y="0" width="17.0" height="51.0"  /><rect x="0" y="17.0" width="51.0" height="17.0"  /></g><g fill="#ddd" style="opacity:0.08933333333333333;" transform="translate(-24.046499999999998,-48.09299999999999) rotate(45, 24.046499999999998, 24.046499999999998)" ><rect x="17.0" y="0" width="17.0" height="51.0"  /><rect x="0" y="17.0" width="51.0" height="17.0"  /></g><g fill="#ddd" style="opacity:0.10666666666666667;" transform="translate(0.0,108.20924999999997) rotate(45, 24.046499999999998, 24.046499999999998)" ><rect x="17.0" y="0" width="17.0" height="51.0"  /><rect x="0" y="17.0" width="51.0" height="17.0"  /></g><g fill="#ddd" style="opacity:0.10666666666666667;" transform="translate(0.0,-36.06975) rotate(45, 24.046499999999998, 24.046499999999998)" ><rect x="17.0" y="0" width="17.0" height="51.0"  /><rect x="0" y="17.0" width="51.0" height="17.0"  /></g><g fill="#ddd" style="opacity:0.14133333333333334;" transform="translate(24.046499999999998,96.18599999999998) rotate(45, 24.046499999999998, 24.046499999999998)" ><rect x="17.0" y="0" width="17.0" height="51.0"  /><rect x="0" y="17.0" width="51.0" height="17.0"  /></g><g fill="#ddd" style="opacity:0.14133333333333334;" transform="translate(24.046499999999998,-48.09299999999999) rotate(45, 24.046499999999998, 24.046499999999998)" ><rect x="17.0" y="0" width="17.0" height="51.0"  /><rect x="0" y="17.0" width="51.0" height="17.0"  /></g><g fill="#ddd" style="opacity:0.07200000000000001;" transform="translate(48.093,108.20924999999997) rotate(45, 24.046499999999998, 24.046499999999998)" ><rect x="17.0" y="0" width="17.0" height="51.0"  /><rect x="0" y="17.0" width="51.0" height="17.0"  /></g><g fill="#ddd" style="opacity:0.07200000000000001;" transform="translate(48.093,-36.06975) rotate(45, 24.046499999999998, 24.046499999999998)" ><rect x="17.0" y="0" width="17.0" height="51.0"  /><rect x="0" y="17.0" width="51.0" height="17.0"  /></g><g fill="#222" style="opacity:0.11533333333333334;" transform="translate(72.1395,96.18599999999998) rotate(45, 24.046499999999998, 24.046499999999998)" ><rect x="17.0" y="0" width="17.0" height="51.0"  /><rect x="0" y="17.0" width="51.0" height="17.0"  /></g><g fill="#222" style="opacity:0.11533333333333334;" transform="translate(72.1395,-48.09299999999999) rotate(45, 24.046499999999998, 24.046499999999998)" ><rect x="17.0" y="0" width="17.0" height="51.0"  /><rect x="0" y="17.0" width="51.0" height="17.0"  /></g><g fill="#ddd" style="opacity:0.12400000000000001;" transform="translate(96.18599999999999,108.20924999999997) rotate(45, 24.046499999999998, 24.046499999999998)" ><rect x="17.0" y="0" width="17.0" height="51.0"  /><rect x="0" y="17.0" width="51.0" height="17.0"  /></g><g fill="#ddd" style="opacity:0.12400000000000001;" transform="translate(96.18599999999999,-36.06975) rotate(45, 24.046499999999998, 24.046499999999998)" ><rect x="17.0" y="0" width="17.0" height="51.0"  /><rect x="0" y="17.0" width="51.0" height="17.0"  /></g></svg>